<svg width="3853" height="1862" viewBox="0 0 3853 1862" fill="none" xmlns="http://www.w3.org/2000/svg">
<path d="M299.5 76H387H594H630.5V83H697.5L717 102.5V83H854L867.5 96.5V88L883.5 72L867 55.5L854 42.5L867.5 29V0.5H928L906.5 22H885L897 34L911 48L903.5 55.5L913.5 65.5L931 83L942 72H956V79.5L973 96.5L990 79.5V52.5H1018.5L1038 72L1030.5 79.5V93L1010.5 113H985.5L976.5 122H962L934 150H920.5L882.5 188V221L911 249.5H949L967.5 268H990H1018.5L1028 277.5V305L1054 331L1074.5 310.5L1064 300V284.5L1099 249.5L1070.5 221L1090.5 201L1077.5 188V172.5H1122L1131.5 163L1156.5 188H1179V213.5H1194.5L1207 226L1240.5 192.5L1325.5 277.5V284.5L1334 293H1345V310.5L1334 321.5H1312L1295.5 338H1214L1207 345V355H1194.5L1179 370.5H1174L1177 373.5L1160 390.5H1169L1180.5 379V373.5H1186L1192.5 367H1201L1211 357H1218.5H1238L1240.5 359.5L1242.5 361.5L1246.5 365.5L1243.5 368.5H1238L1232 374.5L1228 370.5H1220L1214 376.5H1235.5V387V395L1240.5 400H1248.5V405H1261.5L1266 409.5L1271 404.5L1273.5 407H1276.5V402.5L1280.5 398.5V395.5L1284 392V390.5L1287.5 387H1292V394.5L1288.5 398V400L1285.5 403H1282.5L1285.5 406L1288.5 403L1293.5 398L1297.5 402L1290 409.5H1280L1277.5 412H1281L1282.5 413.5H1276L1272 417.5H1264.5L1260 422H1254.5L1252 424.5H1247L1235.5 436H1232L1228 440L1222.5 434.5V424.5L1229 418H1234.5L1238 414.5H1243.5L1246.5 417.5L1252 412H1234.5L1238 408.5L1234.5 405L1225 414.5H1209.5V421L1204.5 426H1198.5H1189.5L1183 432.5H1173.5L1166.5 439.5V449V452.5L1163.5 455.5L1166.5 458.5L1171.5 463.5L1174.5 460.5V467H1168.5L1165 463.5L1160 468.5V464.5H1156.5V471H1144H1135L1130 476H1136H1143L1146 473H1151.5L1146 478.5H1141H1134L1131.5 481H1127V478.5L1124.5 481L1128 484.5V491.5L1117 502.5L1111 496.5V503L1115 507V513L1108.5 519.5V524.5L1104 529V516L1102 514V510L1099 507L1102.5 503.5L1100.5 501.5L1105.5 496.5L1102 493L1095.5 499.5L1097.5 501.5V510H1090.5L1095.5 515L1099 518.5H1092.5L1099 525H1094.5L1097.5 528V531.5L1101 535L1107.5 541.5V550.5L1102.5 555.5L1097.5 560.5V567H1087.5L1080 574.5H1072.5L1066 581L1041 606V614L1037.5 617.5V628L1041 631.5V647.5L1048 654.5V666.5L1054.5 673V696.5L1051 700V705H1046L1037.5 696.5L1033 692V685.5L1026.5 679V673L1020 666.5V644.5L1003.5 628L993 638.5L982.5 628H962L959 625L954.5 629.5L951 626H943L939.5 629.5H934.5H928L926 631.5H932.5L936 635L939.5 631.5L943 635L939.5 638.5L948 647L944.5 650.5H939.5L943 647L934.5 638.5V647.5L928 641V644.5H920.5L911 635L907.5 638.5H885L879 644.5L869 654.5H859.5L844.5 669.5V682.5L849.5 687.5V696.5L841 705V737V751L846.5 756.5V767.5L858.5 779.5V788L865 794.5H870L875 799.5L882.5 807L888.5 801H896.5L902 795.5H911V799.5H917.5V795.5L928 785V769.5L943 754.5H971V771L962.5 779.5V797L955 804.5V831L950.5 835.5H1003L1016 848.5V866.5L1013.5 869V880.5L1010 884V902L1012.5 904.5V912.5L1019.5 919.5V925.5L1028 934L1033 939H1042L1048 933H1054.5L1059.5 928H1064.5H1072L1076 932H1080L1089.5 941.5V946L1094.5 951V944L1100.5 938V928.5H1108V910.5L1114 904.5L1118 908.5L1127 899.5H1139L1150 888.5H1156V893.5L1150 899.5V903.5L1155 908.5V914L1148 921L1152.5 925.5V932L1156.5 936L1164 928.5L1161 925.5V910.5L1168 903.5V893.5L1173 888.5L1188 903.5L1198.5 914H1225L1234.5 923.5L1244.5 913.5H1268.5L1287 932V941L1330 984H1380L1399 1003V1029L1409 1039L1415.5 1045.5L1399 1062V1073.5L1384.5 1088L1389.5 1093L1400 1082.5H1409V1069.5H1428V1081L1421 1088H1409L1421 1100L1447.5 1073.5L1458.5 1084.5H1479.5L1495 1100H1527L1565.5 1138.5H1594.5V1195.5L1540.5 1249.5V1367.5L1511.5 1396.5H1468.5L1431.5 1433.5V1475.5L1409 1498V1512L1378 1543V1553L1362 1569H1346L1340.5 1563.5H1323.5L1315.5 1555.5V1543L1311.5 1539V1566.5L1336 1591V1599.5L1305 1630.5H1272.5L1266 1624V1656.5H1243.5V1688L1201 1730.5L1220.5 1750L1199.5 1771V1787L1189.5 1797V1815L1235.5 1861H1177.5L1119.5 1803V1743L1132 1730.5V1704L1140 1696V1666H1132V1583.5L1149 1566.5V1498L1161.5 1485.5V1433.5L1173 1422V1343.5L1101 1271.5V1249.5L1092 1240.5V1229L1074 1211V1195.5L1060.5 1182V1172L1041.5 1153V1126L1057 1110.5V1100H1044.5V1078L1057 1065.5V1051.5L1074 1034.5V1025.5L1087 1012.5V977V971L1081 965L1084 962L1074 952L1076 950V944L1068.5 936.5H1064.5H1059.5L1057 939V942L1053 946H1050.5V950L1054.5 954L1048 960.5L1041.5 954H1034.5V948H1028L1026 946H1023L1021 948L1018 945H1013.5L1010 941.5V935.5L1007.5 933L998 923.5L993.5 928L983 917.5L986.5 914V907.5L972.5 893.5V888L964.5 880L968.5 876L962.5 870L959.5 873H940.5L931 863.5H920L885.5 829H877L870 836H861L854.5 842.5L848 836H842L831.5 825.5H819.5L812 818H801L790 807H780L749 776L754.5 770.5V756.5L749 751V737L724.5 712.5L704 692V677L660.5 633.5V619.5L649 608H638V633.5L644.5 640L660.5 656V660.5L670 670V681L686.5 697.5V712.5L704 730L697 737L672.5 712.5V697.5L656 681H649L633 665H644.5V656L619.5 631V618.5L605.5 604.5V585.5L594 574H588L581.5 567.5H568V555.5L544 531.5V519.5L530.5 506V493L519.5 482L525 476.5V457.5L519.5 452V441.5L528.5 432.5V393L519.5 384V373H542L547 368L514 335H491.5L484.5 328L476.5 320L436.5 280H422.5L363 220.5H342.5L322 200H263L252.5 189.5L232.5 209.5H213.5L206.5 216.5H190.5V209.5H170.5L177.5 216.5L158 236H149L133.5 251.5H119.5L103.5 267.5H89L79 277.5H60.5L55 283H28.5L39.5 272H50.5L55 267.5H64.5L75 257H91L128 220H83.5L64.5 201H39.5L16.5 178L39.5 155H64.5L83.5 136H24.5L2 113.5H39.5H75L91 97.5L83.5 90H39.5L91 38.5H180L194.5 53H276.5L299.5 76Z" fill="#D9D9D9" stroke="black"/>
<path d="M3518.5 1277L3529.5 1266H3537.5L3554 1282.5H3569L3576 1275.5L3563.5 1263L3585.5 1241H3607V1234.5L3597 1224.5H3615L3627.5 1237H3652V1254L3647.5 1258.5V1270L3637.5 1280L3647.5 1290H3664.5L3695 1320.5L3714.5 1301V1244.5L3722 1237V1221.5H3730.5V1242.5L3736.5 1248.5V1271.5L3742.5 1277.5L3750 1270L3760 1280V1289L3765.5 1294.5V1320L3806 1360.5V1377.5L3852.5 1424V1522L3844.5 1530V1539.5L3824.5 1559.5V1575L3813 1586.5V1611.5H3788.5L3781 1619H3755.5L3748 1611.5L3735.5 1624V1619H3712.5L3694.5 1601V1594.5L3686.5 1586.5V1579H3671L3677.5 1572.5V1566.5L3673 1562L3667.5 1567.5V1575H3660.5L3658 1572.5L3663 1567.5V1558.5L3671 1550.5V1540L3649 1562L3603.5 1516.5H3577L3567 1526.5H3528L3497 1557.5H3447L3431.5 1573H3411.5L3395 1556.5L3407 1544.5V1523L3398 1514V1492.5L3390 1484.5V1459.5L3377.5 1447L3390 1434.5L3380.5 1425V1398.5L3418 1361H3435.5L3443 1353.5H3455.5L3479.5 1329.5V1315.5L3489 1306L3497 1314V1301H3506L3500 1295L3512.5 1282.5H3518.5V1277Z" fill="#D9D9D9" stroke="black"/>
<path d="M1011 730.5H1031V728H1042.5L1048 733.5H1056.5L1063.5 740.5H1074L1087 753.5H1098.5L1105.5 760.5V765.5H1114.5L1129 780H1082.5L1089.5 773V765.5H1080.5L1067 752L1058.5 760.5L1048 750V746H1031V738.5H1020.5L1013 746H1007.5L1001.5 752L995.5 746L1011 730.5Z" fill="#D9D9D9"/>
<path d="M1135.5 782V777.5H1146L1151 782.5L1156 777.5H1165.5L1170 782H1175.5V786.5H1182L1179.5 789V791.5H1188L1195.5 799L1191 803.5L1186.5 799H1175.5L1170 804.5L1167 801.5L1158.5 810L1151 802.5H1133L1129 806.5L1120 797.5H1146.5L1142.5 793.5V789L1135.5 782Z" fill="#D9D9D9"/>
<path d="M1078 797.5L1074 801.5L1081 808.5H1097.5L1099.5 806.5L1093.5 800.5H1088L1085 797.5H1078Z" fill="#D9D9D9"/>
<path d="M1208 800L1209.5 798.5H1211L1211.5 799H1225.5L1227.5 801V803.5L1224.5 806.5H1221.5L1220.5 807.5H1212L1208 803.5V800Z" fill="#D9D9D9"/>
<path d="M1031 730.5H1011L995.5 746L1001.5 752L1007.5 746H1013L1020.5 738.5H1031V746H1048V750L1058.5 760.5L1067 752L1080.5 765.5H1089.5V773L1082.5 780H1129L1114.5 765.5H1105.5V760.5L1098.5 753.5H1087L1074 740.5H1063.5L1056.5 733.5H1048L1042.5 728H1031V730.5ZM1135.5 777.5V782L1142.5 789V793.5L1146.5 797.5H1120L1129 806.5L1133 802.5H1151L1158.5 810L1167 801.5L1170 804.5L1175.5 799H1186.5L1191 803.5L1195.5 799L1188 791.5H1179.5V789L1182 786.5H1175.5V782H1170L1165.5 777.5H1156L1151 782.5L1152 783.5L1146 777.5H1135.5ZM1074 801.5L1078 797.5H1085L1088 800.5H1093.5L1099.5 806.5L1097.5 808.5H1081L1074 801.5ZM1209.5 798.5L1208 800V803.5L1212 807.5H1220.5L1221.5 806.5H1224.5L1227.5 803.5V801L1225.5 799H1211.5L1211 798.5H1209.5Z" stroke="black"/>
</svg>
