<?xml version="1.0" encoding="UTF-8"?><svg id="Layer_2" xmlns="http://www.w3.org/2000/svg" viewBox="0 0 230.05 330.77"><defs><style>.cls-1{fill:#ff4800;stroke:#000;stroke-miterlimit:10;}</style></defs><g id="Layer_17"><g><polygon class="cls-1" points="181.44 205.69 180.7 204.77 179.23 209.63 181.44 205.69"/><polygon class="cls-1" points="191.77 198.13 191.41 197.7 188.08 200.34 184.39 202.99 181.81 206.55 185.13 203.48 188.82 200.77 191.77 198.13"/><polygon class="cls-1" points="168.53 232.69 168.53 239.33 169.26 245.05 170.74 250.4 172.22 255.26 173.32 260.55 172.59 254.83 171.11 249.48 169.63 244.62 168.9 238.9 168.9 231.77 168.53 232.69"/><polygon class="cls-1" points="176.64 214.06 175.91 213.63 173.69 217.19 171.11 221.19 170 226.91 171.85 222.05 174.06 217.62 176.64 214.06"/><polygon class="cls-1" points="226.09 173.77 223.14 176.91 226.83 174.2 229.41 170.7 229.04 170.27 226.09 173.77"/><path class="cls-1" d="m160.78,325.25l.37-6.21.37-6.64-.74,2.64-.37,6.64v-6.64l-1.84-4.86,2.58-3.57v-6.64l-.37-7.07-.37-6.21,4.06-1.78,2.95-3.08-.74,6.21-1.48,4.86-1.48,5.29-1.11,5.78-.74,5.29-.37,3.14,1.11-5.35,1.11-5.72,1.11-5.35,1.48-5.29,1.85-4.43,2.21-4,1.85-4.86,1.85-4.86.37-6.21-.74-3.07-1.11,2.64-2.21-4.43-.74-5.78-1.84-4.86-1.11-5.29-1.85-4.92,1.85-4.43-.74-6.15-4.06-1.78-2.21-4.43,2.58,3.51,5.54.49,1.84-4.92.37-6.15-2.21-4,4.43.86,2.95-3.08-.37-6.21,5.17.86.74-.43,2.21-3.07-.37-6.21,1.11,1.35,4.06,1.72,1.48-4.86-1.48-5.29,2.58,4,1.85-4.43,4.06,2.64,4.06,1.29-3.32,2.71,3.69-2.21,2.95-3.57,4.8-.86,4.06-2.21,4.06-2.21,2.95-3.14,1.85-4.43,3.69-2.64,1.11-5.29.74-6.21,2.58-.46V.5H.5v169.77l159.47,159.47.81-4.49Zm-79.34-157.69l-2.58-.86-3.32-3.07,4.06,2.21,4.06-2.21-2.21,3.94Zm43.54,77.98l-3.69-2.71-1.11-6.15,3.32,3.07,2.21,4.43,1.48,5.29-2.21-3.94Z"/></g></g></svg>