<?xml version="1.0" encoding="UTF-8"?><svg id="Layer_2" xmlns="http://www.w3.org/2000/svg" viewBox="0 0 326.63 343.67"><defs><style>.cls-1{fill:#ecf44a;stroke:#000;stroke-miterlimit:10;}</style></defs><g id="Layer_16"><path class="cls-1" d="m326.13,261.4v-102.04l-3.85,1.55-4.06,1.72-3.69,2.71-3.32,2.64-4.8,1.29-5.54-.43-4.06,1.78-4.8,1.35-4.06-1.78h-5.54l4.06-2.21h-5.54l-3.69-2.21-4.43-2.21-4.43-1.35,2.58-4,3.32-3.07,1.11-4,.37-1.78,2.21-3.94,4.06-1.78,1.84-5.35,2.95-3.07,1.84,4.86,4.43,1.35-2.21,4.43h-5.54l-5.17-.92-3.32,3.14,1.11,5.72,4.8,1.35,4.43-1.35,3.32,2.71,2.58-4.43,3.69-2.21,4.06-2.21,4.8-1.35,2.95-3.07,2.58-2.21,3.32-2.71,4.06-2.21,5.54-.43,2.01.16v-62.59l-1.27-1.35-4.06-2.21-1.84-4.43-3.69-2.64-5.54.43,3.69,2.71,2.95,3.51,2.21,4,1.11,5.29-1.84,4.92-2.95,3.08-2.21,4-2.58,4-.37,6.64v6.64l.37,6.15-2.58,4-4.06,2.21-2.95,3.14-4.43,1.72-2.95.92-1.84-4.86-1.11-5.78-1.11-5.29-.74-5.78-2.21-4.86-3.32-2.64-4.8.86-4.8,1.35-2.95,3.51-2.21,4-4.06,2.64-4.8-1.29-1.84-4.43,1.84-4.92,4.43-1.72,2.58-3.57,2.95-3.57,2.58-3.51.74-6.64-.74-6.21-2.95-3.57,4.06-1.72-2.21-3.57-2.58-4.43-4.43-1.35-4.43-1.72-4.43-1.35-3.32-3.08-4.43-1.78-4.43-1.35-4.06-2.21-5.17.92-2.95,3.94,1.11,5.35-4.06,2.21-3.69,2.21-.37,6.21-1.84,4.86-2.58,3.51,1.48-4.86-2.58,4v-6.64l1.85-4.86-3.69,2.64-2.58,3.57-4.43,1.72-2.58,4-4.06,2.21v6.64l-1.48,5.35-2.21,3.94-.74,5.78-1.11,6.21.37,6.21,1.84,4.86,2.21,4.43,1.84,4.86.37,6.64-.74,6.21-1.48,4.86-2.21,4.43-2.58,3.57-2.21,4.43-2.95,3.51-3.69,2.21-4.06,1.78-4.8,1.35-4.43-1.35-2.95-3.57-1.85-4.86-2.21-4-1.85-4.86.74-6.21.74-6.15-1.84-4.92-.37-3.07-1.11-5.78,1.48-5.72,1.48-4.86,1.85-4.43v-7.13l2.58-3.94,1.11-5.35,1.48-5.29,2.21-4-.74-6.21-4.8.92-2.58,3.94-3.69,2.71v-7.13l3.32-3.07,2.95-3.57,2.21-3.94,2.58-3.57,2.58-4,2.58-4,2.95-3.07,1.84-4.86.74,6.21,3.32-2.71,4.06-1.72-1.48,5.29,4.43-2.21,4.06-1.78,2.58-4.43,5.54-.43,5.17-.43,4.43-1.78,4.43-1.78,4.8,1.35,4.8,1.29,3.32,2.71,4.43-1.78,5.17-.43,5.54.43,5.17.86-1.11-5.72-4.43-1.35-.37-6.64h-5.54l-4.43-1.78-5.54.43-2.58-3.51,1.84-4.86-5.54.43-4.43,1.29-5.17.92-5.54-.43-5.54.86-1.84-.43-4.06,2.21-4.43,1.78-3.32,3.08-5.17-.43-3.69-2.64-4.8,1.29-4.06-2.21-2.95-3.08-2.58-3.57-4.06-2.21-5.17-.86-4.8.86-4.43,1.78-1.48-5.29-2.95-3.14h-5.9l-2.95,3.14-4.8,1.29-3.69,2.64-5.17.92-5.17.43-4.06,2.21-3.69,2.21-4.8,1.78-2.58.86-4.8-1.29h-5.9l1.11-5.35-2.95-3.51-4.06,2.21-4.8.86-4.43,1.78-4.8,1.29-5.17.92-4.06-1.78,2.95-3.08,4.06-2.71,3.69-2.64,3.69-2.64,3.32-2.64,3.32-3.14,2.93-2.72H18.08l.13.07-4.06,2.21V.5H.5v342.67h243.85l81.77-81.77ZM58.43,82.49l-4.8-.86.37-.43,4.8.86,3.32,3.08-3.69-2.64Zm28.41,40.28l-.74-6.64h.74v6.64Zm75.28,200.62l-.37-6.64-2.95-3.57.74-5.72-1.48-4.86-2.21-4.43.37-.92h.37l2.21,4.43,1.48,4.86.37,6.21,2.21,4.43-.74,6.21Z"/></g></svg>