<?xml version="1.0" encoding="UTF-8"?><svg id="Layer_2" xmlns="http://www.w3.org/2000/svg" viewBox="0 0 330.76 264.37"><defs><style>.cls-1{fill:#005add;stroke:#000;stroke-miterlimit:10;}</style></defs><g id="Layer_28"><polygon class="cls-1" points="160.49 226.5 160.86 226.93 163.07 223 160.49 226.5"/><polygon class="cls-1" points="214.73 183.15 209.57 184.01 204.77 185.36 200.34 186.65 204.03 184.44 206.61 180.93 202.92 183.15 199.23 185.79 193.7 186.22 188.16 186.22 183.74 187.57 178.57 188.44 173.4 188.87 169.71 191.51 166.39 194.22 169.34 197.29 173.77 195.94 178.57 195.08 183.74 193.72 188.53 192.86 193.7 192 198.5 191.08 202.92 189.3 207.35 187.57 211.41 185.79 215.84 184.01 214.73 183.15"/><polygon class="cls-1" points="81.58 120.86 78.94 119.8 74.14 118.45 68.97 117.59 63.44 117.59 57.9 118.02 53.11 119.37 48.68 120.66 46.83 121.15 42.41 122.44 37.6 122.82 26.47 133.95 26.54 133.95 31.34 132.65 36.87 133.08 42.04 132.22 47.57 132.22 46.46 126.44 50.89 127.8 51.63 133.95 47.94 136.65 44.99 140.16 41.3 142.37 37.61 145.02 33.92 147.23 30.97 149.01 26.91 150.8 22.85 153.01 18.79 155.22 14.36 157.01 9.93 158.3 5.5 159.65 1.08 161.44 .5 161.67 .5 201.14 81.58 201.14 81.58 120.86"/><rect class="cls-1" x=".5" y="201.14" width="81.08" height="62.57"/><polygon class="cls-1" points="160.49 199.08 160.49 197.72 163.81 195.08 166.39 191.08 168.61 186.65 169.34 180.44 168.97 187.08 167.5 192 170.82 188.87 174.14 186.22 178.2 184.01 182.26 182.22 182.27 182.22 112.46 112.41 111.41 114.02 106.61 115.37 102.92 117.59 98.86 119.8 93.7 120.66 88.16 120.23 83.37 121.58 81.58 120.86 81.58 201.14 164.27 201.14 160.49 199.08"/><path class="cls-1" d="m164.27,201.14h-82.7v62.57h15.86l-.79-.43-2.21-4-4.8,1.78-1.48-2.64,1.48-5.35,3.32-2.64,2.21-4.43-1.84,4.86-.37,6.64,3.32,2.64,4.06,2.21,4.43,1.35h5.12l-2.54-2.64-3.32-3.14-.74-6.15,1.48,5.29,4.8,1.35-2.58-4-.74-5.78,2.21-4v-7.07l-2.95-3.08,4.8-1.35,4.43-1.78,2.21-3.94,3.69-2.71,2.21,4.43-3.32,2.71-4.43,1.72-1.84,4.43,2.58,3.57-3.69,2.64,4.43,1.35-3.69,2.64,3.32,2.64,3.69,2.21-4.8,1.35-2.95,3.07,3.32,3.14,2.95,3.08,3.69-2.64-.74,2.64h16.97l1.48-1.78,1.85-4.43.37-.43-2.58-4,1.48-5.29-3.69-2.21-2.21-4-1.48-5.29-2.58-4-1.48-4.86,1.48-4.92-.74,5.78,2.95,3.08,4.06,2.71,3.69,2.21,4.43,1.29,1.84,4.86,2.58-3.94,1.48-5.35,4.8-.86,1.11-5.78,3.69-2.21,1.84-4.86,2.58-3.57.74-6.15,1.48-4.92-2.95-3.51-.27-.15Zm-25.92,16.51l-4.43,1.35-2.95,3.08,2.58-3.51,4.43-1.78,3.32-2.64-2.95,3.51Z"/><polygon class="cls-1" points="181.35 79.62 80.8 79.62 57.53 102.89 61.96 102.52 66.76 101.23 71.93 100.73 77.09 99.87 83 99.87 87.42 101.23 90.75 103.87 95.54 102.95 97.76 99.01 92.59 99.44 89.27 96.31 84.1 96.8 88.53 95.45 93.7 94.58 97.39 97.23 101.45 95.02 106.24 94.09 110.67 92.37 115.1 91.02 119.53 89.66 122.85 86.59 123.59 86.16 121.37 90.16 117.68 92.8 113.62 95.02 116.21 99.01 114.36 103.87 113.99 110.08 112.46 112.41 182.27 182.22 186.87 180.98 186.87 74.3 186.77 74.2 181.35 79.62"/><polygon class="cls-1" points="255.32 155.22 259.01 157.44 260.86 162.3 256.43 164.08 250.89 164.08 248.31 160.08 246.1 155.66 243.88 151.66 239.82 149.94 237.98 144.59 240.93 141.51 243.51 137.51 240.93 133.52 242.65 130.08 186.87 74.3 186.87 180.98 187.06 180.93 190.75 178.23 196.28 177.8 201.82 177.8 205.51 175.58 210.67 176.93 215.47 175.58 221 175.58 225.8 174.29 226.91 168.94 228.75 164.08 233.55 164.94 233.18 171.58 237.98 170.29 241.3 167.65 244.62 164.51 246.1 169.86 250.53 168.51 255.32 167.16 260.12 166.3 262.33 161.87 262.33 160.51 260.12 156.09 255.32 155.22"/><polygon class="cls-1" points="186.87 74.3 186.87 74.1 186.77 74.2 186.87 74.3"/><polygon class="cls-1" points="330.23 71.52 329.06 67.34 262.4 .68 259.75 2.89 256.8 6.02 254.22 9.53 250.89 12.67 247.57 15.31 244.36 16.6 187.57 73.4 329.29 73.4 330.23 71.52"/><polygon class="cls-1" points="187.57 73.4 186.87 74.1 186.87 74.3 242.65 130.08 243.15 129.09 245.73 125.58 247.2 120.23 250.89 117.59 252.74 113.16 255.69 109.16 258.27 105.65 262.7 104.3 265.29 107.87 265.65 101.66 267.5 106.52 268.98 101.66 273.03 103.87 275.99 100.73 281.15 99.87 283 95.02 285.58 91.02 288.9 88.37 292.22 91.45 295.54 88.37 299.97 86.59 304.77 85.73 306.98 90.59 307.72 89.23 311.04 86.16 313.99 83.02 318.42 84.81 322.48 82.59 327.28 81.3 328.02 75.95 329.29 73.4 187.57 73.4"/><polygon class="cls-1" points="299.23 88.37 301.08 93.23 302.56 87.94 299.23 88.37"/></g></svg>