<?xml version="1.0" encoding="UTF-8"?><svg id="Layer_2" xmlns="http://www.w3.org/2000/svg" viewBox="0 0 245.1 186.32"><defs><style>.cls-1{fill:#00ff48;stroke:#000;stroke-miterlimit:10;}</style></defs><g id="Layer_22"><g><path class="cls-1" d="m230.64,95.85h.37l-1.76,4.64h15.36V.5H.75v160.88l2.58-.46-2.58,4,4.43,1.78-2.95,3.07,3.32-2.64,4.06-1.78,4.43-1.72,4.06-2.21,5.17-.49-.74-1.72-1.48-2.21,4.06-1.78-2.58,4,1.84.86,4.43-1.35h11.44l4.43,1.78,4.06,1.78,4.43,1.78,5.17.86,4.8-1.29,1.84-4.43,5.17-.92,5.17.92,2.21,3.94,3.69,2.71,4.06,2.21,1.84,4.86-4.43-1.78,1.48,1.78,4.43,1.78,4.43,1.29,4.8.92,2.58-3.57,4.06-2.21,4.06,2.21,3.32,3.08,1.48-5.29-.74-5.78,4.43,1.78,2.21,4.43,4.06,1.78,4.43,1.78,2.95,3.07-2.21,4.43,1.48-1.78,4.43-1.29,1.11-5.35-3.32-2.64-4.06-2.21-3.69-2.64-2.21-4,2.95-3.51,4.06-1.78v-6.64l-4.43,1.29-3.32,2.71-2.95-3.57,3.32-2.64-5.17.43-4.06,2.21-5.17-.86-2.95-3.57,2.95-3.07v-.49l4.8-1.29,3.32,2.64,4.8.86,4.06,2.21,3.69-2.21,2.58-3.94,5.17.43,4.06-2.21,4.06,2.21,5.54.43,4.8-1.35,4.43,1.35,1.11-6.21,3.32-2.64.37,6.21,1.11,5.72,5.17-.43,2.58-1.85v-42.64h56.54l1.76-4.64Zm-53.51-79.27l-4.8-.86.74-.92,4.8.92,4.06,1.78,3.69,2.64-4.06-1.78-4.43-1.78Z"/><polygon class="cls-1" points="73.81 164.49 73.07 164.06 68.65 165.35 73.81 164.49"/><polygon class="cls-1" points="142.45 152.56 142.08 152.06 141.34 158.71 142.45 152.56"/></g></g></svg>