<?xml version="1.0" encoding="UTF-8"?><svg id="Layer_2" xmlns="http://www.w3.org/2000/svg" viewBox="0 0 178.49 192.77"><defs><style>.cls-1{fill:#ff9d00;stroke:#000;stroke-miterlimit:10;}</style></defs><g id="Layer_23"><g><polygon class="cls-1" points="170.24 188.48 172.46 184.48 171.72 184.05 169.51 188.48 167.29 192.48 170.24 188.48"/><polygon class="cls-1" points="13.05 41.92 17.84 41 13.05 41.49 8.25 42.78 13.05 41.92"/><polygon class="cls-1" points="52.9 60.92 53.27 60.92 51.05 56.5 52.9 60.92"/><polygon class="cls-1" points="63.6 61.85 67.29 59.2 63.6 61.42 59.54 63.63 63.6 61.85"/><polygon class="cls-1" points="23.75 41 23.38 40.57 18.21 41 23.75 41"/><polygon class="cls-1" points="168.03 112.77 167.29 110.13 166.18 108.34 168.03 112.77"/><path class="cls-1" d="m154.01,190.26l4.43-1.35,5.17-.43h5.9l-.74-2.21,2.21-4.43.74-5.78,2.58-3.94,1.48-4.92.74-6.15.74-6.21.74-5.78-.37-6.64-1.11-5.72-2.21-4-1.84-4.86-1.11-4.43,2.21,4.43-1.84-4.43-1.48-5.35-1.84-4.43,1.11,4-2.21-4.43-1.84-4.43-1.84-4.43-1.85-4.86-1.48-5.35.37-6.64,2.58,4,1.11,5.35v6.64l1.11,2.64-.74-6.21,1.11-5.78-2.21-4.43-2.21-3.94-2.58-4-2.21-4.43-1.84-4.43-1.84-4.86-1.85-4.43-1.84-4.92-1.11-5.29-1.11-5.78-1.11-5.72-1.11-5.35-1.11-5.72v-6.64l2.21-4.43,1.85-4.43-4.06-1.78,4.8.43.74-6.21,1.48-4.86.92-2.43H57.41l-.08.22,2.21,4.43-2.58-4.43.08-.22H.5v42.64l1.11-.79,3.69-2.21-2.58,3.57,4.43-1.35,2.58-4,4.06-1.78-1.85,4.92h1.11l4.06-.92,5.54-.43,3.69-2.64,4.06.43,4.06,2.64-4.8.92,4.43,1.72,4.06,1.78,5.54-.43,2.58,4,3.32,3.08-4.06-2.21,2.95,3.14,3.69,2.64,1.11,5.72,4.43-.86h5.54l4.06-2.21,3.69-2.64,3.69-2.64,2.95-3.14h5.54l3.69,2.21,4.06,2.21,2.95,3.14,2.58,3.94,2.21,4,2.95,3.14,2.58,3.94,2.95,3.57,5.54.43,1.84,4.43,2.21,4.43-.37,6.21-1.11,5.78-1.48,5.29-.74,5.78v6.64l3.69,2.64,1.48-4.86-2.58-4,3.32,3.08,1.48,4.86-2.21,4-3.69,2.64,3.32,3.14,1.84,4.86,1.48,4.86,2.58,4,4.06,2.21-1.84-4.86,4.06,2.21-.37,6.64,3.69,2.21,2.21-1.78-1.11,5.29,1.11,5.35,1.11,5.72,1.11,5.35,5.17.86,4.06,1.78,1.85,4.86,1.84,4.43,2.58,4,2.21,4-4.43-1.35,2.95,3.57ZM63.97,31.28l-2.21-4.43,2.95,3.08-.74,1.35Z"/></g></g></svg>