<?xml version="1.0" encoding="UTF-8"?><svg id="Layer_2" xmlns="http://www.w3.org/2000/svg" viewBox="0 0 960.71 615.6"><defs><style>.cls-1{stroke:#fff;stroke-miterlimit:10;}</style></defs><g id="Layer_35"><polygon class="cls-1" points="722.76 80.21 717.22 79.71 712.06 79.28 714.27 75.29 717.96 72.64 720.91 69.14 723.13 65.14 723.87 59.36 722.39 64.22 720.18 68.64 717.22 71.78 713.9 74.85 710.58 77.5 706.15 79.28 700.25 78.85 695.45 80.21 695.08 86.36 692.13 89.92 688.81 92.57 691.39 91.28 694.71 88.57 698.04 85.49 703.2 86.36 700.25 89.49 696.19 91.28 692.13 93.49 688.44 96.13 684.01 97.43 679.59 97.92 683.64 95.7 687.7 93.49 688.44 92.57 684.38 94.78 679.22 95.7 673.68 96.13 668.52 95.21 664.09 93.92 662.61 88.57 660.03 85.49 665.19 85.49 661.14 83.71 656.71 82.42 650.8 82.42 645.64 82.85 640.84 83.71 635.67 84.63 630.88 85.93 626.82 87.71 622.39 89.49 617.22 89.92 613.53 92.57 610.21 95.21 606.52 97.43 601.73 98.78 596.93 99.64 591.76 100.99 586.96 101.42 582.17 102.78 577.74 104.07 572.94 105.42 568.15 106.77 564.09 108.5 560.77 108.07 557.44 105.42 553.39 103.21 556.71 105.85 553.75 108.99 558.92 109.42 563.35 111.2 567.78 109.85 569.25 115.14 564.09 114.28 559.66 113.42 554.49 112.06 553.02 107.64 550.8 102.78 548.96 100.99 544.16 102.35 539.73 100.56 535.67 98.35 533.09 95.21 527.92 95.7 522.76 95.21 518.7 97.43 522.39 94.78 527.55 94.35 522.76 93 518.33 94.78 515.38 97.92 511.69 100.56 506.52 101.42 500.99 101.42 498.03 104.99 495.45 108.5 490.65 107.64 486.23 105.42 482.54 107.2 479.21 104.07 483.27 102.35 486.96 99.64 484.75 95.21 480.32 96.56 475.52 95.7 471.1 94.35 465.93 95.21 462.61 92.14 461.5 86.85 459.29 86.85 458.55 84.14 453.75 82.85 449.69 81.07 455.23 81.5 452.65 77.5 447.85 76.64 450.43 72.64 452.28 68.21 453.38 62.49 456.71 59.79 453.02 57.14 458.18 58.06 460.03 53.14 465.93 53.64 467.04 48.29 469.62 44.29 473.68 46.5 478.11 45.21 480.69 41.21 481.8 35.92 477 34.57 471.47 34.57 466.67 33.22 468.14 27.93 467.41 21.72 463.35 19.5 467.78 21.29 470.73 17.72 474.05 14.21 473.68 8 472.2 2.71 475.89 .5 473.31 .5 469.25 2.71 464.82 4.44 459.66 4.93 456.34 7.57 453.38 11.57 450.43 14.65 446.37 16.43 440.84 17.29 435.3 17.29 430.51 18.21 426.08 19.93 422.39 22.64 421.28 27.93 425.34 29.71 427.55 25.72 430.88 22.64 435.3 21.29 439.73 19.07 443.79 21.29 448.22 19.93 453.38 19.07 458.92 19.5 453.75 20.43 448.59 20.86 443.79 22.15 441.58 26.58 443.42 31.5 438.99 33.22 438.99 26.58 435.67 29.71 431.61 31.5 427.55 34.14 422.39 33.22 417.22 32.79 416.85 39.43 416.48 45.64 420.54 47.86 421.65 53.14 417.59 51.42 417.96 57.57 416.48 62.49 422.02 62.49 425.71 64.71 429.03 67.35 429.77 73.99 424.97 75.29 429.03 77.07 429.4 83.28 433.09 86.36 435.67 89.92 433.46 93.92 428.66 95.21 431.98 97.92 434.2 102.35 437.52 104.99 440.1 108.99 444.9 109.85 447.85 113.42 450.8 116.49 455.23 118.27 450.43 116.92 447.48 113.85 444.53 110.28 439.36 109.85 434.2 110.71 430.14 108.99 426.82 111.63 426.82 118.27 425.71 123.99 424.6 118.27 420.17 116.92 419.07 122.7 415.38 120.49 414.27 114.71 409.1 114.28 404.31 114.71 398.4 114.71 394.34 116.49 391.39 120.06 393.24 124.49 398.4 125.35 394.71 127.13 390.28 125.35 387.33 122.27 382.54 121.35 377.37 122.27 372.2 122.7 366.67 122.7 364.82 123.13 364.45 123.13 360.03 124.92 355.97 126.7 352.65 129.78 349.32 132.42 346 134.63 351.54 131.99 352.65 133.77 354.49 138.63 357.07 142.2 360.4 145.27 361.5 146.13 362.98 146.63 362.61 147.49 363.72 148.35 360.76 151.49 356.7 153.7 353.01 154.99 355.97 152.35 360.4 151.05 362.61 147.49 361.5 146.13 359.66 145.7 354.86 147.06 351.17 149.27 348.22 152.78 352.28 154.99 347.85 153.7 344.9 150.13 343.79 144.84 346 140.85 344.53 135.56 341.58 136.85 337.15 135.06 335.3 139.98 334.2 145.7 332.72 150.56 330.14 154.56 327.55 158.13 324.23 161.2 319.8 162.99 319.8 166.98 316.48 168.77 318.33 168.27 320.54 167.41 324.23 169.2 327.55 171.84 322.02 172.27 317.96 170.06 315.38 170.06 317.22 169.2 316.48 168.77 315.75 169.2 312.05 171.41 316.85 172.7 320.54 174.92 323.49 178.48 319.8 176.27 316.11 173.63 310.58 174.06 306.52 175.84 310.21 178.48 315.01 179.84 319.07 178.05 323.86 179.35 326.82 182.91 322.76 180.7 317.22 180.7 312.05 180.27 306.52 179.84 302.09 181.13 297.29 182.48 293.24 184.7 289.18 186.48 285.12 188.2 280.69 189.55 275.89 190.42 270.73 190.91 265.93 192.2 262.24 194.41 262.24 201.49 261.87 207.7 262.61 213.48 259.29 216.12 255.6 218.77 251.54 220.55 246.74 221.9 241.94 222.76 237.52 224.12 233.09 226.33 229.03 228.05 228.29 233.84 233.09 235.19 228.29 236.05 224.6 238.26 219.8 239.62 216.48 238.26 211.32 237.83 205.78 237.4 200.98 236.48 196.56 234.7 195.82 228.98 191.02 227.62 186.22 228.98 180.32 228.98 181.8 234.27 184.75 237.4 186.96 241.83 188.81 246.69 188.07 252.9 189.18 258.19 184.01 258.62 180.32 255.98 178.11 260.4 173.31 259.54 170.36 256.41 169.25 257.33 164.82 259.05 160.76 260.83 157.81 257.33 154.86 254.19 151.54 251.55 146.37 251.98 141.57 253.33 138.25 256.41 133.82 257.76 130.13 255.55 126.08 257.33 120.54 257.76 116.11 259.54 112.05 261.76 114.27 266.18 119.06 265.26 123.49 263.97 121.28 267.91 116.11 268.4 120.91 269.26 123.49 273.26 117.96 273.26 113.16 274.55 118.33 275.47 121.65 278.55 124.6 281.68 127.18 278.12 131.98 278.98 135.67 281.68 140.84 282.54 144.9 284.33 149.69 282.97 151.17 288.33 155.97 286.97 161.13 287.83 156.33 288.76 161.13 290.05 166.3 290.54 167.04 296.69 172.57 296.69 177 295.4 180.69 297.61 176.26 296.26 174.05 300.69 177.37 303.82 177.37 304.25 174.78 307.76 177.74 310.9 180.69 314.4 183.27 318.4 186.96 320.61 190.65 322.83 195.45 324.18 197.66 328.18 199.88 332.61 198.03 337.03 200.98 340.54 196.92 340.97 200.62 343.18 204.3 345.89 207.26 348.97 208.73 354.25 210.58 359.17 212.05 364.03 209.84 360.04 207.63 355.61 206.15 350.75 202.83 348.1 199.14 345.4 197.66 350.75 196.92 356.47 196.19 362.68 195.45 368.46 199.51 370.68 195.82 372.89 194.71 379.1 193.97 384.82 192.87 390.17 191.39 395.46 190.28 400.75 187.7 404.75 183.27 406.53 180.69 406.96 176.26 408.31 170.73 408.74 166.3 406.96 161.13 406.1 156.7 404.75 152.64 406.96 148.22 405.67 143.79 403.89 138.99 402.96 133.82 403.46 129.03 404.75 124.6 405.67 119.06 406.1 115.01 405.67 110.58 404.32 105.41 403.89 100.61 402.1 95.45 401.67 90.28 401.24 86.59 398.54 82.9 400.32 77 400.75 72.2 401.67 66.3 401.24 60.76 401.24 55.23 401.24 51.54 399.03 47.48 396.81 43.42 395.03 38.25 395.46 37.88 396.32 34.56 399.46 30.5 401.24 28.66 406.1 24.23 407.39 19.8 409.17 14.27 409.17 10.95 411.82 7.26 414.53 5.78 419.81 9.84 422.03 13.53 424.24 12.79 430.45 17.59 429.1 15 432.67 18.69 435.31 16.11 438.39 20.91 437.53 17.22 440.17 15 444.17 18.33 446.81 17.96 448.17 15 451.67 16.48 457.02 17.59 462.74 19.06 468.09 20.54 472.95 19.8 478.73 18.33 484.02 22.02 481.81 18.69 484.45 17.22 489.31 15.74 494.66 15 500.87 13.16 505.3 11.31 510.16 9.47 515.02 7.62 519.45 3.93 522.09 2.83 527.44 2.09 533.16 .61 538.94 4.67 539.8 9.47 538.51 11.68 534.08 14.27 530.09 13.16 536.3 10.58 539.8 7.26 542.45 9.47 546.88 13.53 545.15 17.96 543.37 20.17 547.8 15.37 546.88 17.22 551.3 16.48 557.52 16.85 563.73 16.85 570.37 16.48 577.01 14.64 581.87 13.9 587.65 17.96 585.44 22.75 584.08 27.55 585.01 32.72 585.87 37.15 587.65 41.94 586.73 45.63 584.08 49.69 582.3 54.12 581.87 59.65 582.3 62.98 579.66 64.82 584.51 68.51 586.73 71.83 589.43 75.15 592.51 78.47 589.86 75.52 592.94 74.05 598.29 76.63 601.8 78.84 606.22 81.43 609.79 85.85 611.57 89.54 614.22 94.71 615.08 98.4 612.87 99.88 608.01 102.46 604.01 107.26 602.72 112.42 602.23 116.48 600.01 119.8 596.94 119.8 596.51 124.97 595.58 130.13 595.15 135.67 595.15 141.2 595.58 146.37 594.72 151.54 594.29 156.7 595.15 162.24 595.58 165.56 592.51 170.73 592.94 175.89 593.37 178.47 589.86 181.06 585.44 182.53 581.01 185.49 577.44 189.54 575.23 192.5 572.15 198.03 572.15 203.2 571.72 208 570.37 207.26 565.08 208.73 560.16 209.84 554.44 212.42 550.44 215.38 547.37 219.07 545.15 223.49 543.37 226.81 540.23 229.4 536.73 224.97 534.94 222.02 531.87 219.43 527.87 217.96 522.52 217.22 516.8 219.43 512.8 221.65 508.38 224.6 505.3 226.81 501.3 229.77 497.74 233.09 494.66 235.67 490.66 235.67 490.23 237.88 486.24 242.68 484.88 246 481.81 243.79 477.81 246.74 474.3 250.8 472.09 255.23 470.74 260.02 469.38 264.82 468.52 269.62 467.17 274.42 466.31 277.74 463.23 281.06 460.53 285.12 458.31 289.18 456.1 293.24 453.89 296.93 452.16 300.62 449.46 301.72 443.74 299.88 438.88 303.94 436.67 300.62 433.53 298.77 430.88 296.93 426.46 297.66 420.25 299.51 415.39 302.09 411.39 305.78 409.17 309.84 407.39 313.9 405.18 317.22 402.1 313.53 404.75 316.85 401.67 322.39 401.67 326.08 404.32 331.61 404.75 334.93 407.39 337.15 402.96 341.21 405.18 344.53 402.53 348.59 404.32 345.63 407.88 351.17 407.39 353.38 411.39 358.55 412.31 361.87 415.39 366.67 414.53 372.2 414.03 377 412.74 381.8 411.82 383.64 406.96 387.7 404.75 391.02 401.67 393.97 399.03 398.4 397.24 402.83 395.46 403.57 395.03 408.73 394.6 413.53 393.25 417.22 390.6 419.44 386.6 423.13 384.39 425.71 379.96 429.77 378.18 434.93 377.75 440.1 378.61 444.53 379.96 448.22 382.61 451.91 385.25 455.97 387.03 461.13 387.96 464.82 390.17 467.04 394.11 467.78 400.32 469.99 404.75 472.2 408.74 474.05 413.6 473.31 419.38 478.85 419.81 481.06 424.24 484.75 426.46 487.7 430.02 488.44 435.31 493.24 434.45 497.67 436.17 500.99 439.31 503.2 443.31 503.57 443.31 507.63 445.52 510.95 448.17 513.53 452.16 516.85 454.81 520.17 457.88 522.76 461.45 527.55 462.74 531.25 464.96 535.3 467.17 540.47 466.31 545.27 467.66 550.43 468.52 553.02 472.09 555.6 475.6 558.55 479.16 563.72 480.02 564.46 485.81 569.25 484.88 574.05 483.59 577 487.1 578.85 491.09 577 495.95 577.37 495.95 581.43 497.74 585.12 500.38 588.81 502.59 592.5 500.38 596.19 503.09 597.67 507.95 599.14 513.23 601.73 517.23 603.57 521.66 604.31 527.44 606.15 532.3 606.89 538.51 602.09 539.37 600.99 544.66 598.77 549.09 595.45 552.23 594.71 557.95 597.3 561.51 602.83 561.51 605.42 560.16 606.89 555.3 609.84 551.8 613.53 549.58 616.49 546.45 615.75 540.23 617.96 535.81 622.02 533.59 627.56 533.16 629.77 529.16 629.03 523.01 627.56 518.09 623.5 515.88 619.81 513.23 615.38 511.94 615.75 505.73 617.22 500.38 619.81 496.88 622.39 492.88 624.97 489.31 629.77 488.45 632.72 491.52 637.15 493.31 642.32 494.23 647.11 495.09 649.7 498.66 650.8 504.38 654.12 507.02 658.92 508.38 660.03 502.59 661.14 497.31 658.92 493.31 655.97 489.8 651.91 487.59 648.96 484.45 647.48 483.16 643.42 481.38 639 479.59 635.3 477.38 631.98 474.3 627.92 472.09 623.5 470.74 619.07 468.95 615.01 467.17 610.58 465.45 606.52 463.66 602.46 461.88 600.99 456.1 605.05 453.89 606.52 449.03 602.09 447.74 596.93 448.17 591.39 448.6 585.86 448.17 580.69 447.24 576.63 445.52 572.57 443.31 569.62 440.17 565.93 437.1 562.98 434.45 559.66 431.32 556.71 427.81 554.49 423.81 552.65 418.95 551.54 413.6 549.33 409.17 547.48 404.75 544.9 400.75 540.47 399.03 536.78 396.81 533.46 394.11 529.77 391.46 525.34 389.68 522.02 387.03 519.44 384.82 516.48 381.31 515.01 375.96 514.27 370.24 517.22 367.11 520.17 363.6 517.22 360.47 515.75 355.61 514.27 350.32 516.85 346.75 522.02 347.18 526.08 345.4 530.14 343.18 533.46 340.54 538.63 339.68 543.05 341.46 547.11 339.25 548.96 344.11 546.74 345.4 544.53 349.83 545.64 355.61 548.22 359.6 550.8 363.11 553.75 366.25 556.71 362.68 559.29 359.17 561.5 354.75 564.09 351.18 568.88 352.53 571.84 356.04 575.53 358.25 577 363.11 577 370.24 579.95 373.32 583.27 376.39 586.6 379.53 590.29 381.75 585.86 379.96 582.91 383.04 585.86 387.03 588.81 390.17 592.13 392.82 595.45 395.46 599.51 397.67 601.73 402.1 606.52 402.96 612.06 402.96 616.85 404.32 621.28 406.1 625.34 407.88 628.66 410.96 632.35 413.17 635.67 416.25 639 418.95 642.69 421.6 638.26 420.25 634.2 417.6 629.03 418.03 633.83 419.38 637.52 421.6 642.32 422.89 647.48 423.38 650.8 426.46 654.86 428.24 657.81 431.32 662.24 433.1 666.3 435.31 669.99 437.96 672.94 441.09 675.9 444.17 678.48 448.17 682.54 450.38 685.49 450.38 687.34 454.38 685.86 459.67 682.91 462.74 685.86 466.31 684.38 471.6 685.86 476.95 682.54 480.02 682.91 486.24 685.12 490.23 682.91 494.66 686.23 497.31 690.29 499.52 694.35 501.73 696.19 505.73 697.67 511.45 701.36 514.16 702.83 519.45 705.42 523.01 709.48 525.23 712.43 528.3 715.38 531.87 719.44 530.09 722.02 534.08 717.59 532.73 714.64 535.81 718.33 538.02 721.28 541.59 723.13 546.01 724.97 550.87 726.45 550.01 730.88 548.23 736.04 549.09 740.84 548.23 746.74 548.66 751.54 549.58 756.34 548.66 760.77 550.01 764.09 553.09 768.89 554.01 772.21 557.08 766.67 557.08 762.98 559.3 759.29 557.08 754.86 555.3 750.07 554.01 746.38 551.8 741.95 550.01 738.26 552.23 734.57 554.87 729.77 554.01 728.29 559.3 723.87 561.08 726.45 564.59 729.03 568.59 732.72 571.23 735.67 574.37 736.78 580.09 734.57 584.08 736.41 588.51 738.26 592.94 742.69 594.72 743.05 588.08 748.22 587.22 750.44 591.16 752.65 595.58 753.02 601.8 755.97 604.93 755.97 600.94 757.08 595.58 760.77 593.37 763.72 596.51 766.67 599.58 771.84 600.5 768.89 597.37 768.89 590.3 767.78 585.44 765.2 581.01 762.98 577.01 762.24 571.23 766.67 572.58 770.36 574.8 772.21 579.23 775.16 576.15 778.85 573.44 774.42 571.72 772.21 567.29 771.47 561.51 775.9 559.73 781.43 560.16 785.49 562.37 788.81 565.08 791.39 569.02 793.24 564.16 793.24 563.73 792.13 558.44 791.76 552.23 787.7 550.01 783.28 548.23 779.96 545.58 775.9 543.8 772.21 541.16 768.89 538.02 764.09 537.16 760.4 534.51 765.2 533.16 766.3 527.87 763.72 523.87 767.41 520.8 771.47 523.01 772.94 527.87 775.53 523.87 772.94 519.88 769.99 516.37 766.3 514.16 764.83 509.24 761.87 506.16 761.87 505.73 758.92 502.59 758.55 495.95 758.55 489.31 762.24 486.67 767.04 485.81 765.56 491.09 769.25 493.74 773.68 495.52 775.53 499.95 778.48 503.52 783.65 503.09 779.59 501.3 778.85 495.09 783.65 495.95 786.6 499.95 791.76 500.38 788.07 497.74 784.75 495.09 788.07 492.02 792.13 493.74 796.19 495.95 800.62 497.31 797.67 494.23 793.61 492.45 788.81 491.09 787.34 486.24 784.75 482.24 788.81 480.45 793.24 482.24 797.3 480.45 800.25 476.95 805.42 476.52 809.48 478.24 813.54 476.52 817.23 474.3 821.28 476.03 826.45 477.38 831.25 478.24 836.78 478.73 839.73 481.81 840.47 484.88 845.64 485.81 851.17 485.81 855.6 487.59 851.54 489.31 847.48 491.52 844.16 494.23 844.53 500.87 847.11 496.88 850.8 494.23 853.76 491.09 857.45 488.45 861.88 487.1 865.93 484.88 869.62 482.67 872.58 479.16 874.42 474.74 879.59 473.81 884.38 475.17 888.07 472.52 893.61 472.52 898.78 472.09 901.73 475.17 907.26 475.17 910.95 472.52 909.48 467.17 905.05 465.88 900.62 464.1 896.56 462.31 892.5 460.1 889.18 457.02 886.97 453.03 886.6 446.38 886.23 445.03 883.28 441.52 881.06 437.1 878.11 433.96 874.05 432.24 878.11 430.02 879.96 425.6 883.65 423.38 883.65 416.74 885.12 411.39 888.07 408.31 892.13 406.1 897.67 406.1 900.62 402.96 899.88 396.32 900.62 392.82 901.36 386.6 901.36 379.96 904.68 376.89 907.26 372.89 903.94 375.96 905.79 371.54 908.37 367.54 906.52 363.11 910.58 360.9 912.8 365.32 909.48 368.03 914.27 367.11 919.44 366.25 924.24 365.32 925.34 359.6 925.34 354.75 927.56 350.75 924.24 347.61 923.87 341.46 928.3 343.18 930.88 339.25 935.31 337.9 936.78 337.9 940.1 335.25 943.06 331.68 946.38 328.61 948.96 325.04 951.54 321.54 953.76 317.11 957.82 315.32 959.63 315.11 723.99 79.47 722.76 80.21"/></g></svg>