<?xml version="1.0" encoding="UTF-8"?><svg id="Layer_2" xmlns="http://www.w3.org/2000/svg" viewBox="0 0 1627.78 2045.57"><defs><style>.cls-1{stroke:#fff;stroke-miterlimit:10;}</style></defs><g id="Layer_34"><path class="cls-1" d="m1172.97,176.32l-3.69-2.64-4.8-.92,1.11-4.43,4.43,1.35-2.58-3.57-5.17.49-5.17.43-4.06-2.21-4.06-1.78-3.69,2.64-4.06,1.78h-1.48l-4.06,1.35,2.95-2.71,4.06-2.21-4.43,1.35-4.43,1.78-4.43,1.29-2.95,3.57,1.84,1.35-4.8-1.35-4.06,1.78-3.69,2.64-3.32,2.64-3.69,2.64-4.06,2.21-4.8.92h-1.48l-4.06-2.21-3.69-2.64-4.43-1.35-5.17-.43-5.17-.92-4.43-1.72-5.17-.49-4.8-1.29-2.58-3.57-4.8-.86-4.43-2.21-5.17-.43-4.8-.92-5.54-.86-4.43-1.35-4.8-1.29-5.17,1.29-4.43,1.35-5.17.86-3.32-3.07v-.92l-2.21-4.43-1.84-4.86-4.8-.86-5.17.43-5.54-.43h-5.9l-2.95-3.14-4.8-1.72h-5.54l-4.8-1.35-3.69-2.21-1.11-5.78-1.85-4.43-4.43-1.29-4.8-1.35-4.43-1.78-4.06-1.72-5.17-.92h-11.07l-3.32,2.64-5.17,1.35-5.17.43-3.69,2.21-4.43,2.21-3.69,2.21-3.32,2.64-3.32,3.14-2.95,3.08-2.58,4-1.48,4.86v7.07l1.48,5.35,2.21,4,1.11,3.08-.37,6.21-1.85,4.43-2.95,3.51-2.58,4-3.32,3.14-3.69,2.21-4.06,2.21-4.8.86-5.17-.86-3.69-2.21-3.69-2.21-3.69-3.14-3.32-2.64-2.95-3.57-4.43-1.72-3.69-2.21-4.8-1.78-4.43-1.35-4.06-1.78-4.8-1.29-4.43-1.35-5.17-1.29-5.54.43-5.17-.43-4.8-1.35-4.06-2.21-3.69-2.21-2.95-3.57-2.21-3.94-1.85-4.92-.74-5.72-1.48-5.35-2.95-3.51-4.8-.92-5.53-.86-4.43-1.35-3.69-2.21-3.69-2.64-4.43-1.29-4.43-1.78h-5.54l-4.06-2.21-4.43-1.78-4.8,1.78-4.43,1.29-5.54.49-5.17-.92-4.43-1.29-4.06-2.21-3.69-2.71-4.06-1.72-4.43-1.78h-.37l-4.06-2.21-5.54-.43-.37-6.21-2.58-4-2.95,3.07-3.69-2.64-4.8-.86-4.43-1.78-3.32-3.07-2.58-3.57-1.48-5.29,1.84-4.92,4.06-2.21,3.32-2.64,4.06-2.21,3.32-3.07,2.58-4,1.85-4.43,2.58-4,2.58-4-.74-.86-1.48-4.86-.74-6.21-4.43-1.78-3.32-2.21-2.58-4-2.21-3.94.37-6.21,3.32-3.14,4.06-1.72,2.21-4.43,2.21-4,3.32-3.14-1.48-5.29-4.43,1.78-3.32,3.07-4.43,1.78-2.95,3.08-4.43-1.72-.74-5.78,1.11-5.29-4.06-1.78h-5.54l-3.69-2.64-4.43,1.29-4.43,1.35-4.43,1.78-3.69,2.64-3.32,2.64-4.8,1.35-4.8.86-4.43-1.35-4.06,2.21-5.17.49-3.32-3.14-4.06-1.78-1.11-.43-5.17-.43-2.21,4-4.8.86-4.43-1.29-4.8-1.35-3.32-3.07-4.06,2.21-2.95,3.51-4.06,1.78h-5.9l-3.69,2.64-3.69,2.21-5.54-.43-2.95-3.08-4.06-2.21-5.17-.92-5.17-.43-5.17.43h-11.44l-3.69,2.64-5.17.49-4.8,1.29-4.43-2.21-3.32,3.14-3.69,2.21-5.17.86-3.32-.86-4.8,1.29-5.54.43-5.17.49-5.54.43-5.17.43-4.8,1.35-3.69,2.64-4.43,1.29-4.06,2.21-3.69,2.71-3.69,2.21-2.21,4.43-2.95,3.08-5.54-.43-4.06-1.35-2.95,3.14h-5.54l-3.69,2.21-3.69,2.21-2.58,3.94-2.58,4-4.43,1.35-3.69,3.07-3.69,2.21-5.17.43-3.32-.43-4.43-1.29-4.8,1.29-4.43-1.78-2.95-3.07-1.84-4.86-2.21,4.43-4.06,1.78-5.54.43-4.06-1.78-4.06,1.78-4.8-1.35-4.43,1.78-4.8.86-4.8-.86-4.06-1.78-3.69-3.07-3.32-2.64-2.95-3.14-2.58-4-.74-6.15-4.06,1.72-4.8,1.35-4.43.86-1.48,5.35-1.84,4.86-1.85,4.86-1.84,4.86-1.48,4.92-2.21,4.86-1.84,4-2.21,4.43-2.58,3.94-2.21,4.43-2.58,4-2.95,2.64-4.06,2.21-4.06,2.21-3.69,2.21-4.43,1.78-4.06,2.21-4.06,1.78-4.43,1.78-3.69,2.64-4.06,1.78-2.58,4-2.58,3.51-2.95,3.14-3.32,3.08-2.95,3.07-3.32,3.14.37,6.64-1.11,5.29-1.11,2.21-2.58,3.57-2.95,3.51-2.21,4-2.21,4.43-.74,6.21-.37,6.21.37,6.64-1.84,4.86,3.32,2.64,2.58,4v6.64l-1.84,4.86-1.85,4.43-2.95,3.57-2.58,3.51-2.21,4.43-2.58,4-3.32,3.14-2.58,3.94-2.95,2.71-4.06,2.21-4.06,2.21-3.32,2.64-2.95,3.51-2.95,3.57-2.58,3.57-4.06,2.21-4.06,1.72-4.43,1.78-4.06,1.78-4.8,1.35-4.8,1.29-5.54.43-4.06,1.78-1.85,4.43-2.95,2.21-1.48,5.35-1.84,4.86-2.21,4-1.48,5.29-1.48,5.29-2.58,3.57-3.69,2.64-3.69,2.64-4.43,1.78-2.95,3.14-4.06,2.21-1.11,5.29-1.48,4.86-2.58,4-1.11,5.29-2.21,4.43-1.11,5.78v6.64l-1.11,5.78-2.58,3.94-3.32,2.71-2.95,3.51-2.58,3.57-3.32,3.08-2.58,4-1.11.43-3.69,2.64-2.58,4,3.69-2.64-1.48,5.29-2.58,4-1.84,4.43-2.21,4-2.21,4.43-1.48,4.86-1.48,5.35-1.48,5.29-1.84,4.86-3.69,2.21-3.32,3.14-2.21,4.43-1.84,4.43-.37,6.64-1.11,5.72-.74,5.78-.74,6.21.37,6.64,1.48-5.35,1.48-5.29,2.58,4,1.84,4.43,1.84,4.86,2.95,3.07,2.95-3.07,1.48,5.29,1.84,4.43.74,6.21-1.11,5.29v7.13l-2.95,3.51-1.84,4.43,2.21,4.43,2.95,3.14,2.21,4.86.74,5.72,1.48,5.35.74,5.72.74,6.21-.37,6.64v6.64l-1.11,5.35-1.48,5.29-1.85,4.86-2.21,4.43-1.48,4.86-1.84,4.92-.74,6.15-.74,6.21v3.57l-.37,6.64-1.48,4.86-2.21,4.43-2.21,4-2.21,4.43-2.58,3.51-2.95,4-3.69,2.21-3.69,2.21,4.06,2.21,2.95,3.14,2.21,4.43,2.21,3.94,2.58,4,1.48,4.86,2.95-3.07,4.43-1.35-2.58,3.57-4.06,2.21,3.69,2.21,2.21-4-1.85,4.86.37,6.64,1.48,4.92,3.69,2.21,3.69-2.71,5.54-.43,5.17-.43,4.06-1.78,4.43,2.21h-5.9l-5.54.43-4.8.92-3.69,2.21-4.8,1.29-3.69-2.21-2.95-3.51-2.58,4,.74,5.72.74,6.21-1.11,5.78,4.43-1.35,2.95,3.57,4.8,1.29-4.06.43-5.17.49-2.95,3.51,1.85,3.14,4.06,2.21,4.06,1.72,3.69-2.64-2.58,3.57,1.48,5.29,3.69,2.64,4.06-2.21,4.8-.86-3.69,2.21-1.84,4.86,3.69-2.64,5.17-.43,3.32-3.14,5.17,1.35,3.69-2.21,1.84,4.86-4.06-1.78h-5.9l-2.58,3.57,1.84,4.86,4.06-2.21,5.17.92-4.43,1.72-4.06,1.78-2.21,4.43,3.32-2.64-.74,5.78,2.95,3.08,4.8-1.35-.37,6.64,1.85,4.43,2.58-3.94,4.06-1.78-.74,5.72,4.8-.86-1.48,4.86,1.84,4.86,2.21,4.43,2.95,3.14,4.8,1.29,2.21,4.43,3.32,2.71,4.8-1.35-1.48,5.29,2.95,3.14-2.21,4,5.17-.92,2.21,4,2.21,4.43.37,6.21,2.95,3.51,4.06,1.35-5.17.43.37,6.64,5.17.43-2.95,3.57-3.32,2.64,2.21,4,4.43,1.78,1.48,4.86,1.11,5.29,3.69,3.14,4.8-1.35,1.11,5.78,4.8-1.78-4.06,2.21,1.48,5.29,4.06,2.21,4.06,1.78,4.43,1.78,3.32,2.64,3.32,3.14,3.32,2.64,2.21,4.43,4.06,2.21,4.06,2.21,3.32,2.64,1.84,4.86,4.06,1.78,4.43,1.78,3.69,2.64,2.95,3.07,2.95,3.57,2.95,3.07,2.95,3.57,3.32,3.08,2.58,3.57,2.95,3.57,3.32,3.07,3.32,2.64,4.06,2.21,3.69,2.64,3.69,2.21,3.69,2.71,4.06,2.21,4.43,1.29,4.06,1.78,3.69,3.07,4.8.92.37-.43,4.43-1.78,3.32-2.64,4.8-1.35,3.32-3.07,4.8-1.35,4.06-1.78,4.06-2.21,4.06-1.78,4.06-2.21,4.8-1.29,4.8-.92,5.54-.43,5.17-.86-5.17-.43,4.8-1.78,4.06,2.21,5.17-.92,5.17-.86,5.17-.43,5.17-.43-5.17-.49-5.17.49-5.17.86,3.69-2.21,5.54-.43,5.17-.92,5.17-.43,4.43,1.35-5.17.43,3.69,2.21,5.17.86,4.8.92,1.85-4.43,2.95,3.51,5.17.92h-5.54l1.48,1.29,4.8,1.35,4.8.86,4.43,1.35,4.8,1.35,3.32,2.64,4.43,1.78,3.32-2.71,3.32-2.64,3.69-2.64,4.8-1.35,4.43-1.72,4.43-1.78,4.8-.92,3.32-2.64,4.06-2.21,3.32-2.64,4.43-1.78,4.06-2.21,3.32-2.64,5.17-.86,5.17.43-.74-6.21-3.32-2.64-5.17-.92,5.54.49,2.95,3.07h.37l1.48,4.86,5.17.92,2.58-3.57,2.58-4.43,2.21-1.35,4.43-1.72,4.43-1.35,4.8-1.35,4.8-.86,5.17-.86,5.17-.49,5.17-.86,5.17-.43h5.54l5.54-.43,1.85-4.43,5.53-.49,4.43-1.29-3.69,2.21-4.06,2.21,5.17.86h5.9l4.8.92,5.17.86,4.06,2.21,3.32,3.07,2.58,3.57,2.95,3.07,2.21,4.43,4.06-2.21-2.95,3.57,2.21,4.43,3.32-2.64,4.43,1.78-4.8.86,1.48,5.29,3.69-2.64-2.95,3.57,1.11,5.72.37,6.64,1.84,4.92,2.21,3.94,2.58,3.57,3.32,3.07,4.06,2.21,4.43-1.72,4.8.86,3.69-2.64,2.58-3.57,1.11,5.78,1.11-5.35-.74-5.72,1.11,5.29,2.21,4.43,1.85-4.86,2.95,3.07-.37-6.15,3.32,2.64,5.17.43,2.21-4,1.48,5.35h3.69l5.17-.49,5.54-.43,2.58-4-1.48-5.29,3.69,2.64,3.69,2.21-1.85,4.86,4.06-2.21,4.43,1.78,1.11,5.35,1.85,3.94,1.84,4.92,3.69,2.21,4.43,1.72,1.48-4.86,5.17-.86,1.85,4.86-3.69,2.21.74,6.21,1.85,4.43,2.95,3.51,1.85,4.43-.37,6.21-.74,6.21-1.11,5.29-.37,6.64-.74,5.78.74,6.21-2.21,4-2.58,3.94-1.85,4.92-1.85,4.43-2.58,3.94,4.8,1.35,5.17.86.74,2.71h-5.54l1.11,5.72.37,6.21-3.69-2.21-3.69,2.21,2.58,3.57,1.84,4.43,4.06,2.21,5.17.86-2.21,4-3.69-2.64-4.8-1.35-1.85-4.43-.74,5.78.37,6.64-.74,5.72-1.85,4.43-2.95,4v2.64l-2.21,4-2.21-4-4.06-2.21.74,5.78,2.21,4.43,2.21,4,1.48,5.29,3.32,3.08,3.69-2.21-1.85,4.43h5.54l1.84,3.57-5.53.86-2.58-3.51-2.95-3.57-1.48-2.64-1.11-1.35,2.21,4.43,2.58,4,1.48,4.86,1.85,4.92h-.37l2.21,4.43,2.95,3.07,1.48,4.86,3.69,2.21,4.43,1.78,3.32,2.64-5.17-.86-3.69-2.21,2.95,3.51,2.58,3.57,3.32,3.07,3.32,2.71,2.95,3.08,2.95,3.57,2.58,3.51,1.84,4.86,3.32,2.71,3.32,3.08,1.85,4.86,2.95,3.14.37.43v.43l3.32,2.64,2.21,4.43,2.95,3.14,3.32,3.08,2.95,3.57,1.11,5.29,1.84,4.43,2.58,3.57,2.21,4.43,1.48,4.86-.74,6.21,1.11,5.72.37.43,2.58,3.57,2.95,3.57,4.06-1.35,3.32-3.07,4.43-1.78,4.8,1.29-4.06.92-2.95,3.07-5.17.92-4.43,1.29-1.85,4.86,1.48,4.92,2.21,4.43,2.21,3.94,2.95,3.57,1.84,4.86.37,6.21,1.85,4.86,1.84,4.86,1.48,4.92,1.85,4.43,1.85,4.43,2.21,4.43,2.21,4.43v7.07l-2.58,4-2.58,3.51-2.58,3.57.37,6.21,1.48,3.07,1.48,5.29.37,5.78,2.21,4.43,1.48,5.29,2.21,4,1.48,5.35,2.58,3.51,2.95,3.57.74,6.21,1.11,5.29-.74,6.21-.74,5.72v6.64l-.37,6.21-1.85,4.86-1.85,4.92-2.95,3.51-1.84,4.43-4.8,1.35-3.32,3.07-1.85,1.35-.74,5.72-2.58,4-2.95,3.14-2.58,3.94-1.85,4.43-.37,6.64-2.58,4-1.48,4.86v6.64l-1.11,5.78-.74,5.78-1.48,5.29-1.48,4.86-1.84,4.43-.74,6.64-1.48,4.86-2.58,4-2.58,3.57.74,5.72.37,6.21.37,6.64v6.64l-1.11,5.78-.37,6.21-.37,6.15-.37,6.64.74,5.78,1.11,5.78,2.58,3.94,1.85,4.43,1.85,4.43,3.32,3.57,2.95,3.08,2.58,4,1.85,4.43,2.21,4.43,1.84,4.86,1.85,4.43,2.21,4.43,2.21,4.43,1.84,4.43,2.58,4,1.84,4.43,1.11,5.78,2.21,4.43,1.11,5.72,2.21,4,2.21,4.43,2.58,3.57,2.58,4,1.48,4.86,2.21,4.43,2.58,4,2.58,3.51,2.58,4,2.21,4,1.84,4.86,1.48,5.29v.92l-.37,6.64-2.21,4,.74,2.21,1.11,5.29-.37,6.64.37,6.64-1.11,5.78.74,5.72,2.21,4.43.74,6.21,2.58,3.57,1.85,4.86,1.48,5.29-1.11,5.35.74,6.15v6.64l1.48,5.35,1.84,4.86-.74,6.21,2.95,3.07,1.84,4.86-1.11,5.78,2.21,4.43,1.11,5.29,1.11,5.78,2.58,4,2.21,4,1.48,4.86,2.95,4,2.21,3.94,2.95,3.57,3.32,2.64,2.58,3.57,3.32,3.07,2.95,3.14,1.48-.92,2.21,4.43,1.85,4.43,2.21,4,2.21,4.43,1.84,4.43,1.85,4.86,1.11,5.35,1.48,5.29,1.48,4.86,1.84,4.86,1.48,4.92,2.58,4.43,1.85,4.43,1.85,4.43,2.58,3.94,2.21,4.43,2.21,4,2.95,3.57,2.58,4,2.21,3.94,1.84,4.92.74,6.15v13.28l-2.58,4-5.54-.43-2.95,3.08,1.11,5.78,3.69,2.64,1.85,4.43,2.58,4,1.85,4.43,2.95,3.57,1.11,5.29-2.95,3.07.37,6.21,2.21,4h.37l-1.11-5.29,4.06-2.21,4.8.43v7.07h5.54l4.06,2.21,3.32,3.07,2.95,3.57,3.32,2.64h5.54l4.43,1.78,2.95-3.57,3.69-2.64,2.95-3.08,4.8-1.35,4.8-1.29,4.8-.92,4.43,1.78,4.8-1.35,5.17.49,4.8-1.35,2.58-3.57,3.32-2.64,4.06-2.21,5.17-.43h5.54l4.8,1.78h5.54l5.17.43,3.32-3.57,5.17.92,5.17.86,5.17.92,4.8.86,4.06,1.78,5.54.43,2.58-3.57,3.69-2.64,5.17.43,4.43,1.35h5.17l-1.85-4.86,3.32-3.14,4.8-1.29,5.17.86,5.17.92,4.8-1.35,3.69-2.21,4.43-1.78,3.69-2.21,3.69-2.21,3.69-2.64,3.32-2.64,3.69-2.64,3.69-2.71,3.32-2.64,2.58-4,3.69-2.21,3.69-2.64,2.95-3.08,3.32-3.14,3.32-3.08,2.58-3.57,3.32-3.51,2.58-3.14,2.58-3.94,2.95-3.57,3.69-2.64,3.32-3.14,3.69-2.64,2.95-3.08,2.58-3.57,2.95-3.51,2.58-4,2.21-4,2.21-4.43,2.58-4,2.21-4,1.84-4.43,2.58-3.94,2.95-3.57v-.43l1.11-5.35,2.21-4.43,2.58-3.51,2.95-3.57,2.95-3.51,2.95-3.14,3.32-3.07,4.06-1.78,3.32-3.08,2.95-3.57,2.95-3.07,1.48-5.35,2.21-4.43.74-5.72.74-5.78,1.11-5.78,1.85-4.86,1.48-5.29,1.48-4.86.74-5.78.37-6.64.37-6.21.37-6.64-2.95,3.57-3.32-3.14-2.21-4.43,2.58-3.51,1.85-4.86,2.21-4.43,3.32-2.71,3.32-2.64,3.69-3.08,4.06-1.35,4.06-2.21,4.43-1.78,4.43-1.72,4.43-1.78,4.06-1.78,2.58-.86,4.43-1.78,4.06-2.21,4.06-1.78,3.32-3.07,2.58-4,2.58-3.57,2.21-4,1.11-5.72-3.69-2.64,1.11-5.35.74-6.21,1.11-5.29,1.11-5.29-.74-6.21-.37-6.64,1.11-5.35.37-6.64-3.69,2.71-1.11-5.35-1.11-6.21-.74-6.15-2.21-4.43-1.48-4.92-1.11-5.29,1.48-4.86-2.95-3.57-2.21-4-2.95-3.51-2.58-3.57,1.11-5.72.74-6.21-.37-6.64-2.58-3.57,3.32,2.64,5.17.92,3.32-2.64,2.95-3.14,3.32-3.51,2.58-3.57,2.58-3.57,2.95-3.94,3.32-2.71,4.06-2.21,5.17-.43-.37-.86,3.69-2.21,1.48-5.35,2.95-3.51,2.58-3.14,2.95-3.51,2.95-3.57-1.48-5.29,4.43-1.35,2.58-3.51,3.69-2.71,3.69-2.21,4.06-2.21,3.69-2.64,4.06-1.78,2.58-3.94h5.54l3.69-2.21,4.43-2.21,5.17-.49,4.8-1.29,2.21-4.43,3.32-2.64,4.06-2.21,3.69-2.71,3.32-3.07,1.11-5.29,3.69-2.21,2.21-4.43,2.21-4.43,2.58-3.14,2.58-4,3.32-3.08,1.48-4.86-2.21-4.43,3.32-3.14-.74-5.72h2.21l2.58-4-.37-6.21-4.43,1.78v-7.07l-2.21-4,2.21-4-1.11-5.29-1.11-5.78.37-6.64.37-6.21.37-6.15-1.85-4.92,2.21-4.43-2.21-3.51-.37-7.07v-6.64l-.37-6.21-1.48-5.35,1.11-5.72.37-6.21,1.85-4.86,1.11-5.35-.74-6.15-1.85-4.43h-1.48l-2.58-4-3.69-2.21-2.95-3.57-3.32-3.08-4.43-1.35,1.85-4.86-1.85-4.86-1.85-4.86v-6.64l-3.32-3.14-1.11-5.29-.74-5.78-1.84-4.86-1.11-5.78,1.85-4.86,1.85-4.43-.74-6.21-2.95-3.08v-6.64l1.85-4.86,2.58-4,.74-5.78-3.32-2.64-2.95-3.51-2.21-4.43-2.95-3.14-3.69-2.64-.74-6.21-1.11-5.72,1.48-4.92,1.85-4.86,1.11-5.29,2.21-4.86,1.11-5.35.74-5.72,1.11-5.35,4.8-1.29,1.84-4.43,2.21-4.43,1.48-4.92,2.21-4.43,2.21-4.43-.74-6.15,2.95-3.57,1.48-4.86,3.32-3.14,1.48-4.86-.37-6.64,2.21-4.43,3.69-2.21,5.17-.43,3.32-3.08,1.48-5.35,1.11-5.29,2.21-4.43,4.06,2.21,4.06-1.78,2.95-3.57,2.58-3.51,2.58-4,2.21-4,1.85-4.43,2.21-4.43,2.21-4,2.95-3.51,2.58-4,2.58-3.57,2.58-3.51,2.58-4,2.95-3.07,2.95-3.57,1.11-1.35,2.58-3.51,2.95-4,2.95-3.07,2.58-3.57,2.58-4,3.32-3.08,2.95-3.14,3.32-3.07,2.95-3.08,3.32-3.14,2.95-3.51,2.95-3.14,3.32-3.07,3.32-2.64,3.32-3.14,3.32-2.64,4.06-2.21,3.69-2.64,3.69-2.64,3.69-2.21,3.69-2.71,3.69-2.21,3.32-3.08,2.58-3.57,2.95-3.08,2.95-3.57,2.95-3.51,2.95-3.57,2.95-3.08,2.58-4,2.95-3.57,2.58-3.51,2.58-3.57,3.32-3.51,2.58-3.57,2.58-4,2.95-3.51,2.58-3.57,2.58-3.57,2.58-4.43,1.84-4.43,2.21-4.43,2.21-3.94,2.58-3.57,2.58-4,2.58-4,1.85-4.43,2.58-3.94,1.85-4.43,2.21-4.43,1.85-4.92.37-6.15,1.85-4.92,1.85-4.86,1.84-4.43,2.58-4,2.21-3.94,1.48-1.78,1.84-4.43,1.85-4.43,1.84-4.86,1.11-5.78,2.95-3.08,2.95-3.57,1.85-4.43,2.58-4,1.48-4.86,1.48-5.29,2.95-3.14,1.84-4.86,2.58-3.57,2.21-4.86-.37-6.21,1.11-5.72v-6.64l.74-5.78,4.06-2.21,5.17.92,2.58-2.21-4.06-1.78-3.69,2.64,1.84-4.86-.74-5.78v-7.07l-1.11-5.29,1.11-5.35,1.48-5.29,1.84-4.86-3.69-2.71-4.06-1.72-5.17-.92-4.06,2.21-1.85,4.86-3.69,2.71-4.06,2.21-4.43.86-4.43,1.78-5.17.43-3.69,2.64-4.8,1.35-4.43,1.29h-1.85l-4.43-1.29-5.54-.43-4.43,1.72-3.32,2.71-5.17.86-5.17.43-4.43-1.78-5.17.49-4.06,2.64-2.95,2.64-3.69,2.64-3.69,2.64-4.43,1.35h-5.54l-4.8-.86-4.43-1.78-5.17.43-3.69,2.64-4.8,1.35-3.32,3.08-3.32,2.64-5.17.92-5.17.43h-5.54l-3.69-2.21-3.32-2.64-3.32-3.14-2.95-3.51-2.95-3.57-2.21-4-2.21-3.94-2.21-4.43-2.95-3.57-3.32-3.07-5.17.86-4.8.86,1.48-5.29,4.43-1.78,3.32-2.21,4.43-2.21,2.95-3.51-1.11-5.78-1.11-5.29-2.95-3.14-1.85-3.08-2.21-4.43-5.17.43-1.85-4.86-2.95-3.57-4.43-1.78-1.84-4.43-1.11-5.29-2.95-3.57-3.69-2.64-3.32-3.07-4.06-1.78-2.21-4-2.58-4-2.58-3.94-2.21-4-1.11-.92-3.32-3.07-4.43-1.35-4.43-1.72-2.58-4-3.69-2.21-4.06,1.78-3.32-3.14-2.21-4.43-1.11-5.72-2.95-3.14-2.58,4,1.85,4.43-3.69-2.64-1.84-4.43-4.06-2.21-.37-6.21-2.58-4.43-1.85-4.86-1.11-5.35-.74-6.15-.37-4.43v-.49l-1.11-5.29-1.11-5.29-1.48-5.35-1.48-4.86-2.21-4.43-1.84-4.86-2.21-4-1.48-5.29h-.37l-3.69-3.14-3.69-2.21-4.06-2.21-1.84-4.43-3.32-3.51-2.95-3.14-5.17-.86-2.58-3.57-.37-6.64-1.84-4.43-1.11-5.72-1.11-5.35.37-6.64-1.11-5.29-.74-6.21.74-5.78-1.11-5.29-1.11-5.78-1.48-5.29,4.06-2.21-2.95-3.57-1.85-4.86-1.85-4.43-1.11-5.29-.37-6.64v-1.35l-2.95-3.51-3.69-2.71-3.69-2.21-2.58-3.94-2.58-4-4.06-1.78-4.43-1.78-2.58-4-1.84-4.43-2.58-3.94-1.48-4.92-.37-6.64-.74-6.15,2.58-4,5.17.43-3.69-2.21-3.32-3.08-2.58-4-2.95-3.57-2.58-3.51-1.48-5.35-2.21-4-1.48-4.86-2.21-4.43-2.21-4.43-1.84-4.43-2.21-4.43-2.21-4-2.21-4.43-2.21-4.43-2.21-3.94-1.85-4.92-2.21-4.43-2.21-3.94v-7.13l-2.21-3.94-1.48-5.35-2.58-3.51-2.58-3.57-.74-6.21-.74-6.21-3.69-2.21-2.58-3.51-2.58-4-2.58-4-2.95-3.08-1.48-4.86-1.85-1.78-2.21-4-.37-6.64-1.48-5.29-2.95-3.14-2.58-3.51,1.84-4.92,1.48-4.86,2.15-.42c-2.34-11.15-7.07-21.83-9.09-33.3l-.07.07ZM46.03,699.26l-2.58,4-4.8-.86-3.69-1.78,3.32.43,4.43,1.35,2.95-3.57,2.21-4-1.84,4.43Zm239.49,158.98l-4.8-.86-3.32-3.14-.74-5.72,1.48-5.35-1.48-5.72,2.95-3.14,2.58-4.43,1.11-.86-1.84,4.43-1.48,4.86.37,6.21-1.11,5.72,2.21,4,1.11-5.29,1.48-4.86,1.84,4.86-1.84,4.43,1.48,4.86Zm32.1-249.33l-4.06,2.21-2.21,2.71-.37,1.72,1.11,4,2.95,3.14,3.69,2.21-4.06,1.72-2.95-3.51-1.48-5.35.74-2.21-.37-.86.74-.86.37-1.35,2.21-4.43,4.8-.86,2.21-.92-3.32,2.64Zm64.21,202.83l-5.17.86,3.32-3.07,2.95,2.64-1.11-.43Zm38.01,36.78l-.74,6.15.37,6.64-.74,6.21-2.58,4-.37,6.21-.37,6.21-.37-6.64-4.06-2.21-3.69-2.21-3.69-2.71-3.69-1.72-3.69-3.14,4.43,1.78,3.32-3.07,2.21,3.94,3.69,2.21,1.48-4.86,4.43-2.21-.74-5.72,2.21-4.43-2.58-4-3.32-3.14-2.58-3.94-5.17.86-4.43,1.78,3.69-2.64,4.43-1.78,2.58-3.57-2.21-4.43-5.17.43-1.84-4.86-4.8,1.35-.74-6.21-2.21-4-1.84-4.43-4.43-1.78-2.95-.43,4.43-.86-2.21-4v-6.64l.37,6.21,3.32,3.07,1.84,4.43,2.58-4,2.21,4-2.95,3.14,2.95,3.51,2.95,3.14,3.69,2.64,4.43-1.78,1.11,5.29,2.21,4.43,3.32,3.14.37.43.74-5.78,1.48-5.29.74-2.21v-4l-2.58-1.78,1.48-3.07-.37-.86,1.11-4v-3.14l1.11-2.64-.74,4.43-.37,1.35v3.51l-.74,1.35,1.11,4v.86l1.11.92-1.11,3.08v2.21l-1.48,5.29,3.32,3.14.74,6.21v6.64Zm102.58-89.91l.74,5.78-1.48,5.29.37,6.64-2.95-3.57-.37-6.15-.74-6.21,3.69-2.21,1.85-4.86-1.11-5.35-2.21-4.43-4.06-2.21-3.69-2.21-1.84-3.08,2.95,3.08,4.06,2.21,2.58,2.21,1.11.43,2.21,4,.74,6.21-1.84,4.43Zm245.76-66.42l-4.8.86-5.54.49-2.58,3.51-4.43,1.78-2.21,4.43-4.43,1.35-2.95-3.57-1.85-4.86,1.11-5.35-3.32-2.64-3.32-3.07-2.21-4-2.95-4-.74-5.72-2.21-4.43,2.95-3.57,4.43-1.35,3.69,2.21,2.95,3.57-.74,6.21.74,5.72,4.43-1.72,3.69-2.21.74,6.15,3.69,2.71,4.06-1.78,5.17.43,2.95,3.08,4.43,1.78,2.21.43-2.95,3.57Zm9.59,489.73l-4.43-1.78,2.21-4.43,4.43,1.78-2.21,4.43Zm219.19,726.21l.37-.43,2.95,3.57-3.32-3.14Zm18.82,17.71l.74-.43,3.69,2.21-4.43-1.78Zm78.6-392.75l-4.06-1.78-3.69,1.78-4.8,1.29-4.8,1.35-1.11,5.29-4.06,2.21-4.06,2.21-2.21,4-2.21,4.43-3.32,3.14-3.32,2.64-2.58,3.51-.74.92-1.48,3.51h-1.11l2.58-3.51,1.48-5.35,3.69-2.64,1.11-5.29,2.58-4,2.21-4.43,3.32-2.64,2.58-4,5.54-.43,2.58-3.57,3.32-3.07,4.06-2.21,5.17.43,4.8,1.35-1.48,4.86Zm193.73-820.98l5.17-.43,4.06-1.78,2.58,4-.37,6.21-2.21,3.94-1.85,4.92h-1.11l-1.48-5.35-5.17-.43-1.11-5.78,1.48-5.29Zm-28.04,232.47l1.11-6.21v-6.64l1.84-4.43,4.06-.43,1.11,5.78v6.64l-.37,6.15,1.11,5.78-1.11,5.29,1.11,5.78,1.11,5.29,2.21,4.43,2.95,3.57,4.06,1.78.37,6.64-1.11,5.72-2.95-3.07-2.21-4.43-1.85-4.86-2.58-3.57-2.58-4-2.58-3.51-2.21-4.43-1.48-4.86-.37-6.21.37-6.21Zm-125.09,69.07l2.95-3.08,2.95-3.57,2.95-3.07,3.69-2.64,3.32-3.14,2.21-4.43,2.95-3.07-2.58,4,1.11,5.29-.74,6.64-2.21,4-3.32,2.64-4.43,2.21-2.21,4-2.95,3.51-2.21,4-2.58,2.64-.74-5.72-.74-6.21,2.58-4Zm1.85,285.18l-5.17-.86,2.58-4-.37-6.64-2.58-3.57-2.95-1.78-1.48-4.86-.74-6.21-1.11-5.29-2.58-4-3.69-2.21-3.32-2.64-2.58-4.43-2.95-3.07-.74-5.78-2.21-4.43-1.84-4.86-2.95-3.57,1.48-5.29,2.21-3.57-.37-6.64-2.21-4-2.21-4.43-.74-6.15-.37-6.21.74-6.21,1.85-4.86,1.11-5.78-2.58,4-2.21-.86,1.11-5.78.37-6.21,1.11-5.72-.37-6.64,2.95-3.14,1.48,4.86v7.13l1.85,4.86,1.85,4.43,1.84,4.86,2.21,4-.74,6.21-.37,6.15,2.58,3.57,2.21,4.43-.74,5.78.74,5.72,1.84,4.86,1.48,4.92-.37,1.29-3.69,2.21-1.11,5.78,1.85,4.43,2.95,3.07,5.54.43,2.58,4,2.58,3.57,2.21,4,1.85,5.29.37,6.21.37,6.64,2.21,4,2.21,4.43,2.21,4.43,1.85,4.43,1.84,4.86,2.58,3.51,1.48,5.35-2.21,4-4.43-1.78-2.95-3.57-3.32-2.64Zm40.59,202.83h-5.17l-4.06,2.21h-5.54l-5.54-.49-4.8.92h-5.9l-4.43-1.35-2.58-1.29,5.54.43,5.54.43,4.43-1.78,5.17.43,5.17-.43,5.54-.43,4.8-1.35h5.54l-3.69,2.71Zm67.9-32.35l.37.43-1.84,4.86,1.48-5.29Zm-8.49-88.13l1.84,4.86v3.14l-1.11,5.72-1.48,5.35-3.32,2.64-.37,6.64,1.48,4.86.74,6.21v13.71l1.48,4.86-.37,6.64,4.8,1.78,1.85,4.43,1.11,5.35-.37,6.15-2.58-3.51-5.54-.43-2.95,3.08-2.21-4-1.11-5.29,1.48-4.86-1.48-4.92-3.69-2.21-1.85-4.86.74-6.21-.74-6.15-1.48-4.92-1.85-4.86-1.48-4.86-2.58-4,1.11-5.29,2.58-4,2.21-4.43,1.11-5.29-.37-6.21-1.48-4.86.74-6.21-.74-6.21-.74-5.78,1.11-5.29-2.95-3.07-2.58-4-1.11-5.35-.74-6.15.74-1.78,3.69-2.64,2.95,3.07,2.58,4,2.58,3.51,1.48,4.92,1.48,5.29v6.64l1.85,4.43-.37,6.64.37,6.64,1.85,4.43,3.69,2.64Zm-11.81-657.14l.74,6.21,3.32,3.57,2.21,2.21-3.69-2.64-3.32-3.14.74-6.21Zm-19.56,329.46l2.21-4,2.95,3.57,4.43-1.78.37,6.21,3.32,3.08,1.48,3.14,2.21,4.43,1.84-4.43,4.8-1.35,4.8,1.35-1.85,4.43h-5.54l-2.58,4-4.43,1.29-2.58,4,1.84,4.43-1.48,4.86-2.21,4.86-1.85,4.43,1.11,5.35-5.17-.43-1.11,5.29-2.95,3.57-5.17.86,3.69,2.21-2.58,4-3.69,2.21,5.17.43,5.17-.43,4.43,1.78-3.69,2.64-3.69,2.64-2.21,4-.37.86-4.8-1.29-2.58-3.57-4.8,1.35-1.11,5.72,2.21,4-2.95,3.07-.37-6.15-1.84-4.92-4.8,1.35-2.95-3.08-2.21-4.43-3.32,2.64-2.21,4-2.58,4.43-2.95,3.08-2.21-4.43v-7.07l-1.85-4.43.74-5.78-2.21.92,1.85-4.92.74-5.72,1.11-5.78,1.84-4.43v-7.07l-1.84-4.43.37-6.64,1.48-5.29,2.95-3.14-.74-6.21,2.95-3.07,5.17-.43-.74-2.21,4.43-1.78,3.69-2.21,4.06,1.78,5.17.86,2.58-3.51,2.95-3.57,2.95-3.08,2.95,3.51,2.21,4.43Zm-11.07-41.14l4.06-1.78,4.06-2.21-2.58,4-4.06,2.21,1.85,4.86-5.54-.43-5.17-.92h-5.17l3.69-2.64,4.43-1.35,4.43-1.72Zm-4.43-4.43l-4.06,2.21-3.69,2.21-5.17-.49,3.69,2.21-4.8-1.29-.74-1.35h5.9l3.32-3.08,3.32-2.64,4.43-1.78-2.21,4Zm-9.23-594.72l1.85-4.43,2.21-4.43,1.48-4.86,3.69-2.64-1.48-5.35-5.17.43,4.43-1.29,1.48-5.35v-6.64l1.11,4.43,1.11,5.35-1.11,5.29.74,5.78-2.21,4,1.48,4.86h-5.54l-2.21,4-3.32,3.07,1.48-2.21Zm-3.69,2.64l1.85-.43-1.11,1.35-.74-.92-2.58.92-4.8-1.35-2.21,4.43-3.32,3.08-3.32,2.71-2.95,3.51-2.95,3.14-1.11,5.72-2.95,3.57-1.85,3.08-.37,1.35-2.95,3.07.37-.86,2.95-3.57,1.48-4.86,2.58-4,1.11-5.29,3.32-3.14,2.58-3.51,3.32-3.57-2.95-3.08,5.17-.43,3.69-2.71,5.17-.43,2.58,2.21Z"/></g></svg>