<?xml version="1.0" encoding="UTF-8"?><svg id="Layer_2" xmlns="http://www.w3.org/2000/svg" viewBox="0 0 1616.44 1411.03"><defs><style>.cls-1{stroke:#fff;stroke-miterlimit:10;}</style></defs><g id="Layer_36"><path class="cls-1" d="m1510.02,178.56l-4.43-2.21-4.8.43-4.43-1.78-4.8-.86-5.54-.92-5.54.49-5.17.86-4.8,1.35-5.17.43-4.8,1.29-2.21,4.43-4.43-1.72-5.54.86-5.54-.43-5.17-.92-5.17-.86-5.17-1.35-4.43-1.72-3.69-2.71-3.69-2.64-4.8-1.29-2.58-3.57-3.32,2.64-3.32,3.14-2.95,3.08-2.58,3.57-2.58,4.43,4.06,2.21-5.54.43-3.69,2.64-2.21,4.43-3.32,3.07-4.43,2.21-4.8,1.35-5.17-.43-1.84-4.86-5.17,1.72-4.43-1.72-5.17-.92-2.58-3.51-5.54-.92-5.17.92-1.48-5.35-4.43-1.78-2.21-3.94-2.95-3.57h-5.54l2.95-3.57,5.17-.86,4.8.86-3.69-2.21-2.95-3.51-3.69-2.64,2.21,3.94-2.95,3.57-5.54-.43-3.69-2.64-4.06-2.71-2.95-3.08-4.06-2.21-4.43-1.78-5.17-.86-3.32-3.57h-5.9l-5.17-.86-5.9-.43.74,6.15,1.85,4.43,4.43,1.78.37,6.64,1.48,4.86-2.58-3.94-1.48-4.92-4.43-2.21-2.58-3.51-3.69-2.64-3.69-3.14-4.8-.86-5.17.86-4.8-1.29-5.54-.49-4.06-2.21-4.8-.86-4.06-2.64-5.17-.92-4.8-1.29-5.9-.43-4.8-1.35-5.17-.86-5.17-.92-5.53.43h-5.54l-5.17-.86-5.54-.86-5.54-.92-4.43-1.29h-5.9l-5.17-1.35-5.17-.86-5.54-.49-5.9.49-5.17.43-5.53-.43-5.17-.92h-5.9l-5.54-.43-5.54-.43,4.06,2.21,5.54.43,5.17.86-5.17-.43-5.9-.43-5.9-.43-4.43-1.78-4.43-1.78-5.53-.86-5.17-.43-4.8-1.35-4.8-.86-4.06-2.21,1.84-5.35,5.9.43,5.54-.43-4.06-2.64-5.54-.86h-23.25l-5.54-.49-5.54-.43-5.54-.86-5.54-.43h-5.9l-5.54-.49-5.54-.43-6.27-.43h-5.54l-5.54.86-5.17,1.35-5.17.86-5.54.49-5.54-.49-5.54.49-5.17,1.29-5.54.43,2.95,3.57,5.17,1.35-4.8.86-3.69,2.64v7.07l-3.69,2.21-2.21.49,4.06-2.21.74-6.21-1.48-5.35-4.43-1.29,1.85-4.86-1.11-5.35-3.32-3.07-4.43-1.78-1.48,4.86-4.8,1.35-5.54.43h-6.27l-5.54-.86-5.54-.92-5.17-.86-4.43-1.78,2.95-3.57-4.8-1.72-3.32,3.08h-5.9l-4.8-1.35-5.54-.86h-5.53l-4.8.86-3.32,3.14-5.17,1.29,1.85,4.43,5.17-.86h5.9l5.54-.43,5.17-.92,5.9-.43-3.69,2.64-5.17.92-4.8,1.78-3.69,1.72-5.17,1.35-5.17.43-5.54-.43-4.43-1.78,4.06,2.21-4.8,1.78-4.8.86-5.54.49-5.17.86-5.9.43-4.43,1.35-5.17,1.29-5.17.92-6.27.43-5.54-.43-5.54.43-5.54.43-5.17-.86-5.54.86-1.48,5.35-5.17.43-4.43,1.78-4.43,2.21-4.8.86h-5.9l4.8-1.78,4.43-1.29,3.69-2.21,3.32-3.14,3.69-2.21,2.58-4,5.54-.86h5.54l5.17-.86,2.95-3.14,4.43-2.21,4.06-2.64h5.9l5.53.43,4.8-1.29,5.54-.49,4.43-2.21,4.06-1.72,3.69-2.71,4.8-1.72,4.06-2.21,5.17-.49,5.54-.86,4.8-1.35,4.06-2.21-4.43-1.72,4.8-1.35,5.17-.86,4.8-1.78,4.8-1.78,4.8-.86,5.17-.92,4.43-2.21,4.8-1.78h5.9l5.17-.43,4.06-2.21,3.32-2.64,5.54-.86,5.54-.92,4.8-.86,4.06-2.21,4.43-2.21,4.06-1.78,4.43-2.21,2.21-4-3.69-3.08-4.8-.92-4.06-2.21-4.06,2.21-2.95-3.51-3.69-2.65-4.8-1.78,5.9.43,4.8,1.35,4.8,1.29,5.54.92,5.9.86-3.32,3.08,5.17-1.29,2.58-4,1.84-4.86-5.53-.43-3.32-3.14-2.21-4.43-4.06-2.21-5.9.43,4.43,1.78-3.32,3.14-5.54.43-2.58-3.57-1.84-5.29-4.8-1.35h-5.9l-5.17,1.78,4.06-2.21-3.69-3.08-4.06-1.78h-5.54l-4.43-2.64-5.54.43-4.43-2.21-5.17,1.29-5.17-.86-5.54.43-4.43,1.35-5.54-.43-5.54-.92-5.17-.43-5.17.86h-17.71l-5.54-.43h-5.9l-1.48,5.78-5.54.86-5.17-.86-5.54.43-5.9.43h-11.81l4.8-1.78,3.69-2.21,4.06-2.21,4.43-2.21,4.8-1.72-2.58-4h-5.9l-4.8-1.35-5.17.92-5.17-.92-5.54.43-5.17,1.35-5.17.43-5.54-.43,5.17-1.35,4.8-1.29-5.54-.92-5.17.92-5.54-.92-5.54.92-4.8-1.35-5.17.92h-6.64l5.17-.92,4.8-.86,5.9-.43,5.54-.49,5.53-1.29,4.43-1.78,4.8-1.78h11.81l-4.8-1.29-3.69-2.71-4.8-1.72-5.9.43-5.54-.43-5.54-.92-4.8-1.29-4.8-1.35-5.53.86-4.8-2.21-5.9.92-4.8,1.29-5.17.92-5.54-.92-4.8,1.35-4.06,1.78-5.54.86-4.43,1.78-4.06,2.21-5.54.43-4.06,2.21-5.17,1.35-4.06,1.78-4.43,1.72-3.32,3.57-5.17.43,1.48,5.35,5.54.43-2.58,4-4.43,1.72,4.8,1.35h5.9l5.54,1.35,5.53.43,5.17.86-5.17.43-4.8-1.29-5.9-.43h-5.9l-4.43-.92h-5.9l-5.9.43h-11.81l-5.9.49h-5.54l-5.54-.49-5.54-.86,1.85,4.86,5.54.43,4.8,1.35,4.06,2.65,4.06,2.21-.74,6.21-4.06,2.21-5.54.86-3.69,2.71,2.21,4.43,5.17,1.29,5.54.43,2.21,4,4.06,1.78,1.85,2.21-3.32-1.78-3.32-2.21-4.06-2.64-4.43-1.78-5.17-.86-4.8-1.35,2.58-3.51,3.69-3.14,5.17-.86,2.58-4-2.95-3.08-4.8-1.78h-5.54l-4.43-2.21-5.17.43-5.9.43-5.9.43-5.17.92,5.17,1.29-5.17.92-5.54-.92-5.17,1.35,5.54.43-4.8.92-5.54.86-5.17-.86-4.43,1.72-5.17,1.35-5.53.43,3.69-2.21-4.8-1.29-5.17,1.29h-5.54l-4.43,1.78,3.69-2.64,3.69-2.64-4.8-1.35-5.54-.43-5.54-.43-5.17.86-5.54.43-5.17-1.29-4.43,2.21-5.17-1.35h-12.18l-4.06,2.21-5.17.86-3.69-2.21-4.43,2.21-4.8.92,3.69,2.64,4.06-2.21,3.69,2.21,4.43-1.78,4.8,1.35,5.17-.43-4.43,1.29-5.54.43-5.53.92-5.54.43-5.9.43-5.9.43-5.17.92-5.9.43-5.54.43h-5.9l-4.06,2.21-5.9.43h-5.54l-5.54-.43-5.17.92-5.9.43-5.17.43-4.43,1.78-5.54.43-4.8,1.78-4.43-1.78-5.17,1.35-5.17.86,5.9.43-5.54.43-4.43,1.35-4.06,2.21-4.06,2.21-4.06,1.78-5.54.86-5.54-.86-5.54-.43-5.54-.49-5.54.49,4.06,1.72,5.17,1.35h5.9l-3.69,2.21-5.17-1.35-2.21,4-2.95,4-5.54.43,4.06,2.21-5.54.43-4.06-2.64h-5.54l-3.69-2.64-3.69,2.64-4.43,1.35,4.8.86,5.9.43,5.17.92,5.17.43,2.58,4,5.54-.43,4.06,2.21-4.06,2.21-5.54-.49-3.69-2.64-4.06-1.78-5.17,1.35-4.8,1.35,3.69,2.64,5.9.43,5.54.86,3.32,3.14,5.17,1.29,5.54.49h-5.54l2.21,3.94,4.06,2.21,4.43-1.29-2.95,3.07-3.32,3.57-4.8.86-5.9.43-5.54.92h-5.54l-5.17.86-4.8.92,1.48,5.29,5.17.86,4.8,1.35,4.43,1.78,1.85,1.29,2.21.92.74,2.64-2.95-3.57-4.8-1.29-4.8-.92-4.43-2.21-5.17-1.29,1.48-4.86v-.49l4.43-1.72,5.17-.92,4.43-1.29,5.17-1.35,4.43-1.78,4.06-1.78-4.8-1.72-5.9.43h-5.9l-5.54.43-5.17.86-5.9.49-4.8,1.29-4.8,1.78h-5.54l-4.8-1.35h-5.9l-4.8,1.35h-5.9l-5.9.43-5.9.43-5.54.49h-29.15l-5.54.43h-5.9l-5.9.43-4.8.86h-5.9l-5.54.49-5.17.43-1.85,5.29-4.43,1.35,4.8,1.29-3.69,2.21,4.8,1.35,4.06,2.64,3.32,2.64-1.48,5.35,1.84,4.86,1.85,4.43,4.43,1.78,5.17.86,5.54.43,5.54.49,4.8,1.29,5.54.43,1.11,5.35,4.43,1.78,4.06,2.21,4.8,1.29h5.54l5.17,1.35,3.32,2.64,3.69,2.64-2.21,4.86-2.58,3.57-4.06,2.64-1.85,4.43,4.43,1.35,2.95,3.51,2.58,4.43,2.95,3.57,1.85,4.86-3.32,3.14-4.43,1.29-5.54.43-5.54-.43,3.32,3.14,2.21,3.51v.43h-5.9l-4.06-1.72,1.11-5.35,4.06-2.21,1.48-5.29,1.85-4.43-2.21-4.43-3.69-2.64-5.17,1.29-2.95,3.57-2.21,4-4.06,2.64v6.64l1.85,4-2.95-3.14-1.48-5.29,1.48-4.86,4.43-2.21-2.58-4,1.48-5.35-2.21-3.94,4.43-2.21,4.8-1.35,5.17-.86,2.95-3.57,4.43-1.78,3.32-2.64-4.8-1.78-5.17-.86h-5.54l-5.17.43-5.17.86-5.54.49-5.9.43-5.17-1.35-5.17-.86-3.32-3.14-4.8-1.72-4.43-1.78-3.32-3.14-5.17-.86-5.54-.86-4.8-1.35-4.8-1.35-4.06-1.72-5.17-1.35h-11.44l-5.17-.43h-5.9l-5.17.86-5.17.92-4.06,1.72-4.06,2.21-4.8.92,4.43,1.78,5.17-.92,4.8,1.35,3.69,2.64-3.69,3.08-4.8.92-5.54.43-4.8-1.35-4.06-2.21-4.8-1.29-4.8-1.35-5.54.43-5.54.92-4.8,1.78.37,6.64,2.58,3.94,5.17.92,4.06,1.78,4.8.86,5.53.43,4.06,2.21,5.17,1.35,5.54.43,4.06-2.21,4.06,2.64,5.17.92,1.48,5.29,2.58,3.57,5.53-.49,4.43-1.72-4.06,2.64h-5.54l-4.8-.92-5.54-.43-4.06-1.78-2.95-3.51-5.54-.43-5.9-.49-5.54-.43-2.95,3.57-3.32-3.57-5.53-.43-5.9-.43-5.9-.43-5.17-.49-5.17-1.29-5.17-.92-3.69-2.64,4.43-1.29,1.85-4.92-4.06-2.21-1.48-5.29,4.06-2.21,1.85-4.86,4.06-2.21-1.85-5.35,2.58-3.94-4.43-1.78-4.43-1.78,4.43-1.35-4.43-2.21-4.8-.86h-5.9l1.85,4.43,2.21,4.43,1.11,5.78-1.85,4.43-3.69,2.64-5.17.86-4.8,1.78-5.54.86-4.8,1.35-5.17.86-4.8,1.35-1.84,4.43-3.69,2.64-4.43,2.21-3.69,2.21,4.8,1.78,4.43,1.35,4.06,2.21,2.58,3.94,3.69,2.71,2.21,4.43,4.06,2.21,4.43,2.21-.74,5.72-4.06,2.64-3.32,3.14-4.06,2.21-1.48,5.29-1.48,4.86-3.32,3.14,2.95,3.07,3.69,2.64,2.21,4.43-2.58,4,2.58,4,5.54-.43,5.54-.92,5.17.92,5.17.86,5.54-.86,4.06-1.78,4.8-1.78,5.17-.43,5.17.43,5.9.43,4.43,1.35,5.17,1.35h5.9l3.69,3.07,5.17.43,4.8,1.35,5.17.86,3.32,2.64.74,6.64,4.06,1.78,2.21,4.43,3.69,2.21-4.06,1.78-5.9.43-3.69,2.21-2.21,4.43.37,6.64,5.17.43,5.9.49,4.43,1.72,5.53.49,5.17-.92,5.53.92,4.43,1.29.74.92-5.54-.49h-5.9l-5.17.92h-5.9l-5.17-.92-5.17-.86-4.43-1.78-5.17-1.29-4.06-2.21,4.06-1.78-.37-6.21,2.58-4-4.06-1.78,3.32-3.08-1.85-4.86-4.43-1.78-4.43-2.21-4.43-1.35-1.48-5.72-5.17-.92h-5.54l-5.54.92-5.17.86-5.54.43-5.17,1.35-5.17.86-5.17.92-5.17,1.29-3.69,2.71-.74,5.72,2.21,4.43,3.69,2.64,2.58,4,1.11,5.78-1.85,4.86-4.43,2.21-4.06,2.21-4.43,1.78-3.69,2.21-1.85,4.86-1.59,4.19,1106.54,1106.54,4.29,1.15,1.85-4.43,2.58-4.43,3.69,2.64,3.32-2.64,5.54-.43-1.85-4.86-1.84-4.86-5.17-.49-2.58-3.94,3.69,2.64,5.17.43,3.32-3.57-3.69-2.21,4.8-1.29-3.69-2.64-2.95-3.14,2.95-3.08,4.06,2.21,1.48-5.35.74,5.78,3.69-2.21-1.85-4.43,1.85-4.86-5.54.43-4.06,2.21,3.32-3.07,2.95-3.57,3.32-3.07-3.32-2.71-4.43-1.72-2.95-3.57-2.58-3.57-4.43-2.21-4.43,1.78-3.69,2.64-4.8,1.35-2.95-3.57-5.54.49-4.43.86,3.32-3.07,3.69-2.71h5.9l5.17.49,1.48-4.92,4.06-2.21,4.43-2.21,2.95-3.07,4.43-1.35,5.54-.43-1.11-5.29-1.85-4.86-3.32-3.14-3.69-2.21-3.69-2.64-2.95-3.57-3.69-2.21-4.8-1.29-1.84-4.86-4.06-2.21-4.43,1.72-4.43,1.35-4.8-1.35-2.58-3.51-2.58-3.57-2.95-3.51,4.8.86,1.48,4.86,2.58,4,4.43,1.35,3.69-2.21,4.06-2.21,4.43.86,3.69,3.07,2.58,3.57,5.17-.43,5.53.43,3.69,2.21,4.43,1.78,1.48-5.35-2.58-3.51-3.69-2.64-4.06-2.21-.37-6.21-4.06-2.21-4.06-2.21-3.69-1.78.37-6.64-1.48-5.29-1.85-4-2.58-4.43-1.48-4.86-2.58-4-1.11-5.35-1.48-5.29-1.48-4.86-2.58-4-4.06-2.21-4.43-1.35-4.06-2.21-1.84-.86-2.95-3.07-4.06-2.21-2.95-3.14,1.11-5.72,3.69-2.21,1.48-4.92,2.95-3.51,2.21-4.43,4.06-1.78,4.06-2.21,2.21-4.43,4.06-1.78-2.95-3.51,3.69-2.71,2.58,3.57,4.43-1.78,1.48-5.29,2.21-4.43,4.43-1.35-4.8-1.29,4.06-2.21,5.17-.49,4.43-1.72,3.32-3.14,4.06,2.21,2.95-3.51,4.06-1.78,5.17-.92,2.95,3.57,3.69-2.64.37-6.21,3.69-2.64,2.21-4-4.8-1.35-5.17-.43-2.95-3.07-4.06,2.21-5.17.43h-5.9l-2.95-3.57-5.53-.43-2.58-3.07-3.32-3.57-5.17.92-4.43,1.29-4.43,1.78-1.85,4.43-3.69,2.64-4.06,2.21-1.85,4.86-1.11.92-2.95.86h-5.54l-4.8-.86-3.69-2.64-2.58-4,.74-5.78,2.21-4.43-1.48-5.29-2.95-3.14-3.69-2.64-4.06,2.21-4.43-1.78-5.54-.43-4.06-2.21-4.06-1.78-2.95-3.51-1.85-4.43v-6.64l2.58-4,1.48-4.86,3.69-2.64,5.54.43,2.58,3.51,4.8-.86,3.69-2.64h5.54l5.17-1.35,2.95-3.51,1.85-4.43,1.48-4.92,3.32-3.07,2.95-3.08,4.43-1.35,4.06-2.64,4.43-1.78,4.06-1.78,4.06-1.78,1.85-4.86,2.95-3.07,2.95-3.57,4.43-1.78,1.85-4.43,1.84-1.29h2.58l5.54.43,4.8,1.35,2.58-3.57,1.85,4.86,4.06,1.78,2.58,4,1.85,4.43-2.95,3.51-2.58,3.57-2.95,3.57-2.58,3.94-4.43,1.35-3.32,3.57-1.85,4.43,2.21,3.94,3.69,2.71,5.17-.49-3.32,2.71-1.11,5.72-4.43,1.78-4.43,1.35-4.43,1.29,1.11,5.78,4.06-2.21,5.17-.92,4.43-1.72,3.69-1.78,3.32-3.14,2.58-3.94,2.95-3.14,3.69-2.64,4.43-1.78,3.69-2.21,4.43-1.78,3.69-2.21,4.06-2.21,5.17-.43,3.32-3.07,4.43,1.78h5.54l4.06-1.78,3.32-3.14.37-2.64v6.64l4.43,1.35,1.11,5.72,3.32-3.08,4.06,2.21,4.43,1.35,4.06,2.21,2.58,3.51-1.48,5.35-1.85,4.86-2.21,4.43,1.85,4.43,4.8-1.35,3.32,2.64h-5.54l-5.17.92-2.58,4-2.58,3.51,1.85,4.43-4.43,1.35,3.69,2.21,5.54.43-2.95,3.08,2.95,2.71,5.54.43-1.85,4.86,3.69-2.64,3.32-2.64,2.95-3.57,2.95,3.57,4.06,2.21,4.8-1.35,5.17.86,4.8-.43,1.48,5.35-3.32-3.14,1.11,5.35,1.84,4.86,2.95,3.51-4.43,1.35,4.43,1.78.74,6.21-4.43-1.35-4.43-1.78-.74,5.78-1.85-4.43-1.84,4.86-4.43,1.35,3.32,3.51,4.06-2.21,1.48,5.78,1.48,4.86-1.11,5.78,2.95,3.08,4.8-.43-3.69,2.21,1.48,4.86-3.69,2.64-3.32,2.64,4.8,1.35-4.43,1.78-1.85,4.43v6.64l-2.21,4.43,1.48,4.86,4.06-1.78-3.69,2.64,3.69,2.71-4.06,2.21,4.06,2.21-.74,6.15,3.32-3.08,2.58-3.57,2.95,3.57,2.21-4.43,3.32-3.07,4.43-1.35-2.21,4,2.58,4,1.85-4.43-.74-6.21,4.8,1.29,4.43-1.29-4.06-1.78,2.95-3.07,4.8-.92,3.69,2.64,5.54-.43,4.43-1.78,2.21-3.94,4.8.86h2.58l5.17.43,2.95-3.51,2.58-3.57,2.21-4.43,1.11-5.78,1.11-5.29-3.32-3.07-.37-6.64,1.11-5.35v-6.64l-.37-6.64-.74-6.21-1.48-4.86-2.58-3.51-2.21-4.43-2.21-4-2.95-3.57-2.95-3.51-2.21-3.57-2.21-4.43-2.21-4.43-2.21-4.43-1.11-2.21-2.95-3.07-3.32-2.71-3.69-2.64-2.95-3.51-4.06-2.21-3.69-2.21-2.21-4.43,3.32-3.14-.74-6.21,2.95-3.51,4.06-2.21,3.32-2.64,4.8-.92,4.8-1.29,4.43-1.78,3.32-2.64,3.32-3.57,3.32-2.64,4.06-2.21,1.85-4.43,4.06-2.21,4.06-1.78,4.43-1.78-.37-6.64,1.11-5.29-2.21-4.43,1.11-5.78,3.32-3.08,2.58-4,2.21-3.57,3.32-3.08,3.69-2.64,4.06-2.21,3.69.43,2.21-4.43-1.48-4.86,5.17-.43,4.8.86,2.95-3.57,2.95-3.08,2.21-4,3.32-3.08,2.95-3.57,3.32-2.64-.74,5.78,4.8-.92,3.69-2.21,1.85,4.43.74,6.21h5.54l4.43-1.78,1.85,4.43,4.06-1.78,2.58,3.57,4.06-1.78,4.8-1.29,4.43-1.78,4.43-1.35,4.43-1.78,2.95-3.07,4.43-1.35,4.06-2.21,3.69-2.64,3.69-2.21,3.69-2.64,3.69-2.64,1.84-4.86,4.8-.92,1.84-4.43,2.95-4,1.48-4.43,2.95-3.08,3.69-3.07,4.06-1.78,2.21-4.86,2.95-3.57,3.32-2.21,2.95-3.57,3.32-3.07,2.58-3.57,3.69-2.64,3.32-2.64,2.95-3.57,3.32-3.08,3.69-2.64,2.58-3.57,2.95-3.51,2.95-3.57,3.32-3.07,1.48-4.92,3.32-3.07,1.48-5.29,2.21-4,1.85-4.43,3.32-3.57,2.95-3.07,3.69-2.21,1.84-4.86,2.58-4,2.21-4,2.95-3.57,3.69-2.64,3.32-2.64,3.32-3.57,3.32-2.64,3.32-3.08,1.84-4.43,1.11-5.78,2.58-3.51.74-6.21,1.48-5.35,1.48-4.86.74-6.21-2.21-4.43,2.58-3.94,3.69-2.71-4.06-2.21v-6.64l-.74-5.72,1.11-5.78,2.21-4,1.11-5.72,1.11-5.35,4.06-2.21.74-6.15,4.8-1.35,1.84-4.43,4.06-2.21.37-6.64-2.21-4-3.32-3.08,2.21-4-.74-6.64-2.95-3.07-3.32-2.71-3.69-3.08,5.17,1.35,4.43,1.29,4.06-2.64.37-4.86-4.06-2.21-4.06-2.21-3.32-3.14-4.43-1.72-4.06-2.21-3.32-3.14-3.69-2.64-1.11-5.78-4.43-1.72-4.06-2.21-2.95-2.71-4.43,1.78-4.43,1.35-5.17-.43-4.8-1.35-4.43-1.78-.74,5.78-.37,6.64-1.48,5.29-2.58,3.57-5.17,1.29,1.84-4.86,3.69-2.64,1.48-5.78-4.8,1.78-2.21,4.43-3.32,2.64-4.43,1.78-4.8,1.35-5.54.43h-5.9l2.95-3.57,3.69-2.21,2.95-3.51,3.69-2.21h-5.9l-3.69-2.21,2.58-3.57,3.32-3.51-5.17-.92-4.43,1.35-3.69,2.64,2.21,3.57-1.11,5.72-5.54-.43-3.69,2.64-2.95-3.51,2.58-4.43,1.11-5.78-1.85-4.86,2.58-4-4.43-1.78-5.17.92-5.54-.92-4.8,1.35-5.54.43-3.32-3.08-5.17-.92-4.06-1.78,1.11-5.29,3.69-2.64,4.06-2.21,4.43-1.78,4.06-2.21,4.43-1.78,3.32-3.07,2.58-3.57,4.43-1.78,4.8-.86,2.95-3.08,2.99-1.5V179.12l-3.36-.56ZM456.13,636.87l-3.69,2.64-4.8.86-4.43,1.78-5.17.92-4.8,1.29-5.17.43-2.58,4,.37,6.21,4.06,2.21,3.32,3.07,1.48,2.71,1.48-.92,4.8,1.35-4.8,1.29,2.58,3.57.74,6.21,5.17.43h-5.54l-1.11,5.78-1.11-.49-1.48-4.86,1.48-5.29-2.58-3.57-2.58-4-1.84-4.43-4.06-2.21-3.32-2.64,1.11-.86,1.11-5.78,3.32-3.51,5.17-.49,4.43-1.29,5.17-.92,5.17-1.29,3.69-2.21,3.69-2.21,2.95-3.57,2.21,4.43-4.43,1.35Zm199.26,116.91l-1.11,5.72-3.32,2.64-1.84,4.43-1.85,5.35-4.06,1.78,1.11-5.78v-6.64l1.48-5.29-1.11-5.78,4.06-2.21v-4.43l2.95-2.64,2.58,3.51,2.58,4-1.48,5.35Zm64.21-61.56l-1.48,5.29.37-6.64-1.48-4.86-1.84-4.86-5.17-.92-5.17-.86h5.54l4.06-2.21-2.58-3.57-3.32-3.51,1.84-4.86,2.58-4,1.85-4.43-2.58-4-1.11-5.29,3.32-3.14,2.58-4-1.11-5.72-2.95-3.57.74-6.21-3.32-3.08-2.21-4-1.85-4.43-5.17-.86-5.54.43,3.32,2.64-5.17-1.29-5.54.43-2.95,3.07-2.58,3.57,3.32,3.07,2.95,3.57,5.17.43-1.84,4.86,3.32,3.14-2.21,3.94-3.69,2.71,2.95-3.14-.74-6.21-3.32-3.08-4.8,1.35-5.17-.92h5.54l4.43-1.29-4.8-.92-2.95-3.51-2.21-4.43-4.8-.92-4.06-2.21h5.54l4.8-1.29-3.32-2.71,1.48-4.86,4.43,1.78,4.43,1.35,3.69-1.35,5.17-1.35,3.32-2.64,2.95,3.14,4.8,1.29,2.95,3.57.74,6.21,3.69,2.21-.37,6.64,2.21,4.43,1.11,5.29-.37.86-1.11,4-3.69,2.64,1.11,5.78,2.21,4,1.48,5.29,1.48,4.86-2.21-4.43-4.06,2.21-2.58,3.57,2.58,4,2.95,3.07,1.84,4.43,2.95,3.57,4.43,1.78-5.17.43.37,6.64Zm22.51,31h.37l2.95,3.07,2.95,3.57-3.69-2.64-3.32-2.71.74-1.29Zm129.15-92.99l-1.48,5.72-1.48,4.92-.37,6.64-1.85,4.86-2.95,3.07-.74,6.21,1.11,5.29-1.48,5.35-3.32,3.07-2.95,3.14-1.11,5.29-2.95-3.57-3.32-2.64-3.32,3.14-2.58,3.94h5.9l2.58,3.57-2.58,4-4.8.86-4.06,2.21-3.69,2.64-1.85,4.43-4.06,2.21-3.32,3.14-4.06,2.21h-5.9l-4.06,1.78-4.43,1.72-4.06,2.21-3.32,3.14-4.43,1.29-4.8-.86-4.06,1.78-1.11,5.72-1.85,4.92-3.32,2.64-2.95,3.08-5.17,1.35-4.43,1.29-4.8,1.35-5.17.86-4.43,1.35-4.8,1.35-5.54-.49-5.17-.43-4.43-1.78-4.43-1.29-4.06-2.21,4.8-1.35,5.17-.43,4.8-.86,5.9-.49,4.06-1.72h5.54l4.8-1.35,3.69-2.64,4.06-2.21,3.32-2.64,2.95-3.57,2.95-3.57,3.32-2.64,4.43-1.78,4.43-1.29,3.69-2.64,3.32-3.14,2.95-3.51,1.48-5.35,3.32-2.64,4.43-2.21,4.06-1.78,3.69-2.64,1.85-4.43,3.69-2.64,4.06-2.21,3.69-2.21,2.58-4,2.21-4,2.95-3.51,2.21-4.43,2.95-3.14,2.95-4,1.85-4.43,2.58-3.94,2.95-3.57,1.84-4.43v-6.64l3.32-3.07,3.32-2.71.37-.43,4.8-1.29,4.8,1.72-.74,5.35Zm239.49,683.22l3.69-2.64,4.43,1.35.74,5.72-1.11,5.78,4.43-1.78-2.58,4-4.43,1.35-4.06-2.21-2.58-4-.74-3.57,2.21-4Zm-21.03-46.93l2.58-3.51,2.95,3.51,1.48,5.35-2.58,3.94-3.69-1.29,2.95-2.21,1.11-5.78-4.8.92-5.17-.49,5.17-.43Zm-18.82-3.51l-2.58-3.57,4.8-1.35,1.84-4.86,4.43,1.78,3.69,2.21-1.11,5.78-5.17.86-1.85,4.86-4.43,1.35h-5.53l-1.85.86,2.58-3.08,4.06,1.29-1.48-4.43.74.92,2.95,3.08,2.95-3.51-4.06-2.21Zm-9.23,0l4.8-.92,1.48,2.21-5.17.43-2.95,3.14,1.85-4.86Zm-1.11-449.02l-4.43,1.78-3.32,3.08-3.32,2.64-2.21,4.43-4.43,1.35-1.11-5.35,1.11-5.72,3.69-1.78,2.95-3.57,2.95-3.51,3.32-2.64v2.64l.37-.43,2.58,3.51,5.17.92-3.32,2.64Zm352.03,115.13l-3.32,3.51-1.48,4.92-4.06,2.21-4.06-1.78-4.06-2.21,1.11-5.35-2.58-3.51.74-6.21,4.06-1.78h5.9l4.8,1.35,3.32,3.07-.37,5.78Z"/></g></svg>