<?xml version="1.0" encoding="UTF-8"?><svg id="Layer_2" xmlns="http://www.w3.org/2000/svg" viewBox="0 0 1146.45 1866.22"><defs><style>.cls-1{stroke:#fff;stroke-miterlimit:10;}</style></defs><g id="Layer_36"><path class="cls-1" d="m37.98,1.57l-3.32,3.14-4.43,1.72-4.43,1.78-5.17,1.35-4.06,2.21-4.8,1.78h-5.54l-3.69,2.64-.37,6.21-1.69.61v1252.02l.58-3.04,4.8-.86,5.54.43-4.43,1.78-1.48,5.29,1.48,5.29,2.58,3.57,5.53-.43,4.43-1.78-3.69,2.64-3.69,2.21-3.69,2.64.37,6.21,1.48,5.35,3.32,3.07,1.85,4.43-.74,5.78-1.48,5.29-1.85,4.43-1.11,5.78-1.11,5.72,1.11,5.35,2.21,4.43,1.48,4.86,4.06,2.64.37.86-3.69-2.21-2.58,4,.74,6.21,3.32-3.07.37,6.15-2.58,3.57,2.21,4v6.64l2.95,3.51-1.84,5.35,1.84,4.86,1.11,5.29,1.11,5.78,1.84,4.86.74,5.78v7.07l.74,5.78.74,5.72,1.48,5.35,1.48,5.29,2.58,4,1.48,4.86,3.69,2.21.74,5.78,1.85,4.86.74,6.21,2.21,3.94,4.8,1.35.74,5.78,2.58,3.94.74,6.21,2.58,1.78-.37,6.64,2.21,4,1.11,5.29,1.11,5.78,1.11,6.21,1.11,5.29.74,5.78,1.84,4.86,1.48,4.86,2.21,4.43,1.84,4.43,1.48,5.29,3.69,2.71,2.21,3.94,2.58,4,1.48,4.86,2.95,3.57,1.11,5.29,1.85,4.92,1.11,5.72,1.84,4.86,1.85,4.43,1.48,4.92,1.48,5.29,2.21,4,2.58,4,.74,4.43.74,4.86-1.48-4.86-1.48-5.35-.74,5.78.74,6.21,1.48,4.86,1.85,4.86,2.21,4,2.21,4.43,2.21,4,2.95,3.51,2.21,4,3.32,3.08,2.95,3.14,4.06,2.21,4.8-1.35,4.06-1.78,3.69-2.64,3.32-3.07,1.48-4.86-.74-2.21,1.48-4.92,2.21-4.43,3.32-3.08,4.8-1.35,3.69-1.72,4.43-1.78h5.54l4.06,1.78-3.69-2.21-4.43-1.35-2.58-4,1.85-4.86,2.21-4,2.21-4.43,1.85-4.86-.37-1.35,2.58-3.51,4.43-1.78,4.06,2.21,3.69-2.64-.37-6.64v-6.64l.37-6.64-.74-6.64-1.48-4.86.37-6.64,1.11-5.78,1.84-4.86,2.21-4,2.21-4.43,1.85-4.43,1.48-5.29.74-6.21,1.11-5.78.74-5.29-2.21-4-4.06-2.21,4.8,1.35-1.48-5.35-.37-6.21-1.48-5.29.37-6.64.74-5.78-1.11-.86-.74-5.78-1.11-5.72.37-6.64,1.11-5.35,2.21-4.43,1.85-4.43,3.32-3.07,3.69-1.78,5.17.92,1.48-4.92,1.48,5.35,3.69-2.64,1.84-4.43,1.48-4.92,3.32-3.51,4.8.86h5.54l4.43-1.78,3.69-2.21,2.95-3.94,1.85-4.43-2.58-3.57,1.85-4.43,2.95-3.57,3.32-2.64,4.06-2.21,4.06-2.21,3.69-2.21,2.95-3.51,3.32-2.71,2.21-3.94,2.95-3.57,3.32-3.07,3.69-2.21,4.06-2.21,1.84-1.78,2.58-3.57,2.95-3.51,2.58-3.57,2.58-4,2.95-3.51,2.21-4.43,2.58-3.57,3.32-2.64,2.95-3.57,3.32-2.64-4.06,2.21,1.48-5.29,2.95-3.57,3.32-3.07,2.21,4.43,5.54-.49,4.43-1.72,4.43-1.35,4.06-2.21-3.32-2.64,4.06,1.78,2.58-3.57,2.95-3.57,3.32-2.64,1.11-5.72,3.32-2.71v-6.64l-1.85-4.86.37-6.64,2.58-4,2.95-3.07,4.8-1.35,4.43-1.29,4.8-1.35,3.69-2.64,2.95-3.07,2.21-4.43-1.48-5.35-2.21-4.43,2.58,4,1.11-.43,2.95,3.07-1.48,5.35,1.48,4.86,1.11,5.72.37-6.64,1.11,5.35,3.69-1.78.37-6.64.74,6.21,1.48-5.35,1.11-5.72,2.21,4-.74,6.15,1.85,4.92,1.85-4.92,3.32,3.14.74-5.78-2.58-3.51,2.95.43,2.58,4,2.21,3.94,1.84-4.86,4.06-2.21.37-6.21,1.85-4.86v7.07l-1.11,5.35,4.06,2.21,3.32-2.64-1.11-5.78,1.11-5.78,2.21-4.43,1.11-1.29-1.85,4.43v6.64l4.06,1.78.74,6.15,3.69-2.64,1.84-4.43h.37l2.95-3.08,2.58-3.57-.37-6.21-1.85-4.86-2.58-4,5.54-.86-2.58-4v-6.64l-1.84-4.43-4.8-1.78-2.58-3.51-4.8-1.35-2.58-3.51-4.43-1.78-4.43-1.35-4.8-1.78,4.8,1.35,4.43,1.35,1.48-5.35,2.21,4.43,2.58,3.57,3.69,2.21,3.32,3.07,4.06,2.21,4.43-.86h.37l.74,1.29,1.11,5.35-1.11,5.72,2.95,3.57,4.43,1.35,4.8,1.29,5.17.92,2.95-3.14,1.48,5.35,2.58,3.51,2.21,4.43,1.48,5.35,1.85,4.43,1.11,5.72,1.11,5.35v7.07l1.85,4.43,1.48,5.29,2.21,4,2.21,4.43-.74-5.78.74,1.35,1.48,4.86,2.58,3.57,2.21,4.43,2.58,3.51,1.48-5.29,2.58,3.57,2.58,3.51-3.69,2.64,4.8-.86,1.11-5.78-.74,6.21.74,6.64,1.85,4.43.37-6.64,5.17.43,3.32,3.14,4.8,1.78-2.21,4.43,4.06,2.21,2.21,4.43,2.95,3.07-2.58,4-1.48-.43-3.32-.49-2.58-3.51.37,6.21,2.21,4.43,2.95,3.07,3.69-2.64,1.84-4.86v.86l.37,6.64,2.58,3.57,1.85,4.86,1.48,5.29,2.58,3.57,1.11,5.72.74,6.21,1.48,4.86,1.48,5.35-.74,5.72-1.48,4.92-1.48,5.72-1.11,5.35-1.48,4.86-1.85,4.86-.74,5.78v6.64l4.06-1.78,2.58-4,2.21-4,1.48-5.29.37,6.64-.74,6.21-2.21,3.94,3.69-2.64,1.85-3.51-1.85,4.43,2.95-3.14,2.95-3.08-2.21,4-.74,6.15,4.06,1.78,1.48-5.29,1.85-4-.74,5.78,2.21,3.94,1.11-5.72,1.85-4.43-.37,6.64,1.11,5.72,3.69-3.07,2.58-3.07,1.85-4.92,3.32-3.07,4.06-1.78,4.06-2.64,1.11-5.29-1.48-5.35,2.21,4.43,3.69,2.21,4.43-1.78,2.95-3.51,2.21-4,1.48-5.29-1.48-4.92.74-6.15v-1.35l2.58,4,2.95,3.51,3.69,2.71-1.85,4.43,1.48,5.29,2.21,4.43,4.06,1.78,5.17-.92-2.58,3.57v6.64l-1.11,5.29,2.95,3.57.74,6.21.74,5.72-.74,5.78,1.48,5.29.37,6.64,3.69,2.21-1.48,5.35,1.85,4.86,1.48,4.86.37,6.64,1.11,5.78.37,6.21,1.11-5.35.37-6.64,1.48,5.35,1.48,4.86,2.58,4.43,1.11,4.86,2.58,3.57.74,6.15.74,6.21.37,6.21-.37,6.21.37,7.07-2.21,4.43,1.48,5.29,3.69-2.21-1.11,5.35-.74,5.72.74,5.78-1.11,5.78-2.58,3.51-2.21,4,.37,6.21.37,6.64v6.64l3.32-3.14,1.85-4.86-1.11,4.86-1.85,4.43-2.21,4.43-.37,6.21-1.48,4.86-1.85,5.35-.37,5.72-1.48,5.35-1.11,5.72-.37,6.21,1.48,5.78,2.58,3.08,1.48-5.29,4.43-1.35,2.21,4,.74,5.78,4.43,1.72,1.85,4.92,3.69,2.21,2.58,3.94,1.11,5.35,3.32,3.08,2.21,4,2.58,4,1.85,4.86,2.95,3.07,2.58,4,2.95,3.57v.86l1.84,4.86,2.21,4.43,1.48,4.92.37,6.64.37,6.64.74,5.72-1.11,5.78,2.58,3.51,2.95,3.57-.37,6.21-.37,6.64,1.11,5.29,3.32,2.64.74,6.21,2.95,3.57,2.95,3.07,1.85,4.86,2.95,3.57,1.48,4.86-.37,6.21,2.95,3.57,2.58,3.51,4.06,2.21,3.32,3.14,3.32,2.64,2.95,3.51,3.69,2.21,4.06,2.21,2.95,1.78v.43l2.58,3.57,4.06,1.78,3.32,3.08,3.69,2.64,4.06,2.21,2.58,3.57,1.84,4.43,3.32-3.07,4.06-2.21,4.43-1.35,2.58,4,4.06-1.78-.74-5.78-1.85-4.86-1.48-4.86-2.21-4.43-1.48-5.29-2.58-3.57-1.84-4.86-3.69-2.21-2.95-3.57-1.11-5.29v-6.64l.74-6.21-.37-.86-2.21-4.43.37-6.64.37-6.64,2.21-4-.74-6.21-.37-6.64-1.11-5.29-2.21-4.43-1.85-4.43-2.21-4.43-2.95-3.57-3.69-2.64-3.32-2.64-2.58-4-2.95-3.14-1.84-4.86-3.32-2.64-3.69-.86-3.32-3.14-2.95-3.07-2.58-3.57-2.21-4.43-2.95-3.51-4.06-2.21-3.69,2.21-5.17-.92-4.06-2.21-2.58-3.51-4.8-1.35-2.21-4.43-2.95-3.07-1.84-4.43.74-5.78,2.95,3.57,1.85,4.43.37,6.15v-6.64l-.74-5.72-1.11-5.78-1.11-5.72-.74-5.78-1.85-4.86-4.06-1.78-1.48-4.86-.74-6.21-1.11-5.78-1.48-4.86-4.8,1.35-4.06,2.21h-1.48l-3.32-2.64v-7.13l-1.48-4.86-.37-6.64.37-6.64,1.11-5.29,1.48-5.35,2.21-4.43,1.84-4.86,1.48-4.86,1.48-4.86.74-5.78,1.84-4.86,2.58-4,1.11-5.72,2.58-3.57.74-6.21v-6.64l-.37-6.64,1.85-5.29.74-5.78-2.95-3.51,1.48-2.71-.37-.43,3.69-2.21,5.17-.86,4.8-.92,4.8.92,4.43,1.29-.74,6.21-.37,6.21-.37,6.21,1.48,5.29,4.06-2.21,2.58.43,4.06,1.78,4.06-1.78,4.8-.86,2.58,3.57,4.43,1.72,2.21,4,2.21,4.43,4.43,1.35,4.8,1.29,2.21,4,2.21,4.43,1.11,4.86,4.06-2.21-2.21,4,2.95,3.14-.74,5.72.74,6.21,1.48,4.86h5.17l1.48-5.29,5.17.86,1.11,5.35-2.95,3.07.37,6.21,5.17-.92,5.54-.43,5.17.92,3.69,2.64.37.43,2.58,4,1.84,4,5.54.43,4.06,2.21,1.48,4.86-4.43,1.35-1.48,4.86-.74,6.21-.37,6.64v7.07l2.21,4.43-2.21,4,4.43,1.72,3.69-2.21,3.32-2.64,2.21-4.43,2.21-4.43,3.32-2.21,4.43-2.21,4.06-1.78,4.06-1.72.37-1.35-.74-6.21-2.21-4.43-2.95-3.51,3.32,3.08,2.95,3.57,3.69,2.64,5.17-.92-1.11-5.72-2.95-3.14-2.58-3.51-2.58-4,2.95,3.57,2.95,3.07,3.32,3.08-1.84-4.86-2.58-3.51,2.95,3.08,4.43-1.35-1.84-4.43-4.06-1.72,5.17.43,3.32-3.14-4.8-.86-.37-1.78,3.69-2.21,4.8.92,4.43,1.72,5.17.49,4.43-1.78,3.32-2.64,3.69-2.71,4.43-1.29,1.85-4.43,5.17-.92,2.95-3.08,2.95-3.57,4.43-1.29,2.95-3.14,3.32-3.07,2.58-4,2.21-4-2.21-3.94,1.84-4.43v-6.64l-1.11-5.78,3.32,3.07-1.48-5.29,1.11-5.29,2.95,3.07-.74-6.21-.37-6.21-.74-.86-.37-6.21-1.84-4.86v-6.64l1.84-4.86-1.48-4.86-1.11-5.78-1.84-4.43-1.11-5.78-1.11-5.29-2.21-4.43-1.11-5.29-.74-6.21-3.69-2.64-2.95-3.14-2.21-4-1.85-4.86-2.95-3.08-2.95-3.57-2.58-4-4.43-1.29-2.21-4.43-3.32-2.64-3.69-2.21-2.58-4.43-2.95-3.14-2.58-3.51h-.37l-2.21-4-3.32-2.64-3.32-3.14-2.58-3.51-2.21-4.43-3.32-2.71,1.84-4.86-1.11-5.29-3.32-2.64-4.43-1.78-2.21-4-2.95-3.57-1.85-4.43-2.21-4.43-2.21-3.94,2.95-3.57,1.85-4.86v-7.07l1.11-5.35,1.85-4.43,3.32-3.08,3.69-2.21,2.95-3.57,4.06-1.78-.74-1.72,1.48-4.92,2.21-4.43,1.85-4.86-1.48-5.29,4.06,1.78,4.06-1.78,5.53-.43,2.95-3.14,1.48-4.86,4.43-1.78,3.32-3.07,4.8-.92.37-1.72,4.8-.92,2.95-3.51,2.58,4.43,2.95-3.57-1.85-4.43,3.69,2.64,2.58,3.57,2.58-3.57,2.58,3.57,4.43,1.78,2.95,3.07,4.43-1.35,1.48-4.86,3.69,2.64,3.32,2.71,3.32.43-3.32,2.64-1.48,5.29-1.48,4.92,1.11,5.29,1.48,5.29,2.21,4,.37,6.21,5.54.86,4.8-1.29,2.95-3.14-1.11-5.29-2.21-4.43-3.32-2.64.37-7.07,4.06-1.78.37-6.21,2.58,4,2.58-3.57,3.69-2.64-2.95,3.57,3.69-2.71,4.8-.86,4.43-1.35,4.8-.86,4.43-1.35,4.8-1.29-2.21-4.43,4.43,1.78.74-6.21,2.95,3.51,4.43,1.78,4.43-1.78-1.11-5.72,1.84,4.86,5.17-.43,3.32-2.64,4.8-1.35,1.48-5.29,2.95,3.07,2.58-3.07-1.11-5.78-2.21-4,2.58,3.57,2.58,4,4.06,1.72,1.48-4.86-1.11-5.72-2.21-4.43-2.21-4.43,2.95-3.57,2.95-3.08-.74,6.15,2.21,4,2.95,3.57,2.21,4.43,1.11-1.35h1.85l-3.32,3.14,4.8,1.29,4.06,2.21,2.58-3.51-4.8-.92,1.11-3.07,4.8-1.35,1.84,4,1.48-4.86,2.58-4,1.48,4.86,4.8-1.29,2.58-4,4.43-1.35,4.43,1.78,2.95,3.08,1.11-5.72-4.43-1.78,4.8,1.35,4.43,1.72,5.17-.86,4.06-1.78,5.17-.86,2.95-3.57,2.58-3.51-2.21-4.43,5.17-.49,2.21-4.43,2.95-3.51,5.17-.43,3.32-3.14,3.32-3.07,2.21,4.43,1.11-5.35,2.95-3.51,3.69-2.21,3.32-3.57-2.21-4.43-4.06-1.78.37-.43,5.17.92,2.21-4h5.54l5.54.43,2.95-3.57-2.21-3.94,4.8-1.78,4.43-1.35-3.32-3.08,1.11-5.78,2.95,3.14,5.17-.92-1.85-4.86,1.85-4.43,4.43,1.78,3.32,2.64v-6.64l.74-5.78,1.84-4.86-3.69-2.64-2.21,1.78-1.11.86-4.06-1.78-2.95-3.51,3.69,2.21,4.43,2.21,2.58-3.57,2.95-3.51,3.69-2.71-4.06-2.21,3.32-2.64-3.32-3.08-2.58-4,4.8-.86,2.58,3.51,2.58-4-1.84,4.92,5.53-.49-1.48-5.29,3.69-2.21.74-6.21,1.11-5.29,2.58,3.51,3.32-3.07,2.21-4,.74-5.72,2.21-4.43-1.11-5.78-3.32-2.64,3.32,1.78.51.14L38.24.9l-.26.67Zm611.08,847.98l4.06-2.21,5.17.43,3.69.49h.37l2.58,3.07,2.58,4,4.06,1.78.74,6.15-4.06,2.21-4.06-2.21-5.54.49-4.8-.92-4.06-2.21-2.58-4,3.69-2.21-1.85-4.86Zm-48.71,58.49l2.58,3.51-2.58,3.57-1.48-5.35,1.48-1.72Zm-125.46-437.09l4.43-1.78,4.8-.86,3.32-3.08h.37l1.48,5.29,2.95,3.07,3.69,2.21-4.06,2.21-2.58,3.57-3.69,2.64-5.17.92-4.06-2.21-2.58-4-1.84-4.86,2.95-3.14Zm-20.66,520.3l1.11,5.78-2.58-.92,1.48-4.86Zm-190.78-462.3l.74-6.15v-6.64l4.06-2.21,4.06-2.21,4.8-.92,4.06-1.78-2.21-3.94-3.69-2.71-4.06-1.72-4.06-2.21-4.06-2.21h5.9l4.06-1.78,4.06-2.21-3.69,2.64-2.95,3.57,4.06,1.72,3.32,3.14,3.69,2.64,4.43,1.35-3.69,3.08-4.8.86-4.06,1.78-4.43,1.78-3.32,2.64.37,6.21,1.48,5.29,5.54.49-4.06,2.21,2.21,3.94,4.06,1.78,3.69,2.21,5.17.92,4.06,2.21-2.21,3.94-3.69,2.71-3.32-2.71-4.43-1.29-3.69-3.14-4.43-1.29-5.17-.92-3.69-2.21-3.69-2.64,4.8-.86,5.54-.43,3.32-3.14-4.06-1.78Zm-49.45-159.41l4.43-1.29,3.69-2.64,1.48-1.35,1.48-2.21,4.8-.86,4.06-2.21,3.69-2.71,3.32-3.07,4.43-1.35,3.32-3.07,4.43-1.35,4.06,1.78-3.69,2.21-5.17,1.35-3.32,2.64-4.8,1.35-3.69,2.21-4.06,2.21-4.8,1.29-4.06,1.78-2.95,4-4.43,1.78-2.58,3.51h-1.85l2.21-4Zm-76.02,325.96l-3.32,3.08-3.32,3.07-2.95,3.14-4.06,1.78h-5.9l-5.17.43-4.8-1.35-4.43-1.78-4.43-1.29-5.54-.43,1.84-4.43,5.17-.49,4.43-2.21,4.8-.86,4.8-.86,5.17-.92h5.54l4.8-1.29h5.17l4.8-.92-2.95,3.57,4.8.43-4.43,1.35Zm-92.25-109.41l3.69-2.21,3.69-2.64,2.58-4,4.8-.86,5.17-.92,4.06,1.35,5.54.43,4.8-1.29,5.17-.92,5.17.43,5.17,1.35,2.95,2.64h5.54l4.06,1.78,4.8-1.35,3.69,2.71,4.43-2.21,5.53-.49,5.17-.43,4.8,1.78,4.43,1.35,2.95-3.57,4.8-1.35,5.54.49,4.43-1.35,5.54.43-2.58,4-1.84,4.43-4.06,2.21-5.54-.43-3.69,2.64-4.43-2.21-4.8,1.35-3.69-2.21-5.17.43-4.06-1.78-4.43-1.35-5.17.92-5.53-.43-4.06-1.78h-5.9l-4.8-1.35-4.8.92-5.54.86-5.17.86-2.95-3.08-2.58,4-4.8.86-5.54.92-2.21,3.94-2.21,4.43-4.06,2.21h-5.54l-.74,6.21-1.11,5.35-4.06,2.21.74,5.72.74,6.21-2.95,3.57-1.11-5.78-3.69-2.21-2.95-3.57-2.58-3.51-4.06-2.64,2.95-3.57,1.85-4.43.74-6.21,4.43-1.78,4.8-1.29.74-5.78h2.95Z"/></g></svg>