<?xml version="1.0" encoding="UTF-8"?><svg id="Layer_2" xmlns="http://www.w3.org/2000/svg" viewBox="0 0 3150.34 3567.83"><defs><style>.cls-1{stroke:#fff;stroke-miterlimit:10;}</style></defs><g id="Layer_34"><path class="cls-1" d="m9.59,183.83l4.06,1.78,4.8,1.29,5.54.43,5.17.49h5.9l4.8,1.29,5.17.43,4.06,2.21-5.17-.86-3.69,2.64-4.43,1.35h-5.9l4.43,2.21,3.69,2.64,4.06,2.21-1.11,5.29,4.06,2.21,5.17,1.35,5.17.43,5.17.43,5.17.92,5.17.86,5.17.43,4.06-1.72,5.54-.49,4.8-.86,5.9-.43h11.07l4.8,1.29h5.54l-4.06-1.72,4.43-1.78,3.32,3.08,4.06,2.21,3.32,2.64,2.58-3.51,4.06-2.21,4.43-1.35,3.69-2.64,5.17-.86,4.8-.92,5.54.43,3.32-3.08,5.54.43,4.43,1.78,1.48,5.29-4.43,1.78-4.8,1.35-3.32,2.21,4.06,2.21,4.06,2.21,1.48,5.29,2.58,4,1.11,4.86-3.32,3.14-3.32,2.64-4.06,2.21-5.17.86-5.9-.43-5.54.43-4.43-1.78-4.43,1.35-3.69,2.64-3.32,3.14-4.43,1.29-3.32,3.14-4.43,1.72h-5.9l-4.8-.86-4.43,1.35,3.32-2.21-2.95-3.14-5.17-.86h-5.54l-5.17,1.29-3.69,2.21,3.69,3.14-5.9-.43-3.32,3.08-1.48,5.78,4.43,1.72,4.43-2.21-3.69,3.14-3.69,2.21,3.32,3.08-4.8-1.78-4.8-.86-3.69,2.21-3.32,3.08-3.32,2.71-3.69,3.08-1.85,4.43,2.58,4-5.17.43-4.8,1.35,2.95,3.51h-5.54l1.48,4.86,4.43-2.21,3.69,2.71-3.32,3.08,4.43,1.78,2.21,4,4.06,2.21,2.21-4.43,2.58-3.57,4.06-2.21,4.06-2.21,4.06-2.21-3.32,2.64-4.06,2.21-3.69,2.64-2.58,4,4.8-1.29,1.85,4.86,4.8-.92-4.06,2.21-4.43,1.35,5.17.43,5.17.92,4.06,1.72h11.44l4.43-1.29,4.06-2.64,3.32,3.51-5.17.92,5.17.86,1.48,4.86-4.43,1.78-1.85-4.86-5.54-.43-3.32,3.08-4.8,1.35,3.32-2.71-3.69-2.64-5.17-.43-4.06-2.21-3.69,2.21-2.95,3.57-4.06,2.21-4.06,2.21,5.17.86,4.8-1.35-1.85,4.92,4.43,1.72,5.54-.43,1.48,3.14,3.32,2.64,4.06,2.21,1.85,4.43,4.06,2.21,5.54.43,5.54-.43,5.17-.43,5.17-.92,4.43-1.78,4.06-2.21h5.54l1.48-5.72-4.43-1.78,3.32-2.64,2.95-3.14,2.58-3.94,4.8-.92-3.69,2.64-2.58,4-2.21,4,2.58,3.57,3.69-2.21-1.48,5.29,2.95,3.57,2.58,3.51,2.58,3.57,1.85,5.29-3.69,2.21-1.48,5.35,3.69,2.64,4.06,1.78-2.58,3.94,2.21,4-3.69,2.64-4.43,1.35h5.54l5.17.43,4.8-1.29,2.21-4.43,5.17-.49h5.54l3.32-3.08,4.06-1.78,4.8-1.29,2.58,3.94,5.17.92,3.69,2.64,4.43-1.78,4.8,1.35,2.95,3.08,3.32,3.57,2.95,3.08,4.43,1.78,2.58-4.43-1.11-5.29,2.21-4,3.32-2.64,3.32-3.14,4.8.92,3.69,2.64-4.06-1.78-4.43,1.35-1.85,5.29,4.06,1.78,3.32,3.07,4.8-.86,4.8-1.78,4.43-1.35,4.8-1.29,4.43-1.35,4.06-2.21,3.69-2.64,2.58-4-1.48,3.14-1.11.86-2.21,2.21.74,5.78-4.43,1.29-3.69,2.64-3.69,2.71-2.58,3.94,2.21,4,5.17.92-4.8.43-3.69,2.64-.74,6.21-1.48,4.86,2.95,3.57,4.06,2.21-5.54.43-4.43-1.78-4.06,2.64-3.69,2.21-4.43,1.78-3.32,3.07-2.95,3.14-1.85,4.43-2.58,4-4.06-1.78-4.06,2.21-3.69,2.21-4.8,1.29-4.8,1.35-4.06,2.21-3.69,2.21-4.06,2.21-3.69,2.21-2.21,4.43-1.11,5.78,2.58,3.51-4.06-1.78-5.54-.43,1.85,4.43-4.06-1.78-3.32-3.07,3.69-3.08-4.43,1.72-4.8-1.29-4.8.86-4.43,1.35-4.8,1.29-4.06,2.21-4.06,2.21-3.32,2.71-3.32,3.07-2.21,4.43-4.8,1.35-2.95,3.07-5.9.43-4.06,1.78.74,1.35v6.64l4.06-2.21,1.48-5.35,2.95,3.14,4.8.86,2.21-4.43,2.95-3.07,1.48,5.29h5.54l4.43-1.35,2.95-3.51,2.95-3.57,1.48-5.29,3.32-3.14,5.17.49,4.06,2.64-5.54-.92-1.11,5.35h5.54l4.06-1.78,3.69-2.64,5.17-.92,4.06,2.21,1.85-4.86,5.54-.43,4.06-1.78,4.43-2.21,4.8-.86.37,6.21,2.58-4,2.95-3.14,5.17-1.29,4.8-.92,5.54-.43,1.11-5.72,4.43,1.72,4.43-1.72,3.69-2.21h-5.9l4.8-1.35-4.8-.86-5.54.43,3.69-2.64,3.69-2.21,5.17-1.35,3.32-2.64,4.06-1.78,4.43,1.35,2.21-4,3.69-2.21,4.06,2.21,3.32-3.14,5.17-.43,3.69-3.08,4.06-1.78,2.95-3.57-2.58-3.94,3.69-2.71,5.17-.43,3.32-2.64,5.54-.43,2.58-3.14,3.69-2.64,4.06-2.21,4.8-1.29,2.21-4,5.54.43,4.8-.86,2.58-4,4.8,1.29.74-5.72,2.58-4,4.43-1.78,4.06-2.21,4.06-1.78,4.06-2.21,2.58-3.94-3.32-2.71-4.8-1.29-4.8-.92h-5.9l-3.69-2.21,2.58-3.94,3.32-3.14,5.17-.86,2.58-4,3.69-2.21,3.69-2.64,3.69,2.64,4.06-2.21-2.21-4.43h5.54l4.43-1.78,1.85-4.86-4.06-2.64-3.32-3.14,4.06,2.21,5.17-.43,3.69-2.64,1.85-4.43,4.06-2.64,3.32-2.64,4.8-1.35,1.11-5.29,2.21-.49,3.69-2.21,5.17-.43,4.06-2.21,3.69-2.64,5.17-.86,5.17-.92,5.54.43h5.54l3.32-2.64,3.32-2.64,4.8-1.78,5.17.92-4.43,1.29-4.43,1.78-3.69,2.64-2.21,4,4.06,2.21,4.43,1.78,4.8.86h5.54l3.32,3.14-4.8-1.35-5.17-.86-4.8-.92-5.9.43-4.8.49-4.43-1.35-5.17-.86-4.43,1.72-4.06,1.78-4.06,2.21-5.17.92-1.85,4.43,1.11,5.72-2.21,4-2.95,3.08-3.69,2.71-2.58,3.94-.74,6.21,4.43,1.35,5.54-.43,4.06-1.78,5.17-.92-3.32,3.14-3.32,2.64-3.32,3.08-5.17-.86-4.8,1.35-.37,6.64,4.8.86,4.43-1.78,5.17.43,4.06-1.72,4.43-1.35,3.69-2.21,2.58-4,5.17-.43,4.8.86,1.85-4.43,3.69-2.64,4.8,1.35.74-6.21,2.58,3.57,3.69-2.71,2.95-3.51,2.21,4.43,4.06-2.21,5.17.86,5.54.43,4.8-1.29,1.85-4.86,2.95-3.14-4.43,1.35,3.69-2.64,3.69-2.71,3.32-3.08-4.43-1.35-4.8,1.35-5.17-1.35,5.54.49,1.48-5.35-4.43-1.29-5.17-.92,5.17-1.29,2.95-3.57,3.32-2.64-4.8,1.29,4.43-2.21,4.8.92,3.32-3.14,3.32-3.08-.74,2.65-3.69,2.64-1.85,4.92,4.8,1.29,2.58-4,2.58-3.94,2.21,4.43,3.32,2.64,4.06-2.21,4.8,1.29,3.69-2.64,4.06-2.21,5.17.92-4.43,1.29-2.21,4.43,4.43,1.78h5.54l-5.17.86-4.8,1.35,4.8,1.78,4.8-1.35,4.06,1.78h5.54l3.32,2.64-3.32,3.14,5.54-.49,4.06,2.21,5.17.92,3.69-2.21,3.32-3.14,3.69-2.64,4.43-1.29-4.06,2.21-2.21,3.94,1.48,4.92,3.69,2.21,4.8,1.29,5.17.92,2.95,3.08,4.8,1.35,4.8-1.35,5.54-.43,5.54-.43,5.54-.49,4.8-.86,5.54.43,5.17.92,5.17.86,5.17.43,4.43,1.78,4.8-1.35,3.69-2.64,2.21,4-4.06,2.21,4.8.86,4.43,1.35,4.8,1.78,5.17.43,5.54.43,5.17-.86,4.43-1.35,4.43-1.78,3.69-2.64,3.32-3.08,3.32,2.65,3.69,2.64,5.17.92-5.17-.49-2.21,4.43-1.11-5.72-3.69-2.64-2.21,3.94,1.85,4.43-2.95,3.14-5.17.86,2.95,1.35,4.43,1.78,4.06,1.72,4.8,1.78,4.43,1.35,4.43,1.78,4.8.86,4.06,2.21,4.43,1.35,4.06,2.64,3.32,2.64,2.58,3.57,3.32,3.07,4.06,1.78,4.06,2.21,4.43,1.78,4.8.86,3.69,2.64,4.43-1.78,5.17-.43,4.43,1.35,3.32-2.64-1.85-4-5.17-.92-3.69-2.64-2.58-4.43-5.17-.86-5.17-.92,3.69-2.64,5.54.43,3.69,2.71,3.32,2.64,5.17.86,1.85-4.86,4.43,1.78-2.21,4.43,2.95,3.51-1.11,6.21,5.17-.86,5.54-.43,2.21,4.43,4.43,1.72,2.58-3.94-2.21-4.43-1.48-4.92-2.21-4.43-2.21-3.94.37-7.13-3.69-2.64,4.43,1.78,2.58,3.57,1.85,5.29,1.85,4.43,2.58,4,2.95,3.07,2.21,4.43,5.54.43,3.69,2.71,4.06,1.72,2.95-3.51,1.85-4.43,5.17-.92-4.43,1.35-1.48,5.29-.74,6.21,4.06,2.21,4.8-.86-3.32,3.08,5.17.92,4.8-.92-3.69,2.64,3.69,3.14,3.69,1.78,3.32,3.07-3.69-2.21-4.8-1.78-3.32,2.64h5.54l-3.32,2.71,2.58,4.43,4.8.86-5.17.43-3.32,3.14,4.43,1.29,4.8-1.29,3.32,3.07,3.32,3.07,2.95,3.57,4.06,1.78,4.8-1.35-3.32,3.14,4.43,1.72,2.21,4.43,2.95,3.57-1.85-.43-3.69-3.14.37,4,2.58,4.43,4.06,1.78,1.11-5.29-2.21-.92,2.21.43v.49l1.48.86,4.06,1.78h5.9l-5.54.43-4.8.86-.74,6.21-2.21,4-3.69,2.64,2.21,4.43,4.43,1.35,2.95-3.57.37-6.64,4.43-1.78,4.43-1.72h5.54l4.06-2.21-1.48,5.29,3.32,3.57,1.85,4.43v6.64l4.06,2.21-5.54.43-2.95,3.08,4.06,2.21,4.43-1.29-4.43,1.72-1.11,5.35,3.32,3.07,1.48-4.86,1.85,4.86,4.43-1.78,3.32-3.08,2.95-3.57,2.21-3.94,1.11-5.78-1.85-4.43v-6.64l3.32-3.07-1.11,2.64-.74,5.72,1.48,4.92.74,5.72-.74,5.35,2.58-3.57,1.85-4.86,1.48-5.35,2.95,3.14-2.58,4-2.58,3.51-1.85,4.86,5.17.49-4.43,1.29-4.06,2.21-2.21,4,3.32,2.64-3.69-2.21-4.06,2.21,3.32,3.14,5.54.43-2.95,3.07-3.32-3.07-4.06-1.78-.37,6.21,4.8-.92,1.11,5.35,5.54-.43,5.17-.49,5.54-.43-4.8.92-5.54.86,2.21,4-2.58-3.57-3.32,3.14,1.85,4.86,3.32,2.64,3.32,3.07,3.32,3.14,3.32,2.64,4.43,1.78.74-6.21,3.32-2.64,4.06-1.78,3.32-3.57,3.69-2.64,1.85,4.43-4.8.92-1.48,5.29,3.32,3.08,3.69,2.21,4.8-1.29,5.17.86,2.95,3.57-3.32-3.14-5.17-.86-4.06,2.21-4.06-1.78-2.95-3.07-2.95,3.07,1.48,4.86,4.8,1.35,2.58,3.57,1.11,5.72,3.69,2.64,4.8-.86-.37,4-1.84,4.43-.37,6.64,2.58-4,3.32-2.64,2.58,4,.74,5.72,2.95-1.29,1.11-.92,4.06-1.78,4.06-2.64,2.58-3.51,4.06-2.21.74-6.21,1.48,4.86-3.32,3.07-1.84,4.92,4.06,1.72,5.17-.86-1.11,5.78,2.95,3.51-3.69-3.08-2.58-3.57h-5.54l-4.06,2.21-4.06,2.21-2.21,4-4.43,1.78-.74,6.21,1.85,4.86,5.17.43-1.48-5.29,4.8-1.35,4.43,1.78h5.54l5.17.43,3.69-2.21-2.95,2.64h-11.44l-4.8.92-2.21,3.94-2.21,4.43,5.17.49h5.54l-5.17.86-5.54.43-3.32,3.14,4.43,1.72,2.95,3.57,4.06,1.78,5.54-.43h5.54l5.17.86,4.8-1.35,5.54-.43-2.58,1.35-3.69,2.21,5.17-.43,4.06,2.21-3.69,2.64,4.8-.92h5.9l1.84-4.86,3.32-3.07-2.58,3.51-1.48,5.35-5.17.86-4.43,1.35-4.06,2.64,5.17.86,5.17-.86,5.54-.43,2.21-4-1.11,5.78,5.17-.92,4.06,1.78,3.32-3.07,2.95-3.14-1.11-5.29,3.69-2.21-2.58,3.51.37,6.21-1.48,4.86,4.8,1.35,4.06-2.21,4.8-1.35-4.06,2.21-3.69,2.21,1.11,5.35-3.69,2.64,3.32,3.07,3.32,3.14,4.8,1.29,5.17-.86,4.43-1.35-1.48-4.86,1.84-4.43,2.58,3.57-3.32,3.07,1.48,5.78,3.32,2.21,4.8-1.35-2.58,1.78-4.06,2.21-5.17-.86,2.95,3.51,4.8.92,4.8-.92,3.69-2.64,3.69-2.64-1.48,5.72,2.58,4-1.48,5.35,3.69,2.21,5.17.86,2.21,4.43,3.69,2.21,1.11,5.78-3.32,3.07,3.32,2.64,3.69,3.14-3.32,2.64,4.06,2.21,3.69,2.21-2.58,1.78-1.85,4.43-.37,6.64-.37,6.64-3.69,2.64-2.95,3.51-4.43,1.35-4.43-1.78,3.32-3.07,4.06-1.78,4.43-1.78,1.48-4.86-2.58-4.43,3.69-2.64-4.06-2.21-2.58,4-3.69,2.21-.37,6.64-4.8-.92,2.21-4,2.95-3.51,3.69-2.64,1.11-5.35-4.06-2.21-4.43-1.29-5.17-.49-5.54-.43-5.17-.86-5.54-.43-4.43-1.78-4.43-1.35-4.43-1.78-4.8-1.29.37.86.37,6.64,1.48,5.35,2.95,3.08,2.58,3.57,1.48,5.29,1.48,5.29,2.21,4.43,2.58,3.57,2.95,3.57-3.69,2.64,3.32,2.64,4.8,1.78-3.69,2.64,1.48,4.86-4.8-1.29,2.21,4.43,5.54.43,5.54.43,2.58,3.57-4.06-2.21-5.17.43-3.69,2.64-.37,6.21,1.11,5.29.74,6.64-2.95,3.57.37,6.64-.74,5.72-1.11,4-.37,6.64-.74,5.78-.37,6.64-.74,6.21-.74,5.72-.37,6.64-3.32,2.64-1.48,5.35-1.48,4.86-2.21,4.43,2.58,4,.37,6.64.74,6.21,1.84,4.43,2.95,3.51-1.11,4.86v.49l2.95,3.51,1.48,4.86-.74,6.21-.74,6.21,1.11,5.78-3.69,2.64-2.21,4-.74,6.15,1.85,4.92,3.32,2.64,2.95,3.07,2.95,3.57,1.84,4.43.74,6.21v6.64l1.84,4.43.74,6.64,2.95,3.07,2.95,3.07,2.95,3.57,4.06,2.21,1.84,4.43,1.48.43.37,6.21,4.06,2.21,3.69,2.64,4.06,1.78-.37-6.21,4.06-1.78,4.06,1.78,3.69-2.64,4.06,2.21,4.06-.86-3.69,2.21-4.8-.92h-5.9l-1.48,4.86,1.85,4.92,1.11,5.72-4.06-2.21-3.32-3.07,1.11,5.72,1.48,5.35,1.48,4.86,2.95,3.57,4.43,1.29,4.43,1.78,1.48,4.86h-.37l-3.32,2.64.37,6.21,1.85,4.86,4.06,2.21,2.21,4,2.58,4,2.95,3.07,2.95,4,2.95,3.14,3.69,2.21,1.11,5.72,4.06,2.21,1.48,4.86v6.64l1.11,5.78,2.95,3.07h.74l5.17-.43,5.54.43,4.8.92,5.54.43,3.69,2.21,2.95,3.57,3.69,2.64,4.06,1.78h5.9l4.43,1.29,2.21,4.43,4.06,1.78,4.06,2.21,3.32,2.64,3.69,2.64,3.32,3.14,3.32,2.64,2.58,4,1.84,4.86.74,3.08.74,5.78,2.58,4.43,1.11,5.29,3.32,3.14,1.11,5.29,2.95,3.57,3.69,2.64-1.11,5.78,1.84,4.43,2.58,3.51,2.95,4v6.64l3.69,2.64,2.95,3.14.37,6.64,2.58,3.51,2.95,4,.37,6.21,1.84,4.43,1.84,4.86,3.69,2.64,3.32,2.64,3.32,3.14,3.69.43,3.32,2.64,3.32,3.14,2.95,3.51,2.21,4.43,3.32,2.64,2.95,3.14,2.95,3.51.74,6.21v6.64l-2.21,4-.74,6.21,4.43,1.78-5.17-.49-4.06-1.72-5.54.43-4.43-1.78-3.69,2.64,3.69,1.78,2.58,4,4.06,2.21,2.21,4,2.58,3.94,4.8,1.35,2.95,3.08,4.8,1.35,2.58,4,3.32,3.07,3.69-2.64,4.43,1.78,2.95-3.57-1.11,5.78,3.32,2.64,3.69,2.64,3.32,3.14,3.69,2.21,4.43,1.29,1.85,4.86,2.58,3.14,1.48,4.86,1.48,5.29.37,6.64-1.11,5.35.37,6.64v6.64l2.21-4.43,2.21,4.43,2.21,4,4.06,2.21,2.95,3.07,3.32,3.08,3.69,2.71,3.69,2.21,3.32,3.08,2.95,3.57,2.95,3.51,3.32,2.64,4.06,2.21,2.21,4,2.58,4.43,1.11,5.35,1.48,4.86,5.17.86,2.95-3.51,4.06-2.21,2.21-4,.74-6.21-2.95-4-3.69-2.21-1.85-4.86-1.11-5.29-4.06-2.21-3.32-3.14-4.06-1.29-4.06,1.72-3.69-2.21-1.85-4.86-.37-6.64.37-6.64-2.95-3.51-2.21-4.43-1.84-4.43-1.85-4.92-2.95-3.07-2.21-4.43-1.11-5.78-1.11-5.29-1.11-5.29-2.21-4.43-1.48-5.35-5.54-.43,1.48,5.29-2.58-3.94-1.48-5.35-.37-6.21-.37.49-4.43-2.21-2.58-4-1.11-5.35-3.32-2.64-3.69-2.64-2.95-4-.74-5.29-1.11-5.78-1.11-5.72-4.8-.92-1.84-4.86-1.48-5.29-3.32-2.71-4.43-1.72-1.48-5.35-2.21-4-2.95-3.51-3.32-3.14-2.95-3.07-2.95-3.57-4.43-1.72-2.21-4-2.58-4-1.11-5.29v-7.13l-1.11-5.29-.74-5.78-2.58-3.94-1.11-5.78.37-6.21,1.48-5.29-2.58-4-2.58-3.57,3.69,2.21,3.69,2.71,4.06,1.72,3.69,2.71,3.32,2.64,5.17.86,3.32-2.64,4.06,1.78,1.48,5.29,1.48.43,4.43,1.78,4.8.92,3.69,3.07-1.11,5.78v6.64l2.58,3.94,2.58,4,1.84,4.43.74,6.21,2.21,4,1.84,4.86,2.58,3.57,1.85,4.86,3.69,2.64,1.48,4.86,1.11,5.35,2.95,3.51,2.58,4,2.95,3.08,2.58,4,4.06,1.78,2.21,4.43,2.58,3.57,2.95,3.51,4.43,1.35,5.54.86,3.32,2.21-.74,6.21,1.48,4.86,2.21,4.43,3.32,2.64,4.43,1.78,4.8,1.35,1.11,4.86,1.84,4.86,3.32,1.78,3.69-2.64,2.95,3.51,2.95,3.57,2.21,4,1.85,4.86-4.06-2.21-1.85,4.43-2.21,4.43.74,5.78,3.69,2.21,3.69,3.07,3.32-2.64,2.95-3.57-1.85,4.43-2.58,4,4.43-1.78,1.48,5.35,4.43,1.29,4.06,2.64,4.06,1.78,1.48,5.35-3.32-3.14,2.95,3.57,4.43,1.29v6.64l3.32,2.71,3.32,3.07,3.32,2.64-4.06-2.21,3.69,2.64,3.32,3.14,3.32,2.64,3.32,3.08,3.69,2.71,2.58,3.51,2.21,4.43,2.95,3.57,2.58,3.51,2.21,4,2.95,3.57,2.95,3.08,2.95,3.57,2.95,3.51,2.95,3.57,2.58,3.57,1.85,4.86.74,5.72.37,6.64,2.58,4,1.85,4.86,3.32,2.71,1.48,5.29.37,6.21-2.58,4-.37,6.64,2.58,3.51-2.95,3.57-4.8.86-1.85,4.86,2.21,4.92,1.48,4.86,2.58,4,2.58,3.94,3.32,3.14,2.21,4.43,2.58,3.51,4.06,1.78,4.06,2.64,4.8.92,2.58,3.51,4.43,1.78,3.69,2.21,2.95,3.57,2.21,4,3.32,3.07,2.21,4,4.43,1.78,4.06,1.72,4.43,1.78,4.06,2.21,5.17.92,4.43,1.72,4.43,1.35,4.06-1.78,3.69,2.21,2.95,3.57,2.58,4,3.69,2.21,3.69,2.64,3.32,2.64,3.32,3.07,4.06,2.21,4.06,1.78,1.48.43,4.06,1.35,4.06,2.21,4.43,1.35,4.43,1.72,2.58,3.57,4.8,1.78,5.17.43,4.43,1.78,4.8,1.29,4.8.92,2.58,3.51,3.32,3.14,4.8,1.29,4.06,1.78,3.69,2.64,3.32,2.71,4.8,1.29,5.17.92,5.54.43,3.32,2.64,4.06,2.21,4.43,1.35,4.8.86,5.17-.86,4.06-1.78,4.06-2.21,4.06-1.78,4.43-1.78,4.06-1.78,3.32-3.51,4.06-1.35,5.17-1.29-3.69-2.71,3.32-2.64,1.84,4.43,4.06-2.21,1.85,4.43,4.8,1.35,4.06,1.78,4.06,1.72-3.32-2.64-4.06-1.78,4.8.49,4.43,1.72,2.21,4.43,3.32,2.71,3.32,3.08,3.32,3.07,3.32,3.14,2.95,3.07,2.95,3.57,3.32,2.64,1.84,2.64,1.11,1.78,2.95,3.57,2.95,3.07,2.58,3.57,2.95,3.51,1.11.92,3.32,2.64,2.95,3.51,3.32,2.71,3.69,2.64,3.69,2.21,4.06,2.21,4.8.86h5.54l5.54-.43,4.8,1.35,4.06,2.21,4.06,1.72,2.95,2.21,3.32,3.14,4.8,1.29,4.8.49,4.8,1.29,3.69,2.21,4.06,2.21,4.06,1.78,4.8.86-4.06-1.72,5.54.43,3.32,2.21h5.9l4.43-1.35,1.48-5.29,4.8.86,5.54-.43-2.95,3.57,1.84,4.43,2.95,3.51-4.06,1.35-2.58-3.57-1.11,5.78,3.69,2.21,2.58,4,2.95,2.64,3.32,3.07,1.11,1.78,3.32,2.64,3.32,2.64,1.84,4.92,2.58,3.94,2.21,4,2.95,3.14,3.69,2.64,2.95,3.07,3.32,3.14,2.95,3.51,2.95,3.14-.37,3.51-4.06,2.21,4.06,1.78.74,6.21-2.58,4-1.84,4.86,1.48,5.29,2.58,3.57,3.32,2.64,4.8,1.35,2.95,3.51,3.32,3.14,2.58-4,1.11-5.35-4.43-1.29-2.95-3.57-1.11-5.29,1.11,1.29,4.06,2.21,2.95,3.14,4.06,2.21,2.21,4,.74,6.15,3.69,2.21,4.43,1.35,3.32,2.64,4.43,2.21,2.95,2.64,3.32,3.14,2.21,4-.37,5.72-2.58,4,2.58,3.57,4.43,1.72,2.58-3.51-1.84-4.86,3.69,2.64,2.58,3.51,1.11,5.78,3.32,3.07,1.48,4.92.74-.49.37-6.64,4.8-.86,4.8-.86,4.06,1.29,3.69,2.21,4.8,1.35,4.8,1.29,2.21,4,.74,5.78,3.32,3.07h5.54l-.37-6.21,1.11.92,2.95,3.08,1.84,4.86,1.11,5.35,1.84,4.86,5.17-.43,4.8-1.35,2.58-3.51,5.17-.92,1.48-5.29-2.58-3.57-3.32-3.08-2.21-4-1.84-1.35.74-6.15,4.8-.92,3.69-2.64,3.32-2.64,2.21-4,1.84-4.86,3.32-2.64,1.84-1.35.37-.86,4.43-1.35h5.54l2.58-3.08-2.21,3.94,4.06,2.21,3.32,2.71,3.32,3.08,2.58,4,3.32,2.64,4.06,2.21,2.95-3.57,1.11,5.78,3.69,2.21,3.32,3.07-2.95-2.21-4.06-1.72-2.58-4-2.95,3.51-.74,6.21-2.21,4,2.21,4,1.84,4.43,2.21,4,2.58,3.94,2.95,3.14.74.86,2.95,3.14.74,6.15,3.32,2.71,3.69,2.64,1.11,5.29-.37,4.86-2.58,4,2.21,4,1.84,4.43,1.48,5.29-3.69,2.21-2.58,3.57,2.58,3.57.74,6.15.37,6.64,1.48,4.92-.74,6.15-1.11,5.35,2.21,4-3.69,2.64,2.21,4.43,3.69-3.14-.74,6.21,4.43-1.78-2.58,4-1.84,4.43-2.58,4-1.85,4.86-2.95,3.57-2.58,3.51-1.11,5.78-2.58,4-3.32,2.64-3.32,2.64-5.17.92-4.43,1.29-3.32,3.57-1.11,5.29,1.84,4.86-2.58,4.43-5.17.49-2.58,3.51,3.32,2.64,1.85,3.57-1.85,4.86-2.21,4-4.8.86-5.54.49-3.69,2.64-4.43,1.29-3.69,2.21-4.06,2.21,1.48,4.92.74,6.15-1.11,5.78-1.48,4.86-2.58,4-3.69,2.64-2.21,3.57,1.11,5.72,3.69,2.21-5.17.92-1.48,5.29-3.69,2.21-4.06,1.78.74,6.21,1.48,4.86-1.48,5.29,1.11,4.43,1.48,4.92-.74,6.15-3.69,2.71,2.21,4.43,4.06,1.72,2.95,3.57,3.32,3.07,4.43-1.72,2.95-3.57,2.21-4-1.11,5.78,3.69-2.64-.37-6.21,1.48-4.86-.37,6.15,1.11,5.78.37,6.64-1.85,4.86-1.11,5.78-1.84,4.43-3.69,2.64-4.43,1.35h-.37l-2.58,3.51-3.32,3.14-3.32,2.64-2.95,3.51-2.95,3.57-2.21,4-2.95,3.51-1.85,4.43-.74,6.21,1.11,5.35,2.21,3.94-.37,6.21,1.84,4.43,2.95,3.14,2.21,4.86-.37,6.64-5.17.86-.74,5.78,2.95,3.08,3.69,2.64,3.69,2.71,3.69,2.21,3.69,2.21,4.06,2.64,3.69,2.64,2.58,3.57,2.21,3.94,2.95,3.57,2.21,4.43,1.84,4.43,1.48,4.86,1.85,4.86,2.21,4.43,2.95,3.14,1.84,2.64,2.95,3.07,2.21,4.43,2.21,4.43,1.85,4.92,1.11,5.29,1.48,5.29,1.48,4.92,3.32,3.07,1.11,5.78,1.84,4.43,1.48,4.86,1.48,5.29,1.84,4.43,2.21,4.43,1.84,4.43,2.21,4.43,2.58,4,1.48,5.29,1.48,4.92,1.84,4.86,3.69,2.64,2.21,4,2.58,4,.74,6.15,1.84,4.43,2.58,4,2.95,3.14,1.84,4.86,2.21,4.43,2.58,4,1.11,5.29,2.58,4,2.58,3.51,2.21,4.43-.37,6.21-1.48,5.35v.43l-.74,6.21,2.95,3.94,1.84,4.43,2.58,4,1.85,4.43,3.32,2.64,3.69,2.71,2.95,3.51,2.21,4,3.69,2.64,1.84,4.86,3.69,2.21,3.69,2.71,3.69,2.21,4.06,1.72,2.95,3.57,4.06,1.78,4.06,2.21,2.95,3.51,3.69,2.21,4.43,2.21,4.06,1.35,3.32,3.08,4.43,1.78,4.06,1.78,3.32,3.08,4.8.92,4.06,2.21,2.21,4,4.06,2.21,3.69,2.64,2.95,3.08,4.43,1.78,3.69,2.21,2.58,4,.37,6.21,3.69,2.64,3.32,3.08,3.69,2.21,3.32,3.14,2.95,3.51,3.69,2.21,2.21,2.21,1.85,4.43-.37,6.64.74,6.21.74,5.78.74,5.72,1.11,5.78,1.11,5.29.74,6.21-.74,6.21-.37,6.21-.37,6.64.74,5.72.37,6.21,1.48,5.29v6.64l-1.84,5.35-.74,6.21-.37,6.15-.74,5.78-.74,6.21-.74,6.21-.74,6.15-2.95,3.14-2.95,3.51-.37,6.64,4.43,1.78-.74,6.21-1.48,3.57v6.64l-.74,6.15-.74,5.78v7.07l1.48,4.86.74,5.78.37,6.64-2.58,3.57-1.84,4.43-2.21,4.43,2.21,4.43-.37,6.64-.74,5.72-.74,6.64-1.48,4.86-.74,6.21-2.95,3.14-.37,6.15.74,6.21-2.95,3.14-1.48,4.86-.74,5.72-.74,6.21-1.11,5.78-1.84,4.86-1.85,4.43-3.32,3.07.37,6.64,2.58,4,1.84,4v6.64l.74,5.78-2.95,3.51-1.11,5.78-3.32,2.64-2.21,4.43-.37,6.21.37,6.64.74,6.21.74,5.72,1.11,5.78.37,2.64,1.11,5.29v7.13l.37,6.15,1.48,4.92-.37,6.64-2.21,4.43-1.11,5.29-3.69,2.21,1.48,5.29.74,5.78-.37,6.64-3.69,2.64-1.84,4.86-2.21,4,.37,6.64-1.48,4.86-1.11,5.78-2.21,4.43-.74,6.21-3.32,2.64-2.21,4.43-2.21,4-1.48,5.29-1.48,4.86-2.95,3.57-.74,5.78-1.11,5.72-2.58,4-1.11,5.29-2.58,4-.74,5.78-2.21,4h-5.9l-3.32,2.64,1.48,5.29-2.21,4.43,2.21,4.43,2.21,4.43.74,5.78-1.48,4.86.37,6.64,1.48,5.29,2.21,4.43,1.85,4.92,1.11,5.29-.37,6.21-2.21,4.43-1.11,5.29-4.06,2.21-2.58,3.57-1.48,5.29-1.11,5.78-1.11,5.72-1.84,4.43v.92l-2.21,4.43,1.11,5.72,2.21,4.43,1.11,5.78,4.06,1.78-2.58,4,4.43,1.29h5.54l5.17-1.29,1.48-5.35,4.43-1.29,3.32,3.08,3.32,2.64,4.06-1.29,1.48-5.78-.74,6.21-4.43,1.78-4.06,1.72-3.32,3.14,3.32,3.08,4.8-1.29,1.84,4.86.37,6.21-2.58-3.57h-5.54l1.48,5.29,3.32,2.71-5.17-.49-1.11,5.35,1.11,5.29,1.48,5.35-4.8,1.72-1.85,4.43-2.21,4.43,1.84,4.43,1.48,4.92-2.21,3.94-1.48,5.35,1.48,5.29,3.32,2.64,4.06,2.21,3.69-2.64-1.48,4.86-1.85,4.43-2.95,3.14-3.69,2.64-4.06,1.78-4.8,1.29,2.21,4-3.69,2.64,5.17.49,3.69,2.64,4.8,1.29h-5.9l-4.43-1.72-3.69,2.64-1.84,4.86,5.17.86-2.95,3.57-2.58,3.57-2.21,4.43-.74,6.15,3.69-2.64,2.95-3.51h1.48l-3.32,3.08-1.48,4.86-4.06,2.21-2.21,4.43.74-6.21-1.84-4.43-2.95,3.57-4.8-1.35-5.53-.43,5.53-.43,4.06-2.21-2.95-3.57-.37-6.15-5.54.43-1.11,5.29-2.21-4-4.43,1.35-1.84,4.86-2.95,3.14v2.64l-5.17.43-3.69,2.64-3.32,3.14-4.06,1.72-2.58,4,1.84,4.86,4.06,2.21,1.85-4.43-3.32-2.64,4.43-1.29,4.8-1.35,3.32-3.07-1.48,4.86,3.32,3.08,4.43,1.35,4.06,1.78,2.58-3.57,4.43,1.78,2.58,4,4.43,1.29v6.64l-4.8-.86-4.43,1.29-2.95,3.57,2.21,4,4.43,1.78-3.69,2.21-3.69-2.21-4.06,1.72,2.95,3.57,5.54.43h1.11l4.8-.43,4.43,1.35,2.58-3.57,3.32,2.64,2.95,3.57,4.8,1.29-5.53-.43,1.48,4.86,4.43-1.72-2.58,3.51-4.8-1.78-3.32-2.21-5.9-.43-4.8-.86.74,6.21-2.95-3.57-3.32-3.08-4.8.86,3.32,2.64,3.32,2.64,3.32,3.14,3.69,2.21,1.84,4.86-4.06-1.78-4.43,1.78,2.21,4.43,4.43.43-5.54.43-3.69,2.71v6.64l1.11,5.29,1.48,4.86,4.43-1.78,1.48-4.86,1.84-4.86.37,6.21,3.69,2.64-4.06-2.21-2.58,4.43,3.69,2.64,2.58,3.57,4.06,2.21-4.8-1.35-3.32-3.08-5.17.43,2.58,4-4.43,2.21,3.32,3.08,4.06,1.78-5.17-.86.37,6.64,4.8.86-4.06,1.78-2.58-4-5.54.43,1.48,5.35,4.06-1.78,2.21,4,4.43,1.72-2.58,3.57-2.95-3.57,1.48,5.35,2.21,4,5.54-.49,1.48-5.29,3.32-3.08,2.21,3.94-4.8,1.35-2.21,4-4.06,1.78-4.8,1.29,1.84,4.43,2.58,4,5.54-.43,2.21,4,1.84,4.86-3.32-2.64-2.21,4.43,2.58,3.94,5.17-.86,1.11,5.29,1.11,6.21,3.69,2.21-.37-6.64-.74-5.72,1.11,2.21.37,6.15,3.69-2.64,4.43-1.78-5.54.49,2.58-4-4.06-1.78,5.17.86,4.43,1.35,4.43,1.78-1.84-4.43-4.06-2.21-3.69-2.21-5.17-.92,4.06-1.72,3.69,2.64,4.43,1.78,3.32,2.64,3.32,3.08-1.84,4.86.74,6.21-1.11,5.35-4.43,1.72,3.69-2.64-.37-6.21-2.58-3.94-4.06,2.21,1.48,5.29h-5.54l1.84-4-5.17.43-2.95,3.14-3.69-2.21-4.06-1.78,1.48,4.43-1.84,4.86,4.06,2.21-3.32,2.64,3.69,2.71,4.06-2.21,2.95-3.57,5.17.43-3.69,2.64-2.95,3.57-3.32,3.08,4.06,2.21-3.32,3.14,3.32,3.08,4.8-1.78.37-6.15,4.06-1.78,3.69-2.64h-5.54l1.85-4.43,4.8.86,4.8-1.35,5.54.49,5.17.86h5.54l5.17.86,1.11,1.78-4.8,1.35-5.54-.43-5.17-.92-3.69,2.64-3.32,2.71-5.53.43-5.17-.92-1.11,5.78,2.95,3.08,2.21,4.43-4.06-2.21-4.8-.86,1.85,4.43,4.43,1.78,3.69,2.21,4.06,2.21-2.21-4,3.32-3.57,2.95-2.64-3.32-3.08,5.17-.92,3.69,2.71,3.69-3.14,3.69-2.21,4.06-2.21,4.06-1.78h5.9l-1.85,4.92-2.58,3.94-4.8.92-4.43,1.78v7.07l-4.06,2.21,3.32-3.57-1.48-5.29-4.06,1.78-2.95,3.51-1.48-4.86-4.43,1.78.74,5.72,3.69,2.71,3.69,2.64,4.8,1.29,4.06,1.78,5.17.92,4.8.86,4.8-1.35,1.84-4.43-.37-6.64.74-5.72,1.84-4.43,1.11-5.78,1.84-4.43,4.43-1.78,5.54-.43,4.43-1.78,4.8-1.29h5.54l3.32-3.14,2.21-4.43,4.43-1.29,5.17.43,4.43,1.78,5.53.43,4.06,1.78h.74l-1.48-5.35-2.95-3.08-2.95-3.57-2.21-3.94-2.58-4-5.54.43-3.69-2.64-5.17.86,4.43-1.78,4.8,1.35,4.8-1.35-1.48-5.29-1.48-4.86-1.48-5.35-5.17,1.35,3.32-3.08,2.21-4.43.74-5.78,2.58-4,2.95-3.51,4.43-1.78,4.43-1.35-1.11-5.72-5.17-.92-5.17.92,4.8-1.35,4.43-1.35-1.84-4.43,2.58,3.57,2.58,4,3.32,2.64,5.17-1.35,3.69-2.21,3.69-2.64,1.11-5.29,1.11-5.78,1.48-5.29-4.43,1.78,2.58-3.57,1.84-4.86,2.95-3.57,3.32-3.08,3.69-2.64,2.58-3.57,4.43-1.78,4.06-2.21,3.69-2.21,3.69-2.21,3.32-3.07,3.69-2.64,4.43-.92,2.95-4-2.21-4.43-5.17.49-4.8,1.29-1.48-.43,4.8-.86,4.43-2.21,3.69-1.78,2.21-4.43-.37-7.07-2.21-4-4.06-2.21-5.17.43-5.17-.86h-5.54l-3.32-2.71-3.32-3.08-3.32-3.07-3.69-2.71-3.32-2.64-2.58-3.51-1.48-5.35v-6.21l2.95-3.94,2.58-3.57,1.84-4.86,3.32-3.14,2.58-3.51,3.32-3.14,4.8-.86,4.43-1.78,2.95-2.64,4.06-2.21,5.17.43,5.17.92,4.06-1.78-2.95-3.57,1.84-4.86,3.69-2.21,3.69-2.64,2.21-4-1.84-4.86,2.21-4-1.84-4.86-.74-5.78,2.95-3.08,2.95-3.57,1.11-3.51,3.69-2.71,4.06-1.72,4.8-1.35,3.69-2.21-3.69-2.21-4.8-1.35-4.06-1.72-1.84-4.43,4.06-1.78,3.69-2.64,5.9.43,3.32,2.64,1.11,5.29,4.43,1.35,5.17-.86,3.69-2.21,1.11-5.78-.37-6.64-2.21-4-4.43-1.78-4.06,1.78-4.43,1.78,4.06,1.35-2.21,4.43h-5.54l-5.17-.49,2.58-3.51-4.06-1.78-4.8-1.35-3.32-3.08-.37-6.64.37-6.64-1.48-5.29-.74-3.57-1.11-5.29.37-6.21,2.95-3.57,4.8-1.29,2.95,3.51,4.43,1.35,4.43,1.78,4.06,1.72,4.8,1.78,3.32,2.21h5.9l5.54-.43,5.53.43,4.43-1.78,4.06-1.72,4.06-2.21,4.06-1.78,2.58-4-.74-5.78-3.32-3.08,1.11-6.21,1.11-5.29,1.48-5.35,4.06-1.72.74-5.78-2.21-4.43-2.21-4-1.84-4.86-.37-6.21,4.06-2.21,2.95,3.14,4.8,1.29,5.17.92,5.17-.49,5.54.49,5.17-.49,5.54-.86,5.17-.86,4.8-.49,5.17-1.29,5.17-.43,4.8-1.35,5.17-.86,4.8-1.35,5.17-.86,4.06-1.78,4.43-1.35,4.8-1.29,4.43-1.78,4.43-1.78,3.69-2.21,4.06-2.21,3.69-2.64,1.48-4.86,1.84-4.92,2.95-3.51,3.32-3.14,2.58-3.08,2.58-4.43,2.21-4,2.58-4,2.95-3.51-.37-6.64-.37-6.64-3.32-2.64-5.17-.92-3.32-2.64-2.95-3.57-1.84-4.86,1.48-5.72,2.21-4,2.58-4-2.21-4-2.58-4-3.69-2.64-3.69-2.21-3.32-2.64-4.43-1.78-4.06-2.21-3.69-2.21-3.32-3.07-1.11-5.35,1.84-4.43-1.11-5.72-1.11-5.78-.74-5.72.74-5.78,1.85-4.86,2.21-4.43,4.06-1.78-.74-5.78-.74-5.72.37-4.43,1.48,5.29,1.11,5.78-.37,6.64-4.8.86-1.11,5.78-1.11,5.29-.74,6.21.74,6.21,3.32,3.08,2.58,3.57,3.69,2.64,2.58,4,4.06,1.78,5.17-.49h5.54l4.43,1.35,3.32,3.08,3.69,2.71,4.43,1.29,5.17,1.35,2.58,3.07,5.54-.43,4.06-2.21,4.43-.86,5.17.86,4.06,2.21h5.53l5.17.86,4.06-1.72,4.06-2.21,4.06-2.21,4.06-1.78,2.95-3.57,3.69-2.64,2.21-4,2.95-3.51,2.58-3.57,1.48-5.29,2.21-3.14,3.69-2.64,2.95-3.08,3.32-3.14,3.32-2.64,2.58-4,2.58-4,1.84-4.43,1.85-4.86,1.11-5.29,2.21-4.43,2.21-4,2.58-4-3.69-2.64,1.11-5.78,2.95-3.07,1.84-4.86,1.48-5.35,4.43-1.72,2.95-3.14,4.06-1.78,1.11-6.15.37-5.78,2.58,3.57v-6.64l1.84-4.43-1.84-4.92,5.54.49,1.84,4.43,3.69-2.21,3.32-3.14,2.95,3.14-3.69,2.21.74,5.72-1.48,5.35-3.69,2.64-2.21,4-4.43,2.21v6.64l-2.21,3.94-4.43,1.78-2.58,3.57-2.95,3.51-4.06,2.21-4.43-1.72.37,6.64,3.32-2.71,3.69-2.64,3.69-2.21,3.69-2.64,2.95-2.64,3.32-3.14,2.95-3.51,2.95-3.14,2.95-3.51,2.58-4,2.21-4,2.21-4,2.58-3.94,2.21-4.43,1.48-4.92,1.84-4.86,1.48-4.86,2.21-4.43,2.21-4.43,2.21-4.43,2.58-3.57,2.58-3.51,2.58-4,3.32-3.08,2.95-3.14,3.69-2.64,3.69-2.21,3.32-3.07-2.58-4,4.06-2.21,1.11-5.35,1.11-5.72-.74-5.78-.37-6.64,1.85-4,1.84-4.86-2.21-4.43v-6.64l-2.58-4,1.84-4.86-2.95-4-1.11-5.29,4.43-1.35.74-5.72,1.84-4.86,2.58-3.57-4.06-1.78-3.69-2.64,4.8.86,1.48-4.86h5.54l4.43-1.78.37-.43,2.58-4,1.48-5.29,3.32-2.64,3.32-2.64,4.43-1.78,3.69-2.64,2.95-2.71,2.58-4.43,3.32-2.21,3.69-2.64,4.06-2.21,2.21-4,3.32,3.14,3.32-3.57,2.95-2.64,5.17-.86,5.17.86,2.95-3.07,3.32-3.14,4.06-2.21,3.32-2.64,5.17-.86.74-.49,4.8-1.72-3.69-2.71,1.84-4.43,4.06-2.21,4.8,1.35,4.06-2.21,4.8-1.35,3.69,2.71-4.8,1.29,5.17.43,5.17-.43,5.17-.86-.37-6.21,3.69-2.21-.37,6.21,4.43,1.78,5.17-.49,5.17-.86,5.9.43,5.17.43,1.85-4.43-1.11-5.72,2.95-3.57,2.58-4,3.69-2.64,4.43-1.29,4.43-1.78,3.69-2.21,2.21-4-.74-6.21-1.11-5.29,2.21-4.43v-2.21l2.21-4.43,1.48-5.35,2.95-3.08,3.69-2.64,2.58-3.57,2.21-4.43-.74-6.21,4.06-1.72,1.11-5.35,2.21-4.43,2.58-4,3.69-2.64,1.84-4.43v-7.07l-.74-5.78-.37-6.64.37-6.15,1.48-5.78,1.48-4.86,2.58-4,2.95-3.08,3.32-3.14,1.11-5.29-.37-6.21v-6.64l1.11-5.29.74-6.21,1.11-5.35,1.48-5.29,1.48-5.29.74-5.35.74-5.72-1.11-5.35-1.11-5.72-.37-6.21-.37-6.64-1.11-5.78.74-6.21,1.11-5.72.74-5.78.74-5.72-1.84,4.86-1.48-4.86-1.11-5.35,2.95,3.14-.37-6.64-1.48-4.92,2.21-4.43,2.95-3.08,1.85-4.86-2.21-4.43,2.58-3.57,5.17.43,1.48,5.35,4.43-1.35,2.95-3.51,2.58-3.57,2.21-4.43,2.58-4,2.21-4,2.21-3.94,1.84-4.92,1.48-3.51,1.84-4.86-.74-6.21,2.95-3.14,4.43-1.29-2.58-4,4.8-1.35,2.21-3.94,2.58-4,3.32-2.64,3.69-2.71,4.06-1.72,2.21-4.43,2.58-4,3.32-3.14,2.21-3.94,2.21-4-1.85-4.43,4.43,1.29,2.95-3.51,2.58-4,2.95-3.57,2.58-3.94,1.84-4,1.11-2.64,1.84-4.92,1.48-5.29,1.48-5.29,1.11-5.35,1.84-4.86-1.11-5.29,1.48-5.35.37-6.64v-6.64l-.74-5.72-2.21-4-1.11-5.78-.37-6.64-1.84-4.86-1.11-5.29-1.48-4.92-.74-6.15-1.84-4.92-1.84-4.43-2.58-3.94-4.06-1.78-5.17-.92-3.32-.86-4.43,1.35-5.54-.49-5.53.49-3.69-2.21-4.06-2.21-4.8-.92-2.21-4.86-3.69-2.21-4.43-1.78-2.58-3.51-3.32-3.14-2.95-3.07-2.95-3.14-2.58-3.94-2.95-3.14-2.21-4.43-4.43-1.29-3.32-3.14-3.32-3.07-3.69-2.64-3.32-2.71-3.32-2.64-4.06-2.21-3.69-2.21-3.69-2.64-3.32-2.64-5.17-.92h-5.54l-5.17.92-5.17.43-4.8.43-5.54.92h-5.54l-4.06-2.21-3.32-2.71-3.69,2.71-5.17-.92-4.43-1.78-4.06-1.72-3.32-3.14-4.06-1.78-4.43-1.72-4.06-1.78-4.8,1.29-3.32,3.14-5.17.43-4.06,2.21-1.48,4.86-5.54.43,2.95-3.51,2.21-4-3.69-1.78-2.95,3.14-1.11,5.72-1.11,5.35-2.95,3.51-3.32,2.64,2.21-3.94-.37-6.64,1.11-5.35,1.85-4.43,3.32-3.07-1.11-5.78-4.06,2.21-1.48,4.86-1.84-4.43,3.32-2.64,2.21-4.43-1.48-5.29-4.8-.92-1.11-5.72-4.43-1.35-5.53.43-1.48,4.92-1.48-4.92,1.48-5.29-3.69,2.64-2.21-4.43-4.06-1.78-4.43-1.72-2.21-2.21-4.8,1.29.74-5.72-2.95,3.07-4.8-.86-4.43-1.78-2.58-4-3.69,2.21-2.58-3.57-4.06-2.21-4.43-1.72-4.43,1.72-5.17-.86-3.32,3.07-4.06,1.78-1.48,5.35-2.21,4.43-2.58,3.51-2.21,4,1.84,4.86-3.32-3.07-4.8,1.29-2.95,3.57-1.84,4.43-5.17,1.35-1.85,3.94-1.84,5.35-1.84,4.43-1.48,5.29-2.95,3.14h-1.84l2.95-3.57.74-5.78,1.84-4.43,1.48-5.29-.74-5.78-4.8,1.78-4.43,1.35-1.48,4.86-.74-6.21h-5.54l-3.69,2.64-2.95,3.57-2.21-4.43-2.95-2.64-1.84-1.35-.37-6.21-1.11-2.64,1.84,3.14,2.95,3.51,2.58,3.57,4.43-1.78.74-6.21,1.11,5.78h5.9l4.06,1.78,1.11-5.78,1.84,4.43,2.58-3.57,3.69-3.08,3.69,2.64,3.32-3.07,2.58-4,4.43-1.35,1.48-5.29,2.21-4.43,2.58-3.08,1.11-5.78,1.11-5.78,1.11-5.72-2.58-.43-5.54-.49-4.8-.86-4.8-1.35-5.17.49-4.06,1.72-5.17-.43-4.8-1.29-4.8-1.35-5.54.86-4.43,1.35-2.58,4-.37,6.64,3.32,3.08-5.17-.86-.37,6.64,1.48,5.72,3.69,2.21-4.8,1.35-.37,5.78-.37-.92-1.11-5.72.74-6.21-4.43,1.78-3.69,2.21-2.95,3.51-3.69,2.64-4.06,1.78-1.11.43-3.32,2.71-3.69,2.64-4.8,1.29-3.32-2.64-5.17.92,2.58-4,4.06-2.21,4.43,1.29,3.32-2.64,1.84-4.86,2.95-3.07.37-.49v-6.64l2.21-3.94,2.95-3.57,2.58-4,1.85-4.86,2.21-4,3.69-2.64,2.58-3.57,4.43-1.29,2.58-4,2.21-4,2.21-4.43,2.95-3.51,2.58-3.57,2.95-3.07,3.69-2.71.74-6.15-.37-6.21-1.84-4.86-4.06-2.21-5.17-.49-3.32-3.08-1.48-5.29-4.43-1.35,1.11-5.29-1.48-4.92-1.11-5.29-1.48-5.29-1.85-4.43-1.11-5.78-.74-5.78-.37-7.07-.37-6.21-1.48,4.92-.37-6.64-1.84-4.92-2.95-3.08-3.32-3.08.37,6.64,1.84,4.86-2.21-4.43-4.06,2.21v-6.64l-1.48-5.35-1.85-4.86-2.21,4-2.58,4,1.48-4.86-1.48-4.92-3.32-3.07-3.69,2.21,1.48-4.86-3.69-2.64-3.32-3.14-2.95-3.08-2.95-3.57-2.58-3.51-4.8-1.35-4.8-1.35-4.43-1.29-4.06-2.21-3.32-2.64-3.69,2.21-1.11,5.29-2.58,4-.74.43,2.58-4,1.11-5.72-2.21-4.43-4.43-1.35-5.17-.86-4.8-1.35-5.17-.43-5.17.43,3.32,2.64-5.17-.86-4.06-1.78-5.54-.43-5.17.86-.37,6.21-3.69-2.64-4.43-1.35-4.8-1.29-5.17-.92-4.8-.86-5.17.86-1.48,4.86-.74,6.21-2.21,2.21,1.85-4.86.74-6.21-.37-3.51-.74-3.57-2.95-3.57-4.8-1.29-2.21-4.43-3.32-3.14-2.95-3.08-2.58-3.57-4.8-.86-4.8-1.35-2.58,3.57-1.84,4.86-1.84,4.43,1.11-5.72.74-5.78,1.84-4.86.74-6.21-1.48-5.29-2.21-4-3.32-3.57-2.58-3.51-2.95-3.14-2.95-3.51-3.32-2.71-3.69-2.64-3.69-2.21-4.43-1.78,3.32,2.71-4.06-2.21-2.58-3.14-3.32-3.07-4.43-1.78-4.43,1.35-3.32.86-4.43-1.35-5.54.92-3.69,1.78-4.06,2.21-4.06-2.21-2.95-3.57,5.54.43,4.43-1.78,1.84-4.86v-3.08l1.48-5.35,3.32-2.64,2.58-4-3.32-3.08-3.32-2.64-5.17-.92-2.95-3.51-4.43-1.35-4.8-1.29,1.48,4.86-2.21-4-2.95-3.57-5.54-.43,4.06,2.21-3.32,2.21-4.43-1.78-1.84-4.43-.74-2.64-3.69-2.64-1.84,3.08.74-5.72-3.32-3.14-2.95,3.14-1.48-4.86,3.69-2.71,5.17-.43,5.54.43,3.69-2.64h5.53l3.32-3.07-4.8,1.29h-5.9l-4.8-.86h-5.9l-4.8.86h-5.54l-4.8.92-4.8.86-5.17-.43-5.54.43h-5.54l2.95,2.21h5.54l3.32,3.57h-5.9l-4.8.86-2.95,3.14-5.17.86-2.95,3.07-4.06,1.78-5.54.92-4.43-1.78-4.8-1.35-4.06-1.29-4.43-1.78-2.95-3.14-1.48-5.29-4.06-1.78-5.54.43h-5.54l-5.17.49-5.17,1.29-5.17.43-5.17.92-5.17.86h-5.54l-4.06-1.78-2.21-4.43,1.48-4.86-2.21-4.43-2.21-4.43-3.69-2.64-3.69-2.21-3.69-2.64-4.8-.92-4.43-1.29-5.17.86-4.8-1.29-1.85-4.92-.74-5.72-1.85-5.35-3.69-2.21-3.69,2.21-.37,1.78-1.84,4.86,1.84,4.43,4.06,2.21,4.43-1.29,2.21,4-2.95,3.07h-5.9l-3.69,2.21-4.43,1.78-4.43,1.78-4.43.86-3.69,2.64-4.06,2.21-4.43,1.35-1.48,5.29-2.21,4.43,1.84,4.86,1.48,4.92,2.58,3.94,1.84,4.92,2.95,3.07.37,6.21-.37,6.64-2.21,4.43-2.58,3.51-4.06,2.21h-5.53l-1.85-4.86-1.11-5.29-2.95-3.14-2.21-4.43-.37-6.64,1.84-4.86,2.95-3.51,2.21-4.43,2.95-3.14,1.11-5.72-2.58-4-.37-6.64-2.95-3.14-2.21-4.43-1.11-5.29,2.95-3.57,4.43-1.29,5.17-1.35,2.58-3.51,2.95-3.14,1.11-4.86-1.48-4.86-4.06-2.21-4.06-1.78-4.43,1.78-3.69,2.21-2.21,4.43-4.06-2.21-.37,6.21-2.58,3.94-3.69,2.21-4.06,1.78-4.06,2.21-3.32,3.14-3.32,2.64-3.32,3.07-4.06,2.21h-5.53l-5.54-.43-4.06-2.21-1.11.86-3.32,2.21-.74,6.21-1.85,4.86-2.95,3.14-3.32-2.64,2.21-4-4.06-2.21-4.8-.92-2.95,3.14-2.95,3.51-2.58,4-4.06,1.78-1.84,4.86-1.11,5.35-1.48,5.29-.74,6.21-1.11,5.29,1.84,4.43-2.58,3.57h-5.9l-3.32,2.64-2.21,4.43-1.85,4.86-1.84,1.78-3.69,3.07-3.32,2.71-3.69,2.64-2.95,2.64,2.95,3.57.74,5.72.74,6.21-4.06,2.21-1.11-5.78-2.21-3.94-2.21-4.43-3.32-2.71-1.84-4.43h-.37l-3.69-2.21-3.32-3.08-2.21-4-3.32-3.07-2.95-3.14-4.43-1.72-4.06-1.78-3.69-2.21-5.54-.43h-5.53l-3.32-2.71-5.17-.86-4.8-.86-2.95,3.07-2.95,3.08-1.11.49-3.69,2.21-1.84,2.21-4.43,1.72-4.8.92-3.69,2.21-3.32,3.07-3.69,2.21-4.43,1.35-5.54.43-4.43-1.78-2.58-3.08-5.17-.43-4.8,1.29-3.69-2.64,1.48-5.29-3.69-2.71-2.21-4.43-2.95-3.07-.37-.43-4.06-2.21-2.95-3.14-2.21-3.94-3.32-3.14-2.58-3.51-2.58-4-2.21-4-2.21-4.43-1.84-4.43-1.11-5.29-.74-.49-2.95-3.08-1.48-5.29.74-5.78,2.58-3.57.74-6.15-2.58-3.14,1.48-4.86,1.11-2.21-.74-5.78-1.48-5.29,4.06-2.21,1.84-4.43.74-4.43-1.11-5.78-.37-6.64,1.11-5.29.74-6.21,1.11-5.29,2.58-3.57,2.21-4.43.74-6.21-1.48-4.86-2.58-4,2.95-3.07,2.58-3.57-3.69-2.64-1.84-4.43-4.8-.86-5.54.43-4.8-1.35-1.11-5.72,4.8,1.29-2.95-3.08-2.95-3.57-3.32-3.07-1.84-.43-4.43,1.29-3.32-3.08-4.43-1.78-5.17-.43-4.43,1.78-5.54.43-4.43-1.35h-.37l-5.17-.43-4.43,1.78-3.69,1.78-5.54.43-5.17.43-5.17,1.35-4.8-1.35-4.43-1.29-4.8,1.29-3.69-3.07-4.8.86-3.69,2.64-4.43,1.78-2.58-2.21-4.8-1.29-2.21,3.94-2.58-3.51-4.06-1.78-.37-3.07,2.95-3.14,2.58-4,4.06-1.72,2.21-4,2.21-4.43,1.11-5.35,1.48-5.29-1.84-4.43.74-6.64,2.21-3.57-2.58-3.94,1.84-4.92,1.48-4.86,1.11-5.29-1.48-5.35-4.8,1.35,1.84-4.86.74-1.78,1.11-5.29,4.8-1.35-1.11,5.78,2.21,3.94,2.95,3.14,1.85-4.86,1.11-5.78,1.84-4.43,1.11-5.78,1.48-5.29-2.21-4,2.21-4.43-3.32-3.07,2.21-4,2.95-3.57-.37-6.15,1.84-4.43,2.21-4,2.95-3.57,2.95-3.07,2.95-3.57,1.84-4.86.37-6.21-.37-6.64-3.32-2.64-3.32-3.08-2.58,1.29-4.8,1.35,4.06,2.64-5.54-.86-4.8-.92-4.06-1.78-5.54-.43-4.8.92h-5.54l-3.69,2.21-4.43,1.72-4.8.92-5.17.86-5.17.92-5.17.43-4.43,1.78-4.06,1.72-3.69,2.71-2.21,4.43-1.85,4.43-1.48,5.29v6.64l-.37,6.64-.37,6.21-3.32,3.07-1.11,5.35-.74,6.15v.92l-2.95,3.07-3.32,3.14-3.32,2.64-4.06,2.21-2.58,4,3.32-3.14-2.21,4,1.48,5.29-4.06,2.21-4.06,1.78-4.8-1.29-4.43-1.35,4.06-2.21-3.69-2.64-5.17.86-5.17.92-4.8.86-2.95,3.07-4.06,2.21h-11.44l-4.8,1.35-3.69,2.21,5.17-.86-4.43,2.21-5.17.43-4.43,1.78-4.8.86h-1.11l-3.69-1.78-2.58-4-2.21-4.43-4.8-.86-3.32-3.07-4.43-1.35-5.54-.43-4.06-2.21,2.95,3.51-4.06-2.21-3.32-3.07,4.06,2.64-3.32-3.08-1.84-4.86-2.95-3.14-2.95-3.51-2.21-4-1.48-5.35-1.11-5.29-2.58-4.43-2.58-3.57-2.21-3.94-2.95-3.57-2.58-3.57-2.95-3.51-1.85-4.43-.74-1.78-2.21-4.43-1.85-4.43-1.48-4.86-1.48-5.35-2.95-3.07-1.48-5.29-.74-5.78,1.85,4.43,2.58,4,2.95,3.51.37,6.64,1.84-4.86-2.21-4.43-3.32-3.08-2.58-4-1.84-4.43-1.11-5.78-1.11-5.29-1.48-5.29,2.21-4.43,1.48-5.35-.74-6.21.37-6.64-.37-6.64,1.11-6.15.37-6.21.37-6.64-.74,2.64-.37,6.64v-6.64l-1.84-4.86,2.58-3.57v-6.64l-.37-7.07-.37-6.21,4.06-1.78,2.95-3.08-.74,6.21-1.48,4.86-1.48,5.29-1.11,5.78-.74,5.29-.37,3.14,1.11-5.35,1.11-5.72,1.11-5.35,1.48-5.29,1.85-4.43,2.21-4,1.85-4.86,1.85-4.86.37-6.21-.74-3.07-1.11,2.64-2.21-4.43-.74-5.78-1.84-4.86-1.11-5.29-1.85-4.92,1.85-4.43-.74-6.15-4.06-1.78-2.21-4.43,2.58,3.51,5.54.49,1.84-4.92.37-6.15-2.21-4,4.43.86,2.95-3.08-.37-6.21,5.17.86.74-.43,2.21-3.07-.37-6.21,1.11,1.35,4.06,1.72,1.48-4.86-1.48-5.29,2.58,4,1.85-4.43,4.06,2.64,4.06,1.29-3.32,2.71,3.69-2.21,2.95-3.57,4.8-.86,4.06-2.21,4.06-2.21,2.95-3.14,1.85-4.43,3.69-2.64,1.11-5.29.74-6.21,5.17-.92-2.58,4,4.43,1.78-2.95,3.07,3.32-2.64,4.06-1.78,4.43-1.72,4.06-2.21,5.17-.49-.74-1.72-1.48-2.21,4.06-1.78-2.58,4,1.84.86,4.43-1.35h11.44l4.43,1.78,4.06,1.78,4.43,1.78,5.17.86,4.8-1.29,1.84-4.43,5.17-.92,5.17.92,2.21,3.94,3.69,2.71,4.06,2.21,1.84,4.86-4.43-1.78,1.48,1.78,4.43,1.78,4.43,1.29,4.8.92,2.58-3.57,4.06-2.21,4.06,2.21,3.32,3.08,1.48-5.29-.74-5.78,4.43,1.78,2.21,4.43,4.06,1.78,4.43,1.78,2.95,3.07-2.21,4.43,1.48-1.78,4.43-1.29,1.11-5.35-3.32-2.64-4.06-2.21-3.69-2.64-2.21-4,2.95-3.51,4.06-1.78v-6.64l-4.43,1.29-3.32,2.71-2.95-3.57,3.32-2.64-5.17.43-4.06,2.21-5.17-.86-2.95-3.57,2.95-3.07v-.49l4.8-1.29,3.32,2.64,4.8.86,4.06,2.21,3.69-2.21,2.58-3.94,5.17.43,4.06-2.21,4.06,2.21,5.54.43,4.8-1.35,4.43,1.35,1.11-6.21,3.32-2.64.37,6.21,1.11,5.72,5.17-.43,3.69-2.64,3.69-2.21-2.58,3.57,4.43-1.35,2.58-4,4.06-1.78-1.85,4.92h1.11l4.06-.92,5.54-.43,3.69-2.64,4.06.43,4.06,2.64-4.8.92,4.43,1.72,4.06,1.78,5.54-.43,2.58,4,3.32,3.08-4.06-2.21,2.95,3.14,3.69,2.64,1.11,5.72,4.43-.86h5.54l4.06-2.21,3.69-2.64,3.69-2.64,2.95-3.14h5.54l3.69,2.21,4.06,2.21,2.95,3.14,2.58,3.94,2.21,4,2.95,3.14,2.58,3.94,2.95,3.57,5.54.43,1.84,4.43,2.21,4.43-.37,6.21-1.11,5.78-1.48,5.29-.74,5.78v6.64l3.69,2.64,1.48-4.86-2.58-4,3.32,3.08,1.48,4.86-2.21,4-3.69,2.64,3.32,3.14,1.84,4.86,1.48,4.86,2.58,4,4.06,2.21-1.84-4.86,4.06,2.21-.37,6.64,3.69,2.21,2.21-1.78-1.11,5.29,1.11,5.35,1.11,5.72,1.11,5.35,5.17.86,4.06,1.78,1.85,4.86,1.84,4.43,2.58,4,2.21,4-4.43-1.35,2.95,3.57,4.43-1.35,5.17-.43h5.9l-.74-2.21,2.21-4.43.74-5.78,2.58-3.94,1.48-4.92.74-6.15.74-6.21.74-5.78-.37-6.64-1.11-5.72-2.21-4-1.84-4.86-1.11-4.43,2.21,4.43-1.84-4.43-1.48-5.35-1.84-4.43,1.11,4-2.21-4.43-1.84-4.43-1.84-4.43-1.85-4.86-1.48-5.35.37-6.64,2.58,4,1.11,5.35v6.64l1.11,2.64-.74-6.21,1.11-5.78-2.21-4.43-2.21-3.94-2.58-4-2.21-4.43-1.84-4.43-1.84-4.86-1.85-4.43-1.84-4.92-1.11-5.29-1.11-5.78-1.11-5.72-1.11-5.35-1.11-5.72v-6.64l2.21-4.43,1.85-4.43-4.06-1.78,4.8.43.74-6.21,1.48-4.86,1.84-4.86,4.8-1.35,1.84-4.43.74-5.72-.74-5.78,4.06,1.78,1.48,5.29,3.69-3.07-1.84-4.43,5.17.86,3.69-2.21,4.43-1.72.74-6.21,4.43,1.29,2.58-3.94,4.43-1.35,2.21-4.43,1.11-4,3.69-2.64,2.58-3.57,2.58-3.94,3.32-3.14,4.06-2.21,4.06-1.78,5.54-.43,5.17-.43,2.58-4,1.84-4.43,2.95-4,3.32-2.21,3.32-3.07-1.11-5.29,1.11,1.29,3.32,3.14,3.69-2.21,4.43-1.78,4.43-1.35,4.8,1.35,2.58-3.57,2.58-3.51-3.69-2.71-2.58,4h-5.54l-4.06-1.78-2.21-4.43,3.32,3.14,5.17.43,3.32-2.64-.74-5.78-4.43-1.78-3.69-2.21,4.43,1.35,4.43-1.78,4.06,1.78,4.06,2.21,3.69-2.64,3.32-3.14,4.06-1.72.37-6.64-3.69-2.71-2.21,4.43-3.69,2.21,2.21-2.64-1.11-5.72-4.06,2.21-4.8-1.35-4.8.86-1.84-4.86,1.84-4.86-.37,6.64,4.8.86,2.21-3.94,4.43,1.72,1.11-5.72,4.8.86,3.32,3.57-1.84-4.86-1.84-4.92,1.11-6.15-.74-2.21-2.58-3.57h-5.9l-4.8,1.35-1.48-4.92-2.21-4.43-5.17-.43-4.43-1.78-3.69-2.21,4.43,1.78,4.8.92,4.8.86,2.58,4,2.95,3.07,3.32-3.07-2.58-3.57-4.06-2.21-2.95-3.08-2.95-4,3.32,3.08,5.17.92,4.8-1.35-2.21-4-4.8-1.29-2.58-4-3.32-3.07-2.95-3.14-2.58-3.51,3.32,3.08,2.95,3.08,3.32,3.14,2.95,3.07,4.8-.86-.37-6.64-3.69-2.21-3.32-3.14-4.43-1.29-4.06-2.21-2.21-4-4.8,1.78-1.48-2.64,1.48-5.35,3.32-2.64,2.21-4.43-1.84,4.86-.37,6.64,3.32,2.64,4.06,2.21,4.43,1.35,5.54.43-2.95-3.07-3.32-3.14-.74-6.15,1.48,5.29,4.8,1.35-2.58-4-.74-5.78,2.21-4v-7.07l-2.95-3.08,4.8-1.35,4.43-1.78,2.21-3.94,3.69-2.71,2.21,4.43-3.32,2.71-4.43,1.72-1.84,4.43,2.58,3.57-3.69,2.64,4.43,1.35-3.69,2.64,3.32,2.64,3.69,2.21-4.8,1.35-2.95,3.07,3.32,3.14,2.95,3.08,3.69-2.64-1.48,5.29,4.06,1.78-2.58,3.57,5.17.43-2.21,4-2.58,3.51-1.48,5.35-1.84,4.86,1.48,4.86,1.84-4.43,1.84-5.29,4.06-1.78,1.48-4.86,2.58-4.43,1.84-4.92,2.58-3.51,2.95-3.57,1.85-4.43.37-.43-2.58-4,1.48-5.29-3.69-2.21-2.21-4-1.48-5.29-2.58-4-1.48-4.86,1.48-4.92-.74,5.78,2.95,3.08,4.06,2.71,3.69,2.21,4.43,1.29,1.84,4.86,2.58-3.94,1.48-5.35,4.8-.86,1.11-5.78,3.69-2.21,1.84-4.86,2.58-3.57.74-6.15,1.48-4.92-2.95-3.51-4.06-2.21v-1.35l3.32-2.64,2.58-4,2.21-4.43.74-6.21-.37,6.64-1.48,4.92,3.32-3.14,3.32-2.64,4.06-2.21,4.06-1.78,4.8-1.29,3.69-2.71,5.54-.43h5.54l3.69-2.21,5.17,1.35,4.8-1.35h5.54l4.8-1.29,1.11-5.35,1.84-4.86,4.8.86-.37,6.64,4.8-1.29,3.32-2.64,3.32-3.14,1.48,5.35,4.43-1.35,4.8-1.35,4.8-.86,2.21-4.43v-1.35l-2.21-4.43-4.8-.86,3.69,2.21,1.84,4.86-4.43,1.78h-5.54l-2.58-4-2.21-4.43-2.21-4-4.06-1.72-1.85-5.35,2.95-3.07,2.58-4-2.58-4,2.21-4.43,2.58-3.51,1.48-5.35,3.69-2.64,1.84-4.43,2.95-4,2.58-3.51,4.43-1.35,2.58,3.57.37-6.21,1.84,4.86,1.48-4.86,4.06,2.21,2.95-3.14,5.17-.86,1.84-4.86,2.58-4,3.32-2.64,3.32,3.08,3.32-3.08,4.43-1.78,4.8-.86,2.21,4.86.74-1.35,3.32-3.07,2.95-3.14,4.43,1.78,4.06-2.21,4.8-1.29.74-5.35,2.21-4.43-1.48-5.29,4.8,1.29,3.32,2.71,4.43-1.35h5.53l4.43-1.78,2.95-3.07,4.06,1.78,4.06-1.78,4.06-2.21,3.69-2.21,4.43-1.78,4.43-1.78,4.06-2.21,3.32-2.21,2.58-4-1.84-3.07,2.95,3.07,3.32,2.71-2.95,3.51-3.69,2.64-3.69,2.21-2.21,4,4.8-.86,4.8-1.35,5.54.43,5.17-.43,5.17.43h5.54l3.32,2.71-5.17-.49-4.8.92-4.43,1.78-1.84,4.86-4.43-1.78-1.85-4.43-4.43,1.78-4.8,1.29-3.69,2.21-4.06,2.21-3.69,2.21-4.06,2.21-2.58,4-5.17.43-4.06,2.71-2.58,3.51,4.43-1.78-3.32,3.14-2.21,4-1.48,5.29.37,6.64,4.43,1.35,3.69,2.64,1.84,4.86,1.84,1.35,5.17-.92,2.95-3.07,2.58-3.57,4.43,1.35,3.32-3.14,2.95-3.51,3.32-3.14,3.32-2.64,1.11-5.29,5.17-.43-1.11-5.35,4.8.92,2.21-4,1.85,4.43,5.17.86,2.95-3.07-2.58-4,4.8,1.35h5.9l3.69-2.71,5.54.49,4.43-1.78,4.43-1.35,4.06-2.21,4.8-1.29,4.06-1.78h.37l3.69-1.35,4.43-1.78,4.43-1.72,5.54.43,2.95-3.57-5.54-.43-4.06-2.21,3.69-2.21-3.32-3.08-4.06-2.21-4.06,1.72-4.06-2.21-1.85-4.86-3.32,2.64-4.06,2.21-4.8,1.35-4.06-2.21-4.8-1.35-5.54.49-4.8-.92-4.06-2.21-5.17.92-3.69-2.71-2.95-3.51,4.8-1.35-3.69-1.78-5.54-.43-4.8-.86-4.8-1.35-1.48-4.86-2.21-4.43-2.21-4-2.21-4.86,1.48-4.86h-5.53l-4.8-.92,3.69-2.64,3.69-2.21,1.11-5.29,2.58-4,2.58-4-4.43-1.78-5.17-.43-4.43,1.35-3.69,2.64-4.8,1.78-1.48-5.35-3.32-2.64-5.17-.86-4.43-1.78-4.06-1.78-4.43,1.35h-1.48l4.06-2.21,5.17-.43h5.9l4.43-1.35,4.06,1.78,4.8,1.78,5.17.43,4.06-2.21,3.69-2.21,4.43-1.78,2.95-3.57,4.8-1.29,3.69-2.21,2.21-4.43-3.32-2.64-2.95-3.57,5.54.43-2.95-3.51-3.69-2.71-4.06-1.72-4.43-1.78-5.17-.92-5.17-.43-5.17-.86-4.8.86-5.54.43-5.54.49-4.8.86-4.8,1.35-4.43,1.29-4.43,1.78-4.43,1.78-4.8,1.29-4.43,1.35-4.06,1.78h-.37l-4.43,2.21-4.43,1.29-4.06,1.78-4.43,2.21-3.32,2.64-4.06,2.21-4.06,1.78-3.69,2.64-3.32,3.14-3.32,2.64-3.69,2.64-2.58,4-2.95,3.07-2.95,3.14-3.69,3.08-2.95,3.14-2.58,3.51-3.32,3.14-3.32,2.64-4.43,1.78-4.43,1.72-5.17.92-2.21,1.78,2.95-3.57,3.69-2.64,4.06-1.78,3.32-3.08,2.21-4.43,3.32-3.14,4.43-1.29,2.21-4.43,3.69-2.71,2.58-3.94,2.21-4-2.21-4.43-4.06-1.78-4.8-1.35-4.43-1.72h-5.9l-3.69-2.71,4.43,1.35,5.17.86,4.8,1.35,4.8,1.35,4.06,1.72,5.17.92,3.32-2.64,2.95-3.14,2.58-4.43,3.32-2.64,2.21-4.43,3.69-2.21,4.43-1.35,2.58-4.43,5.17-.43,4.06-1.78-1.48-1.29,4.06-2.21,5.53-.43,4.8-.92,5.53-.43,3.32-3.07,1.11-5.35,1.48-4.86,3.69-2.64,2.95-3.57,4.06-2.21,4.43-1.78,4.43-1.29,5.54.43,3.32-2.64,5.17.86,5.17-.86,5.17-.92,5.17.92,5.53.43,5.54-.43,5.9-.43,5.17.86,4.8-1.35,5.53.49,4.8.86,5.17.86,4.8-1.29h16.97l4.8,1.29h5.53l3.69,3.14,4.06-1.78-1.11,2.21,4.43-1.78,5.17-.86,5.17-.43,5.53.43,5.54-.43,5.17-.92,5.17.43,4.43-1.29,2.21-4,5.17-1.35,3.32-3.07,3.32-3.08,3.69-2.21,4.8-1.35,1.48-4.86,3.32-3.14,2.58-3.94,4.06-1.78,4.8-.92,5.17.49,4.06-2.21,4.06-2.21,5.17.43,4.8-1.35,4.06,2.21,4.43-1.78,4.06-1.72.37-.49,3.69-2.64,3.69-2.64,4.8-.86,3.69-2.71,4.06-1.72,2.58-4,1.84-4.86-4.06-2.21-4.06-2.21,4.8,1.29,5.17-.43-2.95-3.57-5.53-.43-5.54-.43-4.43-1.35,4.8.92,3.32-3.14,5.17-.86-3.32-3.08,4.43-1.35-2.58-4-4.43-1.29,4.06-2.21,4.06-1.78-1.48-4.86-4.06-2.21-2.21-4.43-4.8-1.35h-5.54l-4.8-1.78,4.06-2.21-4.8,1.35h-5.54l-3.32,3.08-4.06,2.21-2.95-3.07,4.43-1.78,2.58-4-2.58-3.51-2.95-4-3.69-1.78-5.53-.43-5.17-.92-5.54-.43-2.58,4,4.8-1.35,4.43,1.78-5.54-.43-4.8,1.35-4.8,1.29-4.43,1.35-4.06,2.21-2.21,4.43-1.11.86-5.54.43-3.69,2.71-4.43,1.29-4.8,1.35-3.32,2.64-2.95,3.57-5.54-.49,4.43-1.72h-5.53l4.06-2.21,4.8-.92-4.06-2.64-4.06-1.78-4.43-2.21-4.06-1.78,4.8,1.35,4.06,1.78,5.54.43,2.58-4,4.06-2.21,5.54.43,4.8-.86,4.43-1.78,4.8-.86,3.69-2.64,5.54.43,2.21-4.43-2.95.86-1.48.92-4.8.86-4.8,1.35-4.8.86-4.8-1.35h5.53l4.8-1.29,4.8-.92,5.54-.43,4.06-1.78,5.17-.86,2.95-3.07,5.54-.92,5.54.43,3.32-3.08,1.48-4.86-5.17.43-3.69-2.64h-5.54l-4.43-1.78-5.54.43-4.8-1.29-4.8-1.35-1.84-4-3.69-3.07-3.69,2.21,1.48-4.86-2.95,3.51-3.69,2.21-3.69,2.64-4.43,1.78,3.32-3.07,2.21-4.43-5.17-.92,1.48-4.86-.74.43-4.06,2.21-3.32,3.14-3.69,2.21,1.11-5.78-4.06,2.21-4.06,2.21,1.84-4.86,2.95-3.08,3.32-3.57-4.8,1.35,2.95-3.57-3.69-2.64,2.95-3.14-4.43,1.35-2.95,3.57.74-6.21-3.69,2.64-2.95-3.57-4.06-2.21-5.54-.86-4.43-1.35,3.69-2.64-3.69-2.64h-5.54l-3.69-2.64,5.53-.92-4.06-2.21-3.32-2.64,4.43-1.78-5.17-.43-5.17-1.29h5.9l-4.8-1.35-4.8-1.78-.37-.43,2.95.86,4.8,1.35,4.8.86,3.69-2.64-4.8-1.29,5.17-.49,2.95-3.51,5.17-.92-.37-3.94-4.8-1.78-4.8-.92-4.06-1.72,2.58-3.57-4.06-1.78h-5.9l-4.8-1.29,4.8-1.35,4.43-1.35,2.58-3.94-4.06-2.21-2.58-4-4.43,1.29-3.69-2.64,4.43-1.78-2.95-3.51-5.17.86-5.17.43-3.32,3.14-5.17.86,3.69-2.64,4.06-2.21,5.17-.43,4.06-2.21-5.54-.43,4.8-1.35-1.48-4.86-5.54.43h-5.54l-4.43,1.35-4.06,1.72,1.85-4.43,5.54.49,4.43-1.78,2.21-4-1.48-4.86-.37-.43-4.43-1.35-3.69-2.64,5.17-.43-4.8-1.35-4.43,1.78-5.17.43-4.43-1.78,5.17.43,4.43-.86,3.32-3.57-3.32-2.64-4.8-1.78-4.43-1.29,2.95-3.57-4.06-1.78-4.06-1.72-2.95-3.57,2.95-3.08-3.69-2.21-5.17-.49,2.58-3.51-4.06,2.21-4.8.86,4.43-1.78,1.84-4.43-5.17-.86,4.43-.86-4.43-1.35-4.06,2.21-2.21,4-2.21,4.43-3.69,2.64,3.32,2.64-4.43-1.29-4.8.86-.74,3.08,1.84,4.43,4.8,1.35,3.69,2.64-4.43-2.21-4.06,2.21-2.21,4-4.8,1.35,2.95,3.94,4.8.49-5.54.43-4.43,1.29-2.58,4-1.85,4.43,1.48,1.78,1.48,1.78-2.21,4.43.74-6.21-3.69-2.21-3.69-2.64-4.8.86-2.58,4-2.58,3.57h-5.54l-3.32,3.07-4.43,1.78-4.43,1.29-3.69,2.21-2.21,4.43v-6.15l-1.11-5.78-1.84,4.86-3.69,2.64h-.37l1.84-4.86-1.48-5.29-4.43,1.78-1.48,4.86-2.21,4.43-2.58,4-4.8.86-4.8.86,3.69-1.29,5.17-.92,2.58-3.94,2.21-4,1.11-5.78-3.32-2.64-1.11-5.29-4.43-1.78-4.8-1.35-5.54.92-5.9-.49-3.69,2.21-4.43,2.21-4.8,1.35-5.17-.86-4.8-1.35,5.17-.86,5.17-.92-1.11-5.72,2.95,3.51,4.43,1.78.74-5.78,2.58-3.51,3.32-3.14-4.43-1.72h-5.53l.37-6.21,1.48-5.78-3.32-3.08-4.06-1.78h-5.54l-5.53-.86h-5.54l-4.8-.92-5.17-1.29,4.43.43,5.17.86,5.54.43h11.81l4.43-1.72,1.84-4.92-2.21-3.94-2.21-4.43,2.95-3.57,3.32-2.64,4.06-2.21-1.84-4.43-5.17-1.35-2.58,3.57-3.69,2.64-3.69-2.64-1.85-5.35h-5.54l-4.43,2.21-4.8-.86-4.43-1.78-5.17-.86-5.17-.92-4.8-.86-1.11-5.78-5.17-.86,3.32-3.08,4.06-1.78-4.06-1.78-5.17.86-5.17.92,2.95-3.57-3.32-3.51-4.8-.92-5.54-.43-3.69,2.21,2.21-1.78.37-6.64-5.17.43-3.69-2.64-3.32-3.08-4.43-1.78-4.8-.86-4.43-1.78-4.43,2.21-4.06,1.78-4.8,1.29-4.8.92-4.8.86,2.95,3.08-4.06-2.21-4.06-1.72-5.17-1.35h-5.54l-4.06,1.78-5.17.86,3.69-2.64-5.17-.86-5.53-.49-4.06-1.72-5.17-.92-4.43-1.29-5.17-.92-5.54-.43-5.17-.43-5.54.43-4.43,1.78-4.06,2.21-3.69,2.21-.74,5.72,1.48,4.92,1.48,4.86,4.06,2.21,4.06,2.21,2.21,4-4.43,1.72.37,6.21-2.58,4-3.69,2.64-2.21,4.43,5.17-.86-1.84.86h5.9l4.8-.86-3.32,2.64-2.21,4,4.43,1.78-1.85,4.86,1.85,4.43,2.21,4.43,4.06,1.78-.74,5.72-4.8,1.35,2.21,4.43-3.32-3.14-3.32,3.14-3.69,2.64,1.84,4.43-4.06,2.21-3.32,2.64-3.69,2.64-2.21,4.43-4.8-.86,1.11,5.29,2.95,3.57,2.95,3.07,4.43,1.78,1.84,2.21,4.43,1.35,4.8,1.78,3.32,3.07,4.06,1.78,3.69,2.64,2.95,3.57,2.95,3.51,2.21,4,2.21,4.43,2.21,4,1.48,5.29.37,6.64.37,6.64v6.64l-1.48,4.86-1.84,5.35-3.69,2.21-2.95,3.07-2.95,3.57-2.58,3.51-3.69,2.71-3.69,2.21-4.06,2.21-3.32,3.08-4.06,1.78-4.43,1.78-3.69,2.64-4.43,1.29-4.43,1.35-4.8,1.35-4.06,2.21-4.8.86-4.8.86-2.95,3.57,2.21,4.43,1.48,4.86,2.95,3.57,5.17.86-3.69,2.21,2.58,3.57,2.58,4-.74,6.15,1.85,4.43,1.48,5.35-.37,3.08,1.84,4.86,2.95,3.14-1.84,4.43,2.21,4.43,4.43,1.78v6.64l-1.85,4.43-3.32,3.51-2.21,4-3.32,3.08,3.32,3.14,2.58,3.51-2.21,4-2.95,3.57-1.11-5.78-2.95-3.08-3.32-3.14-4.8,1.35-2.58,4-2.21,4-.74,6.15-.74-.86-4.06-1.78-4.06-2.21-4.8-1.29-5.17.43-3.32,2.64-4.43,2.21-4.06,2.21,3.69-2.64,3.32-2.64,3.69-2.71,2.21-4.43-2.58-3.94-2.21-4-3.69-2.64-3.32-2.71-3.32-2.64-4.8-1.29-3.32-2.71-5.17-1.29-4.8.86,3.69-2.21,5.17-.43-1.85-4.43-3.69-2.64-3.32-3.14-2.95-3.08-1.48-2.21-4.06-2.21-1.84-4.43,2.58-4.43.37-6.21-.37-6.21.74-6.64-2.21-4.43-3.32-3.08-1.11-5.78,2.21-4.43,1.84-4.43,1.48-5.29-1.84-4.43-3.69-2.64-4.8-1.35-5.54.43-3.69-2.21-5.54.49-5.54-.49-4.8-.86,2.95,3.57-3.32-3.14-4.06-1.78-4.8,1.35-4.06-.43-5.17.43-5.54.43-5.17-.86-5.17.43-3.32,3.07-2.58,4,2.21-4.43.74-5.72-4.06-2.21-2.95-3.14-4.06-2.21-4.43-1.78-5.54-.43-4.43-1.29-4.43-1.78-4.8-1.35-4.8-.86-5.17-.92-4.43-1.72-4.43-1.35-3.69-2.64-2.58-4-3.32-3.07-3.69-2.21-4.43-1.78-3.69-2.21-4.06-2.21-3.69-2.64-4.06-1.78-5.17-.92-4.8-1.29-5.17-.43-4.8-.92-4.8-1.29-4.06-2.21-4.43-1.78-4.43-1.35-5.17-.86-5.54-.92-4.8.92-4.8,1.29-4.8,1.35-4.43,1.35-4.8,1.29-5.17.92-5.17-.92-4.06,2.21-4.8,1.35,4.06-2.64,2.95-3.14,2.21-4.43-1.48-5.29-2.21-4-2.58-4-1.85-4.43-1.48-5.29-2.58-4-2.21-4-2.21-4.43-.74-5.72-.37-.49-2.21-.43h-5.54l-5.54-.43-5.17.43-4.8,1.35-2.21,4.43-1.85,4.43,1.11-5.78,1.11-5.29-5.54.43-3.69-2.64-2.58-3.57-4.06-2.21,2.95-3.51,1.48-4.92-1.84-4.86.74-6.21-1.11-5.72,2.58-4,1.11-5.78.37-6.15,3.32-3.14,2.58-4,2.95-3.08,2.58-4,4.06-1.78-.74-5.72,4.43-1.78-3.69-2.64,3.32-2.64,4.43-2.21,4.06-1.78,2.58-4-2.95-3.08,3.69-2.71h5.54l2.58-3.94,3.69-2.71-4.8-1.29-4.43-1.35,4.8.92,5.17.86,4.06,2.21,2.95,1.35-2.21-4-4.8-1.35,2.95-3.08,2.58-4,4.06,2.21,4.43-1.78,4.06,1.78,3.32-2.64-4.8-.92-4.8-1.29-3.32-2.64,4.8-.92,5.17-.86,5.17.86,5.17.92,5.17-.92,4.06-1.78,4.8-1.29,5.54-.92,3.32-2.64-1.85-4.86-1.84-4.43-4.43-1.78-4.8-.86-5.17-.92-4.43-1.72-2.95-3.14h-5.54l-4.43,1.78-4.8,1.35-5.17.86,4.43-1.78,2.95-3.51-4.43-1.35-5.54-.43-4.8-.92-5.17-1.29-4.43-1.35-3.69,2.21-4.8-.86-2.95-3.14,4.8-1.29-2.95-3.57,3.69,2.64,4.43,1.78,4.8,1.35,4.43,1.29,4.8,1.35,5.54.86,4.43,1.35,4.8.86,5.9.49,5.17.43,5.54.43,3.69,2.21,5.17.86,4.8.92,3.32-3.14,4.8,1.35,5.17.43,4.06-2.21,2.95-3.51-2.95-3.14-3.69-2.21,5.17.43,5.17.92-3.32-3.14-4.06-1.72,4.06-.92,3.69,2.21h5.9l4.43,1.35,5.17-.92,4.43,2.21,5.17.49,4.06-2.21,5.17-1.35,4.8-1.35,2.58-3.51,3.69-2.64,2.21-4.43,4.43-1.35,2.21-4.86,4.8-.92,2.21-3.94,3.32-3.14,2.21-4.43-4.06-2.21-5.17-.43-5.54-.43h-5.54l-5.17.43-5.54-.43-5.54-.43-5.54-.49-5.17-.86-4.06-1.78-4.43-1.78-2.95-3.51-4.06-1.78-4.06-2.21-4.43-1.78-5.17-.86-5.17-.92-5.17-.86-5.54-.43-3.32,2.64-4.8-1.35-3.32-3.08,5.17.43,5.17.92,5.54.43h5.9l4.8,1.29,5.54-.43,4.43-1.78,5.17.92,4.43,1.29,4.06,1.78,4.43,2.21,5.17.43,4.8,1.35,5.17.86h-8.12l4.8,1.35,4.06,1.78,3.32,3.07,4.43,1.78,5.17.43h11.44l4.8-1.78,3.32-3.08,4.43-1.78,3.32-2.64,4.06-1.78,1.85-5.29,4.8-1.35,4.43-1.78,1.11-5.29-4.8-1.35-4.8-.86-5.17-.86-1.11-5.35,5.54-.43h5.9l5.54.43,5.17-.86,4.8-1.35,4.06,2.21,1.11,5.35,5.17.86,5.54.43,4.8,1.35h5.54l-1.48-4.43,3.69,2.21,4.43,1.29,4.8,1.78,3.32-3.08-2.58-3.57-3.69-2.64-2.21-4-4.8-1.29-3.69-2.71-2.58-3.94-5.53-.49-3.69,2.71-4.06-1.78,5.17-1.35,4.43-1.78,4.43,1.78,4.06,2.21,2.21,4,5.17.86,4.43-1.72-2.58,4.43,4.06,2.21,4.43,1.72,2.95,4,5.17-.86,4.06-1.78,3.32-3.08,5.9-.49,4.43-1.29,3.69-2.21,5.54-.43.37-.49,1.48-2.64,2.58-4,5.17-.86h5.54l2.95-4,1.48-4.86,1.11-5.78-3.32-3.07-4.06-1.78-4.06-2.21-4.06-2.64-3.69-2.21.37-6.64h-5.9l-1.11-5.78-2.58-3.94,4.8,1.29,4.8-1.29,4.43,1.29,4.06-1.78,5.17-1.29,4.06-1.78,2.58-3.57-3.32-3.08-5.17-.43-5.17-.92-5.54.49,5.17-.92,4.43-1.78,4.06-2.21,3.32-3.07-5.17-.86-4.8-1.78h-5.54l-4.8-1.35-3.69-3.08-5.17-.92-4.8-.86-5.9-.43-4.8-1.35,5.17.43,5.9.49,5.17-.49-4.8-1.29,4.43-1.78h5.9l-5.17-.43-5.17-.92h-5.9l-5.17-.43-5.9.43-5.17-.43-5.17-.86-4.8-1.35-4.8-1.29-4.8-.92-5.17.43-5.17.92-5.54.43-4.43-1.35-5.17.49,3.32,1.29-2.58,3.57,3.69,2.64-1.48,5.29,1.48,4.92,5.54.86,4.43,1.78,5.17.86,3.69,2.21-5.54-.43-4.06,2.64-4.06,2.21,5.17.92,4.06,2.21-5.53-.49-4.8,1.35-4.43-1.78-5.17.92-2.95,3.08.37,7.07-1.85,4.86-1.85,4.43-5.17.92-3.32,3.51-3.32,2.71-2.95,3.51.37,6.21-3.69,2.64-5.17-1.29-2.21,4.43-4.8.86-3.32,3.08-4.43-1.29,2.58-3.14-2.95-3.08-4.06-2.21-3.69-2.65-4.06-2.21-3.32-2.64-3.32-3.14-1.48-4.86.74-6.21,2.58-3.51,2.95,3.08h5.54l.74-6.64-2.58-3.57-1.48-5.29-3.32-2.64-4.43-2.21-4.06-1.35-4.43-2.21-4.06-1.78-3.69-3.08-5.9-.43-3.69,2.64-3.32,2.64-3.69,2.64.37,6.21-3.32,2.64-1.48,5.35-2.95,3.51-2.95,3.57-3.69-2.64-4.43-2.21-.74-5.78,1.84-4.86-2.58-3.57-3.32-2.64-2.95-4-4.06-1.72-4.43-1.78-4.43-1.78,5.17.86,4.43-1.72,3.32,3.07,2.58-4,4.8-.86-3.32-3.14-4.43,1.35-5.54-.86-5.17-.92-5.17.92,4.8-1.35,4.43-1.35-4.8-.86-5.17.43-4.43,2.21-5.17.92-4.43-1.78-4.06-2.64-5.17-.49-4.8.92,4.8-1.35h-5.9l4.8-1.78,4.06-2.21,4.43-1.72,3.69-2.71-3.69-2.21-5.54.49,2.95-3.57,5.17.86,4.8.92,5.9-.43,3.32-.49-4.06-1.72-2.95-4-3.32,3.07-2.21-4.43-4.06-2.21-2.95-3.07-4.06-2.21-4.8-1.35-3.69-2.64.37-6.21-1.85-5.29-2.21-4-3.69-2.21-4.43-1.78-4.8-1.78-4.06-1.72-2.58-4-5.17-.43-4.43,1.29-4.43-1.29-1.11-5.78h-5.54l-5.54.43-5.17.43,3.69,3.14-5.17,1.29-4.06,2.21-4.43,1.35-4.8,1.35,2.95,3.51h5.9l-2.58,4-5.17.86-4.06-2.21-5.9.49-3.32,2.64-2.95,3.51,1.11,1.35-2.58,4-2.21,4.43,3.69,2.65,4.06,2.64,5.54-.86,4.8-.92-4.43,1.35,3.69,2.64-4.8-.86-4.43,1.29-2.95,4-3.69,2.21.74,6.21,3.69,2.65,4.43,1.35,2.58,4,4.8,1.72h5.54l4.43,1.78,4.8,1.35,5.17.86,4.43,1.78,2.95-3.08,4.06,2.21,3.69,2.64,4.43,1.78h5.9l4.06-1.35,5.17-.86,2.21,4.43-4.06,2.21-3.69,2.64,2.21-4.43,3.69-2.64-5.17,1.29-4.8.92-5.54.43-2.58,4,4.06,1.72-3.32,3.14-3.69,2.21-3.69,3.08,3.32,3.14,5.17-.49,4.8-1.29,4.06-2.21-4.8.86,2.58-3.51h5.9l2.95,3.51-2.95,3.57,3.69,3.08-3.69,2.64-4.8,1.35-4.8,1.35-2.21,3.51-4.43,2.21-4.06,1.78-3.69,2.21-5.17.86-5.17-.86-5.54.43-1.48,1.78-2.21,3.57-.74,6.15,4.06,2.21,1.11,5.35,2.95,3.51-2.58,4,2.58,4-4.43,1.78-5.17.43-5.17-.86-4.8,1.29,3.69,2.64,2.58,3.57-2.95-3.08-4.43-1.35-3.69-2.64-2.21-4,3.69,2.64,5.17-.86,4.8,1.29,5.54.49,2.95-3.14-1.84-4.43-4.8-1.29,2.58-3.57-4.8.86-4.43,1.78-5.54.92-1.11-5.35-2.21-4.43,2.95-3.07,1.48-5.35,1.85-4.43,1.11-5.72-4.8,1.29-4.8,1.35-2.95,3.08-5.17-.86,4.06-2.21,2.58-4-5.54.43-4.8,1.35-2.95-3.57-4.06-2.21-4.06-1.72-4.43,1.72-3.69-2.64h-5.9l2.21,4-4.06,2.21-5.17-.86-4.43-1.78-3.69,2.64,3.32,3.07,2.95,3.57-4.8-1.78,3.32,3.14,4.06,2.21,5.17.86,4.8-1.35,5.54-.43,4.06,2.21,5.17.43,1.11,6.21-4.8,1.35-5.54.43-4.06-1.78-4.06-1.78-4.43-2.21-2.95-3.08-4.06-2.21-3.69-2.21-2.58,4,4.06,1.78,4.06,2.21-5.17.43-5.17,1.29-5.54.49-5.54-.49-5.17-.86-4.43-1.35h-5.9l-5.54-.86h-5.54l-4.8,1.35-.74-1.35-4.8,1.35-4.8,1.29-5.17.92-5.17.86-5.54-.43-4.8-1.35-5.17-.43-5.54.43-4.43-1.29-5.54-.49-3.69-3.08-4.8-.86-4.8-1.35-1.84-4.86-3.32,3.07-4.8.92-5.54-.49-5.54.49h-5.54l-3.32-3.14-3.32-3.08-4.43-1.78-5.54.43-4.06-2.64-4.8-.86,2.95-3.14-1.48-5.29-3.69-2.21-4.06-2.21-5.17-.92h-5.54l-5.17,1.35-4.8,1.35-5.54.43-4.8,1.29-4.43,1.35-5.54.86-5.17.92h-5.54l-5.54.43-4.43,2.21-2.95,3.08-1.48,5.35,4.8-1.35,1.84,4.86,4.8-1.29,5.17.86,4.8-1.78-2.58-3.94h5.54l5.17.86h5.54l4.06-1.78,5.54.43,4.06,1.78.37-6.21,5.17-1.29,4.8-.92,4.8-1.29,5.54.43-1.11,5.78h-5.9l-4.8.86-4.8,1.35-1.85,4.86-4.43-1.78-2.58,3.57h-1.48l-5.17.43-5.54.43-5.17.86-5.17-.86-3.69,2.64,4.06,2.21-4.43,1.35-3.32,3.08,3.32,3.14,4.06,2.21,1.11,5.29,2.58,4,3.69,2.64,2.58,4,2.58,4-3.69-2.21-2.58,3.51-1.85-4.86-3.69-2.21-1.48,4.86,1.11,5.35,2.95,3.07,3.69,2.64,2.95,4-3.69-2.64-3.69-2.64-3.32-3.14-4.8-1.29-2.58-4-2.95-3.57-4.43-1.29-3.69-2.71,4.43,1.78,5.54-.43,4.8-.86-1.85-4.92-4.06-1.72-4.06-2.21-4.8-.92-1.85-4.86-3.32,2.64-2.58,4-1.84-4.43-2.21-4.43-4.43-1.35-5.54-.43-4.43,1.35-2.95-3.57-5.54-.43-2.21-4.43-4.43,1.35-5.17.86-4.43,1.35-4.43,2.21-5.17.43-5.17-.92-4.8,1.35-5.17.86-4.8,1.35-5.17-1.35-4.8,1.35-5.54.43-5.9-.43-5.17.43-5.17-.86h-5.54l-5.9.43-5.17-.86-5.54-.49-5.54-.43-5.17-.86-5.17-.43h-5.54l-.74-.49-4.43-1.72-4.8-1.78,5.17-.92,2.58-3.94,4.43-1.35,2.95-3.57,4.8.92,5.54-.43,5.17.86,4.8-.86-.74-5.78-3.69-2.64-4.43-1.78-3.32-2.64-5.17-1.35-3.69-2.21-5.17-.86-4.8-.92-4.8-1.29-5.17.43-5.54-.43-5.54.86,3.32,3.14-4.8-1.35h-5.9l-5.17-.86-5.54-.49h-5.54l-4.8-1.29-5.54-.43-5.17-.92-4.8-.86-4.43-1.78-5.17-.86-3.69-2.71-5.17-.86-5.54-.43-5.17-.92-5.54-.43-5.17-.86-5.54-.43-5.17-.92-4.43-1.78-4.06-1.72-4.06-2.21-4.43-1.78-4.8-.92-4.43-1.72-5.54-.49-5.17-.86-5.54-.43-5.54.43-5.9-.43-5.54-.43-1.48.86h-5.9l-2.21,4.86-2.58,3.57-3.69,2.65-4.8,1.35-5.17-.49-5.54.49-5.54.43-4.43-1.78,3.32-2.65,3.69-3.14,3.32-3.08-5.54.86-4.43-1.72-.37-6.21,2.95-3.57-4.06-1.78-4.43,1.78,4.06,2.21-4.43-1.29-5.54-.49-3.32,3.14,5.17-1.35,4.8,1.35-4.8.86-2.95,3.57-5.54.43,4.43,1.35-4.8,1.72-1.11,5.35-4.43,1.78,4.8-.92,4.06,2.21h-5.54l-4.43,1.35-4.8-.92-5.17-1.29-4.06-2.21-3.69-2.21-4.06-2.21-4.06-2.21-2.95-3.57-2.21-4-2.95-3.08-2.95-3.57-4.06-2.64-4.06-2.21-4.06-1.78-4.43-2.21-5.9-.43-1.11,5.35,3.69,2.64,5.17.43,5.17,1.35-5.17.43-5.54.43-5.17.86-3.69,2.21-2.21,4.43-4.06,2.21-3.69,2.21-4.06,2.71-4.43-1.78,3.32-3.14,3.32-3.08v-.43l-4.06,2.21-5.17,1.29-5.17.49-5.17,1.29-4.8.92-5.17.86-5.54.43-2.95,3.57-4.06,2.21-2.95,3.08-3.32,2.64-2.21,4.43-.74-5.72,1.11-5.78-3.32,3.14-2.95-3.57,1.48,5.78-4.8,1.29,1.48-5.29-4.8,1.29-5.17.49-5.17,1.29h5.54l-3.69,2.21-4.06,2.21h-5.9l-3.69,2.64-4.43,1.78-3.32,3.14,3.69,2.21,4.06,2.21-5.54.43h-5.54l-5.17-.92-4.43-.43-.37-.43,3.32-3.08,3.69-2.71,4.06,2.21,1.11-5.29,3.69-2.64,5.17.43,4.06-1.78,3.69-2.64,3.32-3.57,4.8-.86,5.54-.43,5.54-.92,5.17-.43,4.43,1.78,2.95-3.08,5.17-.92,3.69-2.64,4.8-1.35,4.8-1.29,4.43-1.35,4.8-1.29,1.85-5.35-4.43-1.29-2.95,3.51-5.54-.43-5.54.43-4.06-2.21-4.06,2.21h-5.54l-2.95,3.57-4.06,2.21h-5.54l-5.17.86-3.69,2.21-4.8,1.35-5.17.86-4.8-1.29-4.06,2.21,4.8.86-5.54-.43h-5.9l-1.85,3.08-2.95,3.14-5.17.86h-5.9l-4.8,1.35-3.69,2.21-5.54.43-3.32,3.07-4.43,1.35-3.32,3.51,2.58,2.71-3.69-2.71,2.58-3.51,5.17-1.35,2.95-3.07,3.69-2.64,4.06-1.78,2.21-4.43-5.17.43-4.06-2.64-4.06-1.78-2.21,4-3.32,3.08-5.17-.43h-5.9l-4.43,1.35-2.58,3.94h-5.54l-4.43,1.78,3.69,2.64-4.06-1.72-3.32,3.08,4.06.86,5.17,1.35-5.17.86-5.17-.86,2.58,3.08h5.54l5.54-.43,5.54.43h5.54l5.17-.43,3.32,2.64,2.95,3.14-2.95-1.78-2.95-3.07h-11.44l-5.17-.49-5.17.49,3.69,2.64,2.95,3.51-4.43-2.21-5.17-.86-4.06-1.78-4.8-1.29h-11.81l-5.54-.49-4.43-1.29h-5.54l-4.43-1.78-5.17-.86-4.8-1.35-4.8-1.35-4.43-1.72-4.8-.92-4.43-1.78-4.06-2.21-4.43-1.72-4.06-2.21-5.17-.92-5.17-.86-5.17-.92-5.54-.43-5.54.92-5.54-.49-5.17-.43-5.54-.43-2.21-.86-5.17.86-4.43-1.78-4.43-1.78-4.8-1.29-4.8-.92-5.17-1.29-4.06-2.21-4.43-1.78-4.8-1.35-5.9-.43h-11.07l-5.9.43-5.54.49-5.17.43-5.17,1.29-5.17.92-5.9-.43-5.17-.49-4.8-1.29-4.8-1.35-4.06-1.78h-5.9l-5.17-.86h-11.44l-5.17.43h-5.54l-5.54-.43-5.54-.43-3.69-2.64-5.54-.49-5.17-.86-5.17.86-3.69-2.64-5.17-.43-4.8-1.35-4.8-.86-5.54-.43-5.54.43-5.17.43-5.17,1.35-4.8-1.35-5.9-.43-4.8.86-5.54.49-4.06,1.72-5.17-1.29-5.54-.43-3.32-3.14-5.9.43h-5.9l-4.8-.86h11.07l-5.17-.86-2.58-4,4.43-1.78-2.95-1.35-5.17-.43h-5.54l-5.17-.86-5.54-.43-5.17.86h-5.9l-5.17.43-4.06,2.21-5.17-.86h-5.54l-4.43-1.78,2.21-4-4.06-1.78-4.8.92-4.8-1.35-3.69,3.14-3.32,3.08-4.43,1.35-5.54-.49-4.06-1.72,4.8-1.35,4.8-1.78,4.06-1.78-3.32-2.64-5.54-.43-4.8-1.35-5.54-.43-2.58-4-4.43,1.78-4.43,1.78-4.06,2.21-3.32,2.64-4.06,2.21-4.06,1.78-4.43,1.78-4.8,1.29-5.17.92-5.54.43-5.54.43h-5.9l-5.17.92-4.06,2.21-2.95-3.14,4.8-.86-5.54-.43-4.8.86-4.43,1.78-4.43,1.78-4.06,2.21h5.9l2.95,3.08,5.17-.86h5.9l-5.54.43-4.8,1.29-3.32,3.14,2.21,4.86-1.48-1.35-2.58-3.51-3.32-3.57,3.69-2.64-4.8-.86h-.74l-4.06,2.21-4.06,1.72-4.43,1.78-4.06,1.78-4.8.86-5.17,1.35-5.54.43-4.8.92-4.8,1.29,3.32-3.08-5.54.43-3.69,2.21-4.06,2.21-3.32,3.08-3.69,2.71-4.06,1.72-2.95,4-3.32,2.64-.74,6.21-4.06,2.21-3.69,2.64-3.32,2.21-4.43,2.21-4.43,1.78-4.8,1.35-5.17.86h-5.9l-5.17.43-5.54.92h-5.54l-5.54.43h-5.9l-5.54-.43-3.69,2.64-.74,5.78-2.95,3.51-3.69,2.21-3.69.43-1.48.49,5.17.43,5.17,1.29,4.43,1.78,3.69,2.21,5.17,1.35,5.17.43,4.8,1.78,4.06,1.78,4.06,1.72,4.8,1.35-.37.43,3.32,1.35,3.69,2.21,4.8,1.29,4.06,1.78,3.32,3.14,2.95,3.08,1.11,5.78,4.06,2.21,5.17.43,5.54.86,4.8.92,4.8-1.35,5.9.43,3.69-2.64-2.21,4.43,4.06-2.21,5.17.86,5.54-.43,4.06,2.21-3.69,2.64-1.85,4.43,3.69,2.71,4.06,1.72,5.17.92,3.69-3.14,5.17-.43,5.17.92h5.54l4.8,1.29,1.85,4.86-5.54.49-5.54.43-5.17-.92-4.06-2.21-5.17-.43-4.8,1.35-5.17-.92-4.43-1.72-.74-.49.37,6.64,4.06-2.21h5.9l4.8.92,2.21,4.43-4.43-1.35-4.8.92-3.32,3.51-2.58,3.57-4.06-2.21-5.54.43-5.54-.43-4.43,1.78-2.95-2.71-5.54.49h-5.9l-5.54-.49h-5.54l-3.32-2.64-5.54-.43,4.8-1.35,1.48-5.29,1.85-4.43-5.9-.43-5.54.43-5.17.43-5.17.92-4.06,1.72-4.06,2.71-4.8-.92-5.17.43-4.43,1.35-2.95,4,3.69,2.65-5.54.43-5.54-.43-4.8-1.35-4.43,1.35-4.8,1.35-4.06,2.21-3.32,2.64-4.8,1.29h-5.54l-2.95,4h-5.9l-5.17.92,4.43-2.21-2.95.86-3.69,2.21,3.69,2.64,4.8,1.35Zm1073.44,701.85l2.21-4.43.37.43-2.58,4Zm1840.24,1763.24l-1.11,1.78-2.58-4,3.69,2.21Zm-23.25-86.35l1.84-4.43,1.48,4.86,1.11,5.78,1.11,4.86,2.95-3.51,1.84,4.43-4.8-.49,1.11,5.35-.37.86-2.95-3.51-3.69,2.64,2.95-3.14,1.48-5.29-2.58,3.57,1.84-4.92-1.84-4.86-4.06,1.78,2.58-4Zm-16.97,62.92l3.69,2.21,2.95-3.14,4.06-1.78,2.58,4-4.43,1.78,2.95,3.57,2.58,3.51,5.53.43-5.17.49-3.32-3.14-2.58-3.51-2.95-3.57-3.32,2.64-2.21,4.43,2.58,3.57,5.54.43-5.17,1.35,1.84,4.43,2.58,3.94,5.17.92v3.51l-3.32-3.08-4.06,1.78-.37-6.21-3.32,3.07-3.32-3.07,4.43-1.78-2.21-4.43-2.58-3.51.74-6.21-4.06-1.78,5.17-.86Zm-18.82-6.64l3.69,2.21,4.06,2.21-.74,1.29-3.32-3.08-4.06-2.21-3.32-2.64,3.69,2.21Zm-157.57,358.18l3.32-2.64,3.32-3.08,2.58-4,3.32-2.64,2.21-4.43,3.69-2.21,1.84-4.86,1.11,5.29,1.48,4.86-1.84,4.86-2.21,4.43-4.8-1.29-4.43,1.78-1.84,4.86-3.69,2.21-1.48,5.29-.37,6.21-1.48.86-1.11-5.72-1.48-4.86,1.84-4.92Zm-39.48-1071.1l1.84-4.92,4.43-.86,3.69,2.21-2.58,3.57-.37,6.15-4.06,2.21-3.69-2.64.74-5.72Zm-176.39-150.55l-.37.43-4.43-1.78,4.8,1.35Zm-2.95,1153.02l3.32-2.64,4.8.92,5.17.86,1.11,5.29-4.43,1.35-5.17.86-2.58,2.21-2.58-3.51-3.69-2.64,4.06-2.71Zm-166.05-426.82l-2.21-4.43,2.95-3.14,4.43,1.35,2.58,1.29h.37l3.69,2.71,1.84,4.43,3.69,2.64,2.58,3.51,3.69,2.71.37,6.64,5.17.43-1.84,4.86-4.8,1.35-2.21,3.94-.74-6.15,4.06-2.21-2.95-3.14-3.32,2.64h-5.9l-1.11-5.29-4.06-2.21-3.69-2.21-4.8-1.35.37-6.15,3.69,2.64-1.84-4.86Zm-377.86-783.77l2.21-.49,4.06,1.78,2.58,3.57,4.06,2.21,3.32,3.07,2.58,3.57,2.58,4,2.58,3.94,1.48,4.92-2.21,3.51-4.8-1.29-4.8-1.35-4.06-1.35-4.06-2.21-2.95-3.51-1.48-4.86-2.21-4.43-.37-6.21,1.48-4.86Zm-14.02-9.78l4.06-1.29,1.84,4.43-2.21,4.43-3.32-2.21-3.69-2.71,3.32-2.64Zm-67.9-83.21l1.84-4.92,4.43-1.29,2.95-3.57-1.11,5.78-3.32,3.07-4.8,1.35v-.43Zm639.12-1174.79l-3.69,1.35-1.84-1.78,5.54.43Zm-51.29,58l3.69,2.64-1.48,2.71-2.21-4.43v-.92Zm-48.71,4l3.69-2.64-3.69-2.64-2.95-3.14,4.8-.86-3.32-3.14,4.06,1.78-1.48,4.86,3.32,3.14,2.21,4-4.8-1.35,3.32,3.07,3.69,2.71,3.32,2.64,3.69,3.08,3.32,2.21,3.69,2.64,3.69,2.71,5.54.43-2.95-3.57,5.17.43,5.54.92-3.69-3.14-1.48-4.86-2.21-4-3.32-3.07,4.06,2.21,1.84,4.43,1.84,4.43,4.8,1.78,3.69-2.64,5.54.86-3.69-2.64,2.58-3.57.74-3.07-.37-.43.37-1.35v1.78l2.95,2.64,2.95,3.08,4.43,1.78,2.58,3.57,4.43,1.78,4.8-1.35,4.8-1.35,2.95,3.57-5.54.43-4.43-.86,2.95,3.07h-5.54l-3.69,2.21h-5.9l-2.58-4-4.43-1.72-5.17-.49-3.32,3.14-5.17.86-4.8,1.35-3.32,2.64,1.84,4.86-2.58,3.57,5.17.43h-5.54l-5.17-.86,3.32-2.71,1.84-5.29-1.84-4.86-4.8-.92-2.58-3.94-4.43-1.78-3.32-2.64-3.69-2.71-2.95-3.51-3.69-2.21,2.21,4.43,4.06,1.78-5.17-.92,1.11,5.78-3.32-2.64-1.48-5.78-2.95-3.07,4.43-1.35Zm-50.18,83.7l2.95-3.14,2.58,3.57,4.43-1.35-1.84,2.71.74,6.15-1.11,5.78-3.69,2.21-3.69,2.64-1.48,4.86-2.58-3.94-2.95-3.57-3.69-2.64-2.58-3.57,1.48-5.29-2.58-3.57-3.32-3.07,3.69,2.64,2.58-4,1.48,5.35,4.06-2.21,5.54.43Zm-14.39-174.48l4.43-2.21,4.43-1.35-4.06,1.78-4.06,1.78-4.06,2.21,3.32-2.21Zm-113.28,218.33l4.43-1.78-1.84-4.86,1.48-5.35-3.69,2.21-2.58,4,1.48-4.86,1.84-4.86,2.21-4,1.48-5.35,4.43-1.72,3.69-2.71,3.32-2.64,4.06-2.21,4.8-1.29-3.69,2.64,4.43-1.35h4.06l-4.06,2.21-4.06,2.21,5.17-.86,5.17-.92-4.06,2.21-4.06,2.21-2.95,3.57-3.69,2.64-3.69,2.64,2.58-3.94,2.95-3.57-4.43,1.78-2.95,3.07-2.95,3.14-2.95,3.94-.74,5.78-.74,6.21-4.06,2.21-3.69,2.64,3.32-3.07Zm-32.1,292.25l4.43-1.78,3.32-2.64-2.95,3.51-4.43,1.35-2.95,3.08,2.58-3.51Zm-372.33-93.48l-.74-6.64h.74v6.64Zm75.28,200.62l-.37-6.64-2.95-3.57.74-5.72-1.48-4.86-2.21-4.43.37-.92h.37l2.21,4.43,1.48,4.86.37,6.21,2.21,4.43-.74,6.21Zm19.19,37.64l-4.43-1.78-4.8-.86.74-.92,4.8.92,4.06,1.78,3.69,2.64-4.06-1.78Zm47.23,82.35l1.85-4.86h.37l-1.84,4.86,2.21,4.43-2.58-4.43Zm7.01,30.57l-2.21-4.43,2.95,3.08-.74,1.35Zm21.77-100.06l-2.95,3.08,2.58-3.51,1.85-4.43-1.48,4.86Zm116.24-239.55l-2.95,3.51-3.69,2.21-3.69,2.64-3.69,2.21-2.95,1.78-4.06,1.78-4.06,2.21-4.06,2.21-4.43,1.78-4.43,1.29-4.43,1.35-4.43,1.78-4.43,1.78-4.06,1.72-3.69,2.71-3.32,2.64-4.8,1.29-5.54-.43-4.06,1.78-4.8,1.35-4.06-1.78h-5.54l4.06-2.21h-5.54l-3.69-2.21-4.43-2.21-4.43-1.35,2.58-4,3.32-3.07,1.11-4,.37-1.78,2.21-3.94,4.06-1.78,1.84-5.35,2.95-3.07,1.84,4.86,4.43,1.35-2.21,4.43h-5.54l-5.17-.92-3.32,3.14,1.11,5.72,4.8,1.35,4.43-1.35,3.32,2.71,2.58-4.43,3.69-2.21,4.06-2.21,4.8-1.35,2.95-3.07,2.58-2.21,3.32-2.71,4.06-2.21,5.54-.43,5.54.43,4.43,1.35,4.8.86,5.54.49-4.8-1.35,3.32-3.07,4.06-2.21,5.17-.49,4.8-1.29,5.53.43,5.17-.86h5.53l-1.11-5.78,4.43,1.35.74,6.15-3.69,2.71Zm55.35-138.19l3.32-2.64-2.58,2.64,3.69,2.64-.37,7.13,2.95,3.51-4.8-1.29-3.32-3.14-1.48-4.86,2.58-4Zm-59.78,108.92l3.69-2.21,4.8-.86,4.8-1.35,5.17-.43,4.8-1.29,5.17-.49,5.17-.86h5.9l4.43,1.35,3.32,2.64,4.8-.92,2.21-3.94-5.17.43-3.32-3.14-5.17.49,4.43-1.35,5.17-.86,3.69,2.64,4.06-2.21,4.8-.92,4.43-1.72,4.43-1.35,4.43-1.35,3.32-3.07.74-.43-2.21,4-3.69,2.64-4.06,2.21,2.58,4-1.84,4.86-.37,6.21-2.58,3.94-4.8,1.35-3.69,2.21-4.06,2.21-5.17.86-5.54-.43-4.8,1.35-4.43-1.78-4.8-1.35-5.17-.86h-5.54l-5.54.43-4.8,1.35-4.43,1.29-1.85.49-4.43,1.29-5.54.43-4.8-.86.74-6.21,2.58-4,4.43-1.29,3.69-3.14Zm-8.12-205.41l2.95,3.51,1.11,2.21-2.21-2.64-3.32-3.07-1.48-1.78,2.95,1.78Zm-222.14,31.43l1.84-4.43,2.21-4.86,4.43-1.35,4.43,1.35.74-2.21,3.69,2.21-.37,6.64,5.17.43-4.06,1.78,1.84,4.43-1.48,4.86-3.32,3.07-4.43-1.29-3.32,3.07-3.69-2.21,2.95-3.57-4.06,2.21-4.8-1.29,2.58-3.57-3.69-2.64,3.32-2.64Zm-71.22,85.92l4.06-2.71,3.69-2.64,3.69-2.64,3.32-2.64,3.32-3.14,3.32-3.08,3.69-2.21,3.69-2.64,4.06-1.78,4.8-1.35,4.43-1.29,4.8-1.78,4.06-1.78,3.69-2.21,1.85-.86,4.06-1.78,2.95-3.57,1.11-5.29,3.32-3.08,4.8-1.35-.74,6.21,4.43-1.78,2.58-4,1.85-4.86,1.85-4.43,3.69,2.64-2.95,4-2.95,3.07,4.43-1.29,4.43-1.78,1.84-4.43-3.32-2.64,2.95-3.57,4.43,1.35,4.8,1.29,4.43,1.78,4.8,1.35,5.17.86h5.54l5.17-.86,5.17.43,2.95,3.57,2.21,5.29,1.85,4.43,2.21,4.43,2.95,3.07,3.69,2.71,5.17.86,5.17-.86,5.54-.49h5.53l-1.11,5.78-2.21,4.43,3.32,3.07,4.06,2.21,2.58,3.14-2.21,4-2.21,4.43,3.32,2.64,5.9.43-3.69,2.64,2.95,3.14-3.32,3.08,4.06,2.21,4.8-.86,1.48,4.86,4.8,1.29,4.8,1.35h2.95l4.8,1.35,4.8.86,5.17.86,5.17-.43,5.54.43,4.8.92,5.17.43,5.54.43,5.17-.43,3.32,3.08,4.8,1.35,5.17.43,5.17.92,4.06,2.21,2.21,3.94,2.58,4,2.58,3.57,3.69,2.64,2.58,4,2.21,4,3.32,3.07,2.21,4,2.95,1.78-5.17-.49-4.8-1.29,1.84,4.43-1.48,4.86-4.8-1.35-4.8-1.29-3.32-2.21-5.17-.92-2.95-3.51-2.95-3.14-4.06-2.21-1.84-4.43-3.69-2.64-5.54.43,3.69,2.71,2.95,3.51,2.21,4,1.11,5.29-1.84,4.92-2.95,3.08-2.21,4-2.58,4-.37,6.64v6.64l.37,6.15-2.58,4-4.06,2.21-2.95,3.14-4.43,1.72-2.95.92-1.84-4.86-1.11-5.78-1.11-5.29-.74-5.78-2.21-4.86-3.32-2.64-4.8.86-4.8,1.35-2.95,3.51-2.21,4-4.06,2.64-4.8-1.29-1.84-4.43,1.84-4.92,4.43-1.72,2.58-3.57,2.95-3.57,2.58-3.51.74-6.64-.74-6.21-2.95-3.57,4.06-1.72-2.21-3.57-2.58-4.43-4.43-1.35-4.43-1.72-4.43-1.35-3.32-3.08-4.43-1.78-4.43-1.35-4.06-2.21-5.17.92-2.95,3.94,1.11,5.35-4.06,2.21-3.69,2.21-.37,6.21-1.84,4.86-2.58,3.51,1.48-4.86-2.58,4v-6.64l1.85-4.86-3.69,2.64-2.58,3.57-4.43,1.72-2.58,4-4.06,2.21v6.64l-1.48,5.35-2.21,3.94-.74,5.78-1.11,6.21.37,6.21,1.84,4.86,2.21,4.43,1.84,4.86.37,6.64-.74,6.21-1.48,4.86-2.21,4.43-2.58,3.57-2.21,4.43-2.95,3.51-3.69,2.21-4.06,1.78-4.8,1.35-4.43-1.35-2.95-3.57-1.85-4.86-2.21-4-1.85-4.86.74-6.21.74-6.15-1.84-4.92-.37-3.07-1.11-5.78,1.48-5.72,1.48-4.86,1.85-4.43v-7.13l2.58-3.94,1.11-5.35,1.48-5.29,2.21-4-.74-6.21-4.8.92-2.58,3.94-3.69,2.71v-7.13l3.32-3.07,2.95-3.57,2.21-3.94,2.58-3.57,2.58-4,2.58-4,2.95-3.07,1.84-4.86.74,6.21,3.32-2.71,4.06-1.72-1.48,5.29,4.43-2.21,4.06-1.78,2.58-4.43,5.54-.43,5.17-.43,4.43-1.78,4.43-1.78,4.8,1.35,4.8,1.29,3.32,2.71,4.43-1.78,5.17-.43,5.54.43,5.17.86-1.11-5.72-4.43-1.35-.37-6.64h-5.54l-4.43-1.78-5.54.43-2.58-3.51,1.84-4.86-5.54.43-4.43,1.29-5.17.92-5.54-.43-5.54.86-1.84-.43-4.06,2.21-4.43,1.78-3.32,3.08-5.17-.43-3.69-2.64-4.8,1.29-4.06-2.21-2.95-3.08-2.58-3.57-4.06-2.21-5.17-.86-4.8.86-4.43,1.78-1.48-5.29-2.95-3.14h-5.9l-2.95,3.14-4.8,1.29-3.69,2.64-5.17.92-5.17.43-4.06,2.21-3.69,2.21-4.8,1.78-2.58.86-4.8-1.29h-5.9l1.11-5.35-2.95-3.51-4.06,2.21-4.8.86-4.43,1.78-4.8,1.29-5.17.92-4.06-1.78,2.95-3.08Zm-13.65,64.21l4.8.86,3.32,3.08-3.69-2.64-4.8-.86.37-.43Zm-39.85-78.41v-4.43l4.06,2.21-4.06,2.21Zm-7.01-66.42l-1.48-4.86,1.11-2.64,1.11,5.29,4.06,2.21,1.11,5.78,4.8,1.29,1.11,5.35-4.43-1.78-2.21-4.43-5.17.86-4.8.92,4.06,2.21,2.95,3.07,4.43,1.78,5.54-.43-3.69,2.64-4.43,1.78-4.06,2.21-3.69,2.64-4.8-.86-4.06-1.78-4.06,2.21-1.11-5.35,3.32-3.07,4.8-.86-2.95-3.57,3.32-3.07,3.69-2.71,3.69-2.64-4.8,1.35-3.69,2.64-3.69-2.64,5.54.43,2.58-4h5.9Zm-14.39-191.7l4.43,2.21,2.95.43-4.8,1.29-5.17-.43-2.95-3.51h5.54Zm-140.22,765.57l-2.58-.86-3.32-3.07,4.06,2.21,4.06-2.21-2.21,3.94Zm15.5-437.03h-.37l-1.11,2.64-2.95,3.57,3.32,3.08-5.17-.86-1.85-4.43-5.54.43,2.95-3.57,5.54-.43,4.8-.43.74-1.78-.37,1.78Zm2.58-6.21l-1.85,3.57.74-2.21,1.48-5.35-2.95-3.51-5.17.86,4.43-2.21-1.85-4.43,2.95-3.51-1.11-5.35-2.95-3.51-2.21-4.43,2.21-4-.74-6.21-2.58-3.57.74-1.29,3.32,3.08.37,6.64-1.48,4.86,1.85,4.92,3.32,3.07,1.84,4.86-2.95,3.14,2.58,3.51,1.11,5.35-1.11,5.72Zm13.28-183.77l-3.69-2.21-.37-6.64-2.21-4.43,1.11,5.78-4.06-1.78-.37-6.64.37-6.64,3.32-3.08-1.48-4.92-2.58-4.43-1.48,4.92-3.69-2.71-1.11-5.29-4.06-1.78-1.11,5.35-5.54-.49-2.21-3.94-2.95-3.57,4.43-1.78,4.43,1.35,4.06-2.21,3.32.86,4.06,1.78,4.8.86,4.43,2.21,4.43,1.78v6.64l-.74,6.21-2.21,4.43-1.11,5.78,2.58,3.94-1.84,4.43,4.06,2.21-2.58,4Zm9.59,226.26v.49l-3.32-2.71,1.85-2.64,1.48,4.86Zm-1.48-5.29l1.48-4.86-.74,4-.74.86Zm4.06,484.01l-3.69-2.71-1.11-6.15,3.32,3.07,2.21,4.43,1.48,5.29-2.21-3.94Zm9.96-465.87l-2.95-3.07-3.69-2.21-3.32-3.14v-.43l3.69,2.64,3.69,2.71,3.32,2.64,4.06,2.21-4.8-1.35Zm57.93-368.82l4.06-2.21,4.43-1.35,2.95.43-4.43,1.35-2.21,4.43-5.17-.92-4.8-1.29,5.17-.43Zm-31,29.64l3.32-2.64,5.54-.92.37.49-3.69,2.64-4.43,1.29h5.9l-4.8,1.78-4.43,1.35,2.21-4Zm-5.9,11.93l4.06-1.72,5.17-.49,4.8-1.29,4.43-1.78,4.8-1.35,5.17-.86.37.86-4.8.92-4.43,1.29-4.06,2.71-4.8.86-4.43,1.78-3.69,2.64-5.17.43,2.58-4Zm-28.41,36.35l1.84-4.43.74-5.78,3.32-3.51,4.43,1.29,5.17-.43,5.17.86,4.43,1.78,4.43,1.35-4.06-1.78-3.69-2.64-2.58-4,2.21-4.43,2.58-4,3.69-2.64,2.21,4.43-4.8,1.35-2.58,3.51,3.32,2.64h5.54l-4.06,1.78,2.21,4.43,1.48,4.86,3.32,3.14,2.21,4,2.58,3.94,1.84,4.92.74,5.72,3.32,3.57,1.84,4.43,2.58,4v6.64l2.95,3.51,1.48,5.35,3.69,2.64-1.48.86,2.95,3.57,2.21,4,2.95,3.51,2.21,4-2.21,4.43,1.11,5.78-.37,6.15-5.17.92-1.11,5.29h-5.54l-2.21-4.86.37-6.64.37-6.64,2.58-3.57,1.85-5.29-4.43,1.78,2.58-4,1.11-5.78-4.43-1.29-3.69,2.64-3.69,2.64.74-6.64-1.11-5.29-2.95-3.57-3.69,2.64,2.21-4.43-4.8-1.29-1.84,4.43-3.69,2.64-2.95-3.08-1.84-4.92-2.95-3.51-4.06-1.78-2.21-4.43-3.32-2.64-3.69-2.64-.37-6.64,5.17-.92,3.69-1.29.37-.49-5.17-.43h-5.9l-4.43-1.78-2.95-3.51,2.21-4.43Zm-2.21,50.49l1.48-4.43,2.58,3.94,1.48,5.35.37-6.64,4.43,1.29-.37,6.21,2.58,3.57,1.11,5.29-2.95,3.57,4.06,2.64,4.06,1.78,3.32,2.64,3.69,3.08,2.58,3.57-.74,5.78-3.69,2.64-5.17.43-3.32-2.64-.74-6.64-1.84-4.43-2.58-4-1.85-4.86-3.32-2.21,5.17-.92-1.85-4.86-4.8-.86-1.11-5.78-4.06-1.78-4.06-2.21,2.95-3.51,2.58,4Zm-31.37-55.35l4.43-.92-1.84-4.86,3.69-2.64-5.54-.43,5.17-1.35-.74-5.78,3.32-3.08h1.48l3.32,2.64-3.69,2.21,2.58,4,5.17.86,2.58-3.51-.74,6.21-4.06,1.72-4.43,1.78,2.58,4.43,1.84,4.43,2.21,4.43,4.06-2.21,4.43-1.78,1.85,4.92-2.21,3.94-2.95-3.51-4.8,1.29-5.17.92-4.43-1.35-4.06-2.21-4.06-2.21-4.43-2.21-4.06-1.78,3.69-2.64,4.8-1.29Zm-34.69-272.33l4.43-1.78,2.95-3.14,3.69-2.64,4.06,2.21,3.69-3.08,3.32,3.08,2.95-3.51,4.06-2.21,4.06,2.21-2.21,4.86-4.43,1.29-3.69,2.71,1.85,4.43-2.21,4.43-1.48,4.86-4.43,1.29v-6.64l-3.69,2.71-5.54-.49-4.06-2.21-3.69-2.64-1.85-1.29,2.21-4.43Zm-28.78,190.41l2.21-4.43.74-6.21,1.11,5.72,4.43-1.29,4.06-2.21,3.32-3.14-1.11-5.72-3.32-2.64-2.58-4,1.84-4.86,2.21-4.43,3.69-2.21,2.95-4,4.43-1.78,2.21-4,2.95,3.57,3.32-3.14-.74,5.78,4.06-2.21,4.43,1.35-2.58,3.51-2.58,3.57-3.69,2.64-4.43,1.35,2.21,4.43,4.06,1.72-4.43,1.35,1.48,5.29-3.69,2.71-3.69,2.21-4.06,2.21-1.48,5.29-4.43,1.78-4.43,1.78-2.95,3.51h-5.54l-1.48,1.78,1.48-5.29Zm23.99,66.42l-1.85,4.43,1.48-5.35.37.92Zm-25.09,171.34l3.69-2.64,2.95-.43h.37l4.8.86,3.69,2.64v.92l1.48.86-1.11,2.64v2.21l4.8.92,2.21-4,1.48,4.86,2.21,4,4.43,2.21,5.54-.43,4.8-.92,5.54-.43,4.43.86-4.8,1.35-5.17.43-5.17.92-5.54-.92-4.43-1.29-5.17-.92,2.21-4-4.43-1.29-2.95-1.35-1.11-.43,1.11-1.78-.37-3.51-2.58-1.35-4.43-1.35h-1.84l-4.8.92-1.84.43-2.58,1.35-1.48-.49h-1.11l-1.11-1.29,2.21,1.29,4.06-.86Zm-7.38-157.63h4.43l-2.58,4-4.8-.92,2.95-3.07Zm-.74,155.41l1.48,1.78-4.43,1.78,2.95-3.57Zm-446.5-225.4l-4.8.92-5.9.43-3.32,2.21-5.54-.43-5.17-.49-4.8.92,1.85,4.43,2.95,3.51,3.69,3.14,2.58,3.08,3.32,3.14,1.11,5.72-2.58-4-2.58-3.94-2.58-4-3.69-2.21-3.69-2.21-3.32-3.57-2.58-3.51h-5.54l-4.06-1.78,4.43,1.29-1.85-4.86-2.95-3.07-2.21-4.43-2.58-3.57-3.32-3.08.37-.43,3.32,3.07,3.32,2.64,2.95,3.57,2.58,3.51,5.17-1.29.37,6.21,5.17.86,5.54.43,5.17.43h5.54l2.95-1.29,1.11-.92,5.54-.43,4.8-.86,4.8.86h-5.54Zm80.81-144.77h-5.9l-5.17-.92-4.8-.86-4.8-1.35,5.17.49,4.8,1.29,5.17.92h5.9l4.8-.92,4.8-1.29,4.8-.92,2.21-4.43,4.06-2.21,4.06,2.21,4.43,1.35,4.43,2.21v.86l-4.8-1.78-5.17-.43-5.17.92-3.69,2.21-5.17.86-4.8,1.35-5.17.43Zm14.02,255.05l-2.95-3.57-3.32-3.07-2.95-3.07-3.32-3.14-.74-1.29,3.32,2.64,3.32,3.08,2.95,3.57,2.95,3.08,2.95,3.57,5.17-.43-4.43,1.72-2.95-3.07Zm8.86,112.49l-2.21-4.43,1.84-4.86,1.48-2.71-1.48,5.35.37,6.64Zm0-35.42v-6.64l1.11-.92-.37,6.64,2.58,4-3.32-3.08Zm6.27-33.21l-.74,6.21,1.85,4.86-2.58-3.57.37-6.64,1.11-.86,2.21-1.78h1.84l-4.06,1.78Zm4.43-30.14l-3.32-3.08.37-.43,4.06,2.21,2.95,3.51-4.06-2.21Zm71.59,458.31l.37-.43,1.11,5.78-1.48-5.35Zm9.96,33.21l-3.69-2.21.74-1.29,3.32,3.07,3.69,2.64-4.06-2.21Zm11.07-45.57l-3.32-2.71-4.8,1.35-1.84-.43-.37.86-1.11-.86-1.48-.43-4.8-1.78-4.43,1.78,3.69-2.71,2.95-3.07.37-6.64,1.85-1.35-.74,5.78.74,6.21,1.85,2.21h1.48l2.21-3.14,4.43,1.35,3.69,3.07,2.21,4-2.58-3.51Zm15.87-701.42l-3.69-2.21,4.06,1.78-.37.43Zm21.77,558.8v6.64l-3.32,2.64-2.95-3.51-2.21-4-4.8-1.35-1.48-5.29-2.58-3.57-1.11-5.29,2.21-4.43,2.21.43,1.48,4.86,3.69,2.71,1.84,4.86,4.8.86,3.32,3.14,2.21,3.94-3.32-2.64Zm-13.28-52.21l1.11-5.35.37.43-1.48,4.92Zm24.72-105.84l.74-.92,2.95,3.57-3.69-2.64Zm19.93,267.47l-4.06,1.72-4.43,2.21-4.06,1.78-4.06-1.78,5.54-.43,3.32-2.64,5.54-.43,2.58-4,2.21-2.64-1.11,2.21,3.32,3.07-4.8.92Zm-10.33-217.47l.37-.43,3.32,3.14-3.69-2.71Zm19.93,202.4l-2.95,3.07-2.58,3.14,1.11-2.71,2.95-3.51,1.85-4.43,1.11-.43-1.48,4.86Zm98.89-278.54l-1.11-5.78-2.95-3.51-3.32,2.64-4.06,2.21-5.17.43-5.54.43-5.17.49-5.54.43-3.69,2.21-2.21,4.43-1.48-5.35-5.54-.43.74-.43,4.8.86h.74l5.17-.86,1.48-.43,2.95-.92,4.06-2.21,4.43,1.35,5.54-.43,3.69-2.64,4.06-1.78,2.95-4,2.58,3.57,2.95,3.51-.37,6.21Zm-60.89-340.1l-2.95,4,5.54.43,4.43-1.72,5.17-.49h5.9l4.8,1.35h5.9l4.8.86,4.43,1.78,5.54-.43,5.17.43,5.17.92,5.54.43,5.17-.92-4.8,1.35h-11.44l-5.17-.86-5.17-.49h-5.54l-4.8-1.29-3.32,2.64-4.8,1.35-4.43,1.29-5.54.43-5.54.49-5.17.43-5.17.86-4.43-1.78-4.06,2.21-5.17.49-5.17.86-4.06,2.21-4.43,1.78-3.32,2.21-1.84,4.86h-5.9l-2.21,4-2.21-4.43-3.32,3.07-2.58-3.51-2.95-1.35,4.8-.86,4.43-1.78,2.95-3.57,2.95-3.08,4.06-2.21,4.43-1.78,3.69-2.21,3.69-2.64,4.43-1.78,2.95-3.57,3.69-2.21h5.9l4.06,2.21h5.9Zm-202.58-48.22l4.43,1.29,5.54.92,4.43-1.78,3.32-3.14,4.8,1.35,5.17.43,4.8.92,4.43-1.78-3.32-3.14,5.17-.43,1.48-5.29,2.95-3.14,4.43-1.72,4.8,1.29,5.17-.43,4.8-1.35,2.58-3.94-3.69-2.21-4.43-1.78-2.95-3.57-3.32-3.51-1.48-4.43h-5.54l-4.06-2.21-4.06-2.21-2.21-4,4.8,1.29,3.69,2.21,5.17.92,4.8,1.29,3.69,2.71,4.43,1.29,4.06,2.21h5.9l4.8,1.35,4.8.86,3.69,2.64,3.32,2.71,4.06,2.21,5.54.43,4.8-.92h5.9l4.8-.86,5.54-.43,4.06-2.21,4.06-1.78,3.69-2.64,4.8-1.35,2.58-4,3.32-3.08,3.32-3.07,3.69-2.21,4.43-1.78,4.8-1.35,5.17-.86h11.07l5.54.43,5.17.43,4.43,1.35h5.9l3.32.86,2.58,3.57-4.43,1.29-4.06-2.21-5.54-.43-4.8-1.29-5.54-.49h-5.9l-5.54-.43-4.43,1.78-5.54.43-4.43,1.78-4.8.86-3.69,2.21-2.58,4,3.69-2.64,3.69-2.21,5.54-.86,5.17-.92,5.54.43,2.58-3.94,5.17.86h5.9l4.8.86h-5.54l-4.8,1.35,5.9.43,3.69,2.21-4.8.92h-5.17l-5.17.86-5.54.43,5.54.43-4.06,1.78,4.43-1.29,4.8-.92,5.54.43-4.43,1.35-4.06,2.64-5.17.43-5.17-.86-5.54-.43-3.69,2.64-3.69,2.64-3.69,2.64-4.06,1.78,5.17-.43-2.95,3.08-4.8,1.78-3.69,2.21-3.69,2.64-2.95,3.14-4.43,1.78-4.06,1.72-4.8,1.35-4.8,1.35-4.06-1.78-5.17.86-3.69,2.21-4.06,2.64,2.21,4.43-3.69,2.71-4.8.86-4.8-.86-4.8,1.29-4.8,1.35-5.54-.43-4.8,1.29.37-.43-2.58.43-5.17.92h-5.9l-5.54-.49h-5.17l-4.8-1.29-4.43-1.78-5.17-1.35-5.17-.43-5.54-.43-4.43-1.78-3.69-2.21-3.32-3.08,4.43,1.78Zm-179.71-143.05h5.9l5.54.43,4.06-1.78h5.54l5.54-.43,4.8-1.29,4.8-1.35,5.17-.86,5.54-.49,4.06-1.72h5.9l4.43-1.35,5.9-.43,5.17-.43,4.43-1.78,5.54-.43,4.06-2.21,4.06-2.21h5.54l5.17-.92,4.43-1.29,5.54-.49,4.8-1.29,5.17-.92,4.8,1.35h5.54l4.43,1.35,4.8,1.29-4.43,1.35-4.43,1.78-4.43,1.29-4.8,1.78-5.17.86-3.32,2.71-4.43,1.29,2.58,3.57h5.54l4.8,1.29,4.8-.86,5.17.43,5.17.92h5.9l5.17-.49,5.17-.86,4.8-1.35,4.06-1.72,2.58-3.57,5.17-1.35-1.85,4.92,5.54.43-.37,6.64-3.69,2.21-5.17,1.29,4.8,1.35-5.54.43-2.58,3.14,2.95,3.51,4.43-1.78-2.58,4-5.17.92-4.8.86-5.54.43-3.69-2.21-4.43-2.21-5.54-.43-5.54.43h-5.9l-2.95,3.57-4.43,1.78,3.32,2.64,4.8,1.29,3.32,2.71-5.17.86-4.8,1.35-3.32,3.08-4.8.86-4.06,2.21-4.06,2.21-5.17.92-4.8,1.29-3.32,2.71-5.54-.49,3.32-3.07,5.17-1.35,2.58-3.51,4.43-1.78,4.06-1.78,3.32-3.08,2.58-3.57-3.32-3.08-5.54-.43-4.8.86-4.43,1.35-4.43,2.21-4.06,1.72-2.95,3.14-.74,6.21-4.43,1.72-5.54.49-5.17-.49-5.54-.43-5.54-.43-5.54-.86-5.17-.49-4.8-1.29-2.21-.92,4.8-1.72,5.54-.49,4.8-.86-1.11-6.21,3.69-2.21,5.17-1.29,4.43-1.35,3.69-2.64-3.32-3.57-5.17-.86-4.43-1.35,5.17-.86,5.54-.43,5.17.43,4.43,1.78h5.9l5.17-.92,3.69-2.64-4.43-1.78-4.8-1.29-4.06-2.21-5.17-.92-5.54.43-5.9-.43h-5.9l-5.54.43-2.21,4-4.43-1.78-5.54.49-5.17.86-5.17.43-4.8-1.29-5.54-.49-5.17.49-2.21,3.94-3.69,2.71-3.69-3.14-2.95-3.08,2.58-4Z"/></g></svg>