<?xml version="1.0" encoding="UTF-8"?><svg id="Layer_2" xmlns="http://www.w3.org/2000/svg" viewBox="0 0 1259.45 625.09"><defs><style>.cls-1{stroke:#fff;stroke-miterlimit:10;}</style></defs><g id="Layer_36"><polygon class="cls-1" points="1254.34 191.55 1248.44 191.05 1243.27 190.62 1239.95 187.98 1236.26 185.33 1232.57 182.69 1228.51 180.91 1223.71 179.12 1219.29 177.34 1216.7 173.83 1211.91 172.48 1208.96 168.91 1203.42 168.48 1197.52 168.48 1192.35 168.05 1187.18 167.19 1182.02 166.27 1186.81 168.05 1191.61 168.48 1186.81 169.84 1180.91 169.84 1176.48 167.62 1174.27 172.05 1172.79 166.7 1167.63 166.27 1163.57 164.05 1158.77 164.98 1152.87 164.98 1147.33 164.48 1142.16 165.41 1146.59 166.27 1151.39 167.62 1154.71 170.7 1156.56 175.12 1153.23 177.77 1156.56 180.91 1160.98 182.69 1158.03 186.19 1154.71 189.33 1156.19 183.98 1151.39 182.69 1147.7 185.76 1145.49 181.34 1141.43 179.12 1135.89 178.69 1138.84 174.69 1137.74 169.4 1134.78 165.84 1135.52 159.63 1133.68 155.2 1129.62 157.41 1124.08 157.84 1127.4 155.2 1125.56 150.34 1121.87 147.69 1117.44 145.91 1113.01 144.56 1108.22 142.84 1103.42 141.48 1098.99 139.7 1094.56 138.41 1090.13 136.62 1085.71 135.27 1080.17 135.27 1076.48 132.2 1071.68 133.49 1069.47 129.55 1068.73 129.55 1063.93 130.84 1060.98 127.34 1056.19 125.55 1051.02 125.12 1045.85 124.2 1050.65 122.91 1046.59 120.7 1042.16 118.48 1037.74 117.13 1032.2 116.27 1028.51 114.05 1022.98 113.56 1018.18 112.27 1012.64 111.35 1007.11 111.35 1003.05 108.7 1007.85 110.49 1004.16 107.41 1000.1 105.63 996.04 103.41 990.5 102.49 984.97 102.49 980.91 100.28 986.07 101.2 982.02 98.99 977.22 97.63 971.68 97.63 966.15 97.2 960.98 96.34 956.55 94.99 951.39 93.64 945.85 93.2 940.32 92.77 935.15 91.91 930.72 90.13 925.56 89.21 922.24 86.13 916.7 85.7 910.8 85.7 905.63 86.56 900.1 86.99 894.56 86.56 888.66 86.99 883.12 86.56 877.96 86.13 872.05 86.13 866.15 86.99 863.56 84.78 858.4 84.35 853.23 85.27 858.77 86.13 855.08 88.78 851.02 86.56 846.22 85.7 842.53 83.06 837.36 83.92 832.2 83.06 826.29 82.57 820.76 82.13 815.59 81.27 810.06 80.84 804.52 80.35 798.62 79.92 793.08 79.49 791.24 83.92 790.13 89.7 784.6 90.56 788.29 93.64 793.45 94.56 796.41 98.56 799.36 101.63 801.2 106.49 804.52 109.63 799.73 111.35 794.93 112.7 790.5 114.48 793.08 117.99 788.29 116.27 782.75 116.7 777.22 117.13 771.31 117.13 766.52 116.27 765.04 110.49 761.35 108.27 756.18 107.41 751.39 105.63 746.22 105.2 740.69 104.71 737 102.49 737.36 95.85 733.31 93.64 729.98 90.56 725.56 88.78 720.76 90.56 716.7 92.77 712.27 94.56 707.84 95.85 702.31 96.77 697.14 96.34 691.61 96.34 685.7 96.34 680.91 94.99 675.74 94.13 669.84 94.13 664.3 94.13 658.77 94.56 652.86 94.13 647.7 93.64 643.27 91.91 639.21 89.7 634.04 90.13 628.88 91.42 623.34 90.99 618.17 90.56 613.01 91.91 608.21 92.34 602.68 91.91 597.51 90.99 593.82 93.64 589.39 95.85 584.6 96.77 580.54 98.99 577.22 101.63 577.58 108.27 579.43 112.7 576.48 115.35 573.16 118.48 570.57 121.99 566.51 124.2 560.61 124.2 566.15 123.77 569.47 121.13 571.68 116.7 574.63 113.56 572.05 109.63 566.88 109.13 566.51 102.49 564.3 98.06 562.46 93.2 557.66 91.91 552.12 91.42 546.96 90.56 541.79 89.21 536.26 89.7 536.99 83.92 539.95 80.35 535.15 78.63 541.05 79.06 544 75.92 542.9 70.63 539.58 67.07 535.89 64.42 531.83 62.21 527.4 60.42 522.97 58.7 518.17 57.78 513.01 56.49 508.58 55.57 503.04 54.71 498.25 53.78 493.08 52.92 487.18 52.49 481.27 52.06 475.37 52.06 469.47 51.57 463.56 51.57 457.66 51.57 451.75 51.57 445.48 51.57 440.31 52.49 434.41 52.92 429.24 53.35 423.34 53.35 417.8 54.27 412.64 54.71 406.73 55.14 402.31 56.49 397.14 57.35 391.24 57.78 385.7 57.78 380.17 58.7 373.89 58.7 368.36 59.13 363.19 58.21 358.03 57.35 353.23 56 348.06 55.14 345.48 54.71 351.38 55.14 356.92 54.71 353.6 51.57 349.17 49.35 345.48 46.71 341.05 44.5 335.88 44.07 330.72 43.2 325.55 44.07 321.86 46.28 315.96 46.28 310.79 47.14 314.85 45.42 319.28 43.63 316.33 39.64 310.42 39.64 305.63 40.5 308.95 37.42 304.52 35.64 298.98 36.07 293.82 35.64 288.28 34.78 282.75 35.64 279.8 32.13 285.33 32.56 289.39 30.35 295.29 30.78 299.35 32.56 303.78 31.21 308.21 29.43 305.26 25.92 301.2 23.71 296.77 21.92 291.97 20.57 286.81 19.71 280.9 19.28 275.74 18.36 270.57 17.5 265.04 17.07 259.13 16.64 253.6 16.64 247.69 16.64 241.79 16.64 236.99 17.93 232.93 20.14 229.24 22.79 225.55 25 221.49 27.71 217.43 29.92 213.01 32.13 207.84 33 202.3 33.43 197.51 35.21 191.6 34.78 185.7 35.21 189.39 32.13 187.18 28.14 193.08 28.14 197.88 29.43 203.04 28.57 207.1 26.35 203.41 24.14 205.99 20.57 210.79 21.92 215.96 21.06 213.37 25 210.79 29 215.59 27.71 220.02 25.92 224.08 23.28 228.13 21.06 232.19 18.85 227.77 17.07 221.86 17.07 215.96 17.5 210.42 17.5 204.89 17.93 199.35 18.36 193.82 18.36 187.91 18.85 182.38 19.28 178.32 21.06 172.42 20.57 167.99 18.85 173.52 17.93 179.06 17.5 182.75 14.85 187.54 13.5 192.71 14.42 197.14 16.14 202.67 16.14 208.58 16.14 214.11 16.14 220.02 16.14 225.55 16.14 231.46 16.14 226.29 15.28 221.49 13.93 216.7 13.07 210.79 12.21 205.63 11.72 200.46 10.85 195.29 9.99 189.39 9.5 183.48 9.07 177.95 8.64 172.78 7.78 166.88 7.29 161.34 7.29 155.81 6.86 150.27 6.43 144.37 6.43 138.47 6.43 132.56 6 127.03 6 121.12 5.57 115.22 5.57 110.05 4.64 105.26 3.35 100.46 1.57 95.29 1.14 89.76 1.14 83.85 .65 87.54 3.35 91.97 5.57 94.92 9.07 90.13 10.85 84.96 11.72 79.06 12.21 73.52 12.21 67.62 11.72 61.71 11.72 56.92 13.07 52.86 15.28 49.54 17.93 52.49 21.92 57.65 21.49 62.08 19.28 67.62 19.28 73.15 19.71 68.35 21.06 64.3 23.28 61.71 27.21 56.18 27.21 60.97 28.14 65.4 29.92 63.93 35.21 67.25 38.28 70.94 40.5 65.03 40.99 59.5 40.5 55.07 41.85 49.17 42.28 46.58 37.85 41.79 36.56 36.25 36.99 30.35 37.42 24.81 37.85 22.23 41.85 25.55 44.5 31.45 44.93 25.55 45.42 21.86 48.06 18.91 51.14 14.85 48.92 10.42 46.71 6.73 44.07 2.3 42.28 .5 41.98 .5 484.52 1.93 483.8 5.62 481.58 9.68 479.37 13 476.23 17.43 474.02 20.38 470.51 24.07 468.3 28.5 466.52 29.24 460.31 32.93 457.66 36.25 455.02 39.2 451.02 44.37 450.1 46.95 446.59 50.64 443.45 55.44 442.59 59.87 440.38 62.82 437.3 67.25 435.09 70.2 431.52 74.63 429.74 79.43 428.88 82.38 425.31 84.59 420.45 86.44 416.02 90.13 412.95 93.82 410.73 98.61 409.38 102.67 407.17 107.1 405.38 110.79 402.74 113.74 399.66 116.33 395.67 120.02 393.02 124.08 390.81 128.5 389.03 132.93 387.24 137.73 385.89 142.89 385.03 147.69 383.67 152.86 384.6 157.65 383.67 162.82 382.81 168.36 382.81 173.89 383.24 179.43 383.67 185.33 383.67 190.87 383.24 196.77 383.24 201.94 382.38 207.84 382.81 209.32 388.1 213.74 389.46 219.28 389.03 220.02 382.81 224.44 381.03 228.5 383.24 233.67 383.67 238.84 385.03 244 385.89 248.43 387.24 253.6 386.81 256.55 383.24 262.08 382.81 267.25 383.24 269.83 387.24 275.37 386.81 280.53 387.24 277.95 383.67 279.8 378.82 283.49 380.6 284.96 375.74 289.76 373.96 294.56 372.6 299.72 373.1 304.89 373.96 309.32 375.74 314.48 376.6 318.54 378.39 322.97 380.17 328.14 381.03 331.09 377.52 336.62 377.96 341.05 379.74 345.11 381.46 347.32 385.89 352.49 386.81 358.39 386.81 355.07 389.89 349.17 389.89 343.63 389.89 338.47 390.32 333.67 391.67 335.88 396.1 339.94 397.88 345.85 398.31 351.01 397.45 356.18 396.96 359.5 393.88 365.04 394.31 369.1 396.1 374.26 396.96 376.48 392.53 381.64 391.67 384.96 389.03 390.13 388.59 394.56 386.81 394.93 386.81 397.51 390.32 401.2 393.02 406 391.67 408.95 388.59 414.11 389.46 418.54 390.81 422.97 389.03 428.14 389.46 427.4 383.24 423.71 380.6 418.17 380.17 413.38 379.25 408.58 380.6 403.41 381.03 405.63 377.03 406.37 371.31 410.42 369.1 413.01 365.1 415.96 362.03 419.28 358.89 422.6 355.81 427.4 354.46 431.09 351.82 435.89 350.46 439.21 347.82 443.27 346.04 445.85 341.61 448.8 338.53 452.49 335.89 456.18 333.24 460.61 331.89 463.56 328.32 464.3 322.6 469.47 321.68 473.16 319.04 477.95 317.25 482.01 315.53 487.55 315.04 493.08 315.53 498.25 316.39 501.94 314.61 507.1 315.04 511.9 314.18 516.33 312.39 521.5 311.53 526.66 312.39 529.61 315.96 533.67 317.75 538.84 317.25 542.16 314.18 546.59 312.39 551.02 310.61 550.28 316.82 547.69 320.82 544 323.46 541.42 327.03 537.73 329.68 541.05 332.32 539.21 337.18 544.74 336.75 549.91 336.32 548.06 340.75 546.96 346.53 551.38 344.74 556.92 345.17 561.72 343.82 564.3 339.89 568.36 338.1 572.05 335.89 576.48 334.1 580.17 331.46 583.86 328.82 587.18 325.68 591.98 324.39 595.67 321.68 598.99 318.61 604.15 319.96 607.84 317.25 610.79 320.82 615.96 319.96 620.39 318.61 616.7 315.96 612.27 314.18 614.48 309.75 615.59 303.97 618.54 300.89 618.91 294.25 624.08 293.39 628.88 292.47 634.41 292.04 638.84 290.68 644.01 289.39 649.91 289.82 653.6 292.47 658.4 293.82 663.19 295.11 668.73 295.11 673.53 296.04 675.74 296.47 670.21 296.04 664.3 296.04 667.62 299.11 663.19 297.33 657.66 296.9 652.49 296.04 647.7 297.33 644.01 299.54 639.58 301.75 638.84 307.54 638.1 313.75 636.26 318.61 632.94 321.68 635.89 325.25 635.15 331.46 630.35 332.75 627.03 335.89 629.98 339.39 625.92 341.61 621.87 343.39 615.96 343.39 610.79 344.31 607.84 347.39 602.68 348.25 598.62 350.46 593.82 351.82 589.02 353.6 587.92 358.89 584.23 361.53 580.17 363.75 575.74 365.96 572.79 369.1 569.47 372.17 565.04 374.39 561.72 377.03 556.55 378.39 553.23 381.03 550.28 384.17 545.85 386.38 542.16 388.59 538.47 391.24 536.62 396.1 533.3 399.17 530.72 403.17 526.66 404.95 522.97 407.6 519.65 410.73 515.59 412.95 511.16 414.67 507.47 417.38 503.41 420.02 499.72 422.24 494.56 423.1 489.39 422.24 485.33 424.45 482.38 428.45 477.58 429.31 472.42 427.96 467.25 428.88 470.2 432.88 471.31 438.16 469.1 442.16 466.51 445.67 463.93 449.67 459.5 451.45 455.81 453.66 452.12 456.31 448.06 458.52 446.22 462.95 444.74 467.81 442.9 472.73 441.05 477.59 439.58 482.88 439.21 489.09 438.1 494.38 437.73 501.02 438.47 507.23 439.58 512.58 440.31 518.73 441.79 524.08 442.9 529.37 444.74 533.8 446.22 539.15 446.96 545.3 448.06 550.65 449.17 556.37 450.28 562.15 450.65 568.79 452.49 573.22 455.07 576.79 456.55 582.08 458.03 586.94 459.13 592.72 459.87 598.93 459.5 605.08 460.24 610.86 463.56 613.93 465.78 618.85 463.93 623.71 467.62 621.07 471.31 618.85 474.63 615.72 478.69 613.5 482.38 610.86 484.96 606.86 489.02 605.08 493.08 603.36 495.66 599.36 498.99 596.22 501.94 593.15 504.15 588.72 507.1 585.15 507.84 579 505.26 574.57 505.26 574.08 507.84 570.58 505.26 566.58 507.84 562.58 510.79 565.72 515.96 564.36 519.65 561.72 524.08 560.37 528.88 559.08 532.93 557.29 538.1 556.37 540.68 560.37 541.05 553.73 538.1 550.22 541.42 547.08 538.84 543.09 539.95 537.8 542.16 533.37 545.11 530.29 549.54 528.08 552.86 525.37 556.92 522.73 560.98 520.94 565.78 519.65 571.31 520.08 575.37 521.87 580.91 521.44 584.96 519.65 589.39 517.44 592.71 514.3 590.87 509.44 587.55 506.37 584.96 502.37 583.12 497.51 583.49 491.3 585.7 486.87 588.29 482.88 590.87 478.88 593.82 475.8 598.25 474.02 602.31 472.73 606.37 474.94 610.06 478.02 615.59 477.59 619.28 474.94 621.13 470.51 619.28 465.59 618.91 458.95 613.38 458.52 608.58 457.23 608.95 451.02 607.84 445.67 608.95 439.95 613.01 437.73 616.33 434.6 618.91 431.09 616.33 427.09 611.53 426.23 607.47 424.45 601.94 424.88 600.09 430.17 595.67 427.96 591.61 426.23 589.02 422.24 590.13 416.89 591.98 412.03 594.56 408.52 597.88 405.38 601.2 402.31 605.26 400.1 608.95 396.96 613.01 395.24 610.79 391.24 616.33 391.24 617.44 385.89 621.13 383.24 617.81 380.6 621.5 377.52 622.23 371.74 621.87 370.88 625.92 368.67 630.72 367.75 634.41 365.1 639.21 365.96 645.11 366.45 648.06 362.89 651.75 365.53 654.71 368.67 658.4 371.31 662.46 369.1 663.93 363.75 668.36 362.03 672.79 360.24 677.22 358.46 681.27 356.25 685.33 354.03 689.39 352.25 690.5 358.46 688.29 362.89 686.81 368.18 690.5 370.88 694.19 368.18 697.88 365.1 701.2 362.46 704.52 359.32 708.58 357.11 713.38 355.81 716.7 353.17 722.6 353.17 726.29 350.46 732.2 350.46 737.36 349.17 742.9 349.17 747.7 350.46 753.23 350.03 758.4 349.17 763.56 349.6 766.88 352.68 771.31 354.03 773.53 358.46 776.48 362.46 780.17 364.67 783.49 367.75 788.29 366.88 789.39 361.53 791.98 357.6 794.93 354.03 798.62 351.82 803.42 350.46 808.58 349.17 811.53 346.04 816.7 345.17 820.02 342.1 824.45 340.32 829.25 339.39 826.66 335.46 831.09 337.18 836.63 336.32 832.57 334.54 835.52 331.46 840.69 332.32 843.64 328.82 845.85 324.39 850.28 326.11 855.45 325.25 858.4 321.68 861.35 318.61 866.52 317.75 872.05 317.75 875 314.18 880.91 314.18 886.44 314.18 889.03 310.18 894.93 310.18 899.73 308.89 902.68 305.75 908.21 305.32 913.01 303.97 917.81 302.25 922.97 301.32 927.77 300.03 931.46 297.33 935.15 295.11 940.32 294.25 945.85 293.82 942.53 290.68 943.27 284.97 943.64 284.97 947.33 287.18 952.86 286.26 951.02 291.18 955.45 292.9 960.98 292.9 966.52 293.82 971.68 294.68 976.48 296.04 981.28 297.33 986.07 298.25 991.24 299.54 993.82 296.04 998.99 295.11 1001.94 291.61 1005.26 288.96 1003.05 284.53 998.25 283.18 1000.83 279.61 998.62 275.19 993.82 273.9 989.76 272.11 987.55 267.68 983.49 269.9 982.38 265.04 977.22 265.9 980.54 262.82 985.34 261.9 983.86 256.61 980.54 253.54 978.69 249.11 976.48 244.68 973.53 241.55 970.58 245.11 965.41 245.97 960.98 244.19 956.92 241.98 953.6 239.33 954.71 234.04 951.39 230.48 946.96 232.26 942.16 233.61 938.84 236.26 934.78 234.04 929.25 234.47 924.45 235.83 928.51 233.61 926.3 229.18 922.24 227.4 918.18 229.18 913.75 230.91 907.84 231.4 902.31 231.83 896.77 231.83 891.98 233.61 886.07 233.61 891.24 233.12 895.67 231.83 896.77 231.83 901.2 231.4 906.74 230.91 912.27 230.48 917.07 229.18 920.39 226.48 925.93 226.97 930.35 228.69 935.52 228.26 941.06 228.69 945.12 230.91 950.28 229.61 947.7 226.05 943.64 223.83 937.73 223.83 931.83 224.26 937 222.97 942.16 222.05 946.59 223.4 950.28 226.05 954.71 227.83 958.03 230.91 962.46 232.69 967.25 233.61 972.79 233.12 978.69 233.61 983.86 232.69 980.17 234.9 985.34 234.04 989.4 232.26 994.19 230.48 998.99 229.61 1003.79 228.26 1007.85 226.05 1011.17 223.4 1015.96 221.62 1020.39 219.84 1024.08 217.62 1025.56 212.33 1029.62 210.12 1027.77 205.26 1023.34 203.05 1020.02 200.4 1020.02 193.27 1024.45 191.55 1029.99 191.98 1028.51 186.63 1033.68 187.55 1037.37 190.19 1043.27 190.19 1046.59 187.12 1049.91 184.41 1048.81 190.19 1045.85 193.76 1041.79 195.97 1044.01 200.4 1047.7 203.05 1050.65 206.12 1052.5 210.55 1058.4 210.55 1063.93 210.55 1070.21 210.55 1075.37 210.12 1079.43 207.9 1084.6 207.04 1089.77 207.47 1094.93 208.34 1099.73 209.69 1104.53 210.55 1109.69 211.9 1111.54 216.76 1114.12 220.33 1111.17 223.83 1115.23 225.62 1120.02 227.4 1123.34 230.05 1128.88 230.48 1132.94 227.83 1136.63 230.48 1141.06 232.26 1145.85 233.61 1150.28 235.33 1153.97 237.55 1156.92 241.11 1161.72 242.47 1167.26 241.98 1171.32 239.76 1170.58 235.33 1172.79 238.9 1170.21 242.47 1174.27 245.11 1179.8 244.68 1182.75 241.11 1188.29 241.55 1193.09 240.68 1190.5 236.69 1185.71 235.33 1180.54 236.26 1183.49 232.26 1180.54 228.69 1176.48 230.48 1179.8 227.83 1185.34 228.69 1189.77 226.97 1194.56 225.62 1198.62 223.4 1196.78 218.11 1191.24 218.11 1196.04 216.76 1198.62 212.76 1193.46 211.9 1191.61 207.04 1187.55 205.26 1192.72 204.83 1196.78 207.47 1201.94 208.34 1207.11 209.26 1202.31 210.55 1208.22 210.12 1213.38 209.69 1218.92 209.26 1223.35 210.55 1227.04 207.9 1222.61 206.12 1218.55 203.91 1215.23 200.83 1220.02 202.12 1224.08 204.83 1228.88 205.69 1234.05 207.04 1238.48 205.26 1236.63 200.4 1240.69 198.19 1245.12 196.83 1249.54 195.05 1254.34 195.97 1258.4 193.76 1254.34 191.55"/></g></svg>