<?xml version="1.0" encoding="UTF-8"?><svg id="Layer_2" xmlns="http://www.w3.org/2000/svg" viewBox="0 0 600.54 504.85"><defs><style>.cls-1{stroke:#fff;stroke-miterlimit:10;}</style></defs><g id="Layer_36"><polygon class="cls-1" points="412.46 .52 409.27 .75 404.1 1.18 399.68 2.96 394.14 3.39 389.34 5.18 384.92 3.39 379.75 4.75 374.58 5.61 380.49 6.04 374.95 6.47 370.52 7.82 366.47 10.03 362.41 12.25 358.35 14.03 352.81 14.89 347.28 14.03 341.74 13.6 336.21 13.11 330.67 13.6 334.73 15.32 339.9 16.68 345.8 16.68 342.11 18.89 336.94 17.54 334.73 21.54 331.78 25.53 326.24 25.96 330.3 28.18 324.77 28.61 320.71 25.96 315.17 25.96 311.48 23.32 307.79 25.96 303.37 27.32 308.16 28.18 314.07 28.61 319.23 29.53 324.4 29.96 326.98 33.96 332.52 33.53 336.58 35.74 332.52 37.96 326.98 37.46 323.29 34.82 319.23 33.04 314.07 34.39 309.27 35.74 312.96 38.39 318.86 38.82 324.4 39.68 327.72 42.82 332.89 44.11 338.42 44.6 332.89 44.6 335.1 48.53 339.16 50.75 343.59 49.46 340.63 52.53 337.31 56.1 332.52 56.96 326.61 57.39 321.08 58.31 315.54 58.31 310.38 59.17 305.58 60.1 307.06 65.39 312.22 66.25 317.02 67.6 321.45 69.38 323.29 70.67 325.51 71.6 326.24 74.24 323.29 70.67 318.49 69.38 313.7 68.46 309.27 66.25 304.1 64.96 305.58 60.1 305.58 59.6 310.01 57.88 315.17 56.96 319.6 55.67 324.77 54.32 329.2 52.53 333.25 50.75 328.46 49.03 322.55 49.46 316.65 49.46 311.11 49.89 305.95 50.75 300.04 51.24 295.25 52.53 290.45 54.32 284.91 54.32 280.12 52.96 274.21 52.96 269.42 54.32 263.51 54.32 257.61 54.75 251.7 55.18 246.17 55.67 240.27 55.67 234.36 55.67 228.83 55.67 222.55 55.67 217.02 55.67 211.48 56.1 205.58 56.1 199.67 56.53 194.88 57.39 188.97 57.39 183.44 57.88 178.27 58.31 176.43 63.6 172 64.96 176.8 66.25 173.11 68.46 177.9 69.81 181.96 72.46 185.28 75.1 183.81 80.45 185.65 85.31 187.5 89.74 191.93 91.52 197.09 92.38 202.63 92.82 208.16 93.31 212.96 94.6 218.49 95.03 219.6 100.38 224.03 102.16 228.09 104.38 232.88 105.67 238.42 105.67 243.59 107.02 246.91 109.67 250.6 112.31 248.38 117.17 245.8 120.74 241.74 123.38 239.9 127.81 244.32 129.16 247.28 132.67 249.86 137.1 252.81 140.66 254.66 145.52 251.34 148.66 246.91 149.95 241.37 150.38 235.84 149.95 239.16 153.09 241.37 156.59 241.37 157.02 235.47 157.02 231.41 155.3 232.52 149.95 236.57 147.74 238.05 142.45 239.9 138.02 237.68 133.59 233.99 130.95 228.83 132.24 225.87 135.8 223.66 139.8 219.6 142.45 219.6 149.09 221.45 153.09 218.49 149.95 217.02 144.66 218.49 139.8 222.92 137.59 220.34 133.59 221.81 128.24 219.6 124.3 224.03 122.09 228.83 120.74 233.99 119.88 236.94 116.31 241.37 114.53 244.69 111.88 239.9 110.1 234.73 109.24 229.19 109.24 224.03 109.67 218.86 110.53 213.33 111.02 207.42 111.45 202.26 110.1 197.09 109.24 193.77 106.1 188.97 104.38 184.54 102.59 181.22 99.46 176.06 98.6 170.52 97.74 165.73 96.38 160.93 95.03 156.87 93.31 151.7 91.95 146.17 91.95 140.26 91.95 135.1 91.52 129.19 91.52 124.03 92.38 118.86 93.31 114.8 95.03 110.74 97.24 105.95 98.17 110.37 99.95 115.54 99.03 120.34 100.38 124.03 103.02 120.34 106.1 115.54 107.02 110.01 107.45 105.21 106.1 101.15 103.89 96.35 102.59 91.56 101.24 86.02 101.67 80.48 102.59 75.69 104.38 76.06 111.02 78.64 114.96 83.81 115.88 87.87 117.66 92.66 118.52 98.2 118.95 102.26 121.17 107.42 122.52 112.96 122.95 117.02 120.74 121.08 123.38 126.24 124.3 127.72 129.59 130.3 133.16 135.84 132.67 140.26 130.95 136.21 133.59 130.67 133.59 125.87 132.67 120.34 132.24 116.28 130.45 113.33 126.95 107.79 126.52 101.89 126.03 96.35 125.6 93.4 129.16 90.08 125.6 84.54 125.16 78.64 124.73 72.74 124.3 67.57 123.81 62.4 122.52 57.24 121.6 53.55 118.95 57.98 117.66 59.82 112.74 55.76 110.53 54.29 105.24 58.34 103.02 60.19 98.17 64.25 95.95 62.4 90.6 64.99 86.67 60.56 84.88 56.13 83.1 60.56 81.75 56.13 79.53 51.33 78.67 45.43 78.67 47.27 83.1 49.49 87.53 50.6 93.31 48.75 97.74 45.06 100.38 39.89 101.24 35.1 103.02 29.56 103.89 24.77 105.24 19.6 106.1 14.8 107.45 12.96 111.88 9.27 114.53 4.84 116.74 1.15 118.95 5.95 120.74 10.37 122.09 14.43 124.3 17.02 128.24 20.71 130.95 22.92 135.37 26.98 137.59 31.41 139.8 30.67 145.52 26.61 148.17 23.29 151.3 19.23 153.52 17.75 158.81 16.28 163.66 12.96 166.8 15.91 169.88 19.6 172.52 21.81 176.95 19.23 180.95 21.81 184.94 27.35 184.51 32.88 183.59 38.05 184.51 43.22 185.37 48.75 184.51 52.81 182.73 57.61 180.95 62.77 180.52 67.94 180.95 73.84 181.38 78.27 182.73 83.44 184.08 89.34 184.08 93.03 187.16 98.2 187.59 102.99 188.94 108.16 189.8 111.48 192.45 112.22 199.09 116.28 200.87 118.49 205.3 122.18 207.51 118.12 209.3 112.22 209.73 108.53 211.94 106.32 216.37 106.68 223.01 111.85 223.44 117.75 223.94 122.18 225.66 127.72 226.15 132.88 225.23 138.42 226.15 142.85 227.44 143.59 228.36 138.05 227.87 132.15 227.87 126.98 228.79 121.08 228.79 115.91 227.87 110.74 227.01 106.32 225.23 101.15 223.94 97.09 221.72 101.15 219.94 100.78 213.73 103.36 209.73 99.3 207.95 102.63 204.87 100.78 200.01 96.35 198.23 91.92 196.01 87.5 194.66 86.02 188.94 80.85 188.02 75.32 188.02 69.78 188.94 64.62 189.8 59.08 190.23 53.92 191.59 48.75 192.45 43.58 193.37 38.42 194.66 34.73 197.37 33.99 203.09 36.2 207.51 39.89 210.16 42.48 214.16 43.58 219.94 41.74 224.8 37.31 227.01 33.25 229.22 28.82 231.01 25.13 233.22 23.29 238.08 21.7 242.27 283.57 504.14 599.83 187.88 412.46 .52"/></g></svg>