<?xml version="1.0" encoding="UTF-8"?><svg id="Layer_2" xmlns="http://www.w3.org/2000/svg" viewBox="0 0 1008.15 912.46"><defs><style>.cls-1{stroke:#fff;stroke-miterlimit:10;}</style></defs><g id="Layer_36"><path class="cls-1" d="m412.46.52l-3.19.23-5.17.43-4.43,1.78-5.54.43-4.8,1.78-4.43-1.78-5.17,1.35-5.17.86,5.9.43-5.54.43-4.43,1.35-4.06,2.21-4.06,2.21-4.06,1.78-5.54.86-5.54-.86-5.54-.43-5.54-.49-5.54.49,4.06,1.72,5.17,1.35h5.9l-3.69,2.21-5.17-1.35-2.21,4-2.95,4-5.54.43,4.06,2.21-5.54.43-4.06-2.64h-5.54l-3.69-2.64-3.69,2.64-4.43,1.35,4.8.86,5.9.43,5.17.92,5.17.43,2.58,4,5.54-.43,4.06,2.21-4.06,2.21-5.54-.49-3.69-2.64-4.06-1.78-5.17,1.35-4.8,1.35,3.69,2.64,5.9.43,5.54.86,3.32,3.14,5.17,1.29,5.54.49h-5.54l2.21,3.94,4.06,2.21,4.43-1.29-2.95,3.07-3.32,3.57-4.8.86-5.9.43-5.54.92h-5.54l-5.17.86-4.8.92,1.48,5.29,5.17.86,4.8,1.35,4.43,1.78,1.85,1.29,2.21.92.74,2.64-2.95-3.57-4.8-1.29-4.8-.92-4.43-2.21-5.17-1.29,1.48-4.86v-.49l4.43-1.72,5.17-.92,4.43-1.29,5.17-1.35,4.43-1.78,4.06-1.78-4.8-1.72-5.9.43h-5.9l-5.54.43-5.17.86-5.9.49-4.8,1.29-4.8,1.78h-5.54l-4.8-1.35h-5.9l-4.8,1.35h-5.9l-5.9.43-5.9.43-5.54.49h-29.15l-5.54.43h-5.9l-5.9.43-4.8.86h-5.9l-5.54.49-5.17.43-1.85,5.29-4.43,1.35,4.8,1.29-3.69,2.21,4.8,1.35,4.06,2.64,3.32,2.64-1.48,5.35,1.84,4.86,1.85,4.43,4.43,1.78,5.17.86,5.54.43,5.54.49,4.8,1.29,5.54.43,1.11,5.35,4.43,1.78,4.06,2.21,4.8,1.29h5.54l5.17,1.35,3.32,2.64,3.69,2.64-2.21,4.86-2.58,3.57-4.06,2.64-1.85,4.43,4.43,1.35,2.95,3.51,2.58,4.43,2.95,3.57,1.85,4.86-3.32,3.14-4.43,1.29-5.54.43-5.54-.43,3.32,3.14,2.21,3.51v.43h-5.9l-4.06-1.72,1.11-5.35,4.06-2.21,1.48-5.29,1.85-4.43-2.21-4.43-3.69-2.64-5.17,1.29-2.95,3.57-2.21,4-4.06,2.64v6.64l1.85,4-2.95-3.14-1.48-5.29,1.48-4.86,4.43-2.21-2.58-4,1.48-5.35-2.21-3.94,4.43-2.21,4.8-1.35,5.17-.86,2.95-3.57,4.43-1.78,3.32-2.64-4.8-1.78-5.17-.86h-5.54l-5.17.43-5.17.86-5.54.49-5.9.43-5.17-1.35-5.17-.86-3.32-3.14-4.8-1.72-4.43-1.78-3.32-3.14-5.17-.86-5.54-.86-4.8-1.35-4.8-1.35-4.06-1.72-5.17-1.35h-11.44l-5.17-.43h-5.9l-5.17.86-5.17.92-4.06,1.72-4.06,2.21-4.8.92,4.43,1.78,5.17-.92,4.8,1.35,3.69,2.64-3.69,3.08-4.8.92-5.54.43-4.8-1.35-4.06-2.21-4.8-1.29-4.8-1.35-5.54.43-5.54.92-4.8,1.78.37,6.64,2.58,3.94,5.17.92,4.06,1.78,4.8.86,5.53.43,4.06,2.21,5.17,1.35,5.54.43,4.06-2.21,4.06,2.64,5.17.92,1.48,5.29,2.58,3.57,5.53-.49,4.43-1.72-4.06,2.64h-5.54l-4.8-.92-5.54-.43-4.06-1.78-2.95-3.51-5.54-.43-5.9-.49-5.54-.43-2.95,3.57-3.32-3.57-5.53-.43-5.9-.43-5.9-.43-5.17-.49-5.17-1.29-5.17-.92-3.69-2.64,4.43-1.29,1.85-4.92-4.06-2.21-1.48-5.29,4.06-2.21,1.85-4.86,4.06-2.21-1.85-5.35,2.58-3.94-4.43-1.78-4.43-1.78,4.43-1.35-4.43-2.21-4.8-.86h-5.9l1.85,4.43,2.21,4.43,1.11,5.78-1.85,4.43-3.69,2.64-5.17.86-4.8,1.78-5.54.86-4.8,1.35-5.17.86-4.8,1.35-1.84,4.43-3.69,2.64-4.43,2.21-3.69,2.21,4.8,1.78,4.43,1.35,4.06,2.21,2.58,3.94,3.69,2.71,2.21,4.43,4.06,2.21,4.43,2.21-.74,5.72-4.06,2.64-3.32,3.14-4.06,2.21-1.48,5.29-1.48,4.86-3.32,3.14,2.95,3.07,3.69,2.64,2.21,4.43-2.58,4,2.58,4,5.54-.43,5.54-.92,5.17.92,5.17.86,5.54-.86,4.06-1.78,4.8-1.78,5.17-.43,5.17.43,5.9.43,4.43,1.35,5.17,1.35h5.9l3.69,3.07,5.17.43,4.8,1.35,5.17.86,3.32,2.64.74,6.64,4.06,1.78,2.21,4.43,3.69,2.21-4.06,1.78-5.9.43-3.69,2.21-2.21,4.43.37,6.64,5.17.43,5.9.49,4.43,1.72,5.53.49,5.17-.92,5.53.92,4.43,1.29.74.92-5.54-.49h-5.9l-5.17.92h-5.9l-5.17-.92-5.17-.86-4.43-1.78-5.17-1.29-4.06-2.21,4.06-1.78-.37-6.21,2.58-4-4.06-1.78,3.32-3.08-1.85-4.86-4.43-1.78-4.43-2.21-4.43-1.35-1.48-5.72-5.17-.92h-5.54l-5.54.92-5.17.86-5.54.43-5.17,1.35-5.17.86-5.17.92-5.17,1.29-3.69,2.71-.74,5.72,2.21,4.43,3.69,2.64,2.58,4,1.11,5.78-1.85,4.86-4.43,2.21-4.06,2.21-4.43,1.78-3.69,2.21-1.85,4.86-1.59,4.19,669.49,669.49,316.26-316.26L412.46.52Zm329.65,662.23h.37l2.95,3.07,2.95,3.57-3.69-2.64-3.32-2.71.74-1.29Zm-285.98-86.35l-3.69,2.64-4.8.86-4.43,1.78-5.17.92-4.8,1.29-5.17.43-2.58,4,.37,6.21,4.06,2.21,3.32,3.07,1.48,2.71,1.48-.92,4.8,1.35-4.8,1.29,2.58,3.57.74,6.21,5.17.43h-5.54l-1.11,5.78-1.11-.49-1.48-4.86,1.48-5.29-2.58-3.57-2.58-4-1.84-4.43-4.06-2.21-3.32-2.64,1.11-.86,1.11-5.78,3.32-3.51,5.17-.49,4.43-1.29,5.17-.92,5.17-1.29,3.69-2.21,3.69-2.21,2.95-3.57,2.21,4.43-4.43,1.35Zm199.26,116.91l-1.11,5.72-3.32,2.64-1.84,4.43-1.85,5.35-4.06,1.78,1.11-5.78v-6.64l1.48-5.29-1.11-5.78,4.06-2.21v-4.43l2.95-2.64,2.58,3.51,2.58,4-1.48,5.35Zm64.21-61.56l-1.48,5.29.37-6.64-1.48-4.86-1.84-4.86-5.17-.92-5.17-.86h5.54l4.06-2.21-2.58-3.57-3.32-3.51,1.84-4.86,2.58-4,1.85-4.43-2.58-4-1.11-5.29,3.32-3.14,2.58-4-1.11-5.72-2.95-3.57.74-6.21-3.32-3.08-2.21-4-1.85-4.43-5.17-.86-5.54.43,3.32,2.64-5.17-1.29-5.54.43-2.95,3.07-2.58,3.57,3.32,3.07,2.95,3.57,5.17.43-1.84,4.86,3.32,3.14-2.21,3.94-3.69,2.71,2.95-3.14-.74-6.21-3.32-3.08-4.8,1.35-5.17-.92h5.54l4.43-1.29-4.8-.92-2.95-3.51-2.21-4.43-4.8-.92-4.06-2.21h5.54l4.8-1.29-3.32-2.71,1.48-4.86,4.43,1.78,4.43,1.35,3.69-1.35,5.17-1.35,3.32-2.64,2.95,3.14,4.8,1.29,2.95,3.57.74,6.21,3.69,2.21-.37,6.64,2.21,4.43,1.11,5.29-.37.86-1.11,4-3.69,2.64,1.11,5.78,2.21,4,1.48,5.29,1.48,4.86-2.21-4.43-4.06,2.21-2.58,3.57,2.58,4,2.95,3.07,1.84,4.43,2.95,3.57,4.43,1.78-5.17.43.37,6.64Zm150.19-56.27l-1.48,4.92-.37,6.64-1.85,4.86-2.95,3.07-.74,6.21,1.11,5.29-1.48,5.35-3.32,3.07-2.95,3.14-1.11,5.29-2.95-3.57-3.32-2.64-3.32,3.14-2.58,3.94h5.9l2.58,3.57-2.58,4-4.8.86-4.06,2.21-3.69,2.64-1.85,4.43-4.06,2.21-3.32,3.14-4.06,2.21h-5.9l-4.06,1.78-4.43,1.72-4.06,2.21-3.32,3.14-4.43,1.29-4.8-.86-4.06,1.78-1.11,5.72-1.85,4.92-3.32,2.64-2.95,3.08-5.17,1.35-4.43,1.29-4.8,1.35-5.17.86-4.43,1.35-4.8,1.35-5.54-.49-5.17-.43-4.43-1.78-4.43-1.29-4.06-2.21,4.8-1.35,5.17-.43,4.8-.86,5.9-.49,4.06-1.72h5.54l4.8-1.35,3.69-2.64,4.06-2.21,3.32-2.64,2.95-3.57,2.95-3.57,3.32-2.64,4.43-1.78,4.43-1.29,3.69-2.64,3.32-3.14,2.95-3.51,1.48-5.35,3.32-2.64,4.43-2.21,4.06-1.78,3.69-2.64,1.85-4.43,3.69-2.64,4.06-2.21,3.69-2.21,2.58-4,2.21-4,2.95-3.51,2.21-4.43,2.95-3.14,2.95-4,1.85-4.43,2.58-3.94,2.95-3.57,1.84-4.43v-6.64l3.32-3.07,3.32-2.71.37-.43,4.8-1.29,4.8,1.72-.74,5.35-1.48,5.72Z"/></g></svg>