<?xml version="1.0" encoding="UTF-8"?><svg id="Layer_2" xmlns="http://www.w3.org/2000/svg" viewBox="0 0 1205.11 1006.28"><defs><style>.cls-1{stroke:#fff;stroke-miterlimit:10;}</style></defs><g id="Layer_36"><path class="cls-1" d="m1199.05,718.79l2.21-4-.74-6.64-2.95-3.07-3.32-2.71-3.69-3.08,5.17,1.35,4.43,1.29,4.06-2.64.37-4.86-4.06-2.21-4.06-2.21-3.32-3.14-4.43-1.72-4.06-2.21-3.32-3.14-3.69-2.64-1.11-5.78-4.43-1.72-4.06-2.21-2.95-2.71-4.43,1.78-4.43,1.35-5.17-.43-4.8-1.35-4.43-1.78-.74,5.78-.37,6.64-1.48,5.29-2.58,3.57-5.17,1.29,1.84-4.86,3.69-2.64,1.48-5.78-4.8,1.78-2.21,4.43-3.32,2.64-4.43,1.78-4.8,1.35-5.54.43h-5.9l2.95-3.57,3.69-2.21,2.95-3.51,3.69-2.21h-5.9l-3.69-2.21,2.58-3.57,3.32-3.51-5.17-.92-4.43,1.35-3.69,2.64,2.21,3.57-1.11,5.72-5.54-.43-3.69,2.64-2.95-3.51,2.58-4.43,1.11-5.78-1.85-4.86,2.58-4-4.43-1.78-5.17.92-5.54-.92-4.8,1.35-5.54.43-3.32-3.08-5.17-.92-4.06-1.78,1.11-5.29,3.69-2.64,4.06-2.21,4.43-1.78,4.06-2.21,4.43-1.78,3.32-3.07,2.58-3.57,4.43-1.78,4.8-.86,2.95-3.08,2.99-1.5V179.12l-3.36-.56-4.43-2.21-4.8.43-4.43-1.78-4.8-.86-5.54-.92-5.54.49-5.17.86-4.8,1.35-5.17.43-4.8,1.29-2.21,4.43-4.43-1.72-5.54.86-5.54-.43-5.17-.92-5.17-.86-5.17-1.35-4.43-1.72-3.69-2.71-3.69-2.64-4.8-1.29-2.58-3.57-3.32,2.64-3.32,3.14-2.95,3.08-2.58,3.57-2.58,4.43,4.06,2.21-5.54.43-3.69,2.64-2.21,4.43-3.32,3.07-4.43,2.21-4.8,1.35-5.17-.43-1.84-4.86-5.17,1.72-4.43-1.72-5.17-.92-2.58-3.51-5.54-.92-5.17.92-1.48-5.35-4.43-1.78-2.21-3.94-2.95-3.57h-5.54l2.95-3.57,5.17-.86,4.8.86-3.69-2.21-2.95-3.51-3.69-2.64,2.21,3.94-2.95,3.57-5.54-.43-3.69-2.64-4.06-2.71-2.95-3.08-4.06-2.21-4.43-1.78-5.17-.86-3.32-3.57h-5.9l-5.17-.86-5.9-.43.74,6.15,1.85,4.43,4.43,1.78.37,6.64,1.48,4.86-2.58-3.94-1.48-4.92-4.43-2.21-2.58-3.51-3.69-2.64-3.69-3.14-4.8-.86-5.17.86-4.8-1.29-5.54-.49-4.06-2.21-4.8-.86-4.06-2.64-5.17-.92-4.8-1.29-5.9-.43-4.8-1.35-5.17-.86-5.17-.92-5.53.43h-5.54l-5.17-.86-5.54-.86-5.54-.92-4.43-1.29h-5.9l-5.17-1.35-5.17-.86-5.54-.49-5.9.49-5.17.43-5.53-.43-5.17-.92h-5.9l-5.54-.43-5.54-.43,4.06,2.21,5.54.43,5.17.86-5.17-.43-5.9-.43-5.9-.43-4.43-1.78-4.43-1.78-5.53-.86-5.17-.43-4.8-1.35-4.8-.86-4.06-2.21,1.84-5.35,5.9.43,5.54-.43-4.06-2.64-5.54-.86h-23.25l-5.54-.49-5.54-.43-5.54-.86-5.54-.43h-5.9l-5.54-.49-5.54-.43-6.27-.43h-5.54l-5.54.86-5.17,1.35-5.17.86-5.54.49-5.54-.49-5.54.49-5.17,1.29-5.54.43,2.95,3.57,5.17,1.35-4.8.86-3.69,2.64v7.07l-3.69,2.21-2.21.49,4.06-2.21.74-6.21-1.48-5.35-4.43-1.29,1.85-4.86-1.11-5.35-3.32-3.07-4.43-1.78-1.48,4.86-4.8,1.35-5.54.43h-6.27l-5.54-.86-5.54-.92-5.17-.86-4.43-1.78,2.95-3.57-4.8-1.72-3.32,3.08h-5.9l-4.8-1.35-5.54-.86h-5.53l-4.8.86-3.32,3.14-5.17,1.29,1.85,4.43,5.17-.86h5.9l5.54-.43,5.17-.92,5.9-.43-3.69,2.64-5.17.92-4.8,1.78-3.69,1.72-5.17,1.35-5.17.43-5.54-.43-4.43-1.78,4.06,2.21-4.8,1.78-4.8.86-5.54.49-5.17.86-5.9.43-4.43,1.35-5.17,1.29-5.17.92-6.27.43-5.54-.43-5.54.43-5.54.43-5.17-.86-5.54.86-1.48,5.35-5.17.43-4.43,1.78-4.43,2.21-4.8.86h-5.9l4.8-1.78,4.43-1.29,3.69-2.21,3.32-3.14,3.69-2.21,2.58-4,5.54-.86h5.54l5.17-.86,2.95-3.14,4.43-2.21,4.06-2.64h5.9l5.53.43,4.8-1.29,5.54-.49,4.43-2.21,4.06-1.72,3.69-2.71,4.8-1.72,4.06-2.21,5.17-.49,5.54-.86,4.8-1.35,4.06-2.21-4.43-1.72,4.8-1.35,5.17-.86,4.8-1.78,4.8-1.78,4.8-.86,5.17-.92,4.43-2.21,4.8-1.78h5.9l5.17-.43,4.06-2.21,3.32-2.64,5.54-.86,5.54-.92,4.8-.86,4.06-2.21,4.43-2.21,4.06-1.78,4.43-2.21,2.21-4-3.69-3.08-4.8-.92-4.06-2.21-4.06,2.21-2.95-3.51-3.69-2.65-4.8-1.78,5.9.43,4.8,1.35,4.8,1.29,5.54.92,5.9.86-3.32,3.08,5.17-1.29,2.58-4,1.84-4.86-5.53-.43-3.32-3.14-2.21-4.43-4.06-2.21-5.9.43,4.43,1.78-3.32,3.14-5.54.43-2.58-3.57-1.84-5.29-4.8-1.35h-5.9l-5.17,1.78,4.06-2.21-3.69-3.08-4.06-1.78h-5.54l-4.43-2.64-5.54.43-4.43-2.21-5.17,1.29-5.17-.86-5.54.43-4.43,1.35-5.54-.43-5.54-.92-5.17-.43-5.17.86h-17.71l-5.54-.43h-5.9l-1.48,5.78-5.54.86-5.17-.86-5.54.43-5.9.43h-11.81l4.8-1.78,3.69-2.21,4.06-2.21,4.43-2.21,4.8-1.72-2.58-4h-5.9l-4.8-1.35-5.17.92-5.17-.92-5.54.43-5.17,1.35-5.17.43-5.54-.43,5.17-1.35,4.8-1.29-5.54-.92-5.17.92-5.54-.92-5.54.92-4.8-1.35-5.17.92h-6.64l5.17-.92,4.8-.86,5.9-.43,5.54-.49,5.53-1.29,4.43-1.78,4.8-1.78h11.81l-4.8-1.29-3.69-2.71-4.8-1.72-5.9.43-5.54-.43-5.54-.92-4.8-1.29-4.8-1.35-5.53.86-4.8-2.21-5.9.92-4.8,1.29-5.17.92-5.54-.92-4.8,1.35-4.06,1.78-5.54.86-4.43,1.78-4.06,2.21-5.54.43-4.06,2.21-5.17,1.35-4.06,1.78-4.43,1.72-3.32,3.57-5.17.43,1.48,5.35,5.54.43-2.58,4-4.43,1.72,4.8,1.35h5.9l5.54,1.35,5.53.43,5.17.86-5.17.43-4.8-1.29-5.9-.43h-5.9l-4.43-.92h-5.9l-5.9.43h-11.81l-5.9.49h-5.54l-5.54-.49-5.54-.86,1.85,4.86,5.54.43,4.8,1.35,4.06,2.65,4.06,2.21-.74,6.21-4.06,2.21-5.54.86-3.69,2.71,2.21,4.43,5.17,1.29,5.54.43,2.21,4,4.06,1.78,1.85,2.21-3.32-1.78-3.32-2.21-4.06-2.64-4.43-1.78-5.17-.86-4.8-1.35,2.58-3.51,3.69-3.14,5.17-.86,2.58-4-2.95-3.08-4.8-1.78h-5.54l-4.43-2.21-5.17.43-5.9.43-5.9.43-5.17.92,5.17,1.29-5.17.92-5.54-.92-5.17,1.35,5.54.43-4.8.92-5.54.86-5.17-.86-4.43,1.72-5.17,1.35-5.53.43,3.69-2.21-4.8-1.29-5.17,1.29h-5.54l-4.43,1.78,3.69-2.64,3.69-2.64-4.8-1.35-5.54-.43-5.54-.43-5.17.86-5.54.43-5.17-1.29-4.43,2.21-5.17-1.35h-12.18l-4.06,2.21-5.17.86-3.69-2.21-4.43,2.21-4.8.92,3.69,2.64,4.06-2.21,3.69,2.21,4.43-1.78,4.8,1.35,5.17-.43-4.43,1.29-5.54.43-5.53.92-5.54.43-5.9.43-5.9.43-5.17.92-5.9.43-5.54.43h-5.9l-4.06,2.21-5.9.43h-5.54l-5.54-.43-5.17.92-2.71.2,944.68,944.68,2.32-1.27,3.69.43,2.21-4.43-1.48-4.86,5.17-.43,4.8.86,2.95-3.57,2.95-3.08,2.21-4,3.32-3.08,2.95-3.57,3.32-2.64-.74,5.78,4.8-.92,3.69-2.21,1.85,4.43.74,6.21h5.54l4.43-1.78,1.85,4.43,4.06-1.78,2.58,3.57,4.06-1.78,4.8-1.29,4.43-1.78,4.43-1.35,4.43-1.78,2.95-3.07,4.43-1.35,4.06-2.21,3.69-2.64,3.69-2.21,3.69-2.64,3.69-2.64,1.84-4.86,4.8-.92,1.84-4.43,2.95-4,1.48-4.43,2.95-3.08,3.69-3.07,4.06-1.78,2.21-4.86,2.95-3.57,3.32-2.21,2.95-3.57,3.32-3.07,2.58-3.57,3.69-2.64,3.32-2.64,2.95-3.57,3.32-3.08,3.69-2.64,2.58-3.57,2.95-3.51,2.95-3.57,3.32-3.07,1.48-4.92,3.32-3.07,1.48-5.29,2.21-4,1.85-4.43,3.32-3.57,2.95-3.07,3.69-2.21,1.84-4.86,2.58-4,2.21-4,2.95-3.57,3.69-2.64,3.32-2.64,3.32-3.57,3.32-2.64,3.32-3.08,1.84-4.43,1.11-5.78,2.58-3.51.74-6.21,1.48-5.35,1.48-4.86.74-6.21-2.21-4.43,2.58-3.94,3.69-2.71-4.06-2.21v-6.64l-.74-5.72,1.11-5.78,2.21-4,1.11-5.72,1.11-5.35,4.06-2.21.74-6.15,4.8-1.35,1.84-4.43,4.06-2.21.37-6.64-2.21-4-3.32-3.08Zm-197.79,210.33l-3.32,3.51-1.48,4.92-4.06,2.21-4.06-1.78-4.06-2.21,1.11-5.35-2.58-3.51.74-6.21,4.06-1.78h5.9l4.8,1.35,3.32,3.07-.37,5.78Z"/></g></svg>