<?xml version="1.0" encoding="UTF-8"?><svg id="Layer_2" xmlns="http://www.w3.org/2000/svg" viewBox="0 0 4720.51 2168.06"><defs><style>.cls-1{stroke:#fff;stroke-miterlimit:10;}</style></defs><g id="Layer_35"><path class="cls-1" d="m4715.41,328.69l-5.9-.49-5.17-.43-3.32-2.64-3.69-2.64-3.69-2.64-4.06-1.78-4.8-1.78-4.43-1.78-2.58-3.51-4.8-1.35-2.95-3.57-5.54-.43h-5.9l-5.17-.43-5.17-.86-5.17-.92,4.8,1.78,4.8.43-4.8,1.35h-5.9l-4.43-2.21-2.21,4.43-1.48-5.35-5.17-.43-4.06-2.21-4.8.92h-5.9l-5.54-.49-5.17.92,4.43.86,4.8,1.35,3.32,3.08,1.84,4.43-3.32,2.64,3.32,3.14,4.43,1.78-2.95,3.51-3.32,3.14,1.48-5.35-4.8-1.29-3.69,3.07-2.21-4.43-4.06-2.21-5.54-.43,2.95-4-1.11-5.29-2.95-3.57.74-6.21-1.84-4.43-4.06,2.21-5.54.43,3.32-2.64-1.84-4.86-3.69-2.64-4.43-1.78-4.43-1.35-4.8-1.72-4.8-1.35-4.43-1.78-4.43-1.29-4.43-1.78-4.43-1.35h-5.54l-3.69-3.08-4.8,1.29-2.21-3.94h-.74l-4.8,1.29-2.95-3.51-4.8-1.78-5.17-.43-5.17-.92,4.8-1.29-4.06-2.21-4.43-2.21-4.43-1.35-5.54-.86-3.69-2.21-5.54-.49-4.8-1.29-5.54-.92h-5.53l-4.06-2.64,4.8,1.78-3.69-3.07-4.06-1.78-4.06-2.21-5.54-.92h-5.54l-4.06-2.21,5.17.92-4.06-2.21-4.8-1.35h-5.54l-5.54-.43-5.17-.86-4.43-1.35-5.17-1.35-5.54-.43-5.54-.43-5.17-.86-4.43-1.78-5.17-.92-3.32-3.08-5.54-.43h-5.9l-5.17.86-5.54.43-5.53-.43-5.9.43-5.54-.43-5.17-.43h-5.9l-5.9.86-2.58-2.21-5.17-.43-5.17.92,5.53.86-3.69,2.64-4.06-2.21-4.8-.86-3.69-2.64-5.17.86-5.17-.86-5.9-.49-5.54-.43-5.17-.86-5.54-.43-5.54-.49-5.9-.43-5.54-.43-1.84,4.43-1.11,5.78-5.54.86,3.69,3.08,5.17.92,2.95,4,2.95,3.08,1.84,4.86,3.32,3.14-4.8,1.72-4.8,1.35-4.43,1.78,2.58,3.51-4.8-1.72-5.54.43-5.54.43h-5.9l-4.8-.86-1.48-5.78-3.69-2.21-5.17-.86-4.8-1.78-5.17-.43-5.54-.49-3.69-2.21.37-6.64-4.06-2.21-3.32-3.08-4.43-1.78-4.8,1.78-4.06,2.21-4.43,1.78-4.43,1.29-5.54.92-5.17-.43h-11.44l-4.8-1.35-5.17-.86h-11.44l-5.54.43-5.9-.43-5.17-.49-4.43-1.72-4.06-2.21-5.17.43-5.17,1.29-5.54-.43-5.17-.43-5.17,1.35-4.8.43-5.54-.43-5.17-.92-3.69,2.64-4.43,2.21-4.8.92-4.06,2.21-3.32,2.64.37,6.64,1.85,4.43-2.95,2.64-3.32,3.14-2.58,3.51-4.06,2.21h-5.9l5.54-.43,3.32-2.64,2.21-4.43,2.95-3.14-2.58-3.94-5.17-.49-.37-6.64-2.21-4.43-1.84-4.86-4.8-1.29-5.54-.49-5.17-.86-5.17-1.35-5.54.49.74-5.78,2.95-3.57-4.8-1.72,5.9.43,2.95-3.14-1.11-5.29-3.32-3.57-3.69-2.64-4.06-2.21-4.43-1.78-4.43-1.72-4.8-.92-5.17-1.29-4.43-.92-5.54-.86-4.8-.92-5.17-.86-5.9-.43-5.9-.43h-5.9l-5.9-.49h-23.99l-5.17.92-5.9.43-5.17.43h-5.9l-5.54.92-5.17.43-5.9.43-4.43,1.35-5.17.86-5.9.43h-5.54l-5.54.92h-6.27l-5.54.43-5.17-.92-5.17-.86-4.8-1.35-5.17-.86-2.58-.43,5.9.43,5.54-.43-3.32-3.14-4.43-2.21-3.69-2.64-4.43-2.21-5.17-.43-5.17-.86-5.17.86-3.69,2.21h-5.9l-5.17.86,4.06-1.72,4.43-1.78-2.95-4h-5.9l-4.8.86,3.32-3.07-4.43-1.78-5.53.43-5.17-.43-5.53-.86-5.54.86-2.95-3.51,5.54.43,4.06-2.21,5.9.43,4.06,1.78,4.43-1.35,4.43-1.78-2.95-3.51-4.06-2.21-4.43-1.78-4.8-1.35-5.17-.86-5.9-.43-5.17-.92-5.17-.86-5.54-.43-5.9-.43h-17.34l-4.8,1.29-4.06,2.21-3.69,2.64-3.69,2.21-4.06,2.71-4.06,2.21-4.43,2.21-5.17.86-5.54.43-4.8,1.78-5.9-.43-5.9.43,3.69-3.07-2.21-4h5.9l4.8,1.29,5.17-.86,4.06-2.21-3.69-2.21,2.58-3.57,4.8,1.35,5.17-.86-2.58,3.94-2.58,4,4.8-1.29,4.43-1.78,4.06-2.64,4.06-2.21,4.06-2.21-4.43-1.78h-5.9l-5.9.43h-5.54l-5.53.43-5.54.43h-5.54l-5.9.49-5.54.43-4.06,1.78-5.9-.49-4.43-1.72,5.54-.92,5.54-.43,3.69-2.64,4.8-1.35,5.17.92,4.43,1.72h34.32l-5.17-.86-4.8-1.35-4.8-.86-5.9-.86-5.17-.49-5.17-.86-5.17-.86-5.9-.49-5.9-.43-5.53-.43-5.17-.86-5.9-.49h-5.54l-5.54-.43-5.54-.43h-11.81l-5.9-.43h-5.54l-5.9-.43h-5.9l-5.17-.92-4.8-1.29-4.8-1.78-5.17-.43h-5.54l-5.9-.49,3.69,2.71,4.43,2.21,2.95,3.51-4.8,1.78-5.17.86-5.9.49h-5.54l-5.9-.49h-5.9l-4.8,1.35-4.06,2.21-3.32,2.64,2.95,4,5.17-.43,4.43-2.21h5.54l5.53.43-4.8,1.35-4.06,2.21-2.58,3.94h-5.54l4.8.92,4.43,1.78-1.48,5.29,3.32,3.08,3.69,2.21-5.9.49-5.53-.49-4.43,1.35-5.9.43-2.58-4.43-4.8-1.29-5.54.43-5.9.43-5.54.43-2.58,4,3.32,2.64,5.9.43-5.9.49-3.69,2.64-2.95,3.07-4.06-2.21-4.43-2.21-3.69-2.64-4.43-1.78-5.17-.86-4.43-2.21-4.8.43-4.43-1.78-4.8-.86-5.54-.92-5.54.49-5.17.86-4.8,1.35-5.17.43-4.8,1.29-2.21,4.43-4.43-1.72-5.54.86-5.54-.43-5.17-.92-5.17-.86-5.17-1.35-4.43-1.72-3.69-2.71-3.69-2.64-4.8-1.29-2.58-3.57-3.32,2.64-3.32,3.14-2.95,3.08-2.58,3.57-2.58,4.43,4.06,2.21-5.54.43-3.69,2.64-2.21,4.43-3.32,3.07-4.43,2.21-4.8,1.35-5.17-.43-1.84-4.86-5.17,1.72-4.43-1.72-5.17-.92-2.58-3.51-5.54-.92-5.17.92-1.48-5.35-4.43-1.78-2.21-3.94-2.95-3.57h-5.54l2.95-3.57,5.17-.86,4.8.86-3.69-2.21-2.95-3.51-3.69-2.64,2.21,3.94-2.95,3.57-5.54-.43-3.69-2.64-4.06-2.71-2.95-3.08-4.06-2.21-4.43-1.78-5.17-.86-3.32-3.57h-5.9l-5.17-.86-5.9-.43.74,6.15,1.85,4.43,4.43,1.78.37,6.64,1.48,4.86-2.58-3.94-1.48-4.92-4.43-2.21-2.58-3.51-3.69-2.64-3.69-3.14-4.8-.86-5.17.86-4.8-1.29-5.54-.49-4.06-2.21-4.8-.86-4.06-2.64-5.17-.92-4.8-1.29-5.9-.43-4.8-1.35-5.17-.86-5.17-.92-5.53.43h-5.54l-5.17-.86-5.54-.86-5.54-.92-4.43-1.29h-5.9l-5.17-1.35-5.17-.86-5.54-.49-5.9.49-5.17.43-5.53-.43-5.17-.92h-5.9l-5.54-.43-5.54-.43,4.06,2.21,5.54.43,5.17.86-5.17-.43-5.9-.43-5.9-.43-4.43-1.78-4.43-1.78-5.53-.86-5.17-.43-4.8-1.35-4.8-.86-4.06-2.21,1.84-5.35,5.9.43,5.54-.43-4.06-2.64-5.54-.86h-23.25l-5.54-.49-5.54-.43-5.54-.86-5.54-.43h-5.9l-5.54-.49-5.54-.43-6.27-.43h-5.54l-5.54.86-5.17,1.35-5.17.86-5.54.49-5.54-.49-5.54.49-5.17,1.29-5.54.43,2.95,3.57,5.17,1.35-4.8.86-3.69,2.64v7.07l-3.69,2.21-2.21.49,4.06-2.21.74-6.21-1.48-5.35-4.43-1.29,1.85-4.86-1.11-5.35-3.32-3.07-4.43-1.78-1.48,4.86-4.8,1.35-5.54.43h-6.27l-5.54-.86-5.54-.92-5.17-.86-4.43-1.78,2.95-3.57-4.8-1.72-3.32,3.08h-5.9l-4.8-1.35-5.54-.86h-5.53l-4.8.86-3.32,3.14-5.17,1.29,1.85,4.43,5.17-.86h5.9l5.54-.43,5.17-.92,5.9-.43-3.69,2.64-5.17.92-4.8,1.78-3.69,1.72-5.17,1.35-5.17.43-5.54-.43-4.43-1.78,4.06,2.21-4.8,1.78-4.8.86-5.54.49-5.17.86-5.9.43-4.43,1.35-5.17,1.29-5.17.92-6.27.43-5.54-.43-5.54.43-5.54.43-5.17-.86-5.54.86-1.48,5.35-5.17.43-4.43,1.78-4.43,2.21-4.8.86h-5.9l4.8-1.78,4.43-1.29,3.69-2.21,3.32-3.14,3.69-2.21,2.58-4,5.54-.86h5.54l5.17-.86,2.95-3.14,4.43-2.21,4.06-2.64h5.9l5.53.43,4.8-1.29,5.54-.49,4.43-2.21,4.06-1.72,3.69-2.71,4.8-1.72,4.06-2.21,5.17-.49,5.54-.86,4.8-1.35,4.06-2.21-4.43-1.72,4.8-1.35,5.17-.86,4.8-1.78,4.8-1.78,4.8-.86,5.17-.92,4.43-2.21,4.8-1.78h5.9l5.17-.43,4.06-2.21,3.32-2.64,5.54-.86,5.54-.92,4.8-.86,4.06-2.21,4.43-2.21,4.06-1.78,4.43-2.21,2.21-4-3.69-3.08-4.8-.92-4.06-2.21-4.06,2.21-2.95-3.51-3.69-2.65-4.8-1.78,5.9.43,4.8,1.35,4.8,1.29,5.54.92,5.9.86-3.32,3.08,5.17-1.29,2.58-4,1.84-4.86-5.53-.43-3.32-3.14-2.21-4.43-4.06-2.21-5.9.43,4.43,1.78-3.32,3.14-5.54.43-2.58-3.57-1.84-5.29-4.8-1.35h-5.9l-5.17,1.78,4.06-2.21-3.69-3.08-4.06-1.78h-5.54l-4.43-2.64-5.54.43-4.43-2.21-5.17,1.29-5.17-.86-5.54.43-4.43,1.35-5.54-.43-5.54-.92-5.17-.43-5.17.86h-17.71l-5.54-.43h-5.9l-1.48,5.78-5.54.86-5.17-.86-5.54.43-5.9.43h-11.81l4.8-1.78,3.69-2.21,4.06-2.21,4.43-2.21,4.8-1.72-2.58-4h-5.9l-4.8-1.35-5.17.92-5.17-.92-5.54.43-5.17,1.35-5.17.43-5.54-.43,5.17-1.35,4.8-1.29-5.54-.92-5.17.92-5.54-.92-5.54.92-4.8-1.35-5.17.92h-6.64l5.17-.92,4.8-.86,5.9-.43,5.54-.49,5.53-1.29,4.43-1.78,4.8-1.78h11.81l-4.8-1.29-3.69-2.71-4.8-1.72-5.9.43-5.54-.43-5.54-.92-4.8-1.29-4.8-1.35-5.53.86-4.8-2.21-5.9.92-4.8,1.29-5.17.92-5.54-.92-4.8,1.35-4.06,1.78-5.54.86-4.43,1.78-4.06,2.21-5.54.43-4.06,2.21-5.17,1.35-4.06,1.78-4.43,1.72-3.32,3.57-5.17.43,1.48,5.35,5.54.43-2.58,4-4.43,1.72,4.8,1.35h5.9l5.54,1.35,5.53.43,5.17.86-5.17.43-4.8-1.29-5.9-.43h-5.9l-4.43-.92h-5.9l-5.9.43h-11.81l-5.9.49h-5.54l-5.54-.49-5.54-.86,1.85,4.86,5.54.43,4.8,1.35,4.06,2.65,4.06,2.21-.74,6.21-4.06,2.21-5.54.86-3.69,2.71,2.21,4.43,5.17,1.29,5.54.43,2.21,4,4.06,1.78,1.85,2.21-3.32-1.78-3.32-2.21-4.06-2.64-4.43-1.78-5.17-.86-4.8-1.35,2.58-3.51,3.69-3.14,5.17-.86,2.58-4-2.95-3.08-4.8-1.78h-5.54l-4.43-2.21-5.17.43-5.9.43-5.9.43-5.17.92,5.17,1.29-5.17.92-5.54-.92-5.17,1.35,5.54.43-4.8.92-5.54.86-5.17-.86-4.43,1.72-5.17,1.35-5.53.43,3.69-2.21-4.8-1.29-5.17,1.29h-5.54l-4.43,1.78,3.69-2.64,3.69-2.64-4.8-1.35-5.54-.43-5.54-.43-5.17.86-5.54.43-5.17-1.29-4.43,2.21-5.17-1.35h-12.18l-4.06,2.21-5.17.86-3.69-2.21-4.43,2.21-4.8.92,3.69,2.64,4.06-2.21,3.69,2.21,4.43-1.78,4.8,1.35,5.17-.43-4.43,1.29-5.54.43-5.53.92-5.54.43-5.9.43-5.9.43-5.17.92-5.9.43-5.54.43h-5.9l-4.06,2.21-5.9.43h-5.54l-5.54-.43-5.17.92-5.9.43-5.17.43-4.43,1.78-5.54.43-4.8,1.78-4.43-1.78-5.17,1.35-5.17.86,5.9.43-5.54.43-4.43,1.35-4.06,2.21-4.06,2.21-4.06,1.78-5.54.86-5.54-.86-5.54-.43-5.54-.49-5.54.49,4.06,1.72,5.17,1.35h5.9l-3.69,2.21-5.17-1.35-2.21,4-2.95,4-5.54.43,4.06,2.21-5.54.43-4.06-2.64h-5.54l-3.69-2.64-3.69,2.64-4.43,1.35,4.8.86,5.9.43,5.17.92,5.17.43,2.58,4,5.54-.43,4.06,2.21-4.06,2.21-5.54-.49-3.69-2.64-4.06-1.78-5.17,1.35-4.8,1.35,3.69,2.64,5.9.43,5.54.86,3.32,3.14,5.17,1.29,5.54.49h-5.54l2.21,3.94,4.06,2.21,4.43-1.29-2.95,3.07-3.32,3.57-4.8.86-5.9.43-5.54.92h-5.54l-5.17.86-4.8.92,1.48,5.29,5.17.86,4.8,1.35,4.43,1.78,1.85,1.29,2.21.92.74,2.64-2.95-3.57-4.8-1.29-4.8-.92-4.43-2.21-5.17-1.29,1.48-4.86v-.49l4.43-1.72,5.17-.92,4.43-1.29,5.17-1.35,4.43-1.78,4.06-1.78-4.8-1.72-5.9.43h-5.9l-5.54.43-5.17.86-5.9.49-4.8,1.29-4.8,1.78h-5.54l-4.8-1.35h-5.9l-4.8,1.35h-5.9l-5.9.43-5.9.43-5.54.49h-29.15l-5.54.43h-5.9l-5.9.43-4.8.86h-5.9l-5.54.49-5.17.43-1.85,5.29-4.43,1.35,4.8,1.29-3.69,2.21,4.8,1.35,4.06,2.64,3.32,2.64-1.48,5.35,1.84,4.86,1.85,4.43,4.43,1.78,5.17.86,5.54.43,5.54.49,4.8,1.29,5.54.43,1.11,5.35,4.43,1.78,4.06,2.21,4.8,1.29h5.54l5.17,1.35,3.32,2.64,3.69,2.64-2.21,4.86-2.58,3.57-4.06,2.64-1.85,4.43,4.43,1.35,2.95,3.51,2.58,4.43,2.95,3.57,1.85,4.86-3.32,3.14-4.43,1.29-5.54.43-5.54-.43,3.32,3.14,2.21,3.51v.43h-5.9l-4.06-1.72,1.11-5.35,4.06-2.21,1.48-5.29,1.85-4.43-2.21-4.43-3.69-2.64-5.17,1.29-2.95,3.57-2.21,4-4.06,2.64v6.64l1.85,4-2.95-3.14-1.48-5.29,1.48-4.86,4.43-2.21-2.58-4,1.48-5.35-2.21-3.94,4.43-2.21,4.8-1.35,5.17-.86,2.95-3.57,4.43-1.78,3.32-2.64-4.8-1.78-5.17-.86h-5.54l-5.17.43-5.17.86-5.54.49-5.9.43-5.17-1.35-5.17-.86-3.32-3.14-4.8-1.72-4.43-1.78-3.32-3.14-5.17-.86-5.54-.86-4.8-1.35-4.8-1.35-4.06-1.72-5.17-1.35h-11.44l-5.17-.43h-5.9l-5.17.86-5.17.92-4.06,1.72-4.06,2.21-4.8.92,4.43,1.78,5.17-.92,4.8,1.35,3.69,2.64-3.69,3.08-4.8.92-5.54.43-4.8-1.35-4.06-2.21-4.8-1.29-4.8-1.35-5.54.43-5.54.92-4.8,1.78.37,6.64,2.58,3.94,5.17.92,4.06,1.78,4.8.86,5.53.43,4.06,2.21,5.17,1.35,5.54.43,4.06-2.21,4.06,2.64,5.17.92,1.48,5.29,2.58,3.57,5.53-.49,4.43-1.72-4.06,2.64h-5.54l-4.8-.92-5.54-.43-4.06-1.78-2.95-3.51-5.54-.43-5.9-.49-5.54-.43-2.95,3.57-3.32-3.57-5.53-.43-5.9-.43-5.9-.43-5.17-.49-5.17-1.29-5.17-.92-3.69-2.64,4.43-1.29,1.85-4.92-4.06-2.21-1.48-5.29,4.06-2.21,1.85-4.86,4.06-2.21-1.85-5.35,2.58-3.94-4.43-1.78-4.43-1.78,4.43-1.35-4.43-2.21-4.8-.86h-5.9l1.85,4.43,2.21,4.43,1.11,5.78-1.85,4.43-3.69,2.64-5.17.86-4.8,1.78-5.54.86-4.8,1.35-5.17.86-4.8,1.35-1.84,4.43-3.69,2.64-4.43,2.21-3.69,2.21,4.8,1.78,4.43,1.35,4.06,2.21,2.58,3.94,3.69,2.71,2.21,4.43,4.06,2.21,4.43,2.21-.74,5.72-4.06,2.64-3.32,3.14-4.06,2.21-1.48,5.29-1.48,4.86-3.32,3.14,2.95,3.07,3.69,2.64,2.21,4.43-2.58,4,2.58,4,5.54-.43,5.54-.92,5.17.92,5.17.86,5.54-.86,4.06-1.78,4.8-1.78,5.17-.43,5.17.43,5.9.43,4.43,1.35,5.17,1.35h5.9l3.69,3.07,5.17.43,4.8,1.35,5.17.86,3.32,2.64.74,6.64,4.06,1.78,2.21,4.43,3.69,2.21-4.06,1.78-5.9.43-3.69,2.21-2.21,4.43.37,6.64,5.17.43,5.9.49,4.43,1.72,5.53.49,5.17-.92,5.53.92,4.43,1.29.74.92-5.54-.49h-5.9l-5.17.92h-5.9l-5.17-.92-5.17-.86-4.43-1.78-5.17-1.29-4.06-2.21,4.06-1.78-.37-6.21,2.58-4-4.06-1.78,3.32-3.08-1.85-4.86-4.43-1.78-4.43-2.21-4.43-1.35-1.48-5.72-5.17-.92h-5.54l-5.54.92-5.17.86-5.54.43-5.17,1.35-5.17.86-5.17.92-5.17,1.29-3.69,2.71-.74,5.72,2.21,4.43,3.69,2.64,2.58,4,1.11,5.78-1.85,4.86-4.43,2.21-4.06,2.21-4.43,1.78-3.69,2.21-1.85,4.86-1.85,4.86-3.32,3.14-4.43,1.72-4.43,1.78-5.17,1.35-4.06,2.21-4.8,1.78h-5.54l-3.69,2.64-.37,6.21-4.8,1.72h-5.53l-4.43-1.29-5.17-.92-5.17-.86h-11.44l-5.54.43h-5.54l-4.8-.86-5.54-.92-4.43-2.21-5.53-.43-4.43-1.29-4.43-1.78-1.85-4.86,4.8-1.35,5.54.43h5.54l4.43-1.78h.37l3.32,3.14,4.06,2.21h5.9l4.43-1.78-4.43,2.21-4.06,1.35,4.06,2.21,4.8.86,5.53-.43,4.8-1.35,4.43-1.78h5.9l-1.48-5.29-3.69-3.07,5.54.43,5.17-.92,3.69-2.64,3.32-3.08,2.21-4.86h5.54l1.85-4.92,2.95-3.51h5.53l4.06-2.64,2.95-3.14-.74-6.64,1.48-5.29,3.69-2.21,3.32-3.57-1.85-4.86-4.43-1.78-4.43-1.78-4.43-1.29-4.06-2.21-2.58-4-1.11-5.78,2.95-3.51-.74-6.21,1.48-5.29-1.48-5.35.74-6.21-4.06-2.21,3.32-3.94,4.43-1.35-2.21-4.86,2.21-4.43-1.48-5.35-1.48-5.29-4.8-1.78-4.8-1.29-4.06-1.78-4.06-2.64,1.48-5.35,5.17-.43,3.69-3.08,1.85-4.92,3.32-3.08,3.32-3.57,2.58-3.94-.37-6.21-1.48-5.78-4.06-2.64-5.17-.86-5.17-.92-5.17.92-4.43-2.21-3.69-.92h-11.81l-5.9.43h-5.9l-5.53-.43-5.9.43h-5.9l-5.9.49,4.8-1.78-4.8-.92-5.17.49-2.58,3.94-4.06,2.21-2.95,3.14-1.85,4.43-2.21,4.43-2.21,4.43-2.58,4.43-2.21,4.43-3.32,3.08-3.69,2.21-4.06,2.64-4.43,1.78-4.43,1.78-4.43,1.35-5.17,1.29-4.8,1.35-4.06,1.78-2.95,3.51-1.48,5.78,3.32,3.51,5.54-.86,5.54.43-.74,5.78-1.11,5.72-2.21,4,3.69,3.14-2.58,4.43-4.06-2.21-2.95,3.51-1.85,4.86.74,5.78,4.06-2.21,5.54-.43,4.8.86,5.17.92,4.06,2.21,4.8.86.74,5.78,3.69,3.08,3.69,2.64,3.32,3.14,4.43,1.29,5.17-.86h5.9l-4.8,1.29-.37,6.64-2.95,3.57-3.32,3.08-.37,3.57-4.43,1.78-4.43,1.78-1.48-4.92-4.06-2.21-5.17-.86-3.69-2.64-4.43-1.78-4.43-1.78-4.43-2.21-3.32-3.08-5.17-.43-5.54-.92-4.8-1.29-4.43-1.78-4.8-.92-5.54-.43-4.06-2.21-5.17-1.29-4.43-1.35-4.43,1.78-2.21-4.86-4.43-1.35-4.43-1.78-4.8-1.29-4.8-1.35-4.8-.86-5.17-.92-4.8-.86-5.54-.92-5.54-.86h-5.54l-5.54-.86h-11.81l-5.17-.49-5.54-.43-4.8-.86-5.17-1.35h-5.53l-4.43,1.78-2.58,3.57h-5.9l-4.06,2.21,2.95,3.08,3.32,2.64,3.32,3.14,1.85,4.86,4.8-1.35,2.21,4.43-3.32,3.14-3.32,3.07-4.06,1.78-5.54.86-5.9-.43-5.17,1.35,2.95,3.07-1.48,5.29-5.54.92-5.17-1.35-5.17-.43-2.21-4.86,2.58-4,5.54-.43-3.32-3.14-4.06-2.21-5.17-.86,5.17-.86-5.54-.92-4.8.92-5.17.86-4.43,1.78,3.32,3.08-4.8-1.78-5.17-.43-3.32,2.64-5.9.49-3.69,2.64-3.69,2.21-5.9.43-4.8-.86-4.8-1.78-2.95,1.78-5.53-.92-4.8-.86-4.8.86-5.17,1.35h-5.9l-4.43,1.78-4.43,1.72-3.69,3.14-2.21,4.43-3.69-2.21-5.54-.43-4.43-1.35-3.32,2.64-5.53-.86h-5.54l-5.54.43,2.95-3.57,5.17.92,4.43-1.78-1.48-4.86.74-6.21,4.06-1.78-5.17-1.29,4.8-1.35,5.54-.43,4.8-.92-5.54-.43-5.54.43-5.17.49-4.8.86-5.17,1.35-4.8,1.29-4.8,1.78-4.43,1.35-4.8,1.29-4.8,1.78,5.53-.43,2.58,4-2.95,3.07-4.8,1.78-4.8-1.35,3.69-2.64-5.54-.43,3.69-2.64-5.17,1.29-5.17,1.35-5.17.43-4.43,1.78-5.17.86-5.17.92-5.54.43-4.06,2.21-4.43,1.29-4.43,1.78-4.06,2.64-5.17.92-4.43,1.29-4.8,1.35-4.8,1.35-5.54.86-4.8-1.35,1.84,4.92,4.8,1.29-5.54-.43-5.54.43-5.17-.43-4.43,1.78-5.9.43-.37,6.21-2.21,4.43-.74,5.72-3.69,2.71-5.9.43-4.8,1.29-4.8.92-5.17.43-4.8,1.78-4.06-2.21-5.54.43h-1.85l-4.06-1.35-3.32-3.51-2.21-4-4.06-2.21-5.17-.86-4.43-1.78-2.95-3.57,3.32-3.08,4.8-.92,2.21-4.43,5.17-.86h5.54l5.9-.86,5.17-.49h5.9l4.06-2.21-3.32-3.08-2.21-4.43-4.8-1.78-3.69-2.64-3.69-2.64-3.69-2.64-5.17-.92-5.17-.86-5.54-.43h-5.54l-5.54.43-5.53.43-5.54.43-5.54-.86-4.43-1.35-4.8-1.29-5.17-.92,2.95,3.57,4.43,2.21,4.43,1.29,4.43,1.78,4.06,1.78-.74,6.64,5.54.43-4.8,1.35-2.58,3.51,1.48,5.35-3.69,2.64-2.95,3.57-2.58,3.94,1.85,4.92h5.9l4.06,2.21,3.69,2.64,1.48,4.43,1.85,4.86-4.06,2.21-2.95,3.57-2.95,3.51-1.48,5.35,1.48,5.29-2.95-3.57-3.69-2.21-5.17.49-4.8,1.29,3.69-2.21-2.58-4-4.06-2.21-5.54-.43-5.54.43-5.54.49-3.69-2.71-5.17-1.29-4.06,2.21-3.32,3.08-3.32,2.64-3.32,2.21-4.43,1.78-4.43,1.78-4.8.86-5.17.92-4.8,1.29-3.32,3.14-4.06,2.21-4.43,1.78-4.8,1.29-4.06,2.21.37,6.64,3.32,2.64,3.32,3.57,4.06,2.21,3.32,3.08,2.58,4,1.11,5.78-5.54.43-4.8-1.35-4.8-1.29-3.32,2.64-5.9-.43-4.43-1.78-4.8-1.35-4.43-1.72-5.54-.49-4.8-1.29-4.06,1.78-4.06,2.64,2.95-3.57-4.43-2.21-4.8-1.29-2.95-3.57-4.43-1.78-4.43-1.29-5.17-1.35h-5.9l-1.84,4.43-3.69,3.08-5.54-.43,3.32,3.14,3.32,3.08,3.32,3.08,3.32,3.14,3.32,2.64,4.8,1.78,5.17-1.35,4.06-1.78,4.06,2.71,1.48,4.86,2.58,3.51-2.58,3.57-5.17.86-2.21-.43-3.32,3.14h-5.54l-4.43-2.21-5.54-.49-4.8-.86-4.8-1.35-3.69-2.21-2.95-3.94-5.17-.49-3.32-3.07-4.43-1.78-4.06,1.78-5.17-1.35-4.43-1.72-3.69-2.21-1.85-5.35,4.43-1.78h-5.9l4.43-2.21-3.32-3.07-1.84-4.43-2.58-4-3.32-3.08,4.06-2.21,2.58-4-1.48-5.29,4.43,1.72-1.48-5.72-3.32-3.14-3.69-2.21-4.43-1.72-4.43-1.78h-5.9l-4.43-2.21-5.54-.43,4.8-1.35-2.58-3.57h-5.54l-5.54-.43,4.43-1.78,5.54,1.35-4.43-2.64-5.54.43,5.17-.86-4.06-1.78-5.54-.43-4.06-2.71-3.69-2.21-4.06-1.72-2.58-4-5.17-.92-5.17-.86v-.43l5.17.43,5.54-.43,5.17.86,4.8.92,2.95,3.51,4.06,2.21,4.06,2.21,4.43,1.78h5.54l4.8,1.35,5.54.43,5.17.43,5.53.43,3.32,2.64,5.17-.86,4.06,1.78,4.06,1.78,4.8,1.72,5.17.92,5.54.43,5.17.86,5.54.49,5.53.43,5.54.43,5.54.43,5.17.92,4.8,1.29,4.8,1.78,5.17.86,5.54.49,5.54.43,5.9.43,5.17-.86,5.17-.92,5.9-.43,4.43-1.35,5.17-.86,4.8-1.35,4.8-.86,4.06-2.21,4.8-1.78,3.69-2.21,3.69-3.07,3.69-2.21,4.06-2.21,3.32-3.14,2.58-3.51-.74-6.21-5.17-.86-.74-6.21-1.11-5.78-4.43-1.29-4.06-2.21-4.06,1.29-4.06-2.21-3.32-3.07-4.06-2.21-3.32-3.14-4.06,2.21-2.21-.43-4.43-1.29-4.43-1.78-4.43-2.21-4.06-1.78-4.43-1.35-5.54.49-3.32-3.14-4.43-1.29-3.69-2.21-4.06-2.71-4.43-1.29-4.8-1.35-4.43-1.78-4.43-1.29-4.8-1.78-4.43-1.78-4.8-.86-4.43-2.21-5.17-.92-4.43-1.72-5.54-.49-5.17-.86-5.54-.86-4.06,2.21-5.17-.92-5.17-.86-4.43-1.35h-5.9l-5.53-.43h-5.9l-2.21,4.43h-.37l-4.06,2.21-5.17.86,4.8-1.72,4.43-1.35-4.8-1.35,2.95-3.51-3.32-2.64-4.8,1.29-4.43,1.78,3.32-3.57-5.54.49-4.06-1.78-5.17,1.29-5.17.92,4.43-1.78-3.32-2.64-5.54.43,2.58-4,4.43,1.78,5.54.43,5.17.92,5.54-.49,2.95-3.08-4.43-1.78-5.54-.43-4.8-1.35-4.8-.86-4.43-1.78-1.85,4.43-4.06-1.78-3.69,2.71-4.43,1.72-4.43,2.21-2.58-3.94-5.17-.92-5.17-.43-5.17-.43-2.95,4-1.85-4.92-4.06,2.21-4.43,1.35-5.17-.43-4.8.86,3.69-2.64-3.69-3.08-4.43,1.29,4.06-1.78-4.06-2.21-5.54-.43-4.8-1.29-4.8-.92,4.8-1.29,5.17.43,5.54.86h5.54l5.17.92h5.9l4.8-1.35,3.69-2.64,4.43-1.35,5.9-.43,3.69-2.64-4.06-2.21-4.8-1.35-4.06-1.78-5.54.49h-5.9l5.17-.92-2.58-4-5.54.92-4.43,1.78-3.69-2.71-4.8.92-2.21-4-4.8-1.35-5.54-.43-4.06,2.21-2.58,3.57-3.32,3.08-2.95,4-2.21,4-1.11,5.29.74-5.72,2.21-4.43-5.17-.92,3.32-3.07-4.43-1.78-5.17,1.35,4.06-2.21-4.43-1.35,4.8-1.78,5.54.43,4.43-1.72,3.32-2.71-4.43-1.72-4.06-2.21-5.17.86-5.9-.43-3.32,3.07-4.43-1.78-4.8,1.35,4.06,2.64,4.43.92-5.17.86-4.06,1.78,2.21,4.43-5.54.43-3.69,2.64-4.06,1.78-.74-6.21h-5.9l4.8-1.29,2.95-3.14-2.21-4.43-4.43,1.78-4.06,2.64-3.32,2.64-3.32,3.14-4.06,2.21-4.06,2.21-4.06,2.21-1.84,4.86-3.32,2.64-4.8-1.29,2.21-4.43,3.32-3.14-4.8-1.78,4.06-2.64,3.69-2.21,4.43-1.78,4.06-2.64,3.69-2.21-5.54-.43-4.8,1.35-2.95-3.57-1.84,4.86-3.32-3.51-4.43,1.29-3.69-2.21-5.17.92-3.69,2.21,3.32,3.08,3.69,2.21-5.53-.43-4.8.86-3.69,2.64,4.06,1.78-5.54-.43-5.54.43-4.06,1.78-4.06,2.21-3.69,2.64-2.21,4.43,4.43,1.78-4.43,1.78-4.8-1.78-4.06-1.78-4.8.43-5.54.49,5.17-.92,4.8-.86-3.32-2.64-5.17-.92-3.69,2.21,5.17,1.35-5.9-.43-2.21-4-5.17-.92-4.06,1.78-5.17-.86-5.17.86-4.06,1.35,5.17.86,4.06,2.21,4.8.92,5.17-.92-4.43,1.35,5.17.43-2.95,4,3.32,3.07-4.8-1.78-4.43-1.29-3.32-2.64-5.17-.92-2.21,3.57-4.8,1.78-4.06-1.35-3.32,2.64-3.69,2.64,2.95,3.57,4.06,1.78-5.17-.92-5.17.92-2.95,3.08-4.8,1.78,2.95-3.57,2.95-3.51,1.11-5.78-1.48-5.29-4.06,1.78-2.95,3.94-4.43,1.35,2.95,3.08-4.8.92-2.58,4,1.85-4.92,1.48-4.86-5.54-.43-5.9.43-4.8,1.35-2.95,3.07,4.06,1.78-3.32,2.64,3.69,2.64,5.54.49,2.58,3.51h-5.54l-3.32-3.51-3.69-2.21-3.32-3.14-5.54.43,1.85,4.92,5.17.86-5.17.43-4.06,2.21-2.21-4.43-3.69-2.64-2.95,3.08-.74.49-2.21,3.07,3.69,2.64-5.53.43-5.17.92-3.69,2.64,3.69,2.64-3.69,2.21,4.06,1.78-5.54-.86-4.8,1.29,4.06,1.78,5.17,1.35-5.9-.49-4.8-1.29-5.54.43-5.17.86-4.43,1.78-1.84,4.86,5.9-.43,4.8-1.29,4.43,1.72,4.43-1.29,5.17-1.35,3.32,3.14h-5.54l-5.17,1.29,3.32,3.14-4.43-1.78h-5.54l-4.8-1.78h-5.54l-5.17.86,4.06,1.78,3.69,2.64,4.06,1.78-4.8-1.29-4.06-2.21-4.8-.92,3.69,2.64,4.8.92-5.17.86,4.43,1.78-3.69,2.21-3.32,3.08,4.8,1.35-5.17-.86-2.58-3.57-2.21-4.86-4.06,2.21-4.43,1.29,1.85.49,5.17.43-2.95,3.51-4.8-1.29-5.17.86-4.43,1.78-5.17-1.35-3.69,2.21-1.84.92h5.9l-4.8,1.78,4.8,1.29,4.06-1.78,4.06-1.72,5.17.86,4.43,1.35-5.17-.92-4.43,1.35-4.06,1.78,5.17.43-4.43,1.78,4.43,1.29,5.17-.43,5.17-.86-4.8,1.29-3.32,2.64,3.32,3.14-3.69-2.64-4.06-2.21-4.43,1.72-4.8-1.29,4.43-1.78-5.17-.43-4.06,1.29,4.43,1.78-5.54.43-3.69,2.71-3.69,2.21h5.54l5.17-.49,5.17-.86,4.43,1.78,5.54.43,5.54.43h-5.54l-5.9.43-5.17.49-5.17-.92-5.54.43,4.8,1.35-5.9-.43-4.43,1.29,4.8,1.35h-5.54l-3.32,3.08-5.17.92-5.17-.43,2.58,3.94h-5.9l4.06,1.78-4.43,1.35-5.17-.92,4.43,1.78h-5.54l3.32,2.64,4.43-1.29-4.06,2.21-4.06,1.78-4.06-1.78-1.48,4.86,4.06,1.78,4.8-1.35-4.06,1.78-4.06,2.21,4.8-.86,5.17-.49,5.9-.43,4.8-.86-3.32,2.64-4.43,1.78-4.06-2.21-4.8.86-4.8,1.35-5.17.43,5.17,1.35,2.21,3.94-5.54-.43-4.8.92-2.21,4.43,3.32,3.08-4.43-1.78-4.06,1.78,3.69,2.64,3.32,3.14-3.32,3.08-4.43,1.35,4.8.86-3.69,2.64,5.54-.43,3.69-1.78-3.32,2.64-4.06,2.21-5.17.92-5.54.43-5.17.86-4.06,1.78-5.17.92,5.17.43-4.8.86-3.32,3.14,4.43-1.35,4.06-2.21,4.8-1.35,4.43-1.29-4.06,1.78-4.43,1.72-3.69,2.71,2.95,3.94-3.69,2.71-2.95,3.51-4.8-1.29-2.58-4-3.32,3.08-5.17.43,3.69,2.21-4.43-1.29h-3.32l-2.58,4-3.69,2.21-3.32,3.08-3.32,3.07,5.17,1.35-4.8.86-4.43,1.78-4.8,1.35,3.69,2.64,4.8-1.35-3.69,2.21,2.58,4,5.17.43,4.8-1.29,4.43-1.35,4.06-2.21,4.8-1.29,3.69-2.71-4.06-1.72,3.69-1.78,4.06-2.21,5.9.43-4.43,1.78-4.06,2.21,5.17.43-2.58,4-5.54.43-3.69,2.21,1.84,4.43-5.54.43h-11.07l1.85,4.43-4.8-1.29-5.17.43-.74-6.21-4.06-2.21-4.06,1.78-5.17.86,4.06,1.78-5.17.86,4.43,1.78-4.43,1.35-3.32-3.14-4.8.92-4.06,2.21-4.8.86,3.32,2.64h5.54l-5.54.49-4.43,1.29-5.54.43,2.95,3.14h5.54l2.21,4.43-5.17-.92-3.69-2.21-3.32-3.08-4.8,1.35,4.06,1.72,2.58,4,4.43,1.78,3.69,2.21-4.43-1.35-4.43-1.72-2.21-4-5.54-.43-5.54-.49-5.53.49-4.8-1.35-4.43,1.35,3.32,3.07-4.06,1.78,4.8,1.29,5.17-.43,5.17-1.29-4.8,1.72,5.17.49,5.17-.92,5.17-.86-4.8,1.29-5.17.92-2.95,3.51h5.54l-4.43,1.78-4.43-1.78-4.8-1.29-5.17-.92-5.54.49-5.17.86-5.54.43,4.43,1.78,5.17.86h-5.54l-5.17,1.35,4.8.86,5.17-.86,5.54.43,2.58,3.57,5.17.86,4.8,1.35-5.54-.92-3.32,3.14-2.58-4.43-3.32-3.14-5.54.49-3.32,2.64,2.95,3.08-3.32-2.64-4.8-1.35-4.43,1.78,1.85,4.86,4.8.92-5.54.43-4.8,1.35-1.85-4.43h-5.9l-3.69,2.21-3.69-2.71h-2.58l3.32,3.14,4.06,1.78-4.8,1.29,4.8.92,5.54.86,5.9-.43,4.43,1.78,5.53.43,5.17-.92h5.9l-5.54.92-4.8.86-5.54-.43-4.06,2.21-4.06-2.21-4.43-1.78h-5.53l-3.69,2.64-4.8,1.35,3.32,3.57,5.17-.49-5.17.92h5.54l-4.43,1.78,4.06,1.72,5.17.92-5.17-.43-5.54.43,4.06,2.64,5.54-.43-5.17.86-4.8,1.35,3.32,3.08,2.95,3.14,4.43-1.35,5.17-1.35,5.54-.43,4.8.92,4.8,1.29,2.58-4,3.69-2.64,1.85,4.86h11.44l1.85-4.86,3.32-2.64-2.58,3.57,2.95,3.08,5.17-.86-4.8,1.29-4.43,1.78-5.17.86,2.21,4.43-5.9-.43-1.48-4.86-5.17-.86-4.06,2.21-4.8.86-4.06-1.78h-5.54l-5.17.43-4.43,1.78-5.17-.86-5.53.86,2.58,4,4.06,1.78,4.06-1.78-3.32,2.64,2.58,3.57-4.43-1.78-4.8-1.35,3.32,3.14,3.32,3.07,4.43-1.29,3.32-3.14.37,1.78.74-.43-.37,1.78.74,1.72-1.11,1.35v.86h-.37l-1.11,1.35-4.43-1.35-4.06,2.21,1.85,4.92,5.17-.49,2.95-3.51-2.21,4.43,4.06,2.21,4.43-1.35,4.06-2.21,2.58-3.51,4.8-1.35,4.43-1.35,5.53-.43,3.32-2.64-3.32,3.07-3.32,2.71-2.58,3.94-1.11-5.29-4.43,1.78-3.32,2.64-2.21,4.43-3.69,3.07-3.69,2.21,2.21,4,5.54-.43,4.43-1.78-4.06,2.21-4.8,1.35-4.43,1.29-5.17,1.35-2.58,3.57,1.85-4.43-4.43,1.29-2.95,3.14,1.85,4.43,4.06,2.21,3.32-3.14,4.43,1.35,1.11-5.35,4.43,1.78,4.8-1.29,2.58-4,3.69,2.64-4.43,1.35-3.69,2.64,2.95,4-4.06,2.21-3.32,2.64,1.48,4.86,4.43-1.78,4.8-.86,5.17-.92-4.8,1.35-5.17.86-2.58,4-3.69-2.64-4.8,1.35-2.58-3.57-1.85,4.86-1.84,2.64,2.95,3.57,3.32,2.64,4.8,1.78,3.32,2.64,4.43,1.78,4.8,1.35,4.43-1.35,4.8,1.35-4.06,1.72,2.58,4,4.06-2.21,4.43,1.78,4.43,1.78h5.53l4.43-1.35,4.43-1.78,5.17-.43,4.06-2.21,4.06-1.78,4.06-2.21,3.32-3.08,3.32-3.07,4.06-1.78,3.69-2.64,4.06-2.71,3.32-2.64-1.11-5.29,4.43,1.78,3.32,2.64,4.43-1.78,3.69-2.21,3.32-3.57,3.69-2.21-2.21-3.94-4.06-2.71,3.32-3.08-4.06-2.21,4.43,1.35,2.58,3.94-.74-6.15,2.58-3.57,2.95,3.57-1.48,4.86.37,6.64,2.58,3.51,3.69,2.21,5.17-.86,4.43,1.78,1.85,3.51-2.95-3.08-4.06,1.78,1.85,4.86,1.11,5.78v6.64l4.06,1.72,4.43-1.72-2.21,3.94,4.8-.86,3.69,2.64-2.21,4.43-1.84,4.86,1.11,5.78,3.69,2.21.74,6.21,4.06,1.78,2.21,4.43,2.58,3.94,2.58,4,4.06,2.21,2.21,4,4.8,1.35-1.48,5.29-4.8.86,3.32,2.71-4.8,1.29,1.48,4.86,2.95,4,2.95,3.14,2.95,3.51-1.85,4.43-2.21,4.43,1.48.43,4.8.92,5.17.86,4.43-1.29,4.8-1.35,5.54-.43,4.8,1.78,3.32-2.71-.74-6.15.74-5.78,3.69-3.08h5.54l1.84-4.43h11.44l5.9.43,4.8-.92,3.69,2.71,2.95-3.57,2.58-4,1.85-4.43,2.58-4.43,2.95-3.08,1.84-4.86,2.21-4-2.21-4.43,2.21-4.43,1.85-4.43-.74-6.21-3.69-2.64,3.69,2.21,2.21,1.29-3.32-3.08,4.8-.86-3.32-3.14,1.11-5.29,2.95-3.57-3.32-3.07-4.8-1.78,5.17.86,4.8-1.29-2.58-3.57-5.17-.43h-5.54l5.17-.43,5.54.43,5.54-.43,3.69-2.64,5.17-.49,2.58-3.94,3.32-3.14,2.95-3.51.74,6.15,4.43-1.72,3.32-2.71,4.8-1.29-.74-5.78,5.54.43-4.06-2.21-4.8,1.78-5.17.43-4.43,1.78-4.8-1.29-5.54.86-2.95-3.57-4.8-1.29-4.43-1.35-5.54.43h-11.44l4.8-1.29,5.17-.92h5.54l4.43-1.29,5.17.86,4.43,1.35,4.8-1.35,4.06,2.21-1.85-4.86-3.32-2.64,4.43,1.29,3.69,2.71.37,6.15,5.17.92,2.95-3.14,5.17-.43,4.06-2.21,3.69-2.21,3.69-2.64,4.8-1.35-5.17-.43,4.43-1.29-3.32-3.14-2.21-4-4.43-1.72-4.8-1.35-1.85-4.43-4.43-1.78-3.32-2.64-3.69-2.64-3.69,2.64-2.58-4-5.54.43-4.06-1.72,2.21-4.43-2.95-3.14.74-6.21,2.21-3.94h-.37l-3.69-2.21,1.85-4.43,1.84-4.92,3.69,2.21-1.48-4.86,1.85-4.86,1.85-4.86-1.85-4.86-2.58-4,5.54.86,4.43-1.78,4.06-1.72,1.11-6.21-2.58-3.57,3.69,2.21,4.43,1.35,4.43-1.78,3.32-3.07-5.17-.92,4.43-1.78,3.32-2.64,4.06-2.21,5.17.92,2.95-3.57,2.95-3.57,5.17.92,5.17-.92,2.95-3.51,4.43-1.35,4.8-.86,4.43-1.78,3.32-2.64,4.43-1.78,3.32-3.08,1.85-4.92,3.69-2.64,4.06-1.78,4.06-2.21-2.21-3.94-3.32-3.14-2.21-4.43,2.21-4,4.06-2.21,4.06-1.72-1.48-4.92-4.06-2.64,4.43,1.78,2.58-3.57,5.54-.43,3.32-3.07-2.95-3.57,4.8.92,4.8,1.29-1.48-4.86,2.95-3.07,4.43,1.72,2.95-3.51,3.69,2.64,4.43,1.78,4.06-1.78,4.8,1.35,5.17-.92,5.17.43,5.17-.86h2.58l4.8,1.35,4.8-1.35,2.58,3.57,5.17.86,4.8,1.35,3.69,2.21,1.48,5.29-1.48,4.86,2.95,3.57-4.06,1.78,3.69,2.65-5.17.43h-5.54l-5.17,1.35-3.69,2.64-3.32,2.64-2.58,4-4.06,1.78-3.32,3.08-3.32,3.07-4.06,2.21-2.95,3.14-3.69,2.64-4.43,1.78-4.43,1.78-3.32,2.64-5.17.86-3.32,3.14-2.58,3.51.37.92-4.8-1.35,2.95,3.07-2.95,3.57-4.8,1.35-4.8-1.35-5.17.86,1.85,4.43-5.17.49-1.85,4.86-4.06,2.21-2.58,4,1.11,5.29,3.32,3.08,2.95,3.57-2.58,4.43,2.58,4,2.21,4,2.21,4.43,3.32,2.64-4.8-.92.37,6.21-1.84,4.86-2.58,3.57-1.11-.43,2.95,4,1.11,5.29,1.85,4.43,5.17-.43,4.06,2.21,4.06,1.78,4.06,2.21h5.9l2.21,4.43,4.43-1.35,4.43-1.35-1.11.92-1.48,2.21,2.21,4,5.54.43-1.85,4.86-4.43,1.35-1.48.86,5.54-.43,3.69-2.64,3.69-2.21,5.17.43,5.17-.43,4.8-1.35,5.17-.86,4.06,2.21,3.32-3.14,4.43-1.78,4.43-1.29,4.8-.92,5.54-.43,3.69-2.21,3.69,2.21,4.06-2.21,2.95-3.07,4.8.86,5.17-.43,2.21-4.43,2.58,4,5.17-.92,4.06-2.21,5.9.49,4.06,2.21,4.43-1.78,4.8-1.35,4.8,1.35,4.8-1.78,3.69-2.64,4.8-.92,1.48,5.35-5.17-1.35,2.58,4,3.69,2.21,4.43,2.21,3.69,2.21,5.54.43,5.17-.43h5.54l3.69,3.08,4.06,2.21-3.32,3.14-4.8-1.35-5.17-.86-5.54-.43-5.17.43-2.58,4-5.17.86-4.43-1.35-3.32,3.14-4.43,1.29-3.32-3.08-.74,6.21-2.21,4-5.54.43-5.54-.43h-11.44l-4.8-1.35-4.06-2.21h-5.9l-5.54-.43-5.54-.92-4.43-1.29h-5.54l-2.21,4v.86l-5.17-.86-5.9.43-4.06,1.78h-5.9l-5.17.86-5.54.43-2.95,3.57-4.8.86-5.9.43-1.11,5.35,4.43,1.29-4.43,1.35,1.84,4.43,5.17-.43-4.43,1.29,1.11,5.78,2.58,4,4.06,2.21,4.43,1.78,4.8-.92,4.06-2.64.37,6.21-1.48,4.86-2.21,4.43v3.08l1.48,4.92,1.11,5.72-1.85,4.86-3.69,2.21-4.06,2.21-4.43,1.35h-5.54l-4.43-1.78-3.69-2.21-1.48-5.29-3.69-2.21-3.69-2.64-3.69-2.21-2.95-3.57-5.54-.43-4.43,1.78-4.43,1.29-5.54.43-2.95,3.14-2.95,3.51-1.48,4.92-1.48,5.29-3.69,2.21-3.69,2.64-.74,6.21,1.48,5.29-2.21,4,1.48,4.86v7.13l2.21,4.43,1.85,4.86,1.11,5.29-1.85,4.43,1.11,5.35-3.69,2.21-5.54-.49-5.17-.43,2.21-4,3.69-2.64,2.95-3.51,2.21-4,.74-5.78-1.48,4.86-2.21,4.43-2.95,3.14-3.32,3.07-3.32,2.64-4.43,1.78-5.9-.43-4.8,1.35-.37,6.15-2.95,3.57-3.32,2.64,2.58-1.29,3.32-2.71,3.32-3.08,5.17.86-2.95,3.14-4.06,1.78-4.06,2.21-3.69,2.64-4.43,1.29-4.43.49,4.06-2.21,4.06-2.21.74-.92-4.06,2.21-5.17.92-5.54.43-5.17-.92-4.43-1.29-1.48-5.35-2.58-3.08h5.17l-4.06-1.78-4.43-1.29h-5.9l-5.17.43-4.8.86-5.17.92-4.8,1.29-4.06,1.78-4.43,1.78-5.17.43-3.69,2.64-3.32,2.64-3.69,2.21-4.8,1.35-4.8.86-5.17,1.35-4.8.43-4.8,1.35-4.43,1.29-4.8,1.35-4.8,1.35-4.06,1.72-3.32-.43-3.32-2.64-4.06-2.21,3.32,2.64-2.95,3.14,5.17.43,4.43,1.78,4.43-1.35,1.48,5.29-5.17-.86-4.43-.86-5.17-1.35-1.48-4.43-2.21-4.86-1.85-1.78-4.8,1.35-4.43-1.78-4.06-2.21-2.58-3.14-5.17.49-5.17-.49-4.06,2.21,3.69-2.64,5.17-.43-4.8-1.35-4.43,1.78-2.95,3.14-3.69,2.64-5.17.86h-5.54l-2.95,3.57-2.58,3.51-4.8-.86-4.43-2.21-3.69,1.78-3.32-3.14,4.06-1.72,3.69-2.71-2.21-4.43-4.43,1.35-4.8-.86-4.43-1.35-5.17.86-3.32-3.08-1.11-5.29h-2.21l-.74-2.71-4.8-1.29-4.06-1.78,5.54.43-2.58-4-4.8-.86,2.58-4,1.84-4.43,1.11-5.72,3.32-2.71-3.69-2.64,5.17.92,1.84-4.92,5.9.49,1.11-5.35,2.58-4,4.06,2.21,4.43-1.29,2.58-4,1.11-5.29-4.8-1.35h-5.54l-4.8-1.35,1.48-5.29-.74-6.21-4.06-2.21,4.43,1.78,2.95-3.57,3.32-3.51-.37-6.21-1.48-5.29,3.69-2.21h-2.58l-4.06,2.21-4.43,1.72-5.17.49-3.32,2.64-2.95,4-2.95,3.08-4.06,1.78-5.54.86h-5.54l-4.8.92-4.43,1.72-3.69,2.71-1.11,5.29,4.06,1.78,2.21-4,3.32-3.07,4.43-1.35,4.43-2.21,4.06,2.21,4.43-1.35,5.17-.86,5.53.43-5.17.92-5.17.43-4.8,1.29-2.21,4.43,1.85,4.92-4.43,1.72v-6.64l-3.32,3.14-4.06,1.78-4.06,2.64-5.17-.92-5.17-.43-.37,6.64-.37,6.21,4.06,2.21,1.11,5.29-4.06-1.72.37,6.15-1.48,4.92h5.54l3.69,2.21,3.32,2.64.74,6.64-4.8,1.29,4.06,1.78.37,6.21,3.69,3.07,2.58,3.57-2.21,4-4.8,1.29,3.32,2.71,2.21,4.43,3.32,2.64,2.58,4,4.8.86,2.95,3.57,2.95,3.07,4.43,1.78-4.8-1.35-2.95-3.08-2.95-3.57-5.17-.43-5.17.86-4.06-1.72-3.32,2.64v6.64l-1.11,5.72-1.11-5.72-4.43-1.35-1.11,5.78-3.69-2.21-1.11-5.78-5.17-.43-4.8.43h-5.9l-4.06,1.78-2.95,3.57,1.84,4.43,5.17.86-3.69,1.78-4.43-1.78-2.95-3.07-4.8-.92-5.17.92-5.17.43h-5.54l-1.85.43h-.37l-4.43,1.78-4.06,1.78-3.32,3.07-3.32,2.64-3.32,2.21,5.54-2.64,1.11,1.78,1.85,4.86,2.58,3.57,3.32,3.08,1.11.86,1.48.49-.37.86,1.11.86-2.95,3.14-4.06,2.21-3.69,1.29,2.95-2.64,4.43-1.29,2.21-3.57-1.11-1.35-1.85-.43-4.8,1.35-3.69,2.21-2.95,3.51,4.06,2.21-4.43-1.29-2.95-3.57-1.11-5.29,2.21-4-1.48-5.29-2.95,1.29-4.43-1.78-1.85,4.92-1.11,5.72-1.48,4.86-2.58,4-2.58,3.57-3.32,3.08-4.43,1.78v4l-3.32,1.78,1.85-.49,2.21-.86,3.69,1.78,3.32,2.64-5.54.43-4.06-2.21h-2.58l1.85-.86-.74-.43-.74.43-3.69,2.21,4.8,1.29,3.69,2.21,2.95,3.57-3.69-2.21-3.69-2.64-5.54.43-4.06,1.78,3.69,2.64,4.8,1.35,4.06-1.78,4.8,1.29,2.95,3.57-4.06-2.21h-5.54l-5.17-.43-5.53-.43-4.43,1.29-4.8,1.35-4.06,2.21-4.06,1.78-4.06,1.72-4.43,1.35-4.8.86-5.17.49-4.8,1.29-3.69,2.21v7.07l-.37,6.21.74,5.78-3.32,2.64-3.69,2.64-4.06,1.78-4.8,1.35-4.8.86-4.43,1.35-4.43,2.21-4.06,1.72-.74,5.78,4.8,1.35-4.8.86-3.69,2.21-4.8,1.35-3.32-1.35-5.17-.43-5.54-.43-4.8-.92-4.43-1.78-.74-5.72-4.8-1.35-4.8,1.35h-5.9l1.48,5.29,2.95,3.14,2.21,4.43,1.84,4.86-.74,6.21,1.11,5.29-5.17.43-3.69-2.64-2.21,4.43-4.8-.86-2.95-3.14-1.11.92-4.43,1.72-4.06,1.78-2.95-3.51-2.95-3.14-3.32-2.64-5.17.43-4.8,1.35-3.32,3.07-4.43,1.35-3.69-2.21-4.06,1.78-5.54.43-4.43,1.78-4.06,2.21,2.21,4.43,4.8-.92,4.43-1.29-2.21,3.94-5.17.49,4.8.86,2.58,4h-5.54l-4.8,1.29,5.17.92,3.32,3.07,2.95,3.14,2.58-3.57,4.8.86,3.69,2.71,5.17.86,4.06,1.78,4.8-1.35,1.48,5.35,4.8-1.35,5.17.86-4.8.92,4.8,1.29,5.17.49.74,6.15h5.53l4.43-1.29,3.69,2.21-4.43-1.35-2.21,4.43,3.32,3.14v.43l-2.58,3.51,2.95,3.14,2.95,3.51,2.58,4,3.69,2.21,3.69,2.21,4.8,1.35,2.21,4,2.21,4.43-1.85,4.43,2.95,3.51-4.06.43,3.69,2.21,3.69,2.71,2.95,3.08,1.48,5.29,1.84,4.92,1.48,4.86-2.21-4-2.21-4.43-1.48-4.86-3.32-2.64-3.69-2.71-1.48,5.35-.74,5.72-.74,6.21-.74,5.78,4.06,2.21-3.69,2.21-1.11,6.21-.74,5.72-1.11,5.35-1.48,5.29-1.11,5.29-2.58,4-4.43,1.78-2.58.43-4.43,1.35-5.54.43-4.43-1.78-5.17-.86-4.43-1.35-4.06,2.21-4.43-1.29-4.43-1.78-4.8-.92-5.17.49-4.8,1.29-4.43.92-5.54.43-4.06-.43-4.43-1.35-5.17-.43-4.8-1.78-5.17-.43-5.17-.43-3.69-2.71-3.69,1.78-5.9.43-4.8.92-5.9-.43h-11.07l-3.69-2.21-4.06-2.21-4.06-1.78-5.17.43-.37.86-3.32,3.14-4.06,1.78-1.85,4.86-4.43,1.29-4.43,1.78h-5.54l-3.32,2.64-3.69,2.71-1.48,5.29,4.06,2.21,3.69,2.21-.74,6.21,4.8-1.35-2.58,3.57,3.69,2.64-2.58,3.08,4.8-.86-3.69,2.64-2.21,4,3.32,2.64-.37,1.35-2.95,3.51,1.48,5.35,1.11,5.72,1.48,5.35,1.48,4.86-.74,5.78-1.48,5.29,3.69-2.21-3.32,2.64-1.48,4.86-1.48,5.35-.74,6.21-1.84,4.43-1.85,4.86-1.84,4.86-1.84,4.43-3.69,2.64-1.11,5.35-.74,5.72-1.48,5.78,4.06.86,4.8-1.29,2.21-4.43,2.58-4-1.11,6.21-2.58,3.51-3.32,2.64,2.21,4.43,4.06-1.72,4.43-1.78,2.21,4.43-4.8-.92,1.85,4.43-.74,6.21.37,6.21v6.64l-.37,6.64-1.84,4.86-.74,5.78,4.06-2.21,4.8-1.35,4.8.92,5.17.86,4.43,1.78,4.8-.92,3.69-2.64,4.06-1.78,4.43-.43,5.54.43,3.32-2.64,1.85,4.86,3.69,2.21,3.32,2.71,3.32,3.07,3.32-2.64-2.95,3.08-1.48,5.35,2.58,3.51,2.21,4.43,2.58,3.57,4.43,1.78,3.69,2.64,5.17.86,3.69-2.21,1.48-4.86,2.58-4,4.8-1.29,5.17-.49,4.06-2.21,3.32-3.08v-.43l5.17-.92,5.17-.43h5.53l5.54.43,5.17-.86,5.17-.43,5.17.86,5.54.43,3.32-3.08,5.17.43,5.17.43,2.58-3.51,2.58-4.43,1.48-4.43,2.95-3.57,4.06-2.21,2.95-3.07h5.53l5.17-.43,4.8-1.35-.74-5.29,1.48-4.92,1.11-5.72,2.58-4,2.95-3.07,3.69-2.21,4.43-1.78,3.32-3.14,2.58-3.51-4.43-1.78-2.95-3.07-2.58-4-1.48-5.35-.74-5.72,2.21-4,2.21-4.43,2.95-3.08,2.21-4,2.95-3.57,3.32-3.08,2.58-4v-.43l2.21-4,4.8-1.35,3.32-3.07-2.21-4,2.95-3.51,4.06-2.21,4.43-1.35,4.8-1.35,4.8-.86,4.8-1.35,4.8-.86,3.32-3.07,3.32-2.71,4.06-2.21,4.06-2.21,4.06-2.21,3.69-1.72,3.69-2.71,1.11-5.72-1.84-4.86,4.06-2.21-3.32-3.14-1.85-2.64-1.84-4.43.74-6.21,1.85-4.86,2.58-4,3.69-2.21,4.06-1.78,4.06-2.21,3.32-3.07-3.69,2.64,3.32-3.08h5.54l3.69,2.64,5.54.43,3.32,2.64,2.21-4.43,4.06,2.21,3.32-2.64,4.06,1.78-2.95,3.57,5.54-.49,2.21,4,5.17.92,3.32,3.08,4.8-.86,5.54-.49,4.8-1.29,4.8-.92,1.84-4.86,4.06-2.21,3.32-3.08,2.95-2.64,4.43-1.78,4.43-1.78.74-.43,5.17-.43,4.8-1.35,3.69-2.64,2.21-4,3.69-2.21,2.58-4.43,4.06-1.78,5.17-.43,5.17.86,4.43,1.35,3.69,2.64,3.69,2.64,4.06,1.78,5.17.92,3.69,2.21,2.21,3.94.74,6.21,2.21,4.43,2.21,4,1.84,4.86-.74,5.78,5.53.43,2.21,4.43,3.69,2.21,2.95,3.57.74,5.29,4.8-.86,4.43,1.72,3.32,3.14,2.21,4h.37l4.06,2.21,3.32,2.64,2.58,4,3.32,2.64,3.32,3.08,2.58,3.57,4.8,1.29,3.69,2.21,4.06,2.21,5.17-.86,4.8,1.35,5.17.86,2.58,3.57,2.58,3.51,2.95,3.57,5.17.86.74,5.78,4.8-.92,4.8-1.29,2.95,3.51,1.84,4-1.84,4.86h.37l4.06,1.78,3.69,2.64,3.69,2.21,3.69-2.21,3.69,2.71,1.48,4.86,1.48,5.29,2.58,4,1.85,4.43.74,5.78,1.85,4.86.74,6.21-4.8.86-1.11,5.29-2.21,4.43-3.32,3.14-.74,5.72,2.58,3.57h5.54l2.58-1.35,1.48-4.86,2.95-3.51,3.69-2.21,2.95-3.14-.74-6.21,2.21-4.43,4.06-2.21,5.54-.43,2.21-4-.74-6.15-1.48-4.92-4.06-2.21-3.69-2.64-4.43-1.29.37-6.21,1.48-5.35,2.58-3.51,2.58-4,2.58-3.57,4.8-.86,2.95,3.08,4.43,1.78,5.17.92,4.8.86,2.58,3.57,1.11,5.72,3.32,2.64,4.8,1.35,1.11-5.78,1.11-5.29-2.21-4-2.95-3.51-4.06-2.21-2.95-3.14-1.48-1.29-4.06-1.78-4.43-1.78-3.69-2.21-3.32-3.08-4.06-2.21-4.43-1.35-4.43-1.78-4.06-1.78-4.43-1.72-4.06-1.78-4.06-1.78-1.48-5.78,4.06-2.21,1.48-4.86-4.43-1.29-5.17.43-5.54.43-5.54-.43-5.17-.92-4.06-1.72-4.06-2.21-2.95-3.14-3.69-3.07-2.95-2.64-3.32-3.14-2.95-3.51-2.21-4-1.84-4.86-1.11-5.35-2.21-4.43-1.84-4.43-2.58-4-4.43-1.72-3.69-2.21-3.32-2.71-3.69-2.64-4.43-1.78-3.32-2.64-2.58-2.21-2.95-3.51-1.48-5.35-.74-5.72,2.95-3.14,2.95-3.51-2.95-3.14-1.48-4.86-1.48-5.29,2.58-3.57,5.17.43,4.06-1.78,4.06-2.21,3.32-2.64,5.17-.86,4.43,1.78,4.06-2.21,1.84,4.86-2.21,1.29-2.21,4.43,1.11,5.78,2.58,4,2.58,3.51,2.95,3.14,2.95-3.57,2.58-3.51,2.21-4.43,2.58-3.57,4.8,1.35,2.95,3.51,3.69,2.21,1.48,4.86v7.13l2.95,3.07,3.32,3.08,3.32,3.14,3.69,2.21-4.43-1.78-2.95,3.08,2.95,4,2.95,3.14,3.32,2.64,3.32,2.64,4.06,2.21,2.21,4.43,4.8.86h5.54l4.8,1.35,4.43,1.78,4.06,1.78,3.32,3.07,3.69,2.21,3.32,3.08,3.32,2.71,3.69,2.64-4.43-1.35-4.06-2.64-5.17.43,4.8,1.35,3.69,2.21,4.8,1.29,5.17.49,3.32,3.08,4.06,1.78,2.95,3.07,4.43,1.78,4.06,2.21,3.69,2.64,2.95,3.14,2.95,3.07,2.58,4,4.06,2.21h2.95l1.85,4-1.48,5.29-2.95,3.08,2.95,3.57-1.48,5.29,1.48,5.35-3.32,3.08.37,6.21,2.21,4-2.21,4.43,3.32,2.64,4.06,2.21,4.06,2.21,1.85,4,1.48,5.72,3.69,2.71,1.48,5.29,2.58,3.57,4.06,2.21,2.95,3.07,2.95,3.57,4.06-1.78,2.58,4-4.43-1.35-2.95,3.07,3.69,2.21,2.95,3.57,1.85,4.43,1.85,4.86,1.48-.86,4.43-1.78,5.17.86,4.8-.86,5.9.43,4.8.92,4.8-.92,4.43,1.35,3.32,3.07,4.8.92,3.32,3.07h-5.53l-3.69,2.21-3.69-2.21-4.43-1.78-4.8-1.29-3.69-2.21-4.43-1.78-3.69,2.21-3.69,2.64-4.8-.86-1.48,5.29-4.43,1.78,2.58,3.51,2.58,4,3.69,2.64,2.95,3.14,1.11,5.72-2.21,4,1.85,4.43,1.85,4.43,4.43,1.78.37-6.64,5.17-.86,2.21,3.94,2.21,4.43.37,6.21,2.95,3.14v-4l1.11-5.35,3.69-2.21,2.95,3.14,2.95,3.07,5.17.92-2.95-3.14v-7.07l-1.11-4.86-2.58-4.43-2.21-4-.74-5.78,4.43,1.35,3.69,2.21,1.84,4.43,2.95-3.07,3.69-2.71-4.43-1.72-2.21-4.43-.74-5.78,4.43-1.78,5.54.43,4.06,2.21,3.32,2.71,2.58,3.94,1.85-4.86v-.43l-1.11-5.29-.37-6.21-4.06-2.21-4.43-1.78-3.32-2.64-4.06-1.78-3.69-2.64-3.32-3.14-4.8-.86-3.69-2.64,4.8-1.35,1.11-5.29-2.58-4,3.69-3.08,4.06,2.21,1.48,4.86,2.58-4-2.58-4-2.95-3.51-3.69-2.21-1.48-4.92-2.95-3.07v-.43l-2.95-3.14-.37-6.64v-6.64l3.69-2.64,4.8-.86-1.48,5.29,3.69,2.64,4.43,1.78,1.85,4.43,2.95,3.57,5.17-.43-4.06-1.78-.74-6.21,4.8.86,2.95,4,5.17.43-3.69-2.64-3.32-2.64,3.32-3.08,4.06,1.72,4.06,2.21,4.43,1.35-2.95-3.07-4.06-1.78-4.8-1.35-1.48-4.86-2.58-4,4.06-1.78,4.43,1.78,4.06-1.78,2.95-3.51,5.17-.43,4.06,1.72,4.06-1.72,3.69-2.21,4.06,1.72,5.17,1.35,4.8.86,5.53.49,2.95,3.07.74,3.07,5.17.92h5.54l4.43,1.78-4.06,1.72-4.06,2.21-3.32,2.71.37,6.64,2.58-4,3.69-2.64,2.95-3.14,3.69-2.64,4.43-1.35,4.06-2.21,3.69-2.21,2.95-3.51,1.84-4.43,5.17-.92,4.8,1.35,3.69-2.64h5.54l5.17-.43,2.95,3.07h5.54l3.69-2.64-1.48-5.35-4.43-1.29-4.43-1.78-4.06-1.78-4.06-2.21-3.32-3.08-2.21-4-.37-6.64-.37-1.35-2.95-3.51-2.21-4.43-2.95-3.14-4.06-1.72,4.06-2.21,1.84-4.43,3.69-2.21v-6.64l1.48-5.35,2.95-3.08,4.06-2.21h5.54l2.95-3.14-.74-6.64.74-3.51.74-6.21v-6.64l3.32-3.07,2.58-4-3.32,3.07,1.85-4.43,2.58-4-1.84-4.43,4.06-2.21,2.21,4.43-3.32,2.71,4.8-.92,5.17-.86,4.8-.92,1.11-5.72v-4.86l2.21-4-3.32-3.14-.37-6.15,4.43,1.72,2.58-3.94,4.43-1.35h1.48l3.32-2.64,2.95-3.57,3.32-3.07,2.58-3.57,2.58-3.51,2.21-4.43,4.06-1.78,3.69-.43h5.54l2.58-4,2.95,3.08,5.17.43.74-5.72-1.48-4.86-1.48-5.35,2.58,3.57,2.58,4-1.48,4.86,2.21,4,5.17.86h5.9l-2.95,3.57-5.17-.92-5.17-.43-4.8-.86-5.17-.92,2.95,2.64,5.54.49,4.43,1.72-4.43,1.78,3.69,2.64,4.06,1.78,3.69,2.21,5.54.43,5.17-.86,5.17-.86,4.43-1.35,3.32,3.07,4.8-1.29,1.85,4.43-2.21,4-4.43,1.72-4.43,1.35-4.43,1.78-3.69,2.21-4.06,2.21-3.69,2.21,2.95,3.51,4.8-1.29,4.43,1.78,3.32,2.64,5.17.43,4.06,2.21,1.85,4.86-2.58,4.43-1.11,4.86,2.95,3.57,3.32,2.64h5.54l4.43-1.78,3.69-2.64,2.58-3.51,3.69-2.21,4.43-1.78,5.17-.92,4.43-1.72,4.43-.92,2.58-4.43h5.53l3.32,3.14,4.43-1.78h5.9l2.95-3.14,1.85-4.43-2.95-3.94h-5.17l-3.32,2.64-3.32-3.14-2.95,3.57-4.43,1.35-4.43-1.78-2.95-3.14-2.95-3.51-2.58-3.57-2.21-4.43-1.84-4.86,1.48-5.29,4.43-1.35,2.95-3.07-.37,6.15-4.06,1.78,4.43-1.29,1.85-2.71,2.95-3.51,3.69-2.64,3.32-2.71,4.06-2.21,4.8-.86,4.43,1.78,3.32-3.14,4.8-1.29,4.43,1.29,3.32-3.07,4.06-1.78,5.9-.43,2.58-3.07,4.8-1.78,5.17-.43,5.17.43,4.43-1.35,4.43-1.29,4.06-2.21-3.69,2.64h5.54l4.8-.92,3.69-2.64,4.43,1.78-.74,5.78-5.54.43-4.06,2.21-4.06,1.78-5.54.43,2.95,3.51-4.43,1.78-5.17-.86-4.06,1.78-5.17-.92-.74-.43,1.85,4.86,2.95,3.14,4.8.86,3.32,3.08,3.69,2.71,2.95,3.07-4.8-.86-5.17.86-1.48,4.86-1.85-4.86-2.58,3.57-1.84,4.86-3.69,2.64-1.48,4.86,2.95,2.64-3.32,2.71-5.17-.92-4.06,2.21-2.95-3.08-4.06-1.78-4.8,1.35,4.43,1.72-3.32,3.14,2.95,3.07,4.43,1.78,4.06,1.78,2.58,4,2.95,3.51,4.43,1.35,4.8-1.35,2.95,3.57,3.69,2.64,2.95,3.07,4.8.92,4.8,1.29,3.69,2.21,4.06,2.21,2.95,3.14,3.69,2.64,3.32,3.08,2.95,3.14,3.32,2.64,3.69,3.07,2.95,3.57,4.06,1.35,2.21.86,2.21,4,4.8,1.29,4.8.92,4.06,2.21,4.06,2.21,2.21,4,5.17,1.29,2.95,3.14,1.11,5.72,1.84,4.43,1.11,5.35,2.21,4.43-.74,6.15-3.32,3.14-2.21,4-3.32,2.64-4.06,2.21-4.06,2.21-4.8.86-3.32,3.14-4.8.86-4.06,2.21-4.43,1.35-2.58-1.35-4.43-.43-4.8-.92-3.69-2.64-4.8,1.78-5.17.43-5.17.43-4.8,1.35-4.43,1.78-5.17-.92-4.43-1.29-4.8-1.35-3.32-2.64-4.8,1.78-4.06-1.78-4.8-.86-2.95-4-4.06-1.78-4.8.86-4.06,2.21-3.32-2.64-3.32-3.07-1.11-5.35-4.06-2.21-4.06,1.35-5.17.86-4.06-1.72-3.69-2.21v-7.13l-4.43-1.72-3.32,2.64-4.43,1.78-5.17-.92-5.54.43-5.17-.86h-5.54l-5.17-.43-5.54-.43-4.06,1.72-4.43,1.78-4.8.92-4.43,1.29-4.06,2.21-4.06,1.78-3.69,2.64-4.06,1.78-4.06,2.21-4.06,2.21-3.32,2.64-2.58,4-4.8.86-5.54.49-4.8-1.35-4.8-.86-4.43-1.78-.37.86-4.8,1.35h-5.54l-5.17-.92-4.8-.86-5.17-.86-2.95,3.51,1.48,5.35,2.95,3.07,5.17,1.35,5.54-.49,4.43,1.78-5.53.43-5.54.49-4.8.86-5.54.43-1.48,4.86,4.43,1.35-4.43,1.78-5.17-.43-5.17-.49-5.9-.43-5.17.92-2.21-4-5.17,1.29,2.95,3.57-5.54.43-5.17-.43-2.95-3.08-4.8,1.29-5.17.43-4.06,1.78-3.32,3.14-2.95,3.07-3.32,3.07-2.58,4,.37,6.64-1.84,4.43,1.11.43,5.17-.86,4.43-1.35,5.17-.86,4.43,1.78-3.32,3.07-2.58,3.57,2.95,3.08.37,6.21,4.43,2.21-2.58,3.57-2.58,3.94,2.58,4,4.43,1.78-5.17.43-5.54.43-1.11-5.29-2.95-3.57-2.21,4.43,1.48,4.92-4.06,2.21,4.43,1.72,3.32,2.71,4.43-1.35,3.32,2.64,4.43,1.78,3.69,2.64-1.11,5.78-4.43,1.29,3.32,3.14,1.11,5.72,4.8,1.35,3.32,2.64-4.43,1.35-3.69,3.08,5.17.92,5.17.43,4.8-.43,5.54-.49,5.54-.43-3.32,3.14-3.69,2.21-4.43,1.29-5.17.92-2.95,3.08,4.43-1.35,4.8-.86,5.17.86-1.85,4.43,2.95-3.08,2.95-3.57,5.17-.43,2.95,3.14h1.84l4.06,2.64,3.69-2.64,2.21,4.43.74,5.72,3.69,2.64,4.8,1.35,4.06,1.78,4.8-1.35,4.8-1.29,4.06-1.78,3.32,2.64,1.48-5.29,2.21-4.43.37-6.64,3.69-2.21h5.54l5.17.86,4.43,1.35,4.06,2.21,4.06,1.72,4.06,2.21,4.43,1.78,2.58,3.57,2.58,4,3.32,2.64,4.06,1.78,4.8,1.72,3.32-2.21,5.17-.86h5.54l4.43-1.35,4.8-1.29,4.43-1.35,2.58-4.43,2.95-2.64,3.32-3.57,3.69-2.21,3.69-2.64,4.8,1.35,3.69,2.21,4.06,2.21,4.8.86,5.17-.86,2.21-4,4.06-2.21,3.32-2.64,3.32,2.64.74,6.21-4.06,2.21-2.95,3.08-2.58,4,2.58,4,.37,6.21-.74,1.29-1.48,4.86-1.11,5.78,3.32,3.07.74,5.78-1.48,5.29.74,5.78,1.11,4.43-1.48,4.86-3.69,2.21-2.21,4.43-.74,5.78-2.58,3.51-1.85,4.92-1.85,4.86-2.21,4-1.48,5.29-2.21,3.57-.37.43-.37,6.21-2.95,3.08-1.11,5.78-1.11,5.29-1.48,5.29-1.48,4.92-1.85,4.43-2.21,4.43-1.84,3.07-2.58,3.57-2.95,3.07-.74.86-3.69,2.71-4.06,1.72-4.43,1.35-5.54-.43-4.8,1.29-3.69-2.21-2.95,3.14-5.17.43,3.32-2.64-4.06,1.78-4.8-.49-2.95-3.51-2.21.86v-1.29l-2.88,3c2.02,11.47,6.76,22.14,9.09,33.3h.06s1.85,4.85,1.85,4.85l1.11,5.35,1.85,4.43,2.21,4.43,2.95,3.51,2.95,3.14,1.11,5.72.74,5.78,2.21,4,2.95,3.51,3.32,2.21,2.58,4,2.21,4,3.69,2.64,2.95,3.08,4.06,1.78,2.58-4,2.58-3.51-.37-6.21.74-5.29,1.48-3.57,2.21-4,.74-5.72.74-6.21,1.84-4.86,2.21-4.43,2.58-3.14h.74l-.37,5.35-1.84,4.86-.74,5.72-1.11,5.78v6.64l-1.84,4.43-1.85,4.86,1.11,2.21,4.43,1.78h5.54l2.58,3.07,2.58,4,2.21,4,1.85,4.86,2.58,4,2.95,3.08,1.48,5.35,2.95,3.51,2.58,4,2.21,4,2.58,3.57,1.85,4.43,2.58,4.43,2.21,3.94,2.95,3.57.74,5.78,4.06,2.21,1.85,4.43,1.85,4.43,2.95,3.51,1.48,4.86-.37,6.64,1.85,4.92,2.58,3.51,2.21,4,2.58,4,4.8,1.29,1.48,1.35,3.69,2.21,3.69,2.64,3.32,2.64,3.32,3.14,1.85,4.86,2.95,3.57,1.48,4.86,2.21,4.43,1.11,5.29,2.58,3.57,1.48,5.29,1.48,5.35-.37,6.64-1.11,5.29-1.11,5.29,2.21,4,1.11,5.78-.74,6.21,1.85,4.86,2.21,4,2.58,3.94,2.95,3.14,2.21,4.43-.37.86,2.58,3.57,3.32,3.08,4.43,1.35,4.06,2.21,3.32,3.08,3.32,2.64,2.95,3.57,3.69,2.64,1.48,4.86,3.32,3.14,1.48,5.29,1.48,4.86,1.85,4.43,2.58,4,.37,6.64,3.32,2.64,1.11,5.35,2.58,4.43,2.21,4,2.21,4.43,3.32,2.64,3.32,3.08,3.32,3.14,2.95,3.07.74,6.21.74,5.72,4.43,1.78,1.85,4.43,2.21,4,1.48,5.78.74,5.72.74,5.78-1.11,5.72-2.21,4,1.11,5.35,1.48,5.29-3.32,3.07,3.69,2.21,1.85,4.92.74,5.72,1.48,5.35.37,6.64,1.85,4.86.37,6.21,2.95,3.07,1.11,5.78-.74,5.72-.37,4.86,1.85,4.43,2.21,4.43,1.85,4.43,4.06,2.21,4.43,1.78,4.06,1.78,5.17-.86,4.8-.92,2.58-3.51,4.43,1.29,4.43-1.29,3.69-2.71,2.95-3.51,4.43-1.35,2.58-3.51,2.95-3.57,4.06-1.78,5.17-.86,5.17-.43,5.17.43,5.54-.43,4.06-2.21,4.06-1.78,4.8-1.35,4.43-1.29,2.95-3.57,3.32-3.08,4.06-1.78,3.32-2.64,4.43,1.29,5.54-.43,4.8-.86,4.06-2.21,2.58-3.57,2.58-4,2.58-4,1.48.49,3.32-3.14,4.06-1.78,4.06-1.72,4.43-1.35,5.17-.86,4.43-1.78,3.32-2.64,4.43-1.78,4.8-.92,4.43-1.72,4.8-.92,4.43-1.78,4.06-2.21,3.32-2.64,4.43-2.21,3.69-2.21,4.8-1.29-.37-6.64-.74-6.21,1.85-4.86,2.95-3.14,3.69-3.08,4.43-1.35,4.06-2.21,4.43-1.29,4.06-2.21,4.8-1.35,4.8-.86,3.32-2.71,4.8-1.72,3.69-2.21,5.17-.49h5.54l4.43,1.78,4.8-.86,1.84-.92,2.58-3.51,1.85-4.86-1.11-5.35,2.21-4,2.21-4.43,4.43-1.72,4.8-.92,5.17-.86,5.54-.43,4.06-2.21,2.95-3.14,1.11-5.72.74-5.78,2.58-4,3.32-2.64,4.06-2.21,4.43-1.35,5.17-.86h5.54l2.58-3.57-1.48-4.86v-6.64l-1.11-5.72,1.48-4.92,1.11-4.43.74-6.15,2.95-3.57,2.58-4,2.58-3.51,1.11,6.15,4.8.92.74-.92,2.21-4.43,2.21-4.43,1.84-4.43,2.21-4.43,2.58-3.94,2.95-3.14,3.32-3.07,3.32-2.64,2.58-4,1.48-4.86,2.58-4,1.85-4.86,2.58-4,.74-5.78-2.95-2.64-4.8-1.78-2.95-3.07-2.58-4-2.58-4-2.58-3.51-2.58-4-2.58-4-2.21-4-3.32-3.07-5.54.86-4.06-2.21-4.8-.86-4.8-1.35-4.8-.86-4.43-1.78-4.43-1.78-3.69-2.21-2.95-3.51-2.58-3.57-2.58-4-2.95-3.51-2.21-4.43-1.48-4.92-1.48-4.86v-6.64l-.37-7.07-2.21-4,2.21-4.43,2.21-4.43-2.21-4.43,2.95-3.51-2.58-4-1.85,4.86-4.06,1.78-1.11,2.21-1.48,5.29-2.95,3.14-3.32,2.64-2.95,4-3.32,2.64-2.95,3.07-2.95,3.57-2.58,3.51-3.32,3.14-3.69,2.64-3.32,2.64-1.84,4.86-4.06,2.21v6.64l-4.06,1.78-3.69,2.64-4.43,1.78-5.17.43-5.17-.86h-5.54l-5.17-1.35h-5.9l-4.06-1.72-3.32,3.07-3.69,2.64-5.17.92-5.17-.49-2.58-3.94-2.21-4-4.8-1.35-4.06-2.21,2.58-4-3.32-2.64,3.69-.86,1.85-4.86,2.21-4,.37-6.21-2.21-4-.37-6.64,2.21-4-1.11-6.15-3.69-1.78-2.58-4-4.06,1.35-2.95,3.51-1.84,4.86v6.64l-3.69,2.71.37,6.64.74,5.72,1.48,5.35-.74,2.21-2.58-4-2.58-4-1.48-4.86-1.48-5.35-3.32-2.64-2.58-3.51-1.84-4.92-1.11-5.72-2.95-3.57,4.43-1.78,1.11-5.72-3.69-2.21-1.48-5.78-1.11-5.29-4.06-1.78-3.32-3.07-1.85-4.92-4.43,1.35-1.84-4.86-3.32-3.14-2.21-3.94-5.17-1.35-1.11-5.29-1.48-5.35-2.58-3.08-1.85-5.35-1.11-5.29-1.85-2.21-1.11-5.78-2.21-3.94-2.95-3.57-1.11-5.29-2.21-4.43-4.8-.92,1.84-4.43h5.54l-1.11-5.29-2.21-4.43-1.11-3.57,5.17-.43,4.06,2.21,4.8.86v-1.29l4.43-1.78,4.8-.86-.74-5.78,2.58-4,3.69-2.64-3.32,3.08,2.58,4,3.32,2.64,5.54.92,3.69,1.78,3.69-2.21,4.43-2.21,2.95,3.08,1.11,5.78,2.95,3.07,2.58,4,2.95,3.08,2.95,3.57-.37,6.21,4.06,1.72,2.58,4,1.11,5.35,2.58,3.94.74,5.78,2.21,4.43,1.48,4.43,2.95,3.57,2.58,3.51,4.43,1.78,5.54.43,4.43,1.35,3.32,3.07,4.8,1.35,2.95,3.07,1.48,5.35,3.69,2.21,3.69,2.64,4.06,2.21,4.06,1.78,4.06,2.21,2.58,3.94,3.32,2.71,5.17-.49,5.54.49,4.43,1.29,4.43,2.21,4.06,2.21,4.43-1.78,3.69-2.64,3.69-2.21,5.17-.43,3.32-3.08,2.58-4,5.17-.43,3.69-2.71,4.06-1.72h5.54l5.17.43,2.95.43,2.21,4,2.58,4,1.48,5.29v6.64l1.48,5.29,1.11,5.78,2.21,4,2.58,4,5.17.86,4.06,1.78,5.17.86,3.32,2.64,4.8-1.29,5.54.43,5.17.43,3.69,2.64,3.69,2.21,4.43-1.29h5.9l5.17.86,4.8.92,4.43,1.29,5.54.43,2.58-3.51,2.95,3.51,4.06,1.78,4.8,1.35,4.8,1.29,4.06,1.78,2.95-3.07h2.58l2.95,3.51,4.43-.86,4.06-2.64,5.17.86,4.06-2.21,5.54-.43,4.8.86,5.17-.43,4.8.92,3.69-2.71,4.43-1.72,4.8.86,3.32-3.08,2.58,3.51,4.8,1.35,5.17.43,4.43-1.35h5.53l5.17-.86,5.17-.86,4.8.86,4.43-1.78,5.17-.86,4.8-.92,5.17,1.35-2.95-4-4.06,2.21,2.95-3.51,3.69.43,2.58,4,1.85,4.43,2.58,3.51-1.11,5.78,2.58,3.51,5.17.92,4.8,1.29-.74,5.78,2.21,4,.37,6.64,2.95,3.51h2.58l1.11,5.35,1.48-1.35,3.32,3.14,1.85-2.71,3.32,3.14.37-4,1.11,5.78,2.21-4,1.11,2.64,1.11,5.78,3.32-3.14,3.69-2.21,4.06-2.21-3.32,3.14-3.32,3.07.37,6.21,2.58,4,2.58,3.51,3.69,2.64,4.06,2.21,3.32,2.71,4.8,1.29,4.8,1.35,5.17-.92,4.06-1.72,4.8-1.35,5.54-.43,1.84-4.43-1.48,5.29-1.85,4.43-2.58,4-4.06,1.78-3.69,2.21-4.43,1.78-4.43,1.29-4.43,1.78-2.21.43-2.95-3.08-3.69,2.64,2.58,4,2.58,3.51,2.95,3.57,2.95,3.07,3.32,3.57,2.95,3.08,3.32,3.14,2.21,4,2.95,3.51,2.95,3.57,3.32,2.64,3.32,3.08,3.69,2.21,4.43,1.78,5.17-.43,4.43-1.35,4.43-2.21,3.32-2.64,4.43-1.78,3.69-2.21,1.48-.86,4.43-1.78,1.11-5.29,2.58-4.43-1.11-5.35-4.8-1.72,3.69-2.71,2.21-3.94,1.11-5.78,4.8-.86,5.54.43-4.43,1.78-1.48,5.29,1.48,5.29,2.58,3.57,5.53-.43,4.43-1.78-3.69,2.64-3.69,2.21-3.69,2.64.37,6.21,1.48,5.35,3.32,3.07,1.85,4.43-.74,5.78-1.48,5.29-1.85,4.43-1.11,5.78-1.11,5.72,1.11,5.35,2.21,4.43,1.48,4.86,4.06,2.64.37.86-3.69-2.21-2.58,4,.74,6.21,3.32-3.07.37,6.15-2.58,3.57,2.21,4v6.64l2.95,3.51-1.84,5.35,1.84,4.86,1.11,5.29,1.11,5.78,1.84,4.86.74,5.78v7.07l.74,5.78.74,5.72,1.48,5.35,1.48,5.29,2.58,4,1.48,4.86,3.69,2.21.74,5.78,1.85,4.86.74,6.21,2.21,3.94,4.8,1.35.74,5.78,2.58,3.94.74,6.21,2.58,1.78-.37,6.64,2.21,4,1.11,5.29,1.11,5.78,1.11,6.21,1.11,5.29.74,5.78,1.84,4.86,1.48,4.86,2.21,4.43,1.84,4.43,1.48,5.29,3.69,2.71,2.21,3.94,2.58,4,1.48,4.86,2.95,3.57,1.11,5.29,1.85,4.92,1.11,5.72,1.84,4.86,1.85,4.43,1.48,4.92,1.48,5.29,2.21,4,2.58,4,.74,4.43.74,4.86-1.48-4.86-1.48-5.35-.74,5.78.74,6.21,1.48,4.86,1.85,4.86,2.21,4,2.21,4.43,2.21,4,2.95,3.51,2.21,4,3.32,3.08,2.95,3.14,4.06,2.21,4.8-1.35,4.06-1.78,3.69-2.64,3.32-3.07,1.48-4.86-.74-2.21,1.48-4.92,2.21-4.43,3.32-3.08,4.8-1.35,3.69-1.72,4.43-1.78h5.54l4.06,1.78-3.69-2.21-4.43-1.35-2.58-4,1.85-4.86,2.21-4,2.21-4.43,1.85-4.86-.37-1.35,2.58-3.51,4.43-1.78,4.06,2.21,3.69-2.64-.37-6.64v-6.64l.37-6.64-.74-6.64-1.48-4.86.37-6.64,1.11-5.78,1.84-4.86,2.21-4,2.21-4.43,1.85-4.43,1.48-5.29.74-6.21,1.11-5.78.74-5.29-2.21-4-4.06-2.21,4.8,1.35-1.48-5.35-.37-6.21-1.48-5.29.37-6.64.74-5.78-1.11-.86-.74-5.78-1.11-5.72.37-6.64,1.11-5.35,2.21-4.43,1.85-4.43,3.32-3.07,3.69-1.78,5.17.92,1.48-4.92,1.48,5.35,3.69-2.64,1.84-4.43,1.48-4.92,3.32-3.51,4.8.86h5.54l4.43-1.78,3.69-2.21,2.95-3.94,1.85-4.43-2.58-3.57,1.85-4.43,2.95-3.57,3.32-2.64,4.06-2.21,4.06-2.21,3.69-2.21,2.95-3.51,3.32-2.71,2.21-3.94,2.95-3.57,3.32-3.07,3.69-2.21,4.06-2.21,1.84-1.78,2.58-3.57,2.95-3.51,2.58-3.57,2.58-4,2.95-3.51,2.21-4.43,2.58-3.57,3.32-2.64,2.95-3.57,3.32-2.64-4.06,2.21,1.48-5.29,2.95-3.57,3.32-3.07,2.21,4.43,5.54-.49,4.43-1.72,4.43-1.35,4.06-2.21-3.32-2.64,4.06,1.78,2.58-3.57,2.95-3.57,3.32-2.64,1.11-5.72,3.32-2.71v-6.64l-1.85-4.86.37-6.64,2.58-4,2.95-3.07,4.8-1.35,4.43-1.29,4.8-1.35,3.69-2.64,2.95-3.07,2.21-4.43-1.48-5.35-2.21-4.43,2.58,4,1.11-.43,2.95,3.07-1.48,5.35,1.48,4.86,1.11,5.72.37-6.64,1.11,5.35,3.69-1.78.37-6.64.74,6.21,1.48-5.35,1.11-5.72,2.21,4-.74,6.15,1.85,4.92,1.85-4.92,3.32,3.14.74-5.78-2.58-3.51,2.95.43,2.58,4,2.21,3.94,1.84-4.86,4.06-2.21.37-6.21,1.85-4.86v7.07l-1.11,5.35,4.06,2.21,3.32-2.64-1.11-5.78,1.11-5.78,2.21-4.43,1.11-1.29-1.85,4.43v6.64l4.06,1.78.74,6.15,3.69-2.64,1.84-4.43h.37l2.95-3.08,2.58-3.57-.37-6.21-1.85-4.86-2.58-4,5.54-.86-2.58-4v-6.64l-1.84-4.43-4.8-1.78-2.58-3.51-4.8-1.35-2.58-3.51-4.43-1.78-4.43-1.35-4.8-1.78,4.8,1.35,4.43,1.35,1.48-5.35,2.21,4.43,2.58,3.57,3.69,2.21,3.32,3.07,4.06,2.21,4.43-.86h.37l.74,1.29,1.11,5.35-1.11,5.72,2.95,3.57,4.43,1.35,4.8,1.29,5.17.92,2.95-3.14,1.48,5.35,2.58,3.51,2.21,4.43,1.48,5.35,1.85,4.43,1.11,5.72,1.11,5.35v7.07l1.85,4.43,1.48,5.29,2.21,4,2.21,4.43-.74-5.78.74,1.35,1.48,4.86,2.58,3.57,2.21,4.43,2.58,3.51,1.48-5.29,2.58,3.57,2.58,3.51-3.69,2.64,4.8-.86,1.11-5.78-.74,6.21.74,6.64,1.85,4.43.37-6.64,5.17.43,3.32,3.14,4.8,1.78-2.21,4.43,4.06,2.21,2.21,4.43,2.95,3.07-2.58,4-1.48-.43-3.32-.49-2.58-3.51.37,6.21,2.21,4.43,2.95,3.07,3.69-2.64,1.84-4.86v.86l.37,6.64,2.58,3.57,1.85,4.86,1.48,5.29,2.58,3.57,1.11,5.72.74,6.21,1.48,4.86,1.48,5.35-.74,5.72-1.48,4.92-1.48,5.72-1.11,5.35-1.48,4.86-1.85,4.86-.74,5.78v6.64l4.06-1.78,2.58-4,2.21-4,1.48-5.29.37,6.64-.74,6.21-2.21,3.94,3.69-2.64,1.85-3.51-1.85,4.43,2.95-3.14,2.95-3.08-2.21,4-.74,6.15,4.06,1.78,1.48-5.29,1.85-4-.74,5.78,2.21,3.94,1.11-5.72,1.85-4.43-.37,6.64,1.11,5.72,3.69-3.07,2.58-3.07,1.85-4.92,3.32-3.07,4.06-1.78,4.06-2.64,1.11-5.29-1.48-5.35,2.21,4.43,3.69,2.21,4.43-1.78,2.95-3.51,2.21-4,1.48-5.29-1.48-4.92.74-6.15v-1.35l2.58,4,2.95,3.51,3.69,2.71-1.85,4.43,1.48,5.29,2.21,4.43,4.06,1.78,5.17-.92-2.58,3.57v6.64l-1.11,5.29,2.95,3.57.74,6.21.74,5.72-.74,5.78,1.48,5.29.37,6.64,3.69,2.21-1.48,5.35,1.85,4.86,1.48,4.86.37,6.64,1.11,5.78.37,6.21,1.11-5.35.37-6.64,1.48,5.35,1.48,4.86,2.58,4.43,1.11,4.86,2.58,3.57.74,6.15.74,6.21.37,6.21-.37,6.21.37,7.07-2.21,4.43,1.48,5.29,3.69-2.21-1.11,5.35-.74,5.72.74,5.78-1.11,5.78-2.58,3.51-2.21,4,.37,6.21.37,6.64v6.64l3.32-3.14,1.85-4.86-1.11,4.86-1.85,4.43-2.21,4.43-.37,6.21-1.48,4.86-1.85,5.35-.37,5.72-1.48,5.35-1.11,5.72-.37,6.21,1.48,5.78,2.58,3.08,1.48-5.29,4.43-1.35,2.21,4,.74,5.78,4.43,1.72,1.85,4.92,3.69,2.21,2.58,3.94,1.11,5.35,3.32,3.08,2.21,4,2.58,4,1.85,4.86,2.95,3.07,2.58,4,2.95,3.57v.86l1.84,4.86,2.21,4.43,1.48,4.92.37,6.64.37,6.64.74,5.72-1.11,5.78,2.58,3.51,2.95,3.57-.37,6.21-.37,6.64,1.11,5.29,3.32,2.64.74,6.21,2.95,3.57,2.95,3.07,1.85,4.86,2.95,3.57,1.48,4.86-.37,6.21,2.95,3.57,2.58,3.51,4.06,2.21,3.32,3.14,3.32,2.64,2.95,3.51,3.69,2.21,4.06,2.21,2.95,1.78v.43l2.58,3.57,4.06,1.78,3.32,3.08,3.69,2.64,4.06,2.21,2.58,3.57,1.84,4.43,3.32-3.07,4.06-2.21,4.43-1.35,2.58,4,4.06-1.78-.74-5.78-1.85-4.86-1.48-4.86-2.21-4.43-1.48-5.29-2.58-3.57-1.84-4.86-3.69-2.21-2.95-3.57-1.11-5.29v-6.64l.74-6.21-.37-.86-2.21-4.43.37-6.64.37-6.64,2.21-4-.74-6.21-.37-6.64-1.11-5.29-2.21-4.43-1.85-4.43-2.21-4.43-2.95-3.57-3.69-2.64-3.32-2.64-2.58-4-2.95-3.14-1.84-4.86-3.32-2.64-3.69-.86-3.32-3.14-2.95-3.07-2.58-3.57-2.21-4.43-2.95-3.51-4.06-2.21-3.69,2.21-5.17-.92-4.06-2.21-2.58-3.51-4.8-1.35-2.21-4.43-2.95-3.07-1.84-4.43.74-5.78,2.95,3.57,1.85,4.43.37,6.15v-6.64l-.74-5.72-1.11-5.78-1.11-5.72-.74-5.78-1.85-4.86-4.06-1.78-1.48-4.86-.74-6.21-1.11-5.78-1.48-4.86-4.8,1.35-4.06,2.21h-1.48l-3.32-2.64v-7.13l-1.48-4.86-.37-6.64.37-6.64,1.11-5.29,1.48-5.35,2.21-4.43,1.84-4.86,1.48-4.86,1.48-4.86.74-5.78,1.84-4.86,2.58-4,1.11-5.72,2.58-3.57.74-6.21v-6.64l-.37-6.64,1.85-5.29.74-5.78-2.95-3.51,1.48-2.71-.37-.43,3.69-2.21,5.17-.86,4.8-.92,4.8.92,4.43,1.29-.74,6.21-.37,6.21-.37,6.21,1.48,5.29,4.06-2.21,2.58.43,4.06,1.78,4.06-1.78,4.8-.86,2.58,3.57,4.43,1.72,2.21,4,2.21,4.43,4.43,1.35,4.8,1.29,2.21,4,2.21,4.43,1.11,4.86,4.06-2.21-2.21,4,2.95,3.14-.74,5.72.74,6.21,1.48,4.86h5.17l1.48-5.29,5.17.86,1.11,5.35-2.95,3.07.37,6.21,5.17-.92,5.54-.43,5.17.92,3.69,2.64.37.43,2.58,4,1.84,4,5.54.43,4.06,2.21,1.48,4.86-4.43,1.35-1.48,4.86-.74,6.21-.37,6.64v7.07l2.21,4.43-2.21,4,4.43,1.72,3.69-2.21,3.32-2.64,2.21-4.43,2.21-4.43,3.32-2.21,4.43-2.21,4.06-1.78,4.06-1.72.37-1.35-.74-6.21-2.21-4.43-2.95-3.51,3.32,3.08,2.95,3.57,3.69,2.64,5.17-.92-1.11-5.72-2.95-3.14-2.58-3.51-2.58-4,2.95,3.57,2.95,3.07,3.32,3.08-1.84-4.86-2.58-3.51,2.95,3.08,4.43-1.35-1.84-4.43-4.06-1.72,5.17.43,3.32-3.14-4.8-.86-.37-1.78,3.69-2.21,4.8.92,4.43,1.72,5.17.49,4.43-1.78,3.32-2.64,3.69-2.71,4.43-1.29,1.85-4.43,5.17-.92,2.95-3.08,2.95-3.57,4.43-1.29,2.95-3.14,3.32-3.07,2.58-4,2.21-4-2.21-3.94,1.84-4.43v-6.64l-1.11-5.78,3.32,3.07-1.48-5.29,1.11-5.29,2.95,3.07-.74-6.21-.37-6.21-.74-.86-.37-6.21-1.84-4.86v-6.64l1.84-4.86-1.48-4.86-1.11-5.78-1.84-4.43-1.11-5.78-1.11-5.29-2.21-4.43-1.11-5.29-.74-6.21-3.69-2.64-2.95-3.14-2.21-4-1.85-4.86-2.95-3.08-2.95-3.57-2.58-4-4.43-1.29-2.21-4.43-3.32-2.64-3.69-2.21-2.58-4.43-2.95-3.14-2.58-3.51h-.37l-2.21-4-3.32-2.64-3.32-3.14-2.58-3.51-2.21-4.43-3.32-2.71,1.84-4.86-1.11-5.29-3.32-2.64-4.43-1.78-2.21-4-2.95-3.57-1.85-4.43-2.21-4.43-2.21-3.94,2.95-3.57,1.85-4.86v-7.07l1.11-5.35,1.85-4.43,3.32-3.08,3.69-2.21,2.95-3.57,4.06-1.78-.74-1.72,1.48-4.92,2.21-4.43,1.85-4.86-1.48-5.29,4.06,1.78,4.06-1.78,5.53-.43,2.95-3.14,1.48-4.86,4.43-1.78,3.32-3.07,4.8-.92.37-1.72,4.8-.92,2.95-3.51,2.58,4.43,2.95-3.57-1.85-4.43,3.69,2.64,2.58,3.57,2.58-3.57,2.58,3.57,4.43,1.78,2.95,3.07,4.43-1.35,1.48-4.86,3.69,2.64,3.32,2.71,3.32.43-3.32,2.64-1.48,5.29-1.48,4.92,1.11,5.29,1.48,5.29,2.21,4,.37,6.21,5.54.86,4.8-1.29,2.95-3.14-1.11-5.29-2.21-4.43-3.32-2.64.37-7.07,4.06-1.78.37-6.21,2.58,4,2.58-3.57,3.69-2.64-2.95,3.57,3.69-2.71,4.8-.86,4.43-1.35,4.8-.86,4.43-1.35,4.8-1.29-2.21-4.43,4.43,1.78.74-6.21,2.95,3.51,4.43,1.78,4.43-1.78-1.11-5.72,1.84,4.86,5.17-.43,3.32-2.64,4.8-1.35,1.48-5.29,2.95,3.07,2.58-3.07-1.11-5.78-2.21-4,2.58,3.57,2.58,4,4.06,1.72,1.48-4.86-1.11-5.72-2.21-4.43-2.21-4.43,2.95-3.57,2.95-3.08-.74,6.15,2.21,4,2.95,3.57,2.21,4.43,1.11-1.35h1.85l-3.32,3.14,4.8,1.29,4.06,2.21,2.58-3.51-4.8-.92,1.11-3.07,4.8-1.35,1.84,4,1.48-4.86,2.58-4,1.48,4.86,4.8-1.29,2.58-4,4.43-1.35,4.43,1.78,2.95,3.08,1.11-5.72-4.43-1.78,4.8,1.35,4.43,1.72,5.17-.86,4.06-1.78,5.17-.86,2.95-3.57,2.58-3.51-2.21-4.43,5.17-.49,2.21-4.43,2.95-3.51,5.17-.43,3.32-3.14,3.32-3.07,2.21,4.43,1.11-5.35,2.95-3.51,3.69-2.21,3.32-3.57-2.21-4.43-4.06-1.78.37-.43,5.17.92,2.21-4h5.54l5.54.43,2.95-3.57-2.21-3.94,4.8-1.78,4.43-1.35-3.32-3.08,1.11-5.78,2.95,3.14,5.17-.92-1.85-4.86,1.85-4.43,4.43,1.78,3.32,2.64v-6.64l.74-5.78,1.84-4.86-3.69-2.64-2.21,1.78-1.11.86-4.06-1.78-2.95-3.51,3.69,2.21,4.43,2.21,2.58-3.57,2.95-3.51,3.69-2.71-4.06-2.21,3.32-2.64-3.32-3.08-2.58-4,4.8-.86,2.58,3.51,2.58-4-1.84,4.92,5.53-.49-1.48-5.29,3.69-2.21.74-6.21,1.11-5.29,2.58,3.51,3.32-3.07,2.21-4,.74-5.72,2.21-4.43-1.11-5.78-3.32-2.64,3.32,1.78,4.8,1.29,1.85-4.43,2.58-4.43,3.69,2.64,3.32-2.64,5.54-.43-1.85-4.86-1.84-4.86-5.17-.49-2.58-3.94,3.69,2.64,5.17.43,3.32-3.57-3.69-2.21,4.8-1.29-3.69-2.64-2.95-3.14,2.95-3.08,4.06,2.21,1.48-5.35.74,5.78,3.69-2.21-1.85-4.43,1.85-4.86-5.54.43-4.06,2.21,3.32-3.07,2.95-3.57,3.32-3.07-3.32-2.71-4.43-1.72-2.95-3.57-2.58-3.57-4.43-2.21-4.43,1.78-3.69,2.64-4.8,1.35-2.95-3.57-5.54.49-4.43.86,3.32-3.07,3.69-2.71h5.9l5.17.49,1.48-4.92,4.06-2.21,4.43-2.21,2.95-3.07,4.43-1.35,5.54-.43-1.11-5.29-1.85-4.86-3.32-3.14-3.69-2.21-3.69-2.64-2.95-3.57-3.69-2.21-4.8-1.29-1.84-4.86-4.06-2.21-4.43,1.72-4.43,1.35-4.8-1.35-2.58-3.51-2.58-3.57-2.95-3.51,4.8.86,1.48,4.86,2.58,4,4.43,1.35,3.69-2.21,4.06-2.21,4.43.86,3.69,3.07,2.58,3.57,5.17-.43,5.53.43,3.69,2.21,4.43,1.78,1.48-5.35-2.58-3.51-3.69-2.64-4.06-2.21-.37-6.21-4.06-2.21-4.06-2.21-3.69-1.78.37-6.64-1.48-5.29-1.85-4-2.58-4.43-1.48-4.86-2.58-4-1.11-5.35-1.48-5.29-1.48-4.86-2.58-4-4.06-2.21-4.43-1.35-4.06-2.21-1.84-.86-2.95-3.07-4.06-2.21-2.95-3.14,1.11-5.72,3.69-2.21,1.48-4.92,2.95-3.51,2.21-4.43,4.06-1.78,4.06-2.21,2.21-4.43,4.06-1.78-2.95-3.51,3.69-2.71,2.58,3.57,4.43-1.78,1.48-5.29,2.21-4.43,4.43-1.35-4.8-1.29,4.06-2.21,5.17-.49,4.43-1.72,3.32-3.14,4.06,2.21,2.95-3.51,4.06-1.78,5.17-.92,2.95,3.57,3.69-2.64.37-6.21,3.69-2.64,2.21-4-4.8-1.35-5.17-.43-2.95-3.07-4.06,2.21-5.17.43h-5.9l-2.95-3.57-5.53-.43-2.58-3.07-3.32-3.57-5.17.92-4.43,1.29-4.43,1.78-1.85,4.43-3.69,2.64-4.06,2.21-1.85,4.86-1.11.92-2.95.86h-5.54l-4.8-.86-3.69-2.64-2.58-4,.74-5.78,2.21-4.43-1.48-5.29-2.95-3.14-3.69-2.64-4.06,2.21-4.43-1.78-5.54-.43-4.06-2.21-4.06-1.78-2.95-3.51-1.85-4.43v-6.64l2.58-4,1.48-4.86,3.69-2.64,5.54.43,2.58,3.51,4.8-.86,3.69-2.64h5.54l5.17-1.35,2.95-3.51,1.85-4.43,1.48-4.92,3.32-3.07,2.95-3.08,4.43-1.35,4.06-2.64,4.43-1.78,4.06-1.78,4.06-1.78,1.85-4.86,2.95-3.07,2.95-3.57,4.43-1.78,1.85-4.43,1.84-1.29h2.58l5.54.43,4.8,1.35,2.58-3.57,1.85,4.86,4.06,1.78,2.58,4,1.85,4.43-2.95,3.51-2.58,3.57-2.95,3.57-2.58,3.94-4.43,1.35-3.32,3.57-1.85,4.43,2.21,3.94,3.69,2.71,5.17-.49-3.32,2.71-1.11,5.72-4.43,1.78-4.43,1.35-4.43,1.29,1.11,5.78,4.06-2.21,5.17-.92,4.43-1.72,3.69-1.78,3.32-3.14,2.58-3.94,2.95-3.14,3.69-2.64,4.43-1.78,3.69-2.21,4.43-1.78,3.69-2.21,4.06-2.21,5.17-.43,3.32-3.07,4.43,1.78h5.54l4.06-1.78,3.32-3.14.37-2.64v6.64l4.43,1.35,1.11,5.72,3.32-3.08,4.06,2.21,4.43,1.35,4.06,2.21,2.58,3.51-1.48,5.35-1.85,4.86-2.21,4.43,1.85,4.43,4.8-1.35,3.32,2.64h-5.54l-5.17.92-2.58,4-2.58,3.51,1.85,4.43-4.43,1.35,3.69,2.21,5.54.43-2.95,3.08,2.95,2.71,5.54.43-1.85,4.86,3.69-2.64,3.32-2.64,2.95-3.57,2.95,3.57,4.06,2.21,4.8-1.35,5.17.86,4.8-.43,1.48,5.35-3.32-3.14,1.11,5.35,1.84,4.86,2.95,3.51-4.43,1.35,4.43,1.78.74,6.21-4.43-1.35-4.43-1.78-.74,5.78-1.85-4.43-1.84,4.86-4.43,1.35,3.32,3.51,4.06-2.21,1.48,5.78,1.48,4.86-1.11,5.78,2.95,3.08,4.8-.43-3.69,2.21,1.48,4.86-3.69,2.64-3.32,2.64,4.8,1.35-4.43,1.78-1.85,4.43v6.64l-2.21,4.43,1.48,4.86,4.06-1.78-3.69,2.64,3.69,2.71-4.06,2.21,4.06,2.21-.74,6.15,3.32-3.08,2.58-3.57,2.95,3.57,2.21-4.43,3.32-3.07,4.43-1.35-2.21,4,2.58,4,1.85-4.43-.74-6.21,4.8,1.29,4.43-1.29-4.06-1.78,2.95-3.07,4.8-.92,3.69,2.64,5.54-.43,4.43-1.78,2.21-3.94,4.8.86h2.58l5.17.43,2.95-3.51,2.58-3.57,2.21-4.43,1.11-5.78,1.11-5.29-3.32-3.07-.37-6.64,1.11-5.35v-6.64l-.37-6.64-.74-6.21-1.48-4.86-2.58-3.51-2.21-4.43-2.21-4-2.95-3.57-2.95-3.51-2.21-3.57-2.21-4.43-2.21-4.43-2.21-4.43-1.11-2.21-2.95-3.07-3.32-2.71-3.69-2.64-2.95-3.51-4.06-2.21-3.69-2.21-2.21-4.43,3.32-3.14-.74-6.21,2.95-3.51,4.06-2.21,3.32-2.64,4.8-.92,4.8-1.29,4.43-1.78,3.32-2.64,3.32-3.57,3.32-2.64,4.06-2.21,1.85-4.43,4.06-2.21,4.06-1.78,4.43-1.78-.37-6.64,1.11-5.29-2.21-4.43,1.11-5.78,3.32-3.08,2.58-4,2.21-3.57,3.32-3.08,3.69-2.64,4.06-2.21,3.69.43,2.21-4.43-1.48-4.86,5.17-.43,4.8.86,2.95-3.57,2.95-3.08,2.21-4,3.32-3.08,2.95-3.57,3.32-2.64-.74,5.78,4.8-.92,3.69-2.21,1.85,4.43.74,6.21h5.54l4.43-1.78,1.85,4.43,4.06-1.78,2.58,3.57,4.06-1.78,4.8-1.29,4.43-1.78,4.43-1.35,4.43-1.78,2.95-3.07,4.43-1.35,4.06-2.21,3.69-2.64,3.69-2.21,3.69-2.64,3.69-2.64,1.84-4.86,4.8-.92,1.84-4.43,2.95-4,1.48-4.43,2.95-3.08,3.69-3.07,4.06-1.78,2.21-4.86,2.95-3.57,3.32-2.21,2.95-3.57,3.32-3.07,2.58-3.57,3.69-2.64,3.32-2.64,2.95-3.57,3.32-3.08,3.69-2.64,2.58-3.57,2.95-3.51,2.95-3.57,3.32-3.07,1.48-4.92,3.32-3.07,1.48-5.29,2.21-4,1.85-4.43,3.32-3.57,2.95-3.07,3.69-2.21,1.84-4.86,2.58-4,2.21-4,2.95-3.57,3.69-2.64,3.32-2.64,3.32-3.57,3.32-2.64,3.32-3.08,1.84-4.43,1.11-5.78,2.58-3.51.74-6.21,1.48-5.35,1.48-4.86.74-6.21-2.21-4.43,2.58-3.94,3.69-2.71-4.06-2.21v-6.64l-.74-5.72,1.11-5.78,2.21-4,1.11-5.72,1.11-5.35,4.06-2.21.74-6.15,4.8-1.35,1.84-4.43,4.06-2.21.37-6.64-2.21-4-3.32-3.08,2.21-4-.74-6.64-2.95-3.07-3.32-2.71-3.69-3.08,5.17,1.35,4.43,1.29,4.06-2.64.37-4.86-4.06-2.21-4.06-2.21-3.32-3.14-4.43-1.72-4.06-2.21-3.32-3.14-3.69-2.64-1.11-5.78-4.43-1.72-4.06-2.21-2.95-2.71-4.43,1.78-4.43,1.35-5.17-.43-4.8-1.35-4.43-1.78-.74,5.78-.37,6.64-1.48,5.29-2.58,3.57-5.17,1.29,1.84-4.86,3.69-2.64,1.48-5.78-4.8,1.78-2.21,4.43-3.32,2.64-4.43,1.78-4.8,1.35-5.54.43h-5.9l2.95-3.57,3.69-2.21,2.95-3.51,3.69-2.21h-5.9l-3.69-2.21,2.58-3.57,3.32-3.51-5.17-.92-4.43,1.35-3.69,2.64,2.21,3.57-1.11,5.72-5.54-.43-3.69,2.64-2.95-3.51,2.58-4.43,1.11-5.78-1.85-4.86,2.58-4-4.43-1.78-5.17.92-5.54-.92-4.8,1.35-5.54.43-3.32-3.08-5.17-.92-4.06-1.78,1.11-5.29,3.69-2.64,4.06-2.21,4.43-1.78,4.06-2.21,4.43-1.78,3.32-3.07,2.58-3.57,4.43-1.78,4.8-.86,2.95-3.08,4.43-2.21,3.69-2.21,4.06-2.21,3.32-3.14,4.43-2.21,2.95-3.51,3.69-2.21,4.43-1.78.74-6.21,3.69-2.64,3.32-2.64,2.95-4,5.17-.92,2.58-3.51,3.69-3.14,4.8-.86,4.43-2.21,2.95-3.07,4.43-2.21,2.95-3.57,4.43-1.78,4.8-.86,2.95-3.57,2.21-4.86,1.85-4.43,3.69-3.07,3.69-2.21,4.8-1.35,4.06-2.21,4.43-1.78,3.69-2.64,2.95-3.07,2.58-4,3.69-2.64,4.06-2.21,4.43-1.78,4.43-1.78,4.8-1.35,5.17-.86,4.8-1.35,5.17.92,4.8-.92,5.17-.86h5.54l5.53.43,5.54.43h5.9l5.54-.43h5.9l5.17-.86,5.9.43,1.48,5.29,4.43,1.35,5.54-.43.74-6.21,4.43-1.78,4.06,2.21,5.17.43,5.17,1.35,5.17.86,4.43,1.35,5.17-.43,2.95-3.57,5.54-.43,5.17.43,2.58,4,5.54-.43,5.17.43-2.58-3.57,1.85-4.86,3.69,1.78,1.48-4.86,4.8-1.78,4.8-1.35,5.17.49,5.17.86,4.43,1.78,5.17.86,4.06,1.78,4.43,1.78,5.17.86,2.95-3.51,5.54.43,4.43,1.78,4.06,1.72,2.21,4.43,5.17.92h5.9l-3.32,3.08h-11.44l-5.17.43-4.8,1.35,2.21,4.43,4.06,1.78,5.9.43,5.17-.86,5.17-.49,3.32-3.07,5.54.43,4.06,1.78,5.17.86,2.21-4.43,5.17-.86,3.32-2.64,5.17-.43,4.43-1.78h.37l2.58,3.51,3.69,2.71,4.8-1.35,2.95-3.07,5.17.86,4.43,1.35,4.43-1.78,5.17.43-.74-6.21-3.69-2.64-5.54-.43-4.8-.92-4.8,1.35-5.17.43,2.21-4,.74-5.72,4.06-2.21,2.58-4,2.95-3.08,3.32-3.14,3.32-3.08,4.8-1.35,3.69-2.64,4.8-1.35,3.32-2.64,4.06-1.78,2.58-4.43,2.95-3.08,3.69-2.64,3.69-2.64,4.43-1.35,2.95-3.57.74-5.72,5.17-.92,3.69-2.64,4.8-1.78,4.06-1.72,5.53-.49,5.54.49,5.17.86,3.69-1.78,5.17.43,4.8-.86,4.43-1.78,5.17-.86,5.17.86,2.95,3.57,4.06,1.78,5.17-.49,3.32-3.08,4.43-1.78,4.43-1.78-.74,6.21-2.58,4-3.69,2.64-2.58,3.57-3.69,2.64,3.32,2.65-1.85,4.86,5.54-.43,5.17-.43-1.85,4.43-1.11,5.78,4.43-1.78,5.54.43,4.8-1.35,2.58-3.94,4.06-1.78,3.69-2.21,4.43-1.78,3.69-2.64,3.69-2.64,3.32-3.14,4.8-1.29,3.69-2.71,3.32-3.07,5.17,1.35,3.69-2.71,2.95,3.57,5.17-.86,4.43-1.35-3.69-2.64-4.43-1.78,2.21-4.43,1.11-5.78,2.95-3.07.37-6.64,5.17-.86,4.8-.92,5.54-.43,4.43-1.35,5.17-1.29,5.9.43,3.69,2.64,4.8,1.35,4.8,1.29h5.54l4.8.92,2.21.43-5.53-.43h-5.9l3.32,3.08-4.43-1.78-5.54-.43-5.17-.86-4.8,1.29-3.69,2.21-4.43,2.21-.74,5.78-.74,6.21-1.84,4.86-3.32,3.07,2.95,3.57-.74,6.21-4.8,1.29-3.32,3.14,2.95,3.51-4.06,2.21-4.06,1.78h-5.9l-5.17.92-2.95,3.08-5.17.86-4.06,2.21-4.8,1.35-4.8,1.78-1.11,5.29-3.69,2.64-4.06,2.21-4.43,2.21-2.95,3.14-3.32,3.08-4.43,2.21-3.32,2.64-5.17,1.35-3.32,2.64-2.95,3.14-4.43,2.21-3.69,2.21-3.69,2.64-1.85,4.86-3.32,3.08-2.58,4-4.06,1.78-3.69,2.64-3.32,3.14-4.06,2.21-4.43,1.72-3.69,2.71-4.06,2.64-3.69,2.21-5.17.86-5.17-.86-4.06,2.21-2.95,4-4.8.86-5.17-1.35-5.17.92,2.95,4,1.11,5.29-2.21,4-2.58,3.51-2.58,4-4.43,1.78-3.69,2.21-3.69,2.64-4.06,2.21-1.85,4.43-1.48,4.86-1.85,4.92-1.84,4.86-1.48,5.29-.37,6.21-1.11,5.29-.37,6.64.74,6.21,1.11,5.35.74,6.15,1.48,5.35,1.11,5.29,1.85,4.43,1.48,5.35.74,6.15,1.11,5.35,1.11,5.72,1.11,5.78.37,6.64,1.84,4.43,2.58,3.57,1.48,5.29,1.48,4.86,1.11,5.78.74,6.21-.37,6.15.74,5.78,3.32,3.07,2.21,4.92-1.85,4.86,3.69-2.64,3.69-2.21,3.32-3.14,4.06-2.21,3.69-2.64,2.58-4,4.06-1.78,4.06-1.72,2.58-4,3.32-3.14,2.95-3.07,2.21-4.43,2.95-3.57.74-6.15-2.58-4.43v-.49l2.58-3.51-2.58-4,2.58-4,2.95,3.14,5.17-1.35,3.69-2.64,4.43-1.35,4.8-1.29,4.06-1.78,5.17-.92,2.58,4,.37-6.64-2.95-3.51,3.32-3.14-2.58-4,1.11-5.29,2.21-4.43,2.95-3.08,4.43-2.21,3.32-2.71,4.06-2.64,4.06-1.78,4.8-1.29,5.54.43,4.06,1.78,5.54-.43,4.06-1.78,4.43-2.21,3.32-3.14-1.85-4.86-3.32-3.08-2.58-4-1.85-4.86.37-6.21,2.21-4.43,2.58-4,2.58-4,2.95-3.07,4.43-1.78,4.06-1.29,4.06,2.21,3.69,3.07,5.54-.43,3.69-2.64,1.85-4.43-1.85-4.92-.37-6.64-5.54-.43-4.8-1.29.37-6.21-1.11-5.35,1.11-5.72,4.06-2.21,3.32-3.14,2.58-3.51-2.58-4-4.8-.86-4.06-1.78-5.54.43-1.84,5.29-4.43-2.21-4.06-1.72-2.58-4,1.11-5.35,1.85-4.86,2.58-3.51,3.32-3.14,3.32-3.07,4.06-2.21,3.69-3.14,4.06-1.72-2.21-4h5.54l1.11-5.35,3.69-2.64-3.32-2.64,3.69-3.08.74-5.78-.37-.86,4.06-2.21,4.8-.92,3.69-2.64,4.8.86,5.9.49,2.95-3.57,3.69,2.64,2.95,3.14,3.69,2.64,4.06-2.21,1.48-5.35,4.43-1.72,4.43-1.78,4.43-1.78,4.06-2.21,4.06-2.21,4.06-1.78,1.11,6.21-2.21,4.43-1.48,5.29,3.69,2.71,3.69-2.71,3.69-3.08,3.32-2.64,3.32-3.14,4.06-2.21,4.8-1.29,3.32-2.64h5.9l3.69-2.71h5.9l5.17-1.29h5.54l4.8,1.29,5.54-.43,5.17-.86,5.17.43,3.32,3.07,4.43,1.35,2.21,4.43,2.95,4,3.69,2.21,3.32,3.08,4.8-.86,1.11-5.35,2.58-3.94,2.95-3.57,3.69-2.21,4.8-1.35,5.17-1.29,2.95-3.14,5.17-.86,3.32-3.08,4.43-1.78,4.8-.92-2.58-3.94,4.43,1.72,5.54-.86-4.06-1.78,2.95-3.08,5.17.86,2.95-3.51,2.21-4.43,4.43,1.72,5.17-.86,2.95-3.57,2.95-3.07,5.17-.86h5.54l2.95-3.57h11.44l2.58-4h5.9l4.8-1.29,2.95-3.14,5.54-.43,4.8-1.35,4.8-1.72,5.17-.92,4.8-1.29,3.69-2.71,3.69-2.21,5.17-.86,5.54-.43-3.32-3.14.74-5.72h.37l3.69,2.21,5.54-.92-1.85,4.92,4.43,1.72h5.54l5.54.92,5.17.86,4.8,1.35,4.8,1.29,4.8.92,5.17,1.29,2.58-3.51,5.17-.92,2.95-3.51,3.32-2.64-2.21-4.43-4.8-1.35,2.58-3.57-2.21-4.43-4.8-1.29-4.06-1.78-2.21-4.43-4.06,2.21-1.11-4.86-5.17.86,3.32-3.08,4.8-.92-1.48-5.29-3.32-3.08-1.84-4.43-2.21-4.43-2.95-3.14-2.95,3.57-5.17.86-4.43-1.78-4.06-2.21-3.32-2.64,1.11-5.29-3.32-3.57-4.43,1.78-4.8,1.35-3.32,2.64-4.06-2.21-5.53.43-4.8,1.35,4.06-2.21-2.21-4.43-4.06-1.78-4.06,1.78-4.43,1.72-5.9.49-5.53.43h-5.54l-4.8,1.78h-5.9l5.17-.49,4.43-1.29h1.11l4.43-.43,5.54-.49,5.54-.43,4.8-1.29,3.32-2.71,5.54.49,4.43,1.72,5.17-.43,5.54.43,4.06,2.21,5.17-1.29-2.58-3.57-4.06-2.21h-5.9l-5.9.43,5.17-1.29,5.17-.92,4.43,1.35,3.69,2.64,4.43,1.78,3.32,3.08,4.43,1.78,4.8.92,5.54-.49,5.9.49,5.17-.92-3.69,2.21,5.17-.86,4.06-1.78,4.8-1.78,4.8-.86,4.8-1.35,4.06-2.21,3.32-2.64,4.8-1.78,4.43-1.78,3.69-2.21,1.48-5.29,4.06-2.21-1.84-4.86-4.43-2.21-3.32-2.64v-7.13l4.43-1.72,5.54.43-1.48-5.35,5.17.92,3.69,2.64h5.9l3.32-3.08,3.32-2.71-1.11,5.78-2.95,3.57-4.06,2.21,2.21,4.43,3.69,2.64,2.95,3.07,1.85,4.43h17.71l5.17-.43,4.06-2.21,5.17-.86,5.17.43,5.17.86,4.8,1.35,4.8.86,5.17,1.35,1.85,4.86,2.58,3.57-2.95,3.51,4.06,1.78,4.8,1.78,3.32,2.64,5.54.43,4.06-2.64,3.69,2.64,4.43,1.78,4.8,1.35,4.43,1.72,3.69,2.21,2.95,3.57,4.8,1.35,5.54-.49,4.06-2.21-.74-4.43,2.21,3.57-2.58,3.57,4.06,2.64,5.54-.43,2.95-3.57,5.54.43,4.8-.86-2.58-4-4.8-1.35-5.17.92,2.95-4-2.95-3.57-4.06,1.78,3.32-2.64,5.54.86,4.43-1.72,4.8-1.35,4.06-2.21-1.84-5.29h-5.54l4.8-1.35,2.58-4-5.17-.86-1.84-4.86-4.06-1.78,5.17-.43,4.06,2.64,5.17.86,5.17.92-4.8,1.29,5.9-.43,5.17-.43,5.54-.43,4.43,1.29,3.69-2.64-4.43-1.78-4.06-2.21-3.32-3.08,4.8,1.29,4.06,2.71,4.8.86,5.17,1.35,4.43-1.78-1.85-4.86,4.06-2.21,4.43-1.35,4.43-1.78,4.8.92,4.06-2.21-4.06-2.21ZM555.6,534.1l-3.32,3.14-3.32,3.08-4.8,1.35-4.43,1.29-3.69,2.71-3.69-2.71-2.95,3.14-4.43,1.29-3.69,2.21-5.54-.43,3.32-3.07,2.95-3.14-2.21-4.43-1.11-5.29,2.95,3.57,2.21-4,2.95-3.57,4.8.92,2.95,3.51,1.85-4.43-1.85-4.86,3.32-2.64,5.53-.43,5.17-.49,4.8,1.35,4.06.43-2.21,4.86.37,6.64Zm21.4,8.43l-2.58,4-3.32,2.64-1.48,4.86-2.95,4-2.95,3.14-2.21,4.43-3.69-2.71,1.84-4.86,1.85-4.86,2.58-3.57,2.58-3.51,2.21-4.43,4.06-2.21,3.69-2.64,1.11-.49-.74,6.21Zm458.68-145.2l2.21-3.57,5.17.86,4.06,2.21,2.58,3.57,2.95,3.57h5.9l4.06,2.21-5.9.43-5.54-.92-4.06,1.78,2.58,4.43.74,5.78-2.58,3.51,1.84-4.86-1.48-5.29-2.21-4.43-4.8-1.35-2.58-3.51-2.95-4v-.43Zm-166.79-147.91l5.17-1.35,3.69-2.21,4.06-2.21,5.54.43,4.43-1.29-5.17-.43,3.32-3.14h5.54l4.43-1.78-4.06,2.21,4.8-.86,3.69-3.08-2.95,3.51-4.43,1.35.37,6.21-4.8-1.35-4.06,1.78,4.06,2.64-4.06,2.21-4.8-.86,4.06,2.21-4.06,1.72-5.17.92-4.8-1.35-4.43,1.78,4.06-2.21-2.95-3.57-5.54.49-.74-.49,4.8-1.29Zm-7.38,174.91l1.48,5.29-5.17.92,3.32,2.64-5.17.43-4.43,2.21-1.11-5.29-5.17.86,1.11,5.78-4.8-1.35-3.32,3.08-2.95,3.14,1.84,4.43-4.43,1.78-3.32,3.08,1.48,5.29-2.58,4,4.06,1.78-4.06,1.78,3.69,2.64,5.17.43,4.06,2.64,2.21-4.43,3.69-3.07-3.32,3.57.74,6.15-2.95,3.57-1.11-5.29-5.17.43-2.95-3.57-3.32,2.64-2.95,3.57,1.48-5.29-4.43-1.78-2.58-4,2.21-4-1.85-4.86,4.8-1.78-4.8-1.29,4.06-1.78,3.69-2.21-2.58-4,5.54.43,3.32-3.07,2.21-4.43-2.58-3.57-4.06-2.21,4.06-2.21,1.85-4.43-1.85-5.29-4.43-1.35-2.95,3.57-3.69-3.14,4.06-1.72,2.58-4,2.58,4,4.43.43,3.32,2.64,2.95,4,3.69,2.21-5.17-.92-2.58,4-4.8.92,1.85,4.86,4.43-1.35,2.58,4,1.48-5.29,3.69-2.71-1.48-4.86,3.69,2.21,3.32,3.14,4.8-.92-3.32-3.08-3.32-3.14,4.06,2.21-1.11-5.29,5.54-.86,3.32,3.08-2.58,4Zm63.47,26.57l-3.32,3.08-4.8,1.35-3.69,2.21-5.17-.92-4.43-1.29.74,2.21-2.21,4-4.06,2.21-4.43,1.29,5.54-.43,5.17,1.35-2.21,4.43-4.8.86-4.8,1.78-5.17-.92-4.43-1.29,4.43-1.35,4.8.92-4.06-1.78-5.54-.43-5.17.86-4.43-1.35-4.06-1.72,1.84-4.43-1.48-5.35,2.58,4,4.43-1.35,4.06-2.21-3.32-3.08,5.17.86,2.58,3.57,3.32,3.08,3.69-2.21,1.11-5.29h5.9l4.06-1.78-2.21-4.43-4.43-1.78-3.69-2.21-5.54.49-2.95-3.57-1.84-4.86-2.21-.92-2.58-.43-4.43-1.29-5.17-.92,4.43-1.78,3.69,2.21,4.06,2.21-3.32-2.64.74-6.21,1.85-4.43-4.06,1.78-3.32-2.64-3.32-3.08-2.58-4,2.21-4.86-1.85-4.92-5.17-.86h5.54l2.58,4,1.48,5.29,1.11,5.78,4.8,1.29,4.43,1.35,1.48-5.29,4.43,2.21,4.8.86-2.21,4.43,2.58,4,3.69,2.64,4.8,1.35,3.32,2.64,4.43,1.78h-5.54l-4.06-2.21-3.32-2.71-4.43,1.78-2.95-3.51-2.95-3.57-4.06,1.78,1.48,5.29,3.32,3.14,1.85,4.86h5.53l5.17.86,3.69-2.64,4.43,1.35,3.32,3.08,5.54-.43,4.06-1.78-2.95-3.57-.74-5.72,4.43,1.29,4.06,2.21,1.11-5.72,3.32,3.08,1.11,5.78-5.17.86,4.06,2.21,4.8,1.35h-11.07l1.48,5.29,4.8,1.35-3.69,2.21Zm21.03,313.96l-2.21-4.43-3.32-3.14,3.69-2.21,1.84-3.07.37,6.21-.37,6.64Zm16.97-259.97l-3.32-3.08-2.58-4-2.21-4.43-3.32-2.64-2.58-4.43-3.32-2.64-1.85-4.92-2.95-3.51-4.06-2.64-4.43-1.78-3.69-2.21,4.43,1.78-3.32-2.71,5.17.49,4.06-1.78,2.58-4,4.06-2.21,2.95-3.57,3.32-3.08,3.32.43,3.32,3.14,5.17.86,4.8,1.35,2.58,3.51,4.8,1.78,4.06,1.78,4.8,1.29,4.43,1.78,4.06,2.21,2.58,4,3.32,2.64,1.84,4.86-1.11,5.78-5.17-.86.37,6.64-2.58,3.51-5.17,1.35-4.06-2.21-5.17-.92-5.17.92-2.95,3.51-1.85,4.92-5.17-.92Zm30.26,302.89l-4.06-2.21-4.06-1.78-4.06-2.21-4.06-2.21-3.69-2.21-2.58-2.21-1.11-.43-1.85-3.08,2.95,3.51,4.06,1.78,4.06,2.21,4.8,1.35,4.8.86,3.69,2.21,4.43,1.78.74-6.21,2.95,3.57,2.95,3.07,3.32,3.08,2.58,3.57,4.06.86h1.11l4.43,1.78,4.43,1.35,4.06,2.21,4.8,1.29,3.32,2.71,3.69,2.21,3.32,3.07,4.43,1.35,5.54.43,3.32-2.64-1.48,4.86.37.86,1.48,3.57-.37.86v.92l-1.48,1.72,1.48-2.64-1.11-4.43-3.69-2.64-5.17-.43-4.8-1.78-4.06-1.78-3.69-2.21-4.06-2.21-3.69-2.21-4.43-1.78-3.69-2.21-4.06-2.21-5.17.92-4.06,1.78-2.95-3.57-4.06-2.21-3.69-2.21Zm62.36,51.35l-4.43,1.35-4.43-1.78-3.69-2.21-4.8,1.35-4.06,2.21h-5.54l4.06,2.21-4.43,1.72-2.95,3.57-2.95,3.57-2.58,3.51-4.06,2.21-4.06,1.78h-5.9l-4.43,1.35-4.8,1.29,4.43-1.78,4.43-1.29,5.17-.43,4.43-1.78,3.69-2.64,2.58-3.57,2.58-3.57,3.32-3.07-1.11-5.78,4.06-1.72h5.54l5.17-.92,4.8.92,5.54.43,2.95-3.57v-6.64l-1.48-4.86,1.11-.86,1.11,5.29,1.11,5.29,2.21,4.43-2.58,4Zm29.15-389.24l-4.06,2.71-4.43,1.72-3.69,1.78-4.8,1.78-4.8-1.78-3.32-2.64-4.43,1.35-4.06-1.78-4.8-1.35,3.32-2.64,5.17.43,3.32,3.14,4.8,1.29,4.06-1.78-1.84-4.86-3.32-3.08-3.69-2.21-5.17-1.35-4.43-1.29-4.43-1.78-3.32-2.64-3.69-2.71,4.43-1.29-1.48-5.35-4.43-1.72-1.48-4.92-3.32-3.08-4.43-1.78,5.17,1.35,3.32,2.64,2.58,4.43,4.43,1.35,2.58-3.57-3.32-3.57-2.95-3.08,3.69,2.21,3.32,3.08-2.21-3.94-3.32-3.57,4.43,1.78,2.95,3.51,1.85,4.92,3.32,3.08,2.21-4.43,4.43,1.78,4.8-.92-.37-6.64-3.32-3.08-5.53-.86-3.69-2.21,1.11,5.29-2.95-3.08-3.69-2.71-3.69-2.64-2.58-3.51,4.06.43,5.17.86,4.43,1.78,4.06,2.21,4.8,1.35,3.69,2.21,4.43,1.72,1.48,5.35-1.84,4.43,1.48,5.29,2.21,4,3.32,3.57,2.95,3.08,2.95,3.57,3.32,2.64-.74,5.72Zm57.56,81.49l-1.11,5.78-2.95-3.14-3.69,2.21-4.06,2.21-1.84-4.43-4.8-1.72-4.43-1.35-3.69-2.64-3.32-2.64-3.69-2.71-3.69-2.64-2.95-3.51,4.43,1.29,2.58,4,4.43,2.21,4.43-1.35,4.43,1.78-1.84-4.86,2.21-4.43-4.8-1.78h-5.9l3.69-2.21-2.58-4,5.54.49,4.06-2.21,2.95,3.51,4.8-1.78-4.06,2.71-4.43-1.78,2.58,3.51,1.11,1.35,2.95,2.64,3.32,2.64,3.69,2.71,3.32,2.64,4.43,1.78,2.95,3.51-4.06,2.21Zm16.97-35.42l-3.69-2.21-3.69-2.64-3.69-2.21,1.48-1.35,2.95,3.14,4.8,1.29,3.69,2.71,3.69,2.21-5.54-.92Zm77.12,57.56l2.58,3.57,5.17-.92,1.11-5.72.74,6.21,2.95-3.57,3.32-2.64,1.84-.92,1.48-.86-2.95,3.57-3.32,2.64-2.95,4-.74,5.72,1.85,4.43,1.85,4.86-2.95,3.57-4.43-1.78,4.43-1.78-1.48-4.86-3.32-3.07-2.58-4.43,2.58-3.57-5.54.43-3.32-2.64,3.69-2.21Zm15.5,528.73l-4.43,1.35-2.95,3.51,2.95,3.57-2.21,4.43-3.32,2.64-3.32-2.64-5.17-.92-4.8-.86-4.43-.43,2.58-4,2.58-3.57,4.8-1.29,5.17.43,4.8-1.35,2.58-3.51,4.8-1.35,4.43,1.78-4.06,2.21Zm11.07-286.96l-4.06,1.78-4.06,2.64-3.32,2.71,3.69,2.64-2.95,3.08-3.32,3.14-2.95,3.51-2.58,3.57,2.58,4.43-4.43,1.78.74,6.15-5.17-.86-4.8.86-3.32,3.14-4.8,1.29-4.43-1.29,2.58-3.14,2.95-3.94-2.95-3.57,4.8,1.35,2.21,3.94,4.8-1.29,2.58-4-1.85-4.43,4.06-1.78,3.69-2.64-1.85-5.29,5.17.86,4.43-1.78.37-6.64,3.69-2.21,3.69-2.64,4.06-2.21-1.11-5.29h-3.32l-.37-1.35-.74-.43-1.48-4.86,1.48,1.29.74,4,3.69,1.35h2.21l-.37,6.15Zm104.8-154.98l1.84-4.86,5.17-.86,2.95-1.35,1.48-4,1.11-5.29,4.43-2.21,2.58-3.57-1.48-4.86,2.95,3.14,1.85-4.43,4.06,2.21,5.17-.92,5.17.92,4.06-2.21,4.8,1.72,3.69-2.64,4.43,1.35,2.21-.92,1.84-.86,4.8.86,4.8-1.29,5.17-.43-2.21-4.43,2.21-4,.37,6.21,4.43-1.35,5.54-.43-4.43,1.78-4.8.86-1.11,1.35-1.85,2.21-4.8,1.29-4.43-1.29-5.54-.49-3.32,3.14h-5.9l-5.17.43-4.8,1.35-4.06,1.72-4.06,2.21-3.69,2.71-4.8,1.29-4.8.92-2.95,3.94,4.06,1.78-3.32,3.14-1.85,4.43-4.43,1.72-4.06,1.78,1.11,5.78,5.17.86,2.21,4.43h5.54l3.69-2.21,4.8-1.78,4.06-1.72-3.69,2.64-2.58,3.51-4.43,1.78,1.84,4.43-4.43-1.29-1.11,5.72,2.95,3.14,5.54.43,5.17.43h5.9l1.48.86h-11.07l-4.8,1.35-2.95,3.57h-5.54l-4.43-1.78,4.8,1.29,5.17-.43-2.95-3.51-2.21-4-1.48-5.35-.74-6.15-3.69-2.21-4.8-1.78-2.21-3.57.37-6.21Zm-10.7,64.7l2.58-3.57,2.21-4.43,1.85-4.43,3.69-3.08,3.32-3.14-2.95,3.57-2.95,3.51-1.85,4.92,1.11,5.29-4.8.86-3.69,2.71h-2.21l3.69-2.21Zm-51.66,421.96l-3.32,3.14-5.17-.92-2.21-4-.37-6.64-1.11-5.72-4.06-1.78,1.85-4.86-2.95-3.57,2.21-3.51h5.54l1.11.86,2.58,4-1.84,4.86,1.48,5.29h5.54l1.11,5.78,2.58,3.57-2.95,3.51Zm21.4-408.68l-4.43-1.78-2.95,3.51-3.69,2.71-4.06,1.72-1.85,4.92-1.11,5.72,3.69,2.21-.37,6.64-4.8.92-1.48,5.29,2.95,3.07,1.84,4.92,5.54-.49,5.17.92-4.8.86-5.54-.43-3.69,2.21-5.17.86-3.69,2.71-1.84,3.94-1.48,5.78-2.95,3.07-2.21,4.43-1.85,4.43-1.48,5.35-2.58,3.51-2.95,3.57-2.58,4-1.11,5.72-2.58-3.51,2.95-3.57,2.21-4.43,3.32-3.07,2.95-3.57,1.11-5.29,1.48-5.35,2.95-3.08,2.95-3.57,1.11-5.29,2.21-4.43,3.69-2.21,2.58-4,3.32-3.08-2.95-3.57-1.11-5.72,4.8-1.35,2.95-3.57-2.58-3.94-2.58-4,1.84-4.43,2.95-3.57,4.06-2.21,2.21-4.43,4.06-1.29,5.54.43,4.8-1.35,4.06-1.78-.37.92-3.69,2.64-4.8,1.35Zm190.41,306.83l-4.43,1.78-3.69-2.64-1.48,4.86-5.54.43-4.43,1.78-4.43-1.35-1.48-4.86-2.95,3.57-4.06-2.21-4.06,1.78-2.95-3.14-1.85-4.86-1.84,4.86-.74,6.21-2.58,3.57-1.11,5.72,1.48,4.86,1.48,5.35,2.95,3.51,2.21-3.94,4.8.86,4.43-1.35-.37,6.21,2.21,4,3.69,2.64-4.43,1.78-4.8-1.35-3.69,2.71.37,6.15,2.58-3.94,4.8,1.29,3.69,2.64,2.21,4,4.06,2.21,1.84,4-1.84,4.86-1.11,5.78.74,6.21-.74,5.72-.37,6.64.74,5.78,1.11,5.72,1.11,5.35,1.48,5.29v2.64l.37,4-4.43-1.78,4.06-2.21-4.8,1.35-5.17.43-5.17.92-5.17.86-4.43,1.35-4.8,1.29-4.8,1.35-4.8.86-4.8,1.35-4.8.86-5.17-1.29-4.8-.92-4.8-1.29-5.17-.92-3.69-2.21-3.69-2.21-4.06-2.21-3.69-2.64-3.32-2.64-1.85-4.43-3.69-2.64-4.43-1.35-5.53-.43-5.54-.43-4.06-2.21-3.69-2.71-2.58-3.51-1.11-5.78-1.11-5.72-.37-6.21v-6.64l-.74-6.21,2.58-4,2.58-4,2.58,4,1.48-5.29,2.58-4-1.48-5.29,2.21-4.43,1.48-5.35.37-6.21,2.58-3.51,4.43-1.78,3.69-2.64h5.54l4.43,1.78-1.85-4.43-3.69-2.71-5.17-.86-4.8-.86-3.69-2.21-2.21-4.43-2.95-3.14-2.58-4-1.48-5.29-2.21-4-3.32-3.07-2.58-4-2.58-3.08-3.69-3.14-3.69-2.21-1.84-4.43-2.58-4-3.32-3.08-2.58-3.57-2.95-3.08-1.84-4.86-2.58-4-3.32-2.64.74-6.21-.37-6.64,1.48-4.86,1.84-4.86-2.58,3.51-1.48,4.86v-6.64l-1.11-5.29-2.58-4-2.95-3.51-2.95-3.57-4.06-1.78-4.06-1.78,1.11-5.72,3.32-2.64,2.21-4,4.06-1.78,2.58-4,2.58-4,2.21-4.43.74-5.72-2.58-3.57,4.06,1.78,5.54.43,3.69-2.21,5.17-.43,3.69-3.08,3.32-2.71,4.43,1.35.37-6.64,4.8,1.35,3.32-2.71,2.58-3.94,3.69-2.21,2.21-4.43,4.8,1.29,4.43-1.78,4.43-1.29,3.69-2.64,4.06-1.78,2.95-3.14,4.8-1.29,4.43-1.35,4.06-2.21,4.43-1.78,5.54.92,4.06,1.78,4.06,2.21,4.43,1.72,4.06,1.78,4.43-1.78,3.32-2.64,5.17.92,5.17-.49,4.43,1.78,1.85,4.43-1.48,5.35,1.84,4.86-.37,6.21-1.11,3.51-2.21,4-2.95,3.57-2.58,3.51,2.21,4,4.06,2.21,4.8,1.35-4.43,1.72-5.17-.86-4.8-.86-5.17-.92-5.54.92-5.54.43-3.69-2.64-3.32,3.08-5.17-.86-2.21,3.51-.74,6.21-4.8.86-2.95,3.57,3.69,2.64,3.32,2.64,4.06,2.21-3.69,2.21-5.17.49-3.69-2.71h-5.54l-5.54-.43-4.06,1.78.37,6.21,4.8,1.29,4.8.92,4.06,2.21,1.48,5.29,2.21,4.43,2.21,4,2.95,3.08,2.21,4.43-.74,5.78,4.43,2.21,5.17.43,2.21,4,2.21,4,5.17-.92,4.06,2.21h5.54l4.06,1.78v7.07l-1.85,4.43-2.58,4-1.48,4.86,1.11,5.78,2.21,4.43,1.48,5.29,3.32,3.14,1.48,4.86.37-6.64,1.11-5.29-.37-6.21,2.21-4.43,3.69-2.21,5.17-.43,5.17-.92h5.54l2.95,3.57,1.11,5.29,1.11,5.78,2.21,4,3.69,3.08,4.06,2.21,3.69,2.21,3.32,2.64-.37,6.64Zm19.19-464.52l-5.54-.43-4.8,1.35-2.21,4.43-4.43,1.29h-5.54l-4.06,1.78-4.43,1.78-2.95,3.08-.37-1.72,2.58-4,5.17-.92,1.11-.86,5.17-.86h5.53l1.48-4.92,3.69-2.64,4.8.92,3.69-2.71-1.84-4.43-1.85-4.86-3.32-3.07,3.69,2.64,1.84,4.86,2.95,3.14-.37,6.15Zm19.56-25.65l-.37-1.35-2.21-1.29,1.11-.92-.37-.86,2.21-1.78-2.58-2.64-4.8-.92-3.32-3.07-5.17.86-4.43,1.35,4.06-1.78,4.8-1.29,4.06-2.21,1.11-5.35-4.8-.86-5.54-.43,4.43-.92,4.8,1.35,2.21-4.43,1.48-2.64.74-1.78,4.06-1.35,4.43-1.78.74-6.15-1.85-4.92-3.32-3.08,4.06,2.21,2.21,4.86,1.11,5.78-2.95,3.51-4.8.92-4.43,1.78,1.85,4.86,3.69,2.21,5.17.86-4.8.92-2.95,3.51-3.32,3.14,2.21,3.94,3.69,2.71-1.84.86.37.43-2.21,2.21,1.11,2.21,1.48,1.35,1.85.86-2.95-.86Zm10.33-1.78l-3.69,2.64,3.32,2.64,1.11,5.78-3.69-2.64-1.84-4.86-.37-.49,3.32-3.08,3.69-2.21,2.21,4.43-4.06-2.21Zm117.34,377.74l-3.32,3.07-4.06,1.78-1.11,1.29-5.17.49-2.58,3.94,2.58,3.57-1.48,5.29-1.84-4.43-1.48,4.92-2.58,3.94-3.69,2.71,4.06,2.21,3.69,2.21-2.58,3.94-4.43,1.78-5.54-.43-4.8,1.35-3.32,3.07h-5.9l-5.17-.43-1.48-5.35-3.32-2.64-5.17-.86-3.32,3.08-2.58-3.51-4.43-1.78,2.58,3.51-5.17.92-4.43,1.78-4.43-1.78v-7.07l.74-5.35-3.32-3.07-1.11-5.78,1.48-4.86-1.84-4.86,1.48-4.86,2.21-4.43,1.85-4.92,2.21-3.94,2.21-4.43,1.11-5.78,2.95-3.07,4.06-2.21,5.17.86,5.54.43-2.21,4.86,4.06-2.21.74-6.15.74-2.71-2.21-3.94,4.8-.92,4.06,2.21,3.32,2.64,2.58-3.51-3.32-2.64-2.58-4,4.43-1.78,3.69-2.64v.43l3.69-1.78,3.32,3.14,4.43-1.78-3.69-2.64h5.54l4.43,1.72-2.58,4,4.06,2.64,5.17-.86,1.85-4.43,3.32-3.07,3.69-2.21,1.11,5.72-2.21,4.43-3.32,2.64-2.21,4.43-2.95,3.57-4.8,1.35.74,6.15-.37,6.21,4.8-1.29,1.48,5.29,2.95,3.08,3.32,2.71,2.58,3.51,2.58,4,4.8,1.35-4.06,2.21Zm385.98,66.42l-3.32,3.08-3.32,3.07-2.95,3.14-4.06,1.78h-5.9l-5.17.43-4.8-1.35-4.43-1.78-4.43-1.29-5.54-.43,1.84-4.43,5.17-.49,4.43-2.21,4.8-.86,4.8-.86,5.17-.92h5.54l4.8-1.29h5.17l4.8-.92-2.95,3.57,4.8.43-4.43,1.35Zm23.62-114.27l-1.84,4.43-4.06,2.21-5.54-.43-3.69,2.64-4.43-2.21-4.8,1.35-3.69-2.21-5.17.43-4.06-1.78-4.43-1.35-5.17.92-5.53-.43-4.06-1.78h-5.9l-4.8-1.35-4.8.92-5.54.86-5.17.86-2.95-3.08-2.58,4-4.8.86-5.54.92-2.21,3.94-2.21,4.43-4.06,2.21h-5.54l-.74,6.21-1.11,5.35-4.06,2.21.74,5.72.74,6.21-2.95,3.57-1.11-5.78-3.69-2.21-2.95-3.57-2.58-3.51-4.06-2.64,2.95-3.57,1.85-4.43.74-6.21,4.43-1.78,4.8-1.29.74-5.78h2.95l3.69-2.21,3.69-2.64,2.58-4,4.8-.86,5.17-.92,4.06,1.35,5.54.43,4.8-1.29,5.17-.92,5.17.43,5.17,1.35,2.95,2.64h5.54l4.06,1.78,4.8-1.35,3.69,2.71,4.43-2.21,5.53-.49,5.17-.43,4.8,1.78,4.43,1.35,2.95-3.57,4.8-1.35,5.54.49,4.43-1.35,5.54.43-2.58,4Zm86.72-228.48l-3.32,2.64-4.8,1.35-3.69,2.21-4.06,2.21-4.8,1.29-4.06,1.78-2.95,4-4.43,1.78-2.58,3.51h-1.85l2.21-4,4.43-1.29,3.69-2.64,1.48-1.35,1.48-2.21,4.8-.86,4.06-2.21,3.69-2.71,3.32-3.07,4.43-1.35,3.32-3.07,4.43-1.35,4.06,1.78-3.69,2.21-5.17,1.35Zm37.64,193.91l-3.69,2.71-3.32-2.71-4.43-1.29-3.69-3.14-4.43-1.29-5.17-.92-3.69-2.21-3.69-2.64,4.8-.86,5.54-.43,3.32-3.14-4.06-1.78.74-6.15v-6.64l4.06-2.21,4.06-2.21,4.8-.92,4.06-1.78-2.21-3.94-3.69-2.71-4.06-1.72-4.06-2.21-4.06-2.21h5.9l4.06-1.78,4.06-2.21-3.69,2.64-2.95,3.57,4.06,1.72,3.32,3.14,3.69,2.64,4.43,1.35-3.69,3.08-4.8.86-4.06,1.78-4.43,1.78-3.32,2.64.37,6.21,1.48,5.29,5.54.49-4.06,2.21,2.21,3.94,4.06,1.78,3.69,2.21,5.17.92,4.06,2.21-2.21,3.94Zm166.79,449.45l1.48-4.86,1.11,5.78-2.58-.92Zm16.24-658.43l-4.8.86-4.43,1.78-5.17.92-4.8,1.29-5.17.43-2.58,4,.37,6.21,4.06,2.21,3.32,3.07,1.48,2.71,1.48-.92,4.8,1.35-4.8,1.29,2.58,3.57.74,6.21,5.17.43h-5.54l-1.11,5.78-1.11-.49-1.48-4.86,1.48-5.29-2.58-3.57-2.58-4-1.84-4.43-4.06-2.21-3.32-2.64,1.11-.86,1.11-5.78,3.32-3.51,5.17-.49,4.43-1.29,5.17-.92,5.17-1.29,3.69-2.21,3.69-2.21,2.95-3.57,2.21,4.43-4.43,1.35-3.69,2.64Zm22.88,140.35l-2.58,3.57-3.69,2.64-5.17.92-4.06-2.21-2.58-4-1.84-4.86,2.95-3.14,4.43-1.78,4.8-.86,3.32-3.08h.37l1.48,5.29,2.95,3.07,3.69,2.21-4.06,2.21Zm108.49,437.09l-1.48-5.35,1.48-1.72,2.58,3.51-2.58,3.57Zm67.9-49.63l-4.06-2.21-5.54.49-4.8-.92-4.06-2.21-2.58-4,3.69-2.21-1.85-4.86,4.06-2.21,5.17.43,3.69.49h.37l2.58,3.07,2.58,4,4.06,1.78.74,6.15-4.06,2.21Zm3.69-413.53l-1.11,5.72-3.32,2.64-1.84,4.43-1.85,5.35-4.06,1.78,1.11-5.78v-6.64l1.48-5.29-1.11-5.78,4.06-2.21v-4.43l2.95-2.64,2.58,3.51,2.58,4-1.48,5.35Zm63.84-68.2l.37,6.64-1.48,5.29.37-6.64-1.48-4.86-1.84-4.86-5.17-.92-5.17-.86h5.54l4.06-2.21-2.58-3.57-3.32-3.51,1.84-4.86,2.58-4,1.85-4.43-2.58-4-1.11-5.29,3.32-3.14,2.58-4-1.11-5.72-2.95-3.57.74-6.21-3.32-3.08-2.21-4-1.85-4.43-5.17-.86-5.54.43,3.32,2.64-5.17-1.29-5.54.43-2.95,3.07-2.58,3.57,3.32,3.07,2.95,3.57,5.17.43-1.84,4.86,3.32,3.14-2.21,3.94-3.69,2.71,2.95-3.14-.74-6.21-3.32-3.08-4.8,1.35-5.17-.92h5.54l4.43-1.29-4.8-.92-2.95-3.51-2.21-4.43-4.8-.92-4.06-2.21h5.54l4.8-1.29-3.32-2.71,1.48-4.86,4.43,1.78,4.43,1.35,3.69-1.35,5.17-1.35,3.32-2.64,2.95,3.14,4.8,1.29,2.95,3.57.74,6.21,3.69,2.21-.37,6.64,2.21,4.43,1.11,5.29-.37.86-1.11,4-3.69,2.64,1.11,5.78,2.21,4,1.48,5.29,1.48,4.86-2.21-4.43-4.06,2.21-2.58,3.57,2.58,4,2.95,3.07,1.84,4.43,2.95,3.57,4.43,1.78-5.17.43Zm22.88,37.64h.37l2.95,3.07,2.95,3.57-3.69-2.64-3.32-2.71.74-1.29Zm129.15-92.99l-1.48,5.72-1.48,4.92-.37,6.64-1.85,4.86-2.95,3.07-.74,6.21,1.11,5.29-1.48,5.35-3.32,3.07-2.95,3.14-1.11,5.29-2.95-3.57-3.32-2.64-3.32,3.14-2.58,3.94h5.9l2.58,3.57-2.58,4-4.8.86-4.06,2.21-3.69,2.64-1.85,4.43-4.06,2.21-3.32,3.14-4.06,2.21h-5.9l-4.06,1.78-4.43,1.72-4.06,2.21-3.32,3.14-4.43,1.29-4.8-.86-4.06,1.78-1.11,5.72-1.85,4.92-3.32,2.64-2.95,3.08-5.17,1.35-4.43,1.29-4.8,1.35-5.17.86-4.43,1.35-4.8,1.35-5.54-.49-5.17-.43-4.43-1.78-4.43-1.29-4.06-2.21,4.8-1.35,5.17-.43,4.8-.86,5.9-.49,4.06-1.72h5.54l4.8-1.35,3.69-2.64,4.06-2.21,3.32-2.64,2.95-3.57,2.95-3.57,3.32-2.64,4.43-1.78,4.43-1.29,3.69-2.64,3.32-3.14,2.95-3.51,1.48-5.35,3.32-2.64,4.43-2.21,4.06-1.78,3.69-2.64,1.85-4.43,3.69-2.64,4.06-2.21,3.69-2.21,2.58-4,2.21-4,2.95-3.51,2.21-4.43,2.95-3.14,2.95-4,1.85-4.43,2.58-3.94,2.95-3.57,1.84-4.43v-6.64l3.32-3.07,3.32-2.71.37-.43,4.8-1.29,4.8,1.72-.74,5.35Zm239.49,683.22l3.69-2.64,4.43,1.35.74,5.72-1.11,5.78,4.43-1.78-2.58,4-4.43,1.35-4.06-2.21-2.58-4-.74-3.57,2.21-4Zm-21.03-46.93l2.58-3.51,2.95,3.51,1.48,5.35-2.58,3.94-3.69-1.29,2.95-2.21,1.11-5.78-4.8.92-5.17-.49,5.17-.43Zm-18.82-3.51l-2.58-3.57,4.8-1.35,1.84-4.86,4.43,1.78,3.69,2.21-1.11,5.78-5.17.86-1.85,4.86-4.43,1.35h-5.53l-1.85.86,2.58-3.08,4.06,1.29-1.48-4.43.74.92,2.95,3.08,2.95-3.51-4.06-2.21Zm-9.23,0l4.8-.92,1.48,2.21-5.17.43-2.95,3.14,1.85-4.86Zm-1.11-449.02l-4.43,1.78-3.32,3.08-3.32,2.64-2.21,4.43-4.43,1.35-1.11-5.35,1.11-5.72,3.69-1.78,2.95-3.57,2.95-3.51,3.32-2.64v2.64l.37-.43,2.58,3.51,5.17.92-3.32,2.64Zm352.03,115.13l-3.32,3.51-1.48,4.92-4.06,2.21-4.06-1.78-4.06-2.21,1.11-5.35-2.58-3.51.74-6.21,4.06-1.78h5.9l4.8,1.35,3.32,3.07-.37,5.78Z"/></g></svg>