<?xml version="1.0" encoding="UTF-8"?><svg id="Layer_2" xmlns="http://www.w3.org/2000/svg" viewBox="0 0 221.7 182.77"><defs><style>.cls-1{fill:#00ffc2;stroke:#000;stroke-miterlimit:10;}</style></defs><g id="Layer_24"><g><polygon class="cls-1" points="201.67 89.49 205.73 87.28 205.36 86.85 201.67 89.49"/><polygon class="cls-1" points="204.25 16.43 202.78 21.78 200.93 26.64 202.41 31.5 204.25 27.07 206.1 21.78 210.16 20 211.63 15.14 214.22 10.71 216.06 5.79 218.64 2.28 220.12 .5 203.15 .5 202.41 3.14 206.47 4.93 203.88 8.5 209.05 8.93 206.84 12.92 204.25 16.43"/><polygon class="cls-1" points="192.07 .93 191.66 .5 186.54 .5 192.07 .93"/><polygon class="cls-1" points="189.86 101.48 192.44 97.49 192.07 97.49 189.86 101.48"/><polygon class="cls-1" points="178.79 100.99 184.33 100.99 183.96 100.56 178.79 100.99"/><polygon class="cls-1" points="205.36 54.5 206.84 59.42 208.68 64.28 211.26 67.78 209.42 63.35 207.2 58.93 205.73 53.64 204.62 48.35 203.88 46.56 202.78 43.92 204.25 49.21 205.36 54.5"/><path class="cls-1" d="m80.27,179.84l4.8-1.35,1.84-4.43.74-5.72-.74-5.78,4.06,1.78,1.48,5.29,3.69-3.07-1.84-4.43,5.17.86,3.69-2.21,4.43-1.72.74-6.21,4.43,1.29,2.58-3.94,4.43-1.35,2.21-4.43,1.11-4,3.69-2.64,2.58-3.57,2.58-3.94,3.32-3.14,4.06-2.21,4.06-1.78,5.54-.43,5.17-.43,2.58-4,1.84-4.43,2.95-4,3.32-2.21,3.32-3.07-1.11-5.29,1.11,1.29,3.32,3.14,3.69-2.21,4.43-1.78,4.43-1.35,4.8,1.35,2.58-3.57,2.58-3.51-3.69-2.71-2.58,4h-5.54l-4.06-1.78-2.21-4.43,3.32,3.14,5.17.43,3.32-2.64-.74-5.78-4.43-1.78-3.69-2.21,4.43,1.35,4.43-1.78,4.06,1.78,4.06,2.21,3.69-2.64,3.32-3.14,4.06-1.72.37-6.64-3.69-2.71-2.21,4.43-3.69,2.21,2.21-2.64-1.11-5.72-4.06,2.21-4.8-1.35-4.8.86-1.84-4.86,1.84-4.86-.37,6.64,4.8.86,2.21-3.94,4.43,1.72,1.11-5.72,4.8.86,3.32,3.57-1.84-4.86-1.84-4.92,1.11-6.15-.74-2.21-2.58-3.57h-5.9l-4.8,1.35-1.48-4.92-2.21-4.43-5.17-.43-4.43-1.78-3.69-2.21,4.43,1.78,4.8.92,4.8.86,2.58,4,2.95,3.07,3.32-3.07-2.58-3.57-4.06-2.21-2.95-3.08-2.95-4,3.32,3.08,5.17.92,4.8-1.35-2.21-4-4.8-1.29-2.58-4-3.32-3.07-2.95-3.14-2.58-3.51,3.32,3.08,2.95,3.08,3.32,3.14,2.95,3.07,4.8-.86-.37-6.64-3.69-2.21-3.32-3.14-4.43-1.29-3.27-1.78h-96.94L.5,82.27v99.99h78.84l.92-2.43ZM10.52,116.06l2.58-3.51,1.85-4.43-1.48,4.86-2.95,3.08Z"/><polygon class="cls-1" points="217.17 9.36 219.75 5.36 221.23 .5 219.38 4.93 216.8 8.93 217.17 9.36"/><polygon class="cls-1" points="212.37 84.63 213.48 78.85 212.74 72.7 213.11 79.34 212 84.63 212.37 84.63"/></g></g></svg>