<?xml version="1.0" encoding="UTF-8"?><svg id="Layer_2" xmlns="http://www.w3.org/2000/svg" viewBox="0 0 330.76 264.37"><defs><style>.cls-1{fill:#005add;stroke:#000;stroke-miterlimit:10;}</style></defs><g id="Layer_25"><g><polygon class="cls-1" points="160.49 226.5 160.86 226.93 163.07 223 160.49 226.5"/><polygon class="cls-1" points="206.61 180.93 202.92 183.15 199.23 185.79 193.7 186.22 188.16 186.22 183.74 187.57 178.57 188.44 173.4 188.87 169.71 191.51 166.39 194.22 169.34 197.29 173.77 195.94 178.57 195.08 183.74 193.72 188.53 192.86 193.7 192 198.5 191.08 202.92 189.3 207.35 187.57 211.41 185.79 215.84 184.01 214.73 183.15 209.57 184.01 204.77 185.36 200.34 186.65 204.03 184.44 206.61 180.93"/><path class="cls-1" d="m80.8,79.62l-23.27,23.27,4.43-.37,4.8-1.29,5.17-.49,5.17-.86h5.9l4.43,1.35,3.32,2.64,4.8-.92,2.21-3.94-5.17.43-3.32-3.14-5.17.49,4.43-1.35,5.17-.86,3.69,2.64,4.06-2.21,4.8-.92,4.43-1.72,4.43-1.35,4.43-1.35,3.32-3.07.74-.43-2.21,4-3.69,2.64-4.06,2.21,2.58,4-1.84,4.86-.37,6.21-2.58,3.94-4.8,1.35-3.69,2.21-4.06,2.21-5.17.86-5.54-.43-4.8,1.35-4.43-1.78-4.8-1.35-5.17-.86h-5.54l-5.54.43-4.8,1.35-4.43,1.29-1.85.49-4.43,1.29-4.8.37-11.13,11.13h.07s4.8-1.3,4.8-1.3l5.53.43,5.17-.86h5.53l-1.11-5.78,4.43,1.35.74,6.15-3.69,2.71-2.95,3.51-3.69,2.21-3.69,2.64-3.69,2.21-2.95,1.78-4.06,1.78-4.06,2.21-4.06,2.21-4.43,1.78-4.43,1.29-4.43,1.35-4.43,1.78-.58.23v102.04h96.94l-.79-.43-2.21-4-4.8,1.78-1.48-2.64,1.48-5.35,3.32-2.64,2.21-4.43-1.84,4.86-.37,6.64,3.32,2.64,4.06,2.21,4.43,1.35h5.12l-2.54-2.64-3.32-3.14-.74-6.15,1.48,5.29,4.8,1.35-2.58-4-.74-5.78,2.21-4v-7.07l-2.95-3.08,4.8-1.35,4.43-1.78,2.21-3.94,3.69-2.71,2.21,4.43-3.32,2.71-4.43,1.72-1.84,4.43,2.58,3.57-3.69,2.64,4.43,1.35-3.69,2.64,3.32,2.64,3.69,2.21-4.8,1.35-2.95,3.07,3.32,3.14,2.95,3.08,3.69-2.64-.74,2.64h16.97l1.48-1.78,1.85-4.43.37-.43-2.58-4,1.48-5.29-3.69-2.21-2.21-4-1.48-5.29-2.58-4-1.48-4.86,1.48-4.92-.74,5.78,2.95,3.08,4.06,2.71,3.69,2.21,4.43,1.29,1.84,4.86,2.58-3.94,1.48-5.35,4.8-.86,1.11-5.78,3.69-2.21,1.84-4.86,2.58-3.57.74-6.15,1.48-4.92-2.95-3.51-4.06-2.21v-1.35l3.32-2.64,2.58-4,2.21-4.43.74-6.21-.37,6.64-1.48,4.92,3.32-3.14,3.32-2.64,4.06-2.21,4.06-1.78,4.8-1.29,3.69-2.71,5.54-.43h5.54l3.69-2.21,5.17,1.35,4.8-1.35h5.54l4.8-1.29,1.11-5.35,1.84-4.86,4.8.86-.37,6.64,4.8-1.29,3.32-2.64,3.32-3.14,1.48,5.35,4.43-1.35,4.8-1.35,4.8-.86,2.21-4.43v-1.35l-2.21-4.43-4.8-.86,3.69,2.21,1.84,4.86-4.43,1.78h-5.54l-2.58-4-2.21-4.43-2.21-4-4.06-1.72-1.85-5.35,2.95-3.07,2.58-4-2.58-4,2.21-4.43,2.58-3.51,1.48-5.35,3.69-2.64,1.84-4.43,2.95-4,2.58-3.51,4.43-1.35,2.58,3.57.37-6.21,1.84,4.86,1.48-4.86,4.06,2.21,2.95-3.14,5.17-.86,1.84-4.86,2.58-4,3.32-2.64,3.32,3.08,3.32-3.08,4.43-1.78,4.8-.86,2.21,4.86.74-1.35,3.32-3.07,2.95-3.14,4.43,1.78,4.06-2.21,4.8-1.29.74-5.35,2.21-4.43-1.17-4.19L262.4.68l-2.65,2.21-2.95,3.14-2.58,3.51-3.32,3.14-3.32,2.64-3.21,1.29-63.02,63.02h-100.55Zm57.55,138.03l-4.43,1.35-2.95,3.08,2.58-3.51,4.43-1.78,3.32-2.64-2.95,3.51Z"/><polygon class="cls-1" points="299.23 88.37 301.08 93.23 302.56 87.94 299.23 88.37"/></g></g></svg>