<?xml version="1.0" encoding="UTF-8"?><svg id="Layer_2" xmlns="http://www.w3.org/2000/svg" viewBox="0 0 885.3 675.75"><defs><style>.cls-1{fill:#00ff48;}.cls-1,.cls-2,.cls-3,.cls-4,.cls-5,.cls-6{stroke:#000;stroke-miterlimit:10;}.cls-2{fill:#ecf44a;}.cls-3{fill:#005add;}.cls-4{fill:#ff9d00;}.cls-5{fill:#00ffc2;}.cls-6{fill:#ff4800;}</style></defs><g id="Layer_16"><path class="cls-2" d="m555.04,263.71v-102.04l-3.85,1.55-4.06,1.72-3.69,2.71-3.32,2.64-4.8,1.29-5.54-.43-4.06,1.78-4.8,1.35-4.06-1.78h-5.54l4.06-2.21h-5.54l-3.69-2.21-4.43-2.21-4.43-1.35,2.58-4,3.32-3.07,1.11-4,.37-1.78,2.21-3.94,4.06-1.78,1.84-5.35,2.95-3.07,1.84,4.86,4.43,1.35-2.21,4.43h-5.54l-5.17-.92-3.32,3.14,1.11,5.72,4.8,1.35,4.43-1.35,3.32,2.71,2.58-4.43,3.69-2.21,4.06-2.21,4.8-1.35,2.95-3.07,2.58-2.21,3.32-2.71,4.06-2.21,5.54-.43,2.01.16v-62.59l-1.27-1.35-4.06-2.21-1.84-4.43-3.69-2.64-5.54.43,3.69,2.71,2.95,3.51,2.21,4,1.11,5.29-1.84,4.92-2.95,3.08-2.21,4-2.58,4-.37,6.64v6.64l.37,6.15-2.58,4-4.06,2.21-2.95,3.14-4.43,1.72-2.95.92-1.84-4.86-1.11-5.78-1.11-5.29-.74-5.78-2.21-4.86-3.32-2.64-4.8.86-4.8,1.35-2.95,3.51-2.21,4-4.06,2.64-4.8-1.29-1.84-4.43,1.84-4.92,4.43-1.72,2.58-3.57,2.95-3.57,2.58-3.51.74-6.64-.74-6.21-2.95-3.57,4.06-1.72-2.21-3.57-2.58-4.43-4.43-1.35-4.43-1.72-4.43-1.35-3.32-3.08-4.43-1.78-4.43-1.35-4.06-2.21-5.17.92-2.95,3.94,1.11,5.35-4.06,2.21-3.69,2.21-.37,6.21-1.84,4.86-2.58,3.51,1.48-4.86-2.58,4v-6.64l1.85-4.86-3.69,2.64-2.58,3.57-4.43,1.72-2.58,4-4.06,2.21v6.64l-1.48,5.35-2.21,3.94-.74,5.78-1.11,6.21.37,6.21,1.84,4.86,2.21,4.43,1.84,4.86.37,6.64-.74,6.21-1.48,4.86-2.21,4.43-2.58,3.57-2.21,4.43-2.95,3.51-3.69,2.21-4.06,1.78-4.8,1.35-4.43-1.35-2.95-3.57-1.85-4.86-2.21-4-1.85-4.86.74-6.21.74-6.15-1.84-4.92-.37-3.07-1.11-5.78,1.48-5.72,1.48-4.86,1.85-4.43v-7.13l2.58-3.94,1.11-5.35,1.48-5.29,2.21-4-.74-6.21-4.8.92-2.58,3.94-3.69,2.71v-7.13l3.32-3.07,2.95-3.57,2.21-3.94,2.58-3.57,2.58-4,2.58-4,2.95-3.07,1.84-4.86.74,6.21,3.32-2.71,4.06-1.72-1.48,5.29,4.43-2.21,4.06-1.78,2.58-4.43,5.54-.43,5.17-.43,4.43-1.78,4.43-1.78,4.8,1.35,4.8,1.29,3.32,2.71,4.43-1.78,5.17-.43,5.54.43,5.17.86-1.11-5.72-4.43-1.35-.37-6.64h-5.54l-4.43-1.78-5.54.43-2.58-3.51,1.84-4.86-5.54.43-4.43,1.29-5.17.92-5.54-.43-5.54.86-1.84-.43-4.06,2.21-4.43,1.78-3.32,3.08-5.17-.43-3.69-2.64-4.8,1.29-4.06-2.21-2.95-3.08-2.58-3.57-4.06-2.21-5.17-.86-4.8.86-4.43,1.78-1.48-5.29-2.95-3.14h-5.9l-2.95,3.14-4.8,1.29-3.69,2.64-5.17.92-5.17.43-4.06,2.21-3.69,2.21-4.8,1.78-2.58.86-4.8-1.29h-5.9l1.11-5.35-2.95-3.51-4.06,2.21-4.8.86-4.43,1.78-4.8,1.29-5.17.92-4.06-1.78,2.95-3.08,4.06-2.71,3.69-2.64,3.69-2.64,3.32-2.64,3.32-3.14,2.93-2.72h-70.59l.13.07-4.06,2.21v-2.29h-13.65v342.67h243.85l81.77-81.77ZM287.35,84.81l-4.8-.86.37-.43,4.8.86,3.32,3.08-3.69-2.64Zm28.41,40.28l-.74-6.64h.74v6.64Zm75.28,200.62l-.37-6.64-2.95-3.57.74-5.72-1.48-4.86-2.21-4.43.37-.92h.37l2.21,4.43,1.48,4.86.37,6.21,2.21,4.43-.74,6.21Z"/></g><g id="Layer_17"><polygon class="cls-6" points="181.44 550.68 180.7 549.75 179.23 554.61 181.44 550.68"/><polygon class="cls-6" points="191.77 543.11 191.41 542.68 188.08 545.33 184.39 547.97 181.81 551.54 185.13 548.46 188.82 545.76 191.77 543.11"/><polygon class="cls-6" points="168.53 577.68 168.53 584.32 169.26 590.04 170.74 595.39 172.22 600.25 173.32 605.54 172.59 599.82 171.11 594.47 169.63 589.61 168.9 583.89 168.9 576.75 168.53 577.68"/><polygon class="cls-6" points="176.64 559.04 175.91 558.61 173.69 562.18 171.11 566.18 170 571.89 171.85 567.04 174.06 562.61 176.64 559.04"/><polygon class="cls-6" points="226.09 518.76 223.14 521.89 226.83 519.19 229.41 515.68 229.04 515.25 226.09 518.76"/><path class="cls-6" d="m160.78,670.24l.37-6.21.37-6.64-.74,2.64-.37,6.64v-6.64l-1.84-4.86,2.58-3.57v-6.64l-.37-7.07-.37-6.21,4.06-1.78,2.95-3.08-.74,6.21-1.48,4.86-1.48,5.29-1.11,5.78-.74,5.29-.37,3.14,1.11-5.35,1.11-5.72,1.11-5.35,1.48-5.29,1.85-4.43,2.21-4,1.85-4.86,1.85-4.86.37-6.21-.74-3.07-1.11,2.64-2.21-4.43-.74-5.78-1.84-4.86-1.11-5.29-1.85-4.92,1.85-4.43-.74-6.15-4.06-1.78-2.21-4.43,2.58,3.51,5.54.49,1.84-4.92.37-6.15-2.21-4,4.43.86,2.95-3.08-.37-6.21,5.17.86.74-.43,2.21-3.07-.37-6.21,1.11,1.35,4.06,1.72,1.48-4.86-1.48-5.29,2.58,4,1.85-4.43,4.06,2.64,4.06,1.29-3.32,2.71,3.69-2.21,2.95-3.57,4.8-.86,4.06-2.21,4.06-2.21,2.95-3.14,1.85-4.43,3.69-2.64,1.11-5.29.74-6.21,2.58-.46v-160.88H.5v169.77l159.47,159.47.81-4.49Zm-79.34-157.69l-2.58-.86-3.32-3.07,4.06,2.21,4.06-2.21-2.21,3.94Zm43.54,77.98l-3.69-2.71-1.11-6.15,3.32,3.07,2.21,4.43,1.48,5.29-2.21-3.94Z"/></g><g id="Layer_22"><path class="cls-1" d="m459.3,440.84h.37l-1.76,4.64h15.36v-99.99h-243.85v160.88l2.58-.46-2.58,4,4.43,1.78-2.95,3.07,3.32-2.64,4.06-1.78,4.43-1.72,4.06-2.21,5.17-.49-.74-1.72-1.48-2.21,4.06-1.78-2.58,4,1.84.86,4.43-1.35h11.44l4.43,1.78,4.06,1.78,4.43,1.78,5.17.86,4.8-1.29,1.84-4.43,5.17-.92,5.17.92,2.21,3.94,3.69,2.71,4.06,2.21,1.84,4.86-4.43-1.78,1.48,1.78,4.43,1.78,4.43,1.29,4.8.92,2.58-3.57,4.06-2.21,4.06,2.21,3.32,3.08,1.48-5.29-.74-5.78,4.43,1.78,2.21,4.43,4.06,1.78,4.43,1.78,2.95,3.07-2.21,4.43,1.48-1.78,4.43-1.29,1.11-5.35-3.32-2.64-4.06-2.21-3.69-2.64-2.21-4,2.95-3.51,4.06-1.78v-6.64l-4.43,1.29-3.32,2.71-2.95-3.57,3.32-2.64-5.17.43-4.06,2.21-5.17-.86-2.95-3.57,2.95-3.07v-.49l4.8-1.29,3.32,2.64,4.8.86,4.06,2.21,3.69-2.21,2.58-3.94,5.17.43,4.06-2.21,4.06,2.21,5.54.43,4.8-1.35,4.43,1.35,1.11-6.21,3.32-2.64.37,6.21,1.11,5.72,5.17-.43,2.58-1.85v-42.64h56.54l1.76-4.64Zm-53.51-79.27l-4.8-.86.74-.92,4.8.92,4.06,1.78,3.69,2.64-4.06-1.78-4.43-1.78Z"/><polygon class="cls-1" points="302.48 509.47 301.74 509.04 297.31 510.33 302.48 509.47"/><polygon class="cls-1" points="371.11 497.54 370.74 497.05 370 503.69 371.11 497.54"/></g><g id="Layer_23"><polygon class="cls-4" points="570.74 633.46 572.96 629.46 572.22 629.03 570.01 633.46 567.79 637.45 570.74 633.46"/><polygon class="cls-4" points="413.55 486.9 418.34 485.98 413.55 486.47 408.75 487.76 413.55 486.9"/><polygon class="cls-4" points="453.4 505.9 453.77 505.9 451.55 501.48 453.4 505.9"/><polygon class="cls-4" points="464.1 506.83 467.79 504.18 464.1 506.4 460.04 508.61 464.1 506.83"/><polygon class="cls-4" points="424.25 485.98 423.88 485.55 418.71 485.98 424.25 485.98"/><polygon class="cls-4" points="568.53 557.75 567.79 555.11 566.68 553.32 568.53 557.75"/><path class="cls-4" d="m554.51,635.24l4.43-1.35,5.17-.43h5.9l-.74-2.21,2.21-4.43.74-5.78,2.58-3.94,1.48-4.92.74-6.15.74-6.21.74-5.78-.37-6.64-1.11-5.72-2.21-4-1.84-4.86-1.11-4.43,2.21,4.43-1.84-4.43-1.48-5.35-1.84-4.43,1.11,4-2.21-4.43-1.84-4.43-1.84-4.43-1.85-4.86-1.48-5.35.37-6.64,2.58,4,1.11,5.35v6.64l1.11,2.64-.74-6.21,1.11-5.78-2.21-4.43-2.21-3.94-2.58-4-2.21-4.43-1.84-4.43-1.84-4.86-1.85-4.43-1.84-4.92-1.11-5.29-1.11-5.78-1.11-5.72-1.11-5.35-1.11-5.72v-6.64l2.21-4.43,1.85-4.43-4.06-1.78,4.8.43.74-6.21,1.48-4.86.92-2.43h-94.2l-.08.22,2.21,4.43-2.58-4.43.08-.22h-56.54v42.64l1.11-.79,3.69-2.21-2.58,3.57,4.43-1.35,2.58-4,4.06-1.78-1.85,4.92h1.11l4.06-.92,5.54-.43,3.69-2.64,4.06.43,4.06,2.64-4.8.92,4.43,1.72,4.06,1.78,5.54-.43,2.58,4,3.32,3.08-4.06-2.21,2.95,3.14,3.69,2.64,1.11,5.72,4.43-.86h5.54l4.06-2.21,3.69-2.64,3.69-2.64,2.95-3.14h5.54l3.69,2.21,4.06,2.21,2.95,3.14,2.58,3.94,2.21,4,2.95,3.14,2.58,3.94,2.95,3.57,5.54.43,1.84,4.43,2.21,4.43-.37,6.21-1.11,5.78-1.48,5.29-.74,5.78v6.64l3.69,2.64,1.48-4.86-2.58-4,3.32,3.08,1.48,4.86-2.21,4-3.69,2.64,3.32,3.14,1.84,4.86,1.48,4.86,2.58,4,4.06,2.21-1.84-4.86,4.06,2.21-.37,6.64,3.69,2.21,2.21-1.78-1.11,5.29,1.11,5.35,1.11,5.72,1.11,5.35,5.17.86,4.06,1.78,1.85,4.86,1.84,4.43,2.58,4,2.21,4-4.43-1.35,2.95,3.57Zm-90.04-158.98l-2.21-4.43,2.95,3.08-.74,1.35Z"/></g><g id="Layer_24"><polygon class="cls-5" points="674.43 352.7 678.49 350.49 678.12 350.06 674.43 352.7"/><polygon class="cls-5" points="677.02 279.64 675.54 284.99 673.7 289.85 675.17 294.71 677.02 290.28 678.86 284.99 682.92 283.21 684.4 278.35 686.98 273.92 688.83 269 691.41 265.5 692.89 263.71 675.91 263.71 675.17 266.36 679.23 268.14 676.65 271.71 681.81 272.14 679.6 276.14 677.02 279.64"/><polygon class="cls-5" points="664.84 264.14 664.43 263.71 659.31 263.71 664.84 264.14"/><polygon class="cls-5" points="662.63 364.7 665.21 360.7 664.84 360.7 662.63 364.7"/><polygon class="cls-5" points="651.56 364.21 657.09 364.21 656.72 363.78 651.56 364.21"/><polygon class="cls-5" points="678.12 317.71 679.6 322.63 681.45 327.49 684.03 331 682.18 326.57 679.97 322.14 678.49 316.85 677.39 311.56 676.65 309.78 675.54 307.13 677.02 312.42 678.12 317.71"/><path class="cls-5" d="m553.03,443.05l4.8-1.35,1.84-4.43.74-5.72-.74-5.78,4.06,1.78,1.48,5.29,3.69-3.07-1.84-4.43,5.17.86,3.69-2.21,4.43-1.72.74-6.21,4.43,1.29,2.58-3.94,4.43-1.35,2.21-4.43,1.11-4,3.69-2.64,2.58-3.57,2.58-3.94,3.32-3.14,4.06-2.21,4.06-1.78,5.54-.43,5.17-.43,2.58-4,1.84-4.43,2.95-4,3.32-2.21,3.32-3.07-1.11-5.29,1.11,1.29,3.32,3.14,3.69-2.21,4.43-1.78,4.43-1.35,4.8,1.35,2.58-3.57,2.58-3.51-3.69-2.71-2.58,4h-5.54l-4.06-1.78-2.21-4.43,3.32,3.14,5.17.43,3.32-2.64-.74-5.78-4.43-1.78-3.69-2.21,4.43,1.35,4.43-1.78,4.06,1.78,4.06,2.21,3.69-2.64,3.32-3.14,4.06-1.72.37-6.64-3.69-2.71-2.21,4.43-3.69,2.21,2.21-2.64-1.11-5.72-4.06,2.21-4.8-1.35-4.8.86-1.84-4.86,1.84-4.86-.37,6.64,4.8.86,2.21-3.94,4.43,1.72,1.11-5.72,4.8.86,3.32,3.57-1.84-4.86-1.84-4.92,1.11-6.15-.74-2.21-2.58-3.57h-5.9l-4.8,1.35-1.48-4.92-2.21-4.43-5.17-.43-4.43-1.78-3.69-2.21,4.43,1.78,4.8.92,4.8.86,2.58,4,2.95,3.07,3.32-3.07-2.58-3.57-4.06-2.21-2.95-3.08-2.95-4,3.32,3.08,5.17.92,4.8-1.35-2.21-4-4.8-1.29-2.58-4-3.32-3.07-2.95-3.14-2.58-3.51,3.32,3.08,2.95,3.08,3.32,3.14,2.95,3.07,4.8-.86-.37-6.64-3.69-2.21-3.32-3.14-4.43-1.29-3.27-1.78h-96.94l-81.77,81.77v99.99h78.84l.92-2.43Zm-69.74-63.78l2.58-3.51,1.85-4.43-1.48,4.86-2.95,3.08Z"/><polygon class="cls-5" points="689.93 272.57 692.52 268.57 693.99 263.71 692.15 268.14 689.56 272.14 689.93 272.57"/><polygon class="cls-5" points="685.14 347.85 686.24 342.07 685.5 335.91 685.87 342.56 684.77 347.85 685.14 347.85"/></g><g id="Layer_25"><polygon class="cls-3" points="715.03 226.5 715.39 226.93 717.61 223 715.03 226.5"/><polygon class="cls-3" points="761.15 180.93 757.46 183.15 753.77 185.79 748.24 186.22 742.7 186.22 738.27 187.57 733.11 188.44 727.94 188.87 724.25 191.51 720.93 194.22 723.88 197.29 728.31 195.94 733.11 195.08 738.27 193.72 743.07 192.86 748.24 192 753.03 191.08 757.46 189.3 761.89 187.57 765.95 185.79 770.38 184.01 769.27 183.15 764.1 184.01 759.31 185.36 754.88 186.65 758.57 184.44 761.15 180.93"/><path class="cls-3" d="m635.34,79.62l-23.27,23.27,4.43-.37,4.8-1.29,5.17-.49,5.17-.86h5.9l4.43,1.35,3.32,2.64,4.8-.92,2.21-3.94-5.17.43-3.32-3.14-5.17.49,4.43-1.35,5.17-.86,3.69,2.64,4.06-2.21,4.8-.92,4.43-1.72,4.43-1.35,4.43-1.35,3.32-3.07.74-.43-2.21,4-3.69,2.64-4.06,2.21,2.58,4-1.84,4.86-.37,6.21-2.58,3.94-4.8,1.35-3.69,2.21-4.06,2.21-5.17.86-5.54-.43-4.8,1.35-4.43-1.78-4.8-1.35-5.17-.86h-5.54l-5.54.43-4.8,1.35-4.43,1.29-1.85.49-4.43,1.29-4.8.37-11.13,11.13h.07s4.8-1.3,4.8-1.3l5.53.43,5.17-.86h5.53l-1.11-5.78,4.43,1.35.74,6.15-3.69,2.71-2.95,3.51-3.69,2.21-3.69,2.64-3.69,2.21-2.95,1.78-4.06,1.78-4.06,2.21-4.06,2.21-4.43,1.78-4.43,1.29-4.43,1.35-4.43,1.78-.58.23v102.04h96.94l-.79-.43-2.21-4-4.8,1.78-1.48-2.64,1.48-5.35,3.32-2.64,2.21-4.43-1.84,4.86-.37,6.64,3.32,2.64,4.06,2.21,4.43,1.35h5.12l-2.54-2.64-3.32-3.14-.74-6.15,1.48,5.29,4.8,1.35-2.58-4-.74-5.78,2.21-4v-7.07l-2.95-3.08,4.8-1.35,4.43-1.78,2.21-3.94,3.69-2.71,2.21,4.43-3.32,2.71-4.43,1.72-1.84,4.43,2.58,3.57-3.69,2.64,4.43,1.35-3.69,2.64,3.32,2.64,3.69,2.21-4.8,1.35-2.95,3.07,3.32,3.14,2.95,3.08,3.69-2.64-.74,2.64h16.97l1.48-1.78,1.85-4.43.37-.43-2.58-4,1.48-5.29-3.69-2.21-2.21-4-1.48-5.29-2.58-4-1.48-4.86,1.48-4.92-.74,5.78,2.95,3.08,4.06,2.71,3.69,2.21,4.43,1.29,1.84,4.86,2.58-3.94,1.48-5.35,4.8-.86,1.11-5.78,3.69-2.21,1.84-4.86,2.58-3.57.74-6.15,1.48-4.92-2.95-3.51-4.06-2.21v-1.35l3.32-2.64,2.58-4,2.21-4.43.74-6.21-.37,6.64-1.48,4.92,3.32-3.14,3.32-2.64,4.06-2.21,4.06-1.78,4.8-1.29,3.69-2.71,5.54-.43h5.54l3.69-2.21,5.17,1.35,4.8-1.35h5.54l4.8-1.29,1.11-5.35,1.84-4.86,4.8.86-.37,6.64,4.8-1.29,3.32-2.64,3.32-3.14,1.48,5.35,4.43-1.35,4.8-1.35,4.8-.86,2.21-4.43v-1.35l-2.21-4.43-4.8-.86,3.69,2.21,1.84,4.86-4.43,1.78h-5.54l-2.58-4-2.21-4.43-2.21-4-4.06-1.72-1.85-5.35,2.95-3.07,2.58-4-2.58-4,2.21-4.43,2.58-3.51,1.48-5.35,3.69-2.64,1.84-4.43,2.95-4,2.58-3.51,4.43-1.35,2.58,3.57.37-6.21,1.84,4.86,1.48-4.86,4.06,2.21,2.95-3.14,5.17-.86,1.84-4.86,2.58-4,3.32-2.64,3.32,3.08,3.32-3.08,4.43-1.78,4.8-.86,2.21,4.86.74-1.35,3.32-3.07,2.95-3.14,4.43,1.78,4.06-2.21,4.8-1.29.74-5.35,2.21-4.43-1.17-4.19L816.94.68l-2.65,2.21-2.95,3.14-2.58,3.51-3.32,3.14-3.32,2.64-3.21,1.29-63.02,63.02h-100.55Zm57.55,138.03l-4.43,1.35-2.95,3.08,2.58-3.51,4.43-1.78,3.32-2.64-2.95,3.51Z"/><polygon class="cls-3" points="853.77 88.37 855.62 93.23 857.09 87.94 853.77 88.37"/></g></svg>