<?xml version="1.0" encoding="UTF-8"?><svg id="Layer_2" xmlns="http://www.w3.org/2000/svg" viewBox="0 0 288.09 350.45"><defs><style>.cls-1{fill:#ff5f5f;stroke:#000;stroke-miterlimit:10;}</style></defs><g id="Layer_26"><g><polygon class="cls-1" points="219.68 328.96 214.88 328.1 212.3 331.6 217.09 333.39 220.41 330.74 219.68 328.96"/><polygon class="cls-1" points="211.56 61.92 215.25 59.71 214.88 65.92 217.83 62.84 219.68 57.98 217.83 53.06 213.4 54.85 214.88 49.99 210.82 51.34 213.03 55.77 209.34 57.98 211.56 61.92"/><polygon class="cls-1" points="182.41 96.05 180.56 96.05 175.76 94.7 173.18 91.19 169.49 93.84 173.18 96.48 177.98 97.84 182.41 96.05"/><polygon class="cls-1" points="124.84 190.83 121.52 187.69 120.41 188.12 119.31 193.9 123.37 195.68 124.84 190.83"/><polygon class="cls-1" points="3.07 286.03 .85 289.97 6.39 289.97 11.56 290.46 7.5 292.18 3.07 293.96 1.59 299.31 2.33 298.82 6.76 300.61 11.19 298.82 15.98 297.96 11.93 299.74 9.71 304.17 14.14 302.82 20.04 302.82 17.83 307.25 23.36 306.82 28.9 307.25 32.96 305.46 38.49 305.03 42.92 303.25 46.98 301.53 49.56 297.53 52.52 297.1 52.15 298.82 56.57 297.1 60.26 294.39 65.06 293.53 68.01 290.46 72.81 289.54 77.61 288.24 82.41 289.54 86.46 286.89 91.63 287.75 95.32 285.54 95.69 283.32 97.9 279.39 99.38 274.04 101.22 269.61 103.81 265.61 102.33 260.32 103.07 254.11 102.33 249.25 99.01 246.61 98.27 240.4 95.69 236.83 98.64 233.75 103.07 235.54 106.76 233.32 109.71 229.33 112.29 225.76 114.51 221.82 115.99 226.68 115.99 220.04 112.66 217.39 107.13 216.9 110.45 213.83 107.13 210.75 104.91 206.75 102.7 202.76 97.53 201.9 92.37 200.97 87.57 202.76 82.04 202.76 76.87 203.62 80.19 200.97 76.5 198.76 71.7 197.47 72.07 199.68 68.01 201.4 69.49 206.32 65.43 208.54 67.65 204.11 64.69 200.54 61 202.76 55.47 203.62 50.3 204.11 47.35 207.62 45.87 212.47 41.81 214.69 38.12 216.9 42.18 219.12 46.98 220.04 52.15 220.9 48.46 223.11 44.4 225.33 42.55 230.19 37.76 229.33 32.96 228.46 29.27 230.68 25.95 227.54 20.41 227.54 15.25 227.11 12.29 230.68 7.87 228.9 7.87 229.33 7.13 233.75 10.45 230.68 13.03 234.61 12.29 240.4 17.09 239.54 20.41 242.18 14.88 242.61 12.29 247.04 8.24 248.82 6.02 252.82 11.93 252.82 14.88 256.32 19.67 257.25 24.47 258.11 30.01 257.68 34.07 259.89 29.27 261.18 24.84 262.97 23.36 267.83 21.15 271.82 17.09 274.04 14.14 277.17 18.57 275.82 24.1 275.82 29.64 275.39 34.43 274.47 30.01 275.82 24.47 276.68 18.94 276.68 15.98 280.25 11.56 282.03 14.14 286.03 8.6 285.54 3.07 286.03"/><polygon class="cls-1" points="110.08 141.63 115.25 141.19 111.56 143.41 116.35 144.76 113.4 147.84 109.34 150.05 113.4 151.83 107.87 151.83 108.97 157.62 103.44 158.05 98.64 159.34 103.07 160.69 108.6 160.26 114.14 160.69 108.6 160.69 104.55 162.9 108.6 164.69 114.14 164.69 117.46 161.55 121.52 159.34 124.84 156.69 122.26 160.69 120.41 164.69 116.72 167.33 114.14 170.9 113.77 177.54 112.29 182.83 114.88 186.4 111.93 189.47 110.82 194.76 108.6 198.76 113.77 199.19 115.62 194.33 116.72 189.04 120.41 186.4 117.83 182.4 120.04 177.97 123.73 175.33 127.79 173.54 124.1 176.19 120.41 178.4 123.73 181.48 128.9 181.97 130.38 176.62 133.7 179.76 137.39 181.97 132.59 181.05 131.11 186.4 133.33 190.33 134.07 196.12 131.48 200.11 128.9 203.62 126.32 207.19 124.47 212.04 127.42 215.18 130.75 218.26 128.9 213.4 134.44 213.4 138.13 215.61 142.55 217.39 143.29 212.04 147.35 213.83 152.89 214.26 156.94 212.04 161.74 210.75 165.43 208.54 170.6 209.4 166.54 211.61 163.96 215.61 161.37 219.12 162.85 224.47 165.43 228.46 170.23 229.76 171.71 234.61 175.03 231.97 179.45 233.32 177.61 238.18 173.92 240.4 175.03 245.69 173.92 251.47 176.13 255.46 172.44 252.82 169.49 256.32 164.69 255.46 159.9 256.76 155.1 255.46 151.41 257.68 146.61 258.97 143.29 262.11 140.71 265.61 136.65 267.39 133.33 270.53 135.17 270.53 139.97 269.61 144.03 267.83 148.46 269.18 151.41 272.75 148.46 275.82 152.52 277.6 149.56 280.68 147.35 284.68 143.66 287.32 139.6 289.1 134.44 289.97 130.75 292.67 125.95 293.53 122.63 296.61 124.84 301.04 130.38 301.53 125.58 302.82 130.38 303.74 135.17 301.96 139.6 300.61 144.03 302.39 148.83 303.25 145.14 305.96 151.04 305.96 155.47 304.17 158.05 308.17 162.11 309.89 167.28 310.81 171.34 308.6 175.03 305.96 180.19 305.46 183.88 302.82 187.94 300.61 184.99 304.17 182.04 307.25 177.98 309.46 174.66 312.6 171.71 315.67 166.54 316.53 162.11 315.24 156.21 315.24 151.04 315.67 146.61 317.03 144.4 321.45 138.86 320.96 138.49 325.88 135.91 329.82 132.96 332.96 128.16 334.25 125.58 337.81 122.26 340.89 118.57 343.1 113.77 344.46 111.56 348.45 115.62 346.24 120.41 347.53 124.1 349.75 126.32 345.32 130.75 343.59 133.7 340.46 139.23 340.46 144.4 339.6 149.2 340.89 153.99 341.81 158.05 344.03 161.37 340.89 162.85 335.6 166.17 332.52 170.23 330.31 175.39 329.82 180.93 330.31 184.99 332.03 187.94 335.17 191.26 332.03 196.43 332.96 200.12 330.74 204.55 329.39 210.08 328.96 211.93 324.1 215.62 326.31 220.04 327.6 224.47 326.31 228.9 328.1 234.07 327.17 239.23 326.31 244.4 327.17 249.2 328.1 253.99 327.17 258.42 325.88 262.85 324.1 268.38 324.1 270.97 319.67 275.4 318.75 279.09 316.1 280.19 310.38 276.13 310.81 270.6 311.25 266.17 309.46 261.74 308.17 256.21 308.17 260.64 306.82 265.8 305.96 266.54 299.74 272.07 299.74 275.76 297.1 272.07 294.39 277.61 294.89 280.93 291.75 283.88 288.67 285.73 283.82 287.57 278.9 286.47 273.61 283.51 270.53 279.45 268.32 275.03 266.53 269.86 266.1 264.33 265.61 258.79 265.61 256.21 269.61 250.67 270.04 248.83 265.61 252.52 262.97 253.26 257.25 251.04 253.25 247.35 250.61 243.29 248.39 239.97 245.69 234.44 245.25 228.9 244.82 234.44 244.82 239.97 244.39 243.66 247.04 249.2 246.61 246.24 243.47 242.92 240.4 240.71 235.97 244.03 233.32 239.97 231.54 236.65 228.9 234.07 224.9 230.75 222.25 226.32 220.47 221.52 219.12 218.2 216.47 214.88 213.4 213.03 208.54 210.82 204.97 208.97 200.11 208.24 194.33 205.28 190.83 201.59 188.61 198.27 185.48 194.95 182.4 190.16 181.48 185.73 179.76 181.3 177.97 177.61 180.62 171.71 180.62 166.54 180.19 162.11 178.4 167.65 178.83 171.71 176.62 175.39 174.41 180.93 173.97 184.62 171.76 180.19 169.98 177.24 166.9 172.81 168.69 168.01 169.55 172.07 167.76 176.87 166.47 182.04 165.55 186.1 163.77 188.31 159.83 191.63 156.69 194.58 153.19 196.8 149.19 198.27 143.84 201.59 140.76 204.18 137.2 202.7 134.98 199.01 132.34 193.48 132.34 187.94 132.34 182.04 132.34 176.5 132.34 170.97 131.91 165.8 131.48 161.37 132.77 156.58 134.12 151.41 134.55 146.98 135.91 149.56 132.34 144.4 132.77 148.46 131.05 153.62 130.12 156.58 127.05 151.04 126.62 154.36 123.48 158.05 120.84 162.11 118.62 165.43 115.98 169.86 114.63 173.18 111.55 173.55 104.91 167.65 104.91 163.22 106.2 157.68 106.2 152.52 107.12 147.35 107.55 142.18 108.41 136.65 107.98 131.85 107.12 127.79 105.34 127.42 106.2 126.69 111.98 124.1 115.98 119.31 117.27 120.04 123.05 123.37 126.13 118.2 125.27 122.26 127.48 117.46 126.13 114.14 129.26 109.71 130.56 111.19 135.91 107.13 138.12 110.08 141.63"/><polygon class="cls-1" points="86.46 3.49 83.51 2.14 84.62 5.71 88.68 7.92 86.46 3.49"/><polygon class="cls-1" points="82.04 1.71 83.51 2.14 83.14 .85 82.04 1.71"/><polygon class="cls-1" points="80.19 3.49 76.5 1.28 75.76 2.14 77.98 6.14 81.67 8.35 87.2 9.27 84.62 5.71 84.25 5.71 80.19 3.49"/><polygon class="cls-1" points="135.91 229.76 134.07 234.61 138.86 233.32 141.82 230.19 142.92 224.9 142.92 224.47 138.49 226.25 135.91 229.76"/><polygon class="cls-1" points="74.66 135.91 78.72 133.69 77.24 133.26 72.07 132.34 69.12 135.48 74.66 135.91"/><polygon class="cls-1" points="72.44 8.35 76.5 5.71 70.97 5.71 72.44 8.35"/><polygon class="cls-1" points="70.23 143.84 73.18 147.41 75.39 142.98 74.66 142.55 70.23 143.84"/><polygon class="cls-1" points="87.2 22.07 82.77 20.35 84.62 25.2 89.05 26.99 86.1 22.99 87.2 22.07"/><polygon class="cls-1" points="101.22 141.63 100.86 135.48 100.12 134.12 96.43 131.48 95.32 137.2 89.79 137.2 86.1 139.9 91.63 139.9 93.84 144.33 97.53 146.98 102.33 147.84 107.13 146.55 104.55 150.48 108.6 148.27 110.45 143.84 104.91 143.84 101.22 141.63"/><polygon class="cls-1" points="91.63 112.41 87.2 113.77 84.62 117.76 79.45 118.19 78.35 123.91 82.04 127.05 77.24 128.34 81.67 130.12 85.36 127.91 89.05 125.27 92.74 122.62 95.69 119.48 97.53 115.06 100.49 111.55 96.06 110.2 91.63 112.41"/><polygon class="cls-1" points="109.34 170.41 112.29 167.33 108.6 165.55 104.18 163.77 100.49 161.55 96.43 163.34 100.12 165.55 102.7 169.55 99.01 171.76 104.18 170.9 109.34 170.41"/><polygon class="cls-1" points="93.48 184.18 92 189.04 96.43 188.12 100.12 190.33 102.7 186.83 100.86 181.97 97.9 182.83 93.48 184.18"/><polygon class="cls-1" points="138.13 253.68 139.6 258.97 143.29 261.18 146.61 258.54 150.3 255.89 145.87 254.54 141.82 252.82 138.13 253.68"/></g></g></svg>